<?xml version="1.0" standalone="no"?>
<!DOCTYPE svg PUBLIC "-//W3C//DTD SVG 1.1//EN" "http://www.w3.org/Graphics/SVG/1.1/DTD/svg11.dtd" >
<svg xmlns="http://www.w3.org/2000/svg" xmlns:xlink="http://www.w3.org/1999/xlink" version="1.1">
<metadata>
Created by FontForge 20200314 at Wed Nov 18 18:39:56 2020
 By User Azfonts
Copyright 2014/19 AlfaType Fonts
</metadata>
<defs>
<font id="BiancoSans-ExtraBold" horiz-adv-x="0" >
  <font-face 
    font-family="Bianco Sans ExtraBold"
    font-weight="800"
    font-stretch="normal"
    units-per-em="2048"
    panose-1="2 0 9 0 0 0 0 0 0 0"
    ascent="1638"
    descent="-410"
    x-height="1079"
    cap-height="1450"
    bbox="-1282 -657 2478 1968"
    underline-thickness="102"
    underline-position="-255"
    unicode-range="U+0020-FB02"
  />
<missing-glyph horiz-adv-x="485" 
 />
    <glyph glyph-name="fi" unicode="fi" horiz-adv-x="1417" 
d="M1278 0h-317v842h-394v-842h-319v842h-170v237h170v152q0 185 173.5 293.5t459.5 113.5q184 0 397 -59v-246q-242 64 -397 64q-163 0 -238.5 -60.5t-75.5 -154.5v-103h711v-1079z" />
    <glyph glyph-name="fl" unicode="fl" horiz-adv-x="1501" 
d="M1346 0h-318v1303q-20 26 -25 32t-25 23.5t-38 22.5t-51.5 10.5t-77.5 5.5q-110 0 -177 -53t-67 -152v-113h273v-237h-273v-842h-317v842h-172v237h172v105q0 114 45.5 202t127 142t187.5 81t232 27q230 0 504 -88v-1548z" />
    <glyph glyph-name="T_h" unicode="Th" horiz-adv-x="2490" 
d="M2355 0h-317v588q-2 52 -6.5 87t-16.5 70.5t-32 56t-54 33.5t-82 13q-195 0 -205 -240v-608h-317v1157h-494v-1157h-317v1157h-399v293h1527v-535q124 193 308 193q119 0 199.5 -35t125 -105.5t62.5 -161t18 -218.5v-588z" />
    <glyph glyph-name="f_t" unicode="ft" horiz-adv-x="1677" 
d="M1321 0q-153 0 -241.5 74t-88.5 231v537h-424v-842h-319v842h-170v237h170v142q0 84 29.5 154.5t80.5 120.5t119 85t144.5 51.5t158.5 16.5q77 0 151.5 -16t143.5 -50.5t121 -83.5t83.5 -121.5t31.5 -158.5v-140h254v-235h-254v-467q0 -82 25.5 -108.5t86.5 -26.5
q59 0 107 41l57 -201q-95 -82 -266 -82zM991 1079v138q0 89 -61.5 137.5t-149.5 48.5q-91 0 -152 -49t-61 -146v-129h424z" />
    <glyph glyph-name="ff" unicode="ff" horiz-adv-x="1865" 
d="M1278 0h-317v842h-394v-842h-319v842h-170v237h170v133q0 107 64.5 184t167.5 113.5t231 36.5q208 -3 338 -86q74 87 189.5 131.5t256.5 44.5q105 -5 161.5 -14.5t139.5 -42.5v-246q-149 64 -270 64q-117 0 -182.5 -58.5t-65.5 -156.5v-103h231v-237h-231v-842zM961 1079
v111q0 44 -33 73t-75 39.5t-89 10.5q-98 0 -147.5 -34.5t-49.5 -88.5v-111h394z" />
    <glyph glyph-name="ffi" unicode="ffi" horiz-adv-x="2129" 
d="M1991 0h-320v842h-393v-842h-317v842h-394v-842h-319v842h-170v237h170v133q0 85 42 151t113.5 105t157.5 58.5t182 19.5q193 0 334 -69q85 77 217.5 119t292.5 42q193 0 404 -59v-246q-139 64 -355 64q-91 0 -159 -15t-105 -36.5t-59.5 -52t-28.5 -55t-6 -52.5v-107h713
v-1079zM961 1079v92q0 63 -50 105.5t-147 42.5q-110 0 -152 -45q-45 -45 -45 -103v-92h394z" />
    <glyph glyph-name="ffl" unicode="ffl" horiz-adv-x="2211" 
d="M2056 0h-317v1335q-79 58 -195 58q-120 0 -193 -42.5t-73 -123.5v-148h268v-237h-268v-842h-317v842h-394v-842h-319v842h-170v237h170v133q0 115 83 196.5t216 115.5q91 22 196 22q178 0 320 -65q81 84 207.5 118.5t300.5 36.5q252 0 485 -75v-1561zM961 1079v140
q0 47 -51.5 72.5t-125.5 25.5h-16q-92 0 -146.5 -34t-54.5 -93v-111h394z" />
    <glyph glyph-name="t_t" unicode="tt" horiz-adv-x="1734" 
d="M1378 0q-155 0 -242 73.5t-87 231.5v539h-455v-467q0 -82 26 -108.5t87 -26.5q60 0 108 41l57 -201q-95 -82 -266 -82q-156 0 -243 73.5t-87 231.5v539h-198v235h198v371h318v-371h455v371h317v-371h256v-235h-256v-467q0 -82 26 -108.5t87 -26.5q60 0 108 41l58 -201
q-47 -41 -118.5 -61.5t-148.5 -20.5z" />
    <glyph glyph-name=".notdef" horiz-adv-x="485" 
 />
    <glyph glyph-name=".null" 
 />
    <glyph glyph-name="nonmarkingreturn" horiz-adv-x="682" 
 />
    <glyph glyph-name="space" unicode=" " horiz-adv-x="499" 
 />
    <glyph glyph-name="exclam" unicode="!" horiz-adv-x="696" 
d="M436 442h-176q-16 162 -92 1008h360zM346 0q-68 0 -114 46t-46 114q0 70 46 118t114 48t116 -48t48 -118q0 -68 -48.5 -114t-115.5 -46z" />
    <glyph glyph-name="quotedbl" unicode="&#x22;" horiz-adv-x="983" 
d="M389 913h-174l-41 310v227h256v-227zM768 913h-174l-41 310v227h256v-227z" />
    <glyph glyph-name="numbersign" unicode="#" horiz-adv-x="2144" 
d="M1239 -82h-248q127 393 131 404h-342q-4 -11 -131 -404h-248q127 393 131 404h-407l72 221h407l119 368h-410l74 222h408l123 376h247l-123 -376h342l123 376h248l-123 -376h387l-73 -222h-385l-119 -368h387l-72 -221h-387q-4 -11 -131 -404zM1194 543l119 368h-342
l-119 -368h342z" />
    <glyph glyph-name="dollar" unicode="$" horiz-adv-x="1374" 
d="M901 -203h-174v185l-45 -2l-45 2v-185h-174v221q-80 28 -145.5 83t-102.5 128q-40 78 -43 187h299q0 -87 64.5 -139t146.5 -52t142.5 46.5t60.5 134.5q-3 67 -48.5 107t-134.5 73q-139 49 -165 57q-204 62 -291 203q-51 74 -51 207q0 152 75 245q78 96 193 142v215h174
v-178q6 2 22 2h43q8 -2 25 -2v178h174v-221q116 -51 188 -145.5t72 -233.5h-305q-3 79 -56 118t-124 39t-123.5 -38t-52.5 -103q2 -43 15 -70t44 -47q20 -14 44 -25.5t58 -24t57.5 -20.5t71.5 -22.5t70 -21.5q199 -63 293 -211q51 -80 51 -223q0 -77 -22 -134.5t-66 -113.5
q-80 -98 -215 -144v-217z" />
    <glyph glyph-name="percent" unicode="%" horiz-adv-x="1923" 
d="M483 717q-66 0 -124 24.5t-104 72t-72.5 125t-26.5 175.5q0 161 89 269t236 108q150 0 244 -103t94 -284q0 -177 -97 -282t-239 -105zM682 -53h-242l803 1544h238zM487 885q64 0 96.5 53t32.5 172q0 209 -129 209q-27 0 -47 -8.5t-39.5 -31t-30 -69t-10.5 -114.5
q0 -211 127 -211zM1434 -53q-66 0 -124 24.5t-104 72t-73 125t-27 175.5q0 161 89.5 269t236.5 108q150 0 243.5 -103t93.5 -284q0 -177 -96.5 -282t-238.5 -105zM1438 117q64 0 96.5 51.5t32.5 171.5q0 209 -129 209q-27 0 -47 -8.5t-39.5 -31t-30 -69t-10.5 -114.5
q0 -107 31 -158t96 -51z" />
    <glyph glyph-name="ampersand" unicode="&#x26;" horiz-adv-x="1687" 
d="M670 -33h-23q-217 0 -355 105.5t-138 283.5q2 111 30.5 183t92.5 132t192 138q-141 168 -141 317q0 85 34 142q48 83 155 135.5t249 52.5q107 0 197.5 -36t149 -109.5t58.5 -171.5q0 -91 -32.5 -161.5t-89 -124t-156.5 -118.5l194 -227q123 204 142 407l207 -198
q-32 -215 -164 -406q49 -55 282 -311h-378q-12 11 -52 61q-21 21 -51 64q-88 -70 -193.5 -112.5t-209.5 -45.5zM719 924q76 41 114.5 78.5t38.5 89.5q0 68 -31.5 101.5t-84.5 33.5q-62 0 -95.5 -36.5t-33.5 -90.5q0 -47 21 -83.5t71 -92.5zM645 225q131 0 250 103
q-215 252 -233 272q-68 -40 -117 -84q-62 -56 -62 -143q0 -63 43.5 -105.5t118.5 -42.5z" />
    <glyph glyph-name="quotesingle" unicode="'" horiz-adv-x="612" 
d="M397 913h-184l-41 310v227h266v-227z" />
    <glyph glyph-name="parenleft" unicode="(" horiz-adv-x="813" 
d="M707 -195q-195 53 -326 192t-197 331q-65 189 -65 397q0 118 21.5 233t68 226t114 201.5t166.5 158.5t218 98v-149q-103 -48 -178.5 -166t-111.5 -266t-36 -309q0 -199 37 -346q35 -156 110.5 -276t178.5 -171v-154z" />
    <glyph glyph-name="parenright" unicode=")" horiz-adv-x="813" 
d="M106 -195v154q106 53 181.5 175t111 274t35.5 319q0 121 -20 237.5t-58.5 221t-103 186t-146.5 121.5v149q193 -48 324 -187t199 -333q65 -189 65 -397q0 -119 -21.5 -234.5t-68 -226t-114 -201t-166.5 -159t-218 -99.5z" />
    <glyph glyph-name="asterisk" unicode="*" horiz-adv-x="960" 
d="M600 856l-123 195l-117 -195l-145 107l147 170q-137 31 -219 45l60 180l207 -88l-21 221h182l-24 -217l213 84l57 -180q-45 -8 -225 -45l156 -170z" />
    <glyph glyph-name="plus" unicode="+" horiz-adv-x="1286" 
d="M756 238h-228v372h-368v226h368v370h228v-370h370v-226h-370v-372z" />
    <glyph glyph-name="comma" unicode="," horiz-adv-x="681" 
d="M190 -236h-12v105q53 3 105 31q46 27 49 100q-62 6 -104 51.5t-42 108.5q0 69 46.5 117.5t113.5 48.5q69 0 117.5 -47.5t48.5 -118.5v-19q0 -92 -29.5 -166.5t-77 -119t-103 -68t-112.5 -23.5z" />
    <glyph glyph-name="hyphenminus" unicode="-" horiz-adv-x="1034" 
d="M881 422h-727v246h727v-246z" />
    <glyph glyph-name="period" unicode="." horiz-adv-x="679" 
d="M338 0q-68 0 -114 46t-46 114q0 70 46 118t114 48q67 0 116.5 -47.5t49.5 -118.5q0 -69 -49.5 -114.5t-116.5 -45.5z" />
    <glyph glyph-name="slash" unicode="/" horiz-adv-x="770" 
d="M283 -25h-220l426 1516h218z" />
    <glyph glyph-name="zero" unicode="0" horiz-adv-x="1378" 
d="M690 -29q-115 0 -209.5 40t-159 109.5t-108.5 165.5t-64 206t-20 233q0 121 19.5 229t62.5 205t107 167.5t159.5 111.5t212.5 41q114 0 208 -40t158 -109.5t108.5 -165.5t64.5 -206t20 -233q0 -118 -18.5 -224.5t-61 -204.5t-105.5 -169t-159 -113.5t-215 -42.5zM690 244
q62 0 105 35.5t66 103.5t32.5 150t9.5 192q0 108 -8.5 187.5t-30.5 149.5t-66 107t-108 37q-63 0 -106.5 -35.5t-66.5 -103.5t-32.5 -150t-9.5 -192q0 -105 8 -183t30 -150t66.5 -110t110.5 -38z" />
    <glyph glyph-name="one" unicode="1" horiz-adv-x="1067" 
d="M963 0h-832v264h256v877l-256 -144v289l297 164h279v-1186h256v-264z" />
    <glyph glyph-name="two" unicode="2" horiz-adv-x="1220" 
d="M1092 0h-967l2 164q0 307 311 536l150 113q84 62 124.5 114.5t41.5 116.5q0 73 -46 111.5t-110 38.5q-67 -3 -113.5 -48.5t-46.5 -129.5h-299q0 114 41 204t110 145t153.5 83.5t177.5 30.5q130 0 243 -61.5t174 -176.5q40 -81 43 -203q0 -227 -280 -436
q-175 -125 -258 -213q-49 -51 -58 -113h607v-276z" />
    <glyph glyph-name="three" unicode="3" horiz-adv-x="1282" 
d="M637 -23q-98 0 -191.5 29.5t-169 84t-121.5 141t-46 190.5v14h327q4 -68 40.5 -115t94.5 -61q30 -10 60 -10q132 3 180 115q10 22 10 61q-3 84 -28 119q-41 54 -114.5 75t-178.5 21v225q53 0 102 8.5t94.5 27.5t73 55t27.5 85q0 83 -52 123q-53 41 -116 41
q-69 0 -119 -42t-53 -120h-314q3 108 45 192.5t112 136t156.5 78t184.5 28.5q86 0 174.5 -26.5t151.5 -72.5q154 -113 159 -311q0 -110 -53 -188t-151 -115q116 -46 177.5 -143t61.5 -215q-3 -72 -15 -116.5t-44 -96.5q-71 -108 -197.5 -163t-267.5 -55z" />
    <glyph glyph-name="four" unicode="4" horiz-adv-x="1445" 
d="M1114 0h-319v297h-695v160l629 993h385v-897h225v-256h-225v-297zM795 553v502l-291 -502h291z" />
    <glyph glyph-name="five" unicode="5" horiz-adv-x="1292" 
d="M657 -16q-170 3 -295 71t-190 193q-43 82 -43 186h315q10 -92 67 -136t136 -46q74 0 132 57t67 160l2 41q0 64 -19 113t-50 76.5t-67 41t-75 13.5q-55 0 -105 -22.5t-77 -61.5l-303 -4l53 784h880v-256h-624l-17 -279q45 36 115.5 57t147.5 21q336 -7 438 -284
q31 -85 31 -193q-3 -93 -14 -149.5t-42 -116.5q-64 -130 -191 -198t-272 -68z" />
    <glyph glyph-name="six" unicode="6" horiz-adv-x="1302" 
d="M672 -29q-181 0 -309.5 92t-184.5 259q-39 104 -39 243q0 141 2 213q0 389 146 557q130 144 372 144q112 0 203.5 -36.5t148.5 -98t88 -139t31 -161.5h-311q-3 73 -46.5 111.5t-117.5 38.5q-105 0 -145 -76q-43 -76 -43 -198v-86q100 100 262 100q207 0 324 -108.5
t129 -295.5l2 -53q0 -99 -33 -188.5t-95 -161t-161.5 -114t-222.5 -42.5zM659 236q99 0 152 69t53 170q0 88 -54 155.5t-151 67.5q-100 0 -148 -64t-48 -159q0 -44 10 -84t31.5 -76t61 -57.5t93.5 -21.5z" />
    <glyph glyph-name="seven" unicode="7" horiz-adv-x="1159" 
d="M571 0h-329l481 1182h-619v268h945v-268z" />
    <glyph glyph-name="eight" unicode="8" horiz-adv-x="1310" 
d="M655 -23q-78 0 -151 14.5t-143.5 48t-123 83.5t-84.5 126.5t-32 170.5q0 108 51 207t176 157q-87 45 -136.5 119.5t-49.5 175.5q0 84 32 153.5t83 114t117 75.5t131.5 44t129.5 13q65 0 131 -13t131.5 -43.5t116 -75t82 -114t31.5 -154.5q0 -203 -189 -295
q120 -58 176 -155t56 -209q0 -94 -32.5 -171t-85.5 -126.5t-123.5 -83t-144 -48t-149.5 -14.5zM655 891q185 0 185 162q0 71 -55.5 113t-129.5 42t-129 -42t-55 -113q0 -162 184 -162zM655 240q89 0 151 52.5t62 141.5q0 75 -54.5 137t-158.5 62q-100 0 -157.5 -60.5
t-57.5 -138.5q0 -89 64 -141.5t151 -52.5z" />
    <glyph glyph-name="nine" unicode="9" horiz-adv-x="1290" 
d="M631 -29q-208 0 -339.5 112.5t-131.5 307.5h311q7 -119 107 -141q38 -14 73 -14q84 0 133.5 72t49.5 196v108q-39 -52 -105.5 -79t-136.5 -27q-141 0 -253 64t-173 182q-19 36 -28.5 72t-12 61.5t-4.5 81.5q0 141 58 256.5t172.5 185.5t266.5 70q112 0 201.5 -31
t149.5 -85.5t98 -119t59 -141.5q25 -109 25 -207q0 -299 -16 -428q-14 -91 -35.5 -162t-60.5 -136t-92.5 -107t-133.5 -66.5t-182 -24.5zM631 741q101 0 148.5 64.5t47.5 161.5q0 45 -11.5 85.5t-34 76t-63 56.5t-93.5 21q-91 0 -144 -68t-53 -165q0 -93 51.5 -162.5
t151.5 -69.5z" />
    <glyph glyph-name="colon" unicode=":" horiz-adv-x="649" 
d="M324 752q-68 0 -115 45.5t-47 113.5q0 70 47 118t115 48t115.5 -48t47.5 -118q0 -68 -48 -113.5t-115 -45.5zM324 0q-68 0 -115 46t-47 114q0 70 47 118t115 48t115.5 -48t47.5 -118q0 -68 -48 -114t-115 -46z" />
    <glyph glyph-name="semicolon" unicode=";" horiz-adv-x="655" 
d="M330 752q-68 0 -115 45.5t-47 113.5q0 70 47 118t115 48t116 -48t48 -118q0 -68 -48.5 -113.5t-115.5 -45.5zM174 -236h-12v105q68 8 102 31q45 29 51 100q-64 6 -105.5 51.5t-41.5 108.5q0 70 46 118t116 48q69 0 116.5 -47t47.5 -119v-19q0 -90 -29.5 -164.5
t-76.5 -119.5t-102.5 -69t-111.5 -24z" />
    <glyph glyph-name="less" unicode="&#x3c;" horiz-adv-x="1316" 
d="M1124 225l-970 416v168l970 410v-242l-618 -252q113 -48 618 -256v-244z" />
    <glyph glyph-name="equal" unicode="=" horiz-adv-x="1433" 
d="M1200 834h-967v215h967v-215zM1200 399h-967v213h967v-213z" />
    <glyph glyph-name="greater" unicode="&#x3e;" horiz-adv-x="1316" 
d="M193 225v244l618 256l-618 252v242l970 -410v-168z" />
    <glyph glyph-name="question" unicode="?" horiz-adv-x="1189" 
d="M694 446h-252q-2 23 -2 64q0 200 138 328l77 69q49 45 71.5 82t23.5 96q0 68 -49.5 108t-116.5 40q-111 0 -156 -90q-12 -24 -12 -60v-12h-289q0 95 39 173.5t103.5 129t146.5 78t170 27.5q86 0 164 -21.5t142 -62.5t106 -108.5t51 -153.5q4 -40 4 -60q0 -58 -16.5 -108
t-48.5 -91t-61 -70t-71 -66.5t-63 -59.5q-99 -106 -99 -219v-13zM573 0q-67 0 -113 46t-46 114q0 70 45.5 118t113.5 48q67 0 116.5 -47.5t49.5 -118.5q0 -69 -49.5 -114.5t-116.5 -45.5z" />
    <glyph glyph-name="at" unicode="@" horiz-adv-x="2023" 
d="M1049 -365h-23q-129 0 -254 38.5t-235 115.5t-194 182.5t-132.5 248.5t-48.5 304q0 142 40 276.5t116 246t179 195t236.5 130.5t280.5 47q156 0 292 -47.5t237 -131.5t173.5 -196.5t109 -245t36.5 -274.5q0 -84 -15.5 -168.5t-48.5 -162.5t-79 -138.5t-112 -96.5
t-143 -36q-86 1 -149.5 57.5t-87.5 143.5q-96 -113 -264 -113q-142 0 -248.5 89.5t-106.5 238.5q0 98 48.5 172t126.5 110.5t171 36.5q143 0 238 -82v82q0 90 -50 140t-128 53q-54 0 -104.5 -29t-82.5 -78l-163 109q68 93 163 139.5t195 46.5q105 0 192.5 -46t142 -136
t54.5 -207v-336q0 -174 62 -174q39 4 71 71t47 152t15 160q0 208 -91.5 369.5t-250.5 238.5q-110 52 -250 52q-108 0 -204 -35.5t-167 -98t-123 -145t-78 -179.5t-26 -200q0 -184 76.5 -336t214 -240.5t307.5 -88.5q145 0 229 37l78 -207q-131 -51 -272 -54zM1004 195
q92 0 136 39.5t44 93.5q0 23 -8 45t-26.5 45t-56 37t-89.5 14q-83 0 -130 -39t-47 -92q2 -59 47.5 -101t129.5 -42z" />
    <glyph glyph-name="A" unicode="A" horiz-adv-x="1622" 
d="M1522 0h-365l-100 301h-500l-98 -301h-359l521 1450h378zM963 586l-158 471l-154 -471h312z" />
    <glyph glyph-name="B" unicode="B" horiz-adv-x="1441" 
d="M817 0h-622v1450h587q97 0 176.5 -24t130 -63t85 -90t49 -102t14.5 -102q-3 -217 -186 -309q78 -22 134 -62.5t85 -91.5t42 -101.5t13 -105.5q0 -158 -104 -262q-137 -137 -404 -137zM705 852q92 0 131 45q36 42 36 88q0 150 -167 150h-168v-283h168zM766 301
q89 0 133.5 48.5t44.5 115.5q0 64 -53 112t-146 48h-208v-324h229z" />
    <glyph glyph-name="C" unicode="C" horiz-adv-x="1492" 
d="M836 -29q-217 0 -379.5 102t-245 271.5t-82.5 380.5q0 216 87 388t245.5 269t361.5 97q96 0 178 -19.5t146 -56.5t111.5 -77.5t93.5 -94.5l-230 -225q-62 87 -130.5 128.5t-155.5 41.5q-112 0 -195 -65t-122.5 -165.5t-39.5 -220.5q0 -71 14.5 -137.5t44.5 -123.5
t72 -99.5t100 -66.5t126 -24q51 0 101.5 16t109.5 64.5t100 126.5l246 -209q-97 -142 -238.5 -221.5t-318.5 -79.5z" />
    <glyph glyph-name="D" unicode="D" horiz-adv-x="1593" 
d="M717 0h-522v1450h522q156 0 281 -36.5t211 -102t144 -158t84.5 -202t26.5 -236.5q0 -114 -23.5 -215.5t-79 -194.5t-139.5 -159.5t-213 -106t-292 -39.5zM748 301q90 0 163 35.5t118 95.5t69 133.5t24 153.5q0 59 -13 116.5t-42.5 112t-72 96t-106.5 66.5t-140 25h-211
v-834h211z" />
    <glyph glyph-name="E" unicode="E" horiz-adv-x="1269" 
d="M1122 0h-927v1450h927v-295h-585v-252h503v-317h-503v-271h585v-315z" />
    <glyph glyph-name="F" unicode="F" horiz-adv-x="1243" 
d="M537 0h-342v1450h927v-295h-585v-252h503v-317h-503v-586z" />
    <glyph glyph-name="G" unicode="G" horiz-adv-x="1632" 
d="M840 -29q-200 0 -362.5 96t-256.5 269t-94 389q0 153 54 291t149 240t233 162.5t297 60.5q168 0 309 -63t242 -179l-205 -219q-45 69 -137 123q-109 51 -197 51q-78 0 -144 -27t-112 -72t-77.5 -105.5t-46.5 -127t-15 -135.5q0 -209 97.5 -338t277.5 -129q59 0 112.5 18
t99.5 54.5t76 100.5t36 147h-441v272h772q4 -39 4 -113q0 -126 -27 -240t-82.5 -210t-134 -166.5t-188 -110t-239.5 -39.5z" />
    <glyph glyph-name="H" unicode="H" horiz-adv-x="1554" 
d="M1360 0h-342v586h-481v-586h-342v1450h342v-547h481v547h342v-1450z" />
    <glyph glyph-name="I" unicode="I" horiz-adv-x="731" 
d="M537 0h-342v1450h342v-1450z" />
    <glyph glyph-name="J" unicode="J" horiz-adv-x="1312" 
d="M629 -31q-70 0 -140 17t-139.5 56.5t-122 97t-85.5 147.5t-33 200h354q0 -235 170 -235q64 0 101 32t49 80.5t12 122.5v963h342v-963q0 -109 -30 -198t-79 -147.5t-115.5 -98.5t-137.5 -57t-146 -17z" />
    <glyph glyph-name="K" unicode="K" horiz-adv-x="1439" 
d="M1339 0h-389l-49 100l-237 469l-127 -178v-391h-342v1450h342v-535l362 535h397l-419 -586l399 -743z" />
    <glyph glyph-name="L" unicode="L" horiz-adv-x="1257" 
d="M1143 0h-948v1450h342v-1135h606v-315z" />
    <glyph glyph-name="M" unicode="M" horiz-adv-x="1783" 
d="M1589 0h-342v821l-321 -737h-66l-323 735v-819h-342v1450h389l307 -711l311 711h387v-1450z" />
    <glyph glyph-name="N" unicode="N" horiz-adv-x="1609" 
d="M1415 0h-375l-503 864v-864h-342v1450h376l502 -872v872h342v-1450z" />
    <glyph glyph-name="O" unicode="O" horiz-adv-x="1679" 
d="M840 -29q-154 0 -288.5 61.5t-227 165t-145 241t-52.5 286.5q0 205 92 377.5t256 274.5t365 102q153 0 286.5 -60t226 -161.5t146 -240t53.5 -292.5q0 -156 -54.5 -295.5t-148 -240t-226.5 -159.5t-283 -59zM840 276q88 0 162 38t121.5 101.5t73.5 143.5t26 166
q0 85 -26 165t-73 143.5t-121 102t-163 38.5q-114 0 -202.5 -64t-133.5 -165.5t-45 -219.5t45 -219.5t133.5 -165.5t202.5 -64z" />
    <glyph glyph-name="P" unicode="P" horiz-adv-x="1368" 
d="M537 0h-342v1450h553q128 0 226 -39t157 -107.5t88.5 -156.5t29.5 -193q0 -88 -30 -167.5t-90 -145t-161 -104.5t-231 -39h-200v-498zM709 793q61 0 102 29t55.5 63.5t14.5 68.5q0 81 -42.5 131t-129.5 50h-172v-342h172z" />
    <glyph glyph-name="Q" unicode="Q" horiz-adv-x="1734" 
d="M1640 -29h-409l-72 76q-143 -76 -319 -76q-154 0 -288.5 61.5t-227 165t-145 241t-52.5 286.5q0 205 92 377.5t256 274.5t365 102q153 0 286.5 -60t226 -161.5t146 -240t53.5 -292.5q0 -282 -168 -494zM840 276q43 0 90 13l-381 401h387l219 -225q68 120 68 260
q0 85 -26 165t-73 143.5t-121 102t-163 38.5q-114 0 -202.5 -64t-133.5 -165.5t-45 -219.5t45 -219.5t133.5 -165.5t202.5 -64z" />
    <glyph glyph-name="R" unicode="R" horiz-adv-x="1441" 
d="M1329 0h-393l-283 516h-116v-516h-342v1450h596q127 0 224.5 -37t157 -104t89.5 -154t30 -192q0 -142 -76.5 -255.5t-232.5 -160.5zM752 811q47 0 82 15t53.5 38.5t27.5 48.5t9 50q0 82 -43 127t-129 45h-215v-324h215z" />
    <glyph glyph-name="S" unicode="S" horiz-adv-x="1302" 
d="M637 -23q-210 0 -357 123t-153 320h322q0 -82 60 -131t136 -49q83 0 136 41.5t53 119.5t-54 115q-34 24 -86 47t-89.5 35.5t-119.5 38.5q-199 62 -286 201q-52 76 -52 206q0 106 42 191t112.5 137t157.5 79.5t182 27.5q136 0 247.5 -51.5t179 -151.5t67.5 -229h-328
q-3 72 -52 109.5t-116 37.5q-70 0 -117 -37t-47 -100q2 -41 15 -64t47 -43q57 -33 131 -53l168 -51q196 -62 292 -213q50 -86 50 -225q0 -132 -73 -231.5t-194.5 -149.5t-273.5 -50z" />
    <glyph glyph-name="T" unicode="T" horiz-adv-x="1368" 
d="M856 0h-342v1135h-399v315h1138v-315h-397v-1135z" />
    <glyph glyph-name="U" unicode="U" horiz-adv-x="1509" 
d="M756 -29q-89 0 -172 19.5t-158.5 63t-131.5 106t-89 155t-33 203.5v932h342v-848q0 -319 242 -319q241 0 241 319v848h340v-932q0 -164 -74.5 -289t-206.5 -191.5t-300 -66.5z" />
    <glyph glyph-name="V" unicode="V" horiz-adv-x="1507" 
d="M926 0h-344l-430 1294l-50 156h353q69 -241 101.5 -354t44.5 -154.5t52 -175.5t101 -342l260 899l39 127h352l-51 -160z" />
    <glyph glyph-name="W" unicode="W" horiz-adv-x="2156" 
d="M1612 0h-330l-205 784l-203 -784h-329l-443 1450h351l247 -870l205 870h346l201 -866l252 866h350z" />
    <glyph glyph-name="X" unicode="X" horiz-adv-x="1445" 
d="M1348 0h-367q-75 130 -101.5 177.5t-58.5 105.5t-98 174l-260 -457h-365q114 205 439 780q-226 398 -379 670h370l193 -348q179 321 194 348h375q-50 -88 -383 -672z" />
    <glyph glyph-name="Y" unicode="Y" horiz-adv-x="1325" 
d="M834 0h-342v659l-394 791h365l201 -473l198 473h365l-393 -791v-659z" />
    <glyph glyph-name="Z" unicode="Z" horiz-adv-x="1277" 
d="M1141 0h-1006v164l549 971h-549v315h1006v-186l-539 -949h539v-315z" />
    <glyph glyph-name="bracketleft" unicode="[" horiz-adv-x="765" 
d="M657 -455h-471v1966h471v-194h-217v-1575h217v-197z" />
    <glyph glyph-name="backslash" unicode="\" horiz-adv-x="770" 
d="M707 -25h-218l-426 1516h220z" />
    <glyph glyph-name="bracketright" unicode="]" horiz-adv-x="765" 
d="M580 -455h-471v197h217v1575h-217v194h471v-1966z" />
    <glyph glyph-name="asciicircum" unicode="^" horiz-adv-x="1181" 
d="M1036 690h-256l-190 471l-187 -471h-258l355 801h182z" />
    <glyph glyph-name="underscore" unicode="_" horiz-adv-x="1499" 
d="M1346 -455h-1192v224h1192v-224z" />
    <glyph glyph-name="grave" unicode="`" horiz-adv-x="610" 
d="M502 1255h-201l-221 342h330z" />
    <glyph glyph-name="a" unicode="a" horiz-adv-x="1339" 
d="M1092 -20h-15q-101 0 -168 40t-88 121q-49 -72 -133 -116.5t-182 -44.5q-203 0 -313.5 100.5t-110.5 251.5q0 141 104.5 226t307.5 85q49 0 83 -1.5t68 -6.5t48 -8t57 -14t61 -15v68q0 95 -63 150.5t-156 55.5l-47 -4q-70 -12 -121 -55q-25 -15 -49 -55l-199 157
q67 96 181 147.5t251 51.5q101 0 193 -27t165.5 -78t117.5 -132.5t44 -182.5v-424q0 -77 62 -77q46 0 115 53v-170q-15 -26 -72 -62q-52 -31 -141 -34zM604 190q96 0 149.5 35t57.5 117v96q-100 29 -207 29q-99 0 -148.5 -37t-49.5 -98q0 -65 51.5 -103.5t146.5 -38.5z" />
    <glyph glyph-name="b" unicode="b" horiz-adv-x="1351" 
d="M793 -14q-220 0 -320 223v-209h-317v1450h317v-565q102 223 320 223q115 0 204 -44.5t143.5 -122.5t82.5 -178t28 -216q0 -117 -28 -217t-83 -177.5t-144 -122t-203 -44.5zM696 248q102 0 168.5 79.5t69.5 217.5q0 121 -62.5 211t-164.5 90q-55 -1 -92.5 -19t-71.5 -57
q-56 -59 -70 -170v-115q9 -83 52 -145.5t114 -83.5q40 -8 57 -8z" />
    <glyph glyph-name="c" unicode="c" horiz-adv-x="1146" 
d="M645 -10q-169 0 -296 77t-191 203t-64 279q0 110 36.5 210t104 178.5t174 124.5t236.5 46q259 0 406 -188l-213 -175q-37 54 -77.5 78.5t-101.5 24.5q-116 0 -176.5 -84t-60.5 -215q0 -133 61.5 -216t175.5 -83q124 0 201 131l221 -168q-80 -109 -185.5 -166t-250.5 -57z
" />
    <glyph glyph-name="d" unicode="d" horiz-adv-x="1382" 
d="M573 -14q-118 0 -210.5 45t-149 123t-85 178t-28.5 215q0 116 29 216t85.5 178t148.5 122.5t210 44.5q231 0 336 -236v578h318v-1450h-318v219q-104 -233 -336 -233zM666 248q111 0 177 85.5t66 215.5q0 127 -64 212t-171 85q-110 0 -177 -84.5t-67 -210.5q0 -79 26 -147
t81 -112t129 -44z" />
    <glyph glyph-name="e" unicode="e" horiz-adv-x="1214" 
d="M618 -14q-128 0 -228.5 43.5t-163.5 120.5t-95.5 178t-32.5 219q0 119 30.5 219t92 177.5t162.5 121t233 43.5q157 0 271.5 -67t171.5 -178.5t57 -252.5q0 -42 -4 -96h-700q0 -70 18 -130.5t65.5 -105.5t118.5 -45q120 0 162 76l21 41h309q-15 -68 -50 -129.5t-92 -115.5
t-146.5 -86.5t-199.5 -32.5zM815 678q-2 40 -13.5 76.5t-33.5 71t-62 55t-92 20.5q-57 0 -101 -36t-66 -84.5t-27 -102.5h395z" />
    <glyph glyph-name="f" unicode="f" horiz-adv-x="874" 
d="M567 0h-319v842h-170v237h170v244q0 64 21.5 117t58 89t86 60.5t103.5 36t112 12.5q95 0 168 -18v-238q-65 17 -97 17q-133 0 -133 -156v-164h230v-237h-230v-842z" />
    <glyph glyph-name="g" unicode="g" horiz-adv-x="1384" 
d="M612 -444q-95 3 -151 11.5t-123 33.5q-102 39 -152 94l95 229q51 -61 137 -99t174 -38q62 0 116.5 15.5t100.5 47.5t73 89.5t27 134.5v145q-48 -108 -133 -170.5t-203 -62.5q-117 0 -209 44.5t-149 122.5t-86 178t-29 216q0 118 28.5 217.5t84.5 177.5t148.5 122
t211.5 44q233 0 336 -236v207h320v-968q0 -301 -223 -447q-165 -108 -394 -108zM666 248q111 0 177 85.5t66 215.5q0 127 -64 212t-171 85q-110 0 -177 -84.5t-67 -210.5q0 -79 26 -147t81 -112t129 -44z" />
    <glyph glyph-name="h" unicode="h" horiz-adv-x="1320" 
d="M1186 0h-318v588q0 64 -7 107.5t-27 80t-58.5 54.5t-97.5 18q-104 0 -154.5 -64.5t-50.5 -175.5v-608h-317v1450h317v-535q60 93 133.5 143t173.5 50q96 0 166.5 -23.5t116.5 -66t73.5 -109t38.5 -143.5t11 -178v-588z" />
    <glyph glyph-name="i" unicode="i" horiz-adv-x="628" 
d="M311 1188q-72 0 -122 44.5t-50 110.5t50 113t122 47q73 0 125.5 -47t52.5 -113t-52.5 -110.5t-125.5 -44.5zM473 0h-317v1079h317v-1079z" />
    <glyph glyph-name="j" unicode="j" horiz-adv-x="630" 
d="M315 1188q-72 0 -122 44.5t-50 110.5t50 113t122 47q74 0 126.5 -47t52.5 -113t-53 -110.5t-126 -44.5zM-37 -453v285q29 0 51.5 1.5t41.5 7t32.5 10.5t24.5 17t18 21t12 28t7.5 33t3.5 41.5t1.5 47t0.5 55.5v985h319v-1126q0 -406 -512 -406z" />
    <glyph glyph-name="k" unicode="k" horiz-adv-x="1337" 
d="M1276 0h-363q-71 120 -101 171.5t-42.5 73.5l-50 88t-90.5 159l-156 -164v-328h-317v1450h317v-737q36 40 77.5 86t54 59.5t29.5 33t30 34.5t29.5 33.5t52.5 61t75 87.5h389l-358 -381q92 -157 147 -253t70 -122t60 -102.5t147 -249.5z" />
    <glyph glyph-name="l" unicode="l" horiz-adv-x="628" 
d="M473 0h-317v1450l317 137v-1587z" />
    <glyph glyph-name="m" unicode="m" horiz-adv-x="1996" 
d="M1860 0h-314v588q0 66 -6.5 109t-25 80t-55.5 54t-95 17q-197 0 -197 -250v-598h-313v588q0 66 -6.5 109t-25 80t-55.5 54t-95 17q-102 0 -149.5 -63.5t-47.5 -176.5v-608h-319v1079h319v-164q120 193 307 193q150 0 235 -60t120 -180q137 240 338 240q93 0 161 -24
t111 -66t68.5 -108.5t35 -143t9.5 -178.5v-588z" />
    <glyph glyph-name="n" unicode="n" horiz-adv-x="1325" 
d="M1188 0h-320v588q0 67 -7.5 111.5t-27 80t-57.5 52t-96 16.5q-105 0 -155 -64t-50 -176v-608h-319v1079h319v-164q120 193 318 193q95 0 164.5 -23.5t113.5 -65.5t70.5 -108.5t36.5 -143t10 -179.5v-588z" />
    <glyph glyph-name="o" unicode="o" horiz-adv-x="1327" 
d="M664 -14q-169 0 -300 75.5t-200.5 202.5t-69.5 283q0 157 69 284t200 202t301 75q133 0 242 -45t180 -122.5t109 -178.5t38 -215q0 -156 -67 -282.5t-198 -202.5t-304 -76zM664 248q112 0 180.5 86t68.5 213q0 128 -68 214.5t-181 86.5q-112 0 -181 -87t-69 -214t69 -213
t181 -86z" />
    <glyph glyph-name="p" unicode="p" horiz-adv-x="1349" 
d="M473 -371h-317v1450h317v-194q102 223 320 223q92 0 168 -29.5t129 -81t89 -123t53 -153.5t17 -174t-17 -174.5t-53.5 -153.5t-89.5 -122.5t-128.5 -81t-167.5 -29.5q-220 0 -320 223v-580zM696 248q103 0 168 80t68 217q0 121 -62.5 211t-164.5 90q-158 -6 -213 -164
q-15 -59 -19 -86v-98q10 -90 50 -156t116 -86q40 -8 57 -8z" />
    <glyph glyph-name="q" unicode="q" horiz-adv-x="1368" 
d="M1212 -373h-317v623q-96 -264 -336 -264q-115 0 -204 44.5t-144 122.5t-83 178t-28 216q0 117 28.5 217t83.5 177.5t144 122t203 44.5q125 0 208.5 -71.5t127.5 -194.5v235h317v-1450zM657 248q92 7 157.5 83.5t68.5 215.5q0 62 -14.5 118t-54.5 106t-101 67q-40 8 -60 8
q-104 0 -166 -77.5t-65 -217.5q0 -76 24.5 -143.5t76.5 -113.5t122 -46h12z" />
    <glyph glyph-name="r" unicode="r" horiz-adv-x="978" 
d="M475 0h-319v1079h319v-170q41 88 111 143.5t162 55.5q73 0 106 -33q36 -36 45 -65l-39 -275q-26 47 -65.5 72.5t-108.5 26.5q-98 0 -154.5 -70.5t-56.5 -155.5v-608z" />
    <glyph glyph-name="s" unicode="s" horiz-adv-x="1126" 
d="M557 -20q-142 0 -254.5 48.5t-171.5 147.5q-41 65 -41 156h309q3 -65 47.5 -98.5t110.5 -36.5q68 0 117 32.5t49 89.5q0 48 -45 68q-34 16 -64 26t-48 15t-65.5 16t-80.5 19q-177 41 -260 158q-45 60 -45 165q0 103 65 179t163.5 111.5t213.5 35.5q85 0 162 -19
t141.5 -56t102.5 -100.5t38 -145.5h-303q-3 60 -41.5 84t-105.5 26q-55 0 -96 -28t-41 -76q0 -47 47 -68q55 -28 114 -41l150 -37q184 -42 266 -153q45 -62 45 -170q0 -103 -69.5 -184t-178 -122.5t-231.5 -41.5z" />
    <glyph glyph-name="t" unicode="t" horiz-adv-x="962" 
d="M606 0q-156 0 -243 73.5t-87 231.5v539h-198v235h198v371h318v-371h256v-235h-256v-467q0 -82 26 -108.5t87 -26.5q60 0 108 41l57 -201q-95 -82 -266 -82z" />
    <glyph glyph-name="u" unicode="u" horiz-adv-x="1323" 
d="M532 -29q-95 0 -164.5 23.5t-113.5 65.5t-70.5 109t-36.5 143.5t-10 179.5v587h318v-587q0 -64 7 -107t26.5 -80.5t58 -55.5t98.5 -18q195 0 205 238v610h317v-1079h-317v174q-48 -89 -130 -146t-188 -57z" />
    <glyph glyph-name="v" unicode="v" horiz-adv-x="1288" 
d="M817 0h-344l-407 1079h340l239 -741q178 547 240 741h340l-95 -237z" />
    <glyph glyph-name="w" unicode="w" horiz-adv-x="1910" 
d="M1485 0h-316l-213 670l-215 -670h-315l-358 1079h319l213 -717l217 717h277l219 -719l211 719h319z" />
    <glyph glyph-name="x" unicode="x" horiz-adv-x="1257" 
d="M1194 0h-354l-211 346q-115 -193 -211 -346h-355l365 569l-326 510h357q17 -28 36.5 -59t24.5 -39.5t14.5 -24.5t11 -18t10.5 -17.5t15 -26.5t22.5 -39.5t35.5 -61.5q19 33 35.5 61.5t22.5 39.5t15 26.5t10.5 17.5t11 18t14.5 24.5t24.5 39.5t36.5 59h356l-326 -510
q350 -546 365 -569z" />
    <glyph glyph-name="y" unicode="y" horiz-adv-x="1290" 
d="M123 -469v272l65 -2q72 0 119.5 11t80.5 38t52.5 59.5t42.5 88.5q-215 555 -417 1081h346q49 -153 65.5 -204t35.5 -107t25.5 -75t37.5 -108.5t71 -205.5l230 700h348l-92 -254l-334 -882q-33 -88 -72.5 -154.5t-88.5 -111.5t-101 -74t-120.5 -44.5t-136 -21.5t-157.5 -6
z" />
    <glyph glyph-name="z" unicode="z" horiz-adv-x="1124" 
d="M1016 0h-907v233l501 609h-501v237h907v-227l-490 -614h490v-238z" />
    <glyph glyph-name="braceleft" unicode="{" horiz-adv-x="872" 
d="M758 -430h-68q-175 0 -264 52t-109 167q-18 105 -18 260q0 171 -13 239.5t-57 108.5q-55 49 -135 52v163q43 0 73.5 9.5t51.5 24.5t34.5 45.5t20.5 60.5t11.5 83.5t6.5 99.5t6 123t9 142q4 77 23 130.5t48 85t79.5 48.5t102 22t130.5 5h68v-246q-44 0 -66.5 -1t-48 -7
t-36 -17t-20.5 -32.5t-13 -52t-3 -76.5q0 -127 -4.5 -207.5t-8.5 -102t-13 -55.5q-16 -54 -49 -91t-107 -73q76 -34 112 -71.5t53 -111t17 -212.5v-196q0 -35 6.5 -58t18 -37t36.5 -21t52 -9t74 -2v-242z" />
    <glyph glyph-name="bar" unicode="|" horiz-adv-x="696" 
d="M463 -430h-230v1921h230v-1921z" />
    <glyph glyph-name="braceright" unicode="}" horiz-adv-x="872" 
d="M219 -430h-104v242q48 0 73.5 2t51 10t36.5 24.5t18 44.5t7 72v170q0 136 15 208t52 113t115 74q-48 22 -77.5 43.5t-48 52.5t-27.5 62t-19 86q-10 51 -10 285q0 47 -2.5 77t-13 52t-20.5 32.5t-36 16.5t-47.5 7t-66.5 1v246h67q54 0 92 -2t80 -9t70.5 -19.5t56 -34
t44 -52.5t27.5 -74.5t13 -99.5q6 -81 11 -178.5t7.5 -146t9.5 -100.5t21 -81t39 -49q39 -33 125 -33v-163q-117 -6 -170 -97q-21 -35 -28 -102.5t-7 -200.5q0 -109 -4 -168.5t-22.5 -129t-55.5 -102.5t-104 -56t-168 -23z" />
    <glyph glyph-name="asciitilde" unicode="~" horiz-adv-x="1443" 
d="M209 528v260q109 121 278 121q60 0 129.5 -21t121.5 -46.5t117.5 -46.5t119.5 -21q66 0 135 38.5t123 98.5v-266q-66 -61 -129.5 -88t-147.5 -27q-59 0 -126.5 21t-119 46t-117 46t-122.5 21q-69 0 -125.5 -29.5t-136.5 -106.5z" />
    <glyph glyph-name="exclamdown" unicode="&#xa1;" horiz-adv-x="696" 
d="M350 754q-68 0 -116 48t-48 118q0 68 48.5 113.5t115.5 45.5q68 0 114 -46t46 -113q0 -70 -46 -118t-114 -48zM528 -371h-360l92 1008h176q16 -162 92 -1008z" />
    <glyph glyph-name="cent" unicode="&#xa2;" horiz-adv-x="1308" 
d="M829 -371h-184v367q-146 14 -255.5 95t-164.5 200t-55 258q0 141 55.5 261t165 199.5t254.5 92.5v348h184v-352q175 -28 297 -178l-176 -175q-60 75 -121 91v-576q87 25 144 121l184 -168q-67 -90 -145.5 -142.5t-182.5 -70.5v-371zM645 279v536q-73 -30 -110 -101
t-37 -165t37 -167.5t110 -102.5z" />
    <glyph glyph-name="sterling" unicode="&#xa3;" horiz-adv-x="1376" 
d="M856 0h-489q-8 147 -10 189t-5.5 93t-5 66t-8 102.5t-14.5 208.5h-160v191h147l-16 260q0 150 106.5 237t274.5 93q145 0 261 -71t150 -200l-202 -82q-21 38 -60.5 60t-81.5 22q-129 -10 -129 -135v-14l15 -170h243v-191h-227l29 -366h211q63 0 89.5 38.5t26.5 96.5
q0 27 -2 41l201 -70q12 -67 12 -120q0 -157 -112 -230q-78 -49 -244 -49z" />
    <glyph glyph-name="currency" unicode="&#xa4;" horiz-adv-x="1335" 
d="M1042 236l-137 139q-109 -74 -237 -74q-132 0 -238 74l-139 -139l-115 118l139 135q-71 109 -71 236t71 236l-139 137l115 119l139 -140q110 72 238 72q127 0 237 -72l137 140l117 -119l-139 -137q72 -116 72 -236t-72 -236l139 -135zM666 522q84 0 144 61t60 142
q0 86 -61.5 145.5t-142.5 59.5q-84 0 -143.5 -61t-59.5 -144t60.5 -143t142.5 -60z" />
    <glyph glyph-name="yen" unicode="&#xa5;" horiz-adv-x="1435" 
d="M877 0h-318v371h-323v215h323v78l-35 69h-288v215h180l-250 502h340l213 -489q127 300 211 489h340q-21 -45 -45.5 -95.5t-33.5 -69.5t-21 -44.5t-17 -35t-13.5 -26t-17.5 -34.5t-21 -41.5t-33 -65.5t-46 -90h180v-215h-291l-34 -69v-78h325v-215h-325v-371z" />
    <glyph glyph-name="brokenbar" unicode="&#xa6;" horiz-adv-x="677" 
d="M444 700h-211v791h211v-791zM444 -430h-211v790h211v-790z" />
    <glyph glyph-name="section" unicode="&#xa7;" horiz-adv-x="1374" 
d="M696 -225h-20q-117 0 -225.5 43t-178.5 123q-48 54 -77 135l-25 137h299q0 -87 64.5 -138.5t146.5 -51.5t142.5 46.5t60.5 133.5q-3 69 -54 108q-34 24 -85.5 46.5t-89.5 35.5t-119 39q-75 23 -132 52.5t-107 75.5t-76.5 113t-26.5 154q0 123 63 207q-63 82 -63 221
q0 133 67.5 231.5t176 146.5t241.5 48q97 0 184.5 -28.5t160.5 -91t110 -152.5l26 -152h-305q-3 79 -56 118.5t-124 39.5t-123.5 -38t-52.5 -103q2 -41 14.5 -66.5t44.5 -46.5q53 -35 133 -59l168 -51q76 -24 132 -53.5t107 -77.5t78 -121t27 -168q0 -107 -63 -197
q33 -57 47 -100q16 -62 16 -131q0 -76 -26.5 -143.5t-72 -116.5t-101 -83.5t-119.5 -54.5q-88 -27 -187 -30zM874 592q9 21 9 57q-2 34 -16 61t-33.5 45.5t-53.5 35t-64 27t-77 24.5q-62 14 -127 43q-16 -26 -16 -56q3 -42 10.5 -63.5t30.5 -40.5q30 -30 86 -50.5
t131.5 -41.5t119.5 -41z" />
    <glyph glyph-name="dieresis" unicode="&#xa8;" horiz-adv-x="907" 
d="M254 1309q-58 0 -97.5 39t-39.5 100q0 58 39.5 98.5t97.5 40.5q60 0 100.5 -40.5t40.5 -98.5q0 -60 -40.5 -99.5t-100.5 -39.5zM651 1309q-60 0 -98.5 38.5t-38.5 98.5q0 58 38.5 99.5t98.5 41.5t100 -40.5t40 -100.5t-40 -98.5t-100 -38.5z" />
    <glyph glyph-name="copyright" unicode="&#xa9;" horiz-adv-x="1286" 
d="M643 516q-135 0 -244.5 68.5t-168 179.5t-58.5 240q0 202 136.5 344.5t334.5 142.5q136 0 245 -68t167.5 -179t58.5 -240q0 -202 -136.5 -345t-334.5 -143zM643 639q149 0 249.5 106.5t100.5 258.5q0 155 -101.5 259.5t-248.5 104.5q-149 0 -249.5 -106t-100.5 -258
q0 -155 101.5 -260t248.5 -105zM653 737q-117 0 -187.5 74.5t-70.5 187.5q0 114 70.5 188.5t187.5 74.5q116 0 191 -88l-101 -82q-19 26 -36.5 36.5t-47.5 10.5q-56 0 -83 -39.5t-27 -100.5q0 -62 27 -101.5t83 -39.5q32 0 53.5 16t41.5 46l104 -78q-78 -105 -205 -105z" />
    <glyph glyph-name="ordfeminine" unicode="&#xaa;" horiz-adv-x="892" 
d="M696 788h-12q-58 0 -98 26.5t-51 70.5q-34 -43 -84.5 -70t-106.5 -27q-131 0 -192 64q-62 62 -62 147q0 88 63.5 137.5t184.5 49.5q66 0 102 -8l88 -19v41q0 62 -38.5 92.5t-94.5 30.5q-46 -3 -63.5 -10.5t-52.5 -38.5q-10 -10 -13 -19l-121 95q40 59 110 89.5t151 30.5
q78 0 147 -25.5t117.5 -85t48.5 -142.5v-291q0 -33 20 -33q29 4 35 20l49 -47q-10 -28 -45 -51.5t-82 -26.5zM403 915q117 0 125 91v57q-59 18 -125 18q-58 0 -88 -22t-30 -60q0 -84 118 -84z" />
    <glyph glyph-name="guillemotleft" unicode="&#xab;" horiz-adv-x="1380" 
d="M653 -4l-549 465v168l549 458v-256l-346 -286l346 -289v-260zM1237 -4l-629 549l629 542v-256l-342 -286l342 -289v-260z" />
    <glyph glyph-name="logicalnot" unicode="&#xac;" horiz-adv-x="1366" 
d="M1135 233h-195v226h-754v188h949v-414z" />
    <glyph glyph-name="softhyphen" unicode="&#xad;" horiz-adv-x="1196" 
d="M1044 459h-892v200h892v-200z" />
    <glyph glyph-name="registered" unicode="&#xae;" horiz-adv-x="1286" 
d="M643 516q-135 0 -244.5 68.5t-168 179.5t-58.5 240q0 202 136.5 344.5t334.5 142.5q136 0 245 -68t167.5 -179t58.5 -240q0 -202 -136.5 -345t-334.5 -143zM643 639q149 0 249.5 106.5t100.5 258.5q0 155 -101.5 259.5t-248.5 104.5q-149 0 -249.5 -106t-100.5 -258
q0 -155 101.5 -260t248.5 -105zM854 748h-133l-105 194l-36 -24v-170h-113v509h215q148 0 160 -161q0 -54 -29 -95.5t-82 -54.5zM655 1032q30 0 45 18.5t15 43.5t-16 43t-44 18h-75v-123h75z" />
    <glyph glyph-name="macron" unicode="&#xaf;" horiz-adv-x="1011" 
d="M860 1278h-708v188h708v-188z" />
    <glyph glyph-name="degree" unicode="&#xb0;" horiz-adv-x="915" 
d="M459 936q-119 0 -199 80t-80 198q0 115 83 196t196 81q110 0 193 -81.5t83 -195.5t-81 -196t-195 -82zM459 1112q41 0 71.5 29.5t30.5 72.5q0 41 -29.5 71t-72.5 30t-73 -30t-30 -71t30 -71.5t73 -30.5z" />
    <glyph glyph-name="plusminus" unicode="&#xb1;" horiz-adv-x="1308" 
d="M739 260h-170v404h-399v165h399v400h170v-400h400v-165h-400v-404zM1139 0h-969v168h969v-168z" />
    <glyph glyph-name="twosuperior" unicode="&#xb2;" horiz-adv-x="598" 
d="M514 797h-434v73q0 89 45 146q43 56 96 96q15 12 47 37.5t49 38.5q42 33 45 76q0 33 -19 51t-50 18q-30 0 -51 -20t-21 -58h-135q6 96 63 150t146 57q33 0 78 -10q70 -24 103 -68t34 -124q0 -57 -34.5 -102.5t-92.5 -88.5q-14 -11 -39.5 -31t-38 -30.5t-28.5 -26
t-23.5 -29.5t-9.5 -30h270v-125z" />
    <glyph glyph-name="threesuperior" unicode="&#xb3;" horiz-adv-x="620" 
d="M301 786q-54 0 -107 20.5t-92 66.5t-39 108v12h148q3 -37 28.5 -60.5t57.5 -23.5q37 2 62.5 21t25.5 57q-2 34 -11.5 53t-33.5 29q-46 16 -100 16v101q46 0 92 16q43 15 43 64q0 36 -22.5 54.5t-53.5 18.5q-32 0 -55 -19t-23 -52h-141q6 88 65.5 141t149.5 53
q93 0 160 -46.5t67 -137.5q0 -97 -84 -135q55 -22 78 -63.5t25 -104.5q0 -91 -73 -140t-167 -49z" />
    <glyph glyph-name="acute" unicode="&#xb4;" horiz-adv-x="610" 
d="M309 1255h-200l92 342h329z" />
    <glyph glyph-name="paragraph" unicode="&#xb6;" horiz-adv-x="1398" 
d="M1112 -408h-170v1700h-223v-1700h-164v1047q-191 6 -298 115.5t-107 289.5q0 192 119 307t354 115h634v-174h-145v-1700z" />
    <glyph glyph-name="periodcentered" unicode="&#xb7;" horiz-adv-x="677" 
d="M336 590q-68 0 -114 46t-46 114q0 70 46 116.5t114 46.5q67 0 116.5 -46.5t49.5 -116.5q0 -69 -49.5 -114.5t-116.5 -45.5z" />
    <glyph glyph-name="cedilla" unicode="&#xb8;" horiz-adv-x="673" 
d="M258 -424q-101 0 -170 14l25 129q18 -2 49 -2q14 -2 35 -2q143 0 143 62q0 27 -28 39.5t-113 15.5l51 191h188l-32 -107q85 -8 128.5 -50.5t43.5 -96.5q0 -53 -27.5 -92t-74.5 -60t-101.5 -31t-116.5 -10z" />
    <glyph glyph-name="onesuperior" unicode="&#xb9;" horiz-adv-x="501" 
d="M455 797h-373v118h115v396l-115 -64v129l133 74h125v-535h115v-118z" />
    <glyph glyph-name="ordmasculine" unicode="&#xba;" horiz-adv-x="962" 
d="M481 793q-155 0 -248.5 97t-93.5 238q0 147 94.5 242.5t247.5 95.5q155 0 248.5 -97t93.5 -241t-94.5 -239.5t-247.5 -95.5zM481 950q69 0 109.5 52t40.5 126q0 75 -40.5 129t-109.5 54t-109 -54t-40 -129q0 -74 40 -126t109 -52z" />
    <glyph glyph-name="guillemotright" unicode="&#xbb;" horiz-adv-x="1380" 
d="M141 -4v260l342 289l-342 286v256l629 -542zM723 -4v260l346 289l-346 286v256l551 -458v-168z" />
    <glyph glyph-name="questiondown" unicode="&#xbf;" horiz-adv-x="1189" 
d="M616 752q-67 0 -116 47.5t-49 118.5q0 69 49 114t116 45q68 0 114 -46t46 -113q0 -70 -46 -118t-114 -48zM604 -401q-63 0 -123.5 11.5t-119 38.5t-104.5 66t-77 98.5t-39 131.5q-4 40 -4 59q0 113 78 213q29 37 83 87t99.5 98.5t71.5 99.5q27 56 27 116v13h252
q2 -23 2 -64q0 -113 -40 -195t-98 -130l-77 -70q-48 -43 -71 -82.5t-24 -95.5q0 -67 49.5 -108.5t116.5 -41.5q72 0 117 39q51 44 51 111v12h289q0 -79 -25.5 -146t-70 -114.5t-103 -81t-124.5 -49.5t-136 -16z" />
    <glyph glyph-name="Agrave" unicode="&#xc0;" horiz-adv-x="1622" 
d="M893 1585h-201l-221 342h330zM1522 0h-365l-100 301h-500l-98 -301h-359l521 1450h378zM963 586l-158 471l-154 -471h312z" />
    <glyph glyph-name="Aacute" unicode="&#xc1;" horiz-adv-x="1622" 
d="M911 1585h-200l92 342h330zM1522 0h-365l-100 301h-500l-98 -301h-359l521 1450h378zM963 586l-158 471l-154 -471h312z" />
    <glyph glyph-name="Acircumflex" unicode="&#xc2;" horiz-adv-x="1622" 
d="M1120 1585h-235l-86 133l-88 -133h-242l217 281h209zM1522 0h-365l-100 301h-500l-98 -301h-359l521 1450h378zM963 586l-158 471l-154 -471h312z" />
    <glyph glyph-name="Atilde" unicode="&#xc3;" horiz-adv-x="1622" 
d="M956 1548q-81 0 -143 35l-106 62q-37 22 -68 22q-19 0 -31.5 -17.5t-25.5 -66.5h-179q0 118 78 203q74 74 178 74q32 0 66 -11t55.5 -22.5t55.5 -33t47 -28.5q34 -22 69 -22q22 0 35.5 16t26.5 64h174q0 -135 -69.5 -205t-162.5 -70zM1522 0h-365l-100 301h-500l-98 -301
h-359l521 1450h378zM963 586l-158 471l-154 -471h312z" />
    <glyph glyph-name="Adieresis" unicode="&#xc4;" horiz-adv-x="1622" 
d="M596 1638q-58 0 -97.5 39.5t-39.5 100.5q0 58 39.5 98.5t97.5 40.5q60 0 100.5 -40.5t40.5 -98.5q0 -60 -40.5 -100t-100.5 -40zM993 1638q-60 0 -98.5 39t-38.5 99q0 58 38.5 99.5t98.5 41.5t100 -40.5t40 -100.5t-40 -99t-100 -39zM1522 0h-365l-100 301h-500l-98 -301
h-359l521 1450h378zM963 586l-158 471l-154 -471h312z" />
    <glyph glyph-name="Aring" unicode="&#xc5;" horiz-adv-x="1622" 
d="M795 1542q-95 0 -152 59.5t-57 147.5q0 83 57.5 142t151.5 59q90 0 149.5 -60.5t59.5 -144.5q0 -85 -58 -144t-151 -59zM797 1673q29 0 50 21.5t21 52.5q0 30 -21 52t-50 22q-31 0 -51.5 -21.5t-20.5 -50.5q0 -31 17.5 -53.5t54.5 -22.5zM1522 0h-365l-100 301h-500
l-98 -301h-359l521 1450h378zM963 586l-158 471l-154 -471h312z" />
    <glyph glyph-name="AE" unicode="&#xc6;" horiz-adv-x="2029" 
d="M1882 0h-930v322h-327l-158 -322h-369l82 170l633 1280h1069v-295h-586v-252h504v-317h-504v-271h586v-315zM952 606v443l-211 -443h211z" />
    <glyph glyph-name="Ccedilla" unicode="&#xc7;" horiz-adv-x="1492" 
d="M739 -424q-101 0 -170 14l25 129q18 -2 49 -2q14 -2 35 -2q143 0 143 62q0 27 -28 39.5t-113 15.5l39 148q-274 42 -432 246t-158 499q0 161 50.5 300t139.5 239q89 101 220 158t284 57q98 0 181 -20t147 -58t109 -77.5t92 -92.5l-230 -225q-60 86 -129 128t-157 42
q-85 0 -154.5 -38.5t-113 -102.5t-66.5 -143.5t-23 -166.5q0 -118 39.5 -218.5t122.5 -166.5t195 -66q37 0 74.5 9.5t79.5 31.5t83 64.5t74 101.5l246 -209q-89 -130 -214.5 -206t-273.5 -91l-18 -59q85 -8 128.5 -50.5t43.5 -96.5q0 -53 -27.5 -92t-74.5 -60t-101.5 -31
t-116.5 -10z" />
    <glyph glyph-name="Egrave" unicode="&#xc8;" horiz-adv-x="1269" 
d="M733 1585h-201l-221 342h330zM1122 0h-927v1450h927v-295h-585v-252h503v-317h-503v-271h585v-315z" />
    <glyph glyph-name="Eacute" unicode="&#xc9;" horiz-adv-x="1269" 
d="M752 1585h-201l92 342h330zM1122 0h-927v1450h927v-295h-585v-252h503v-317h-503v-271h585v-315z" />
    <glyph glyph-name="Ecircumflex" unicode="&#xca;" horiz-adv-x="1269" 
d="M961 1585h-236l-86 133l-88 -133h-242l217 281h209zM1122 0h-927v1450h927v-295h-585v-252h503v-317h-503v-271h585v-315z" />
    <glyph glyph-name="Edieresis" unicode="&#xcb;" horiz-adv-x="1269" 
d="M436 1638q-58 0 -97.5 39.5t-39.5 100.5q0 58 39.5 98.5t97.5 40.5q60 0 101 -41t41 -98q0 -60 -41 -100t-101 -40zM834 1638q-60 0 -99 39t-39 99q0 58 39 99.5t99 41.5t99.5 -40.5t39.5 -100.5t-39.5 -99t-99.5 -39zM1122 0h-927v1450h927v-295h-585v-252h503v-317
h-503v-271h585v-315z" />
    <glyph glyph-name="Igrave" unicode="&#xcc;" horiz-adv-x="731" 
d="M463 1585h-201l-221 342h330zM537 0h-342v1450h342v-1450z" />
    <glyph glyph-name="Iacute" unicode="&#xcd;" horiz-adv-x="731" 
d="M481 1585h-200l92 342h329zM537 0h-342v1450h342v-1450z" />
    <glyph glyph-name="Icircumflex" unicode="&#xce;" horiz-adv-x="731" 
d="M690 1585h-235l-86 133l-88 -133h-242l217 281h209zM537 0h-342v1450h342v-1450z" />
    <glyph glyph-name="Idieresis" unicode="&#xcf;" horiz-adv-x="731" 
d="M166 1638q-58 0 -97.5 39.5t-39.5 100.5q0 58 39.5 98.5t97.5 40.5q60 0 100.5 -40.5t40.5 -98.5q0 -60 -40.5 -100t-100.5 -40zM563 1638q-60 0 -98.5 39t-38.5 99q0 58 38.5 99.5t98.5 41.5t99.5 -40.5t39.5 -100.5t-39.5 -99t-99.5 -39zM537 0h-342v1450h342v-1450z
" />
    <glyph glyph-name="Eth" unicode="&#xd0;" horiz-adv-x="1593" 
d="M717 0h-522v625h-175v200h175v625h522q156 0 281 -36.5t211 -102t144 -158t84.5 -202t26.5 -236.5q0 -114 -23.5 -215.5t-79 -194.5t-139.5 -159.5t-213 -106t-292 -39.5zM748 301q90 0 163 35.5t118 95.5t69 133.5t24 153.5q0 59 -13 116.5t-42.5 112t-72 96
t-106.5 66.5t-140 25h-211v-310h172v-200h-172v-324h211z" />
    <glyph glyph-name="Ntilde" unicode="&#xd1;" horiz-adv-x="1609" 
d="M967 1548q-82 0 -144 35l-106 62q-37 22 -68 22q-19 0 -31.5 -17.5t-25.5 -66.5h-178q0 118 78 203q74 74 178 74q32 0 66 -11t55 -22.5t54.5 -32.5t47.5 -29q34 -22 70 -22q22 0 35 16t26 64h174q0 -135 -69 -205t-162 -70zM1415 0h-375l-503 864v-864h-342v1450h376
l502 -872v872h342v-1450z" />
    <glyph glyph-name="Ograve" unicode="&#xd2;" horiz-adv-x="1679" 
d="M938 1585h-201l-221 342h330zM840 -29q-154 0 -288.5 61.5t-227 165t-145 241t-52.5 286.5q0 205 92 377.5t256 274.5t365 102q153 0 286.5 -60t226 -161.5t146 -240t53.5 -292.5q0 -156 -54.5 -295.5t-148 -240t-226.5 -159.5t-283 -59zM840 276q88 0 162 38
t121.5 101.5t73.5 143.5t26 166q0 85 -26 165t-73 143.5t-121 102t-163 38.5q-114 0 -202.5 -64t-133.5 -165.5t-45 -219.5t45 -219.5t133.5 -165.5t202.5 -64z" />
    <glyph glyph-name="Oacute" unicode="&#xd3;" horiz-adv-x="1679" 
d="M956 1585h-200l92 342h330zM840 -29q-154 0 -288.5 61.5t-227 165t-145 241t-52.5 286.5q0 205 92 377.5t256 274.5t365 102q153 0 286.5 -60t226 -161.5t146 -240t53.5 -292.5q0 -156 -54.5 -295.5t-148 -240t-226.5 -159.5t-283 -59zM840 276q88 0 162 38t121.5 101.5
t73.5 143.5t26 166q0 85 -26 165t-73 143.5t-121 102t-163 38.5q-114 0 -202.5 -64t-133.5 -165.5t-45 -219.5t45 -219.5t133.5 -165.5t202.5 -64z" />
    <glyph glyph-name="Ocircumflex" unicode="&#xd4;" horiz-adv-x="1679" 
d="M1165 1585h-235l-86 133l-88 -133h-242l217 281h209zM840 -29q-154 0 -288.5 61.5t-227 165t-145 241t-52.5 286.5q0 205 92 377.5t256 274.5t365 102q153 0 286.5 -60t226 -161.5t146 -240t53.5 -292.5q0 -156 -54.5 -295.5t-148 -240t-226.5 -159.5t-283 -59zM840 276
q88 0 162 38t121.5 101.5t73.5 143.5t26 166q0 85 -26 165t-73 143.5t-121 102t-163 38.5q-114 0 -202.5 -64t-133.5 -165.5t-45 -219.5t45 -219.5t133.5 -165.5t202.5 -64z" />
    <glyph glyph-name="Otilde" unicode="&#xd5;" horiz-adv-x="1679" 
d="M1001 1548q-81 0 -143 35l-106 62q-37 22 -68 22q-19 0 -31.5 -17.5t-25.5 -66.5h-178q0 119 77 203q74 74 179 74q32 0 66 -11t55 -22.5t54.5 -32.5t47.5 -29q34 -22 69 -22q22 0 35.5 16t26.5 64h174q0 -135 -69.5 -205t-162.5 -70zM840 -29q-154 0 -288.5 61.5
t-227 165t-145 241t-52.5 286.5q0 205 92 377.5t256 274.5t365 102q153 0 286.5 -60t226 -161.5t146 -240t53.5 -292.5q0 -156 -54.5 -295.5t-148 -240t-226.5 -159.5t-283 -59zM840 276q88 0 162 38t121.5 101.5t73.5 143.5t26 166q0 85 -26 165t-73 143.5t-121 102
t-163 38.5q-114 0 -202.5 -64t-133.5 -165.5t-45 -219.5t45 -219.5t133.5 -165.5t202.5 -64z" />
    <glyph glyph-name="Odieresis" unicode="&#xd6;" horiz-adv-x="1679" 
d="M641 1638q-58 0 -97.5 39.5t-39.5 100.5q0 58 39.5 98.5t97.5 40.5q59 0 100 -40.5t41 -98.5q0 -60 -40.5 -100t-100.5 -40zM1038 1638q-60 0 -98.5 39t-38.5 99q0 58 38.5 99.5t98.5 41.5t100 -40.5t40 -100.5t-40 -99t-100 -39zM840 -29q-154 0 -288.5 61.5t-227 165
t-145 241t-52.5 286.5q0 205 92 377.5t256 274.5t365 102q153 0 286.5 -60t226 -161.5t146 -240t53.5 -292.5q0 -156 -54.5 -295.5t-148 -240t-226.5 -159.5t-283 -59zM840 276q88 0 162 38t121.5 101.5t73.5 143.5t26 166q0 85 -26 165t-73 143.5t-121 102t-163 38.5
q-114 0 -202.5 -64t-133.5 -165.5t-45 -219.5t45 -219.5t133.5 -165.5t202.5 -64z" />
    <glyph glyph-name="multiply" unicode="&#xd7;" horiz-adv-x="1206" 
d="M307 270l-155 156l297 299l-295 299l153 152l297 -297l297 297l154 -156l-297 -295l297 -297l-152 -154l-299 295z" />
    <glyph glyph-name="Oslash" unicode="&#xd8;" horiz-adv-x="1679" 
d="M680 -33h-330l66 148q-134 103 -211.5 260.5t-77.5 349.5q0 205 92 377.5t256 274.5t365 102q90 0 170 -21l10 25h328l-70 -158q128 -103 201 -257t73 -343q0 -156 -54.5 -295.5t-148 -240t-226.5 -159.5t-283 -59q-65 0 -152 17zM553 424l330 747l-21 3q-110 0 -178 -37
q-106 -55 -165.5 -164.5t-59.5 -247.5q0 -178 94 -301zM840 276q88 0 162 38t121.5 101.5t73.5 143.5t26 166q0 161 -84 285l-322 -734h23z" />
    <glyph glyph-name="Ugrave" unicode="&#xd9;" horiz-adv-x="1509" 
d="M852 1585h-201l-221 342h330zM756 -29q-89 0 -172 19.5t-158.5 63t-131.5 106t-89 155t-33 203.5v932h342v-848q0 -319 242 -319q241 0 241 319v848h340v-932q0 -164 -74.5 -289t-206.5 -191.5t-300 -66.5z" />
    <glyph glyph-name="Uacute" unicode="&#xda;" horiz-adv-x="1509" 
d="M870 1585h-200l92 342h330zM756 -29q-89 0 -172 19.5t-158.5 63t-131.5 106t-89 155t-33 203.5v932h342v-848q0 -319 242 -319q241 0 241 319v848h340v-932q0 -164 -74.5 -289t-206.5 -191.5t-300 -66.5z" />
    <glyph glyph-name="Ucircumflex" unicode="&#xdb;" horiz-adv-x="1509" 
d="M1079 1585h-235l-86 133l-88 -133h-242l217 281h209zM756 -29q-89 0 -172 19.5t-158.5 63t-131.5 106t-89 155t-33 203.5v932h342v-848q0 -319 242 -319q241 0 241 319v848h340v-932q0 -164 -74.5 -289t-206.5 -191.5t-300 -66.5z" />
    <glyph glyph-name="Udieresis" unicode="&#xdc;" horiz-adv-x="1509" 
d="M555 1638q-58 0 -97.5 39.5t-39.5 100.5q0 58 39.5 98.5t97.5 40.5q59 0 100 -40.5t41 -98.5q0 -60 -40.5 -100t-100.5 -40zM952 1638q-60 0 -98.5 39t-38.5 99q0 58 38.5 99.5t98.5 41.5t100 -40.5t40 -100.5t-40 -99t-100 -39zM756 -29q-89 0 -172 19.5t-158.5 63
t-131.5 106t-89 155t-33 203.5v932h342v-848q0 -319 242 -319q241 0 241 319v848h340v-932q0 -164 -74.5 -289t-206.5 -191.5t-300 -66.5z" />
    <glyph glyph-name="Yacute" unicode="&#xdd;" horiz-adv-x="1325" 
d="M778 1585h-200l92 342h329zM834 0h-342v659l-394 791h365l201 -473l198 473h365l-393 -791v-659z" />
    <glyph glyph-name="Thorn" unicode="&#xde;" horiz-adv-x="1447" 
d="M512 0h-317v1450h317v-256h324q125 0 221.5 -38.5t154.5 -106t87.5 -154.5t29.5 -190q0 -84 -29 -161.5t-87 -144t-157.5 -106t-228.5 -39.5h-315v-254zM803 528q52 0 90.5 19t58 48t28.5 57t9 53q0 89 -46.5 142.5t-139.5 53.5h-291v-373h291z" />
    <glyph glyph-name="germandbls" unicode="&#xdf;" horiz-adv-x="1650" 
d="M1114 -20q-141 0 -251 47.5t-169 148.5q-39 62 -39 156h312q1 -66 43 -99.5t104 -35.5q62 0 102.5 31t40.5 91q0 35 -31.5 61.5t-82.5 44.5t-112 36.5t-122.5 45.5t-112.5 63t-82.5 96t-31.5 139q0 69 33 113q16 21 65.5 80.5t75.5 99.5q33 47 33 127q0 89 -46.5 131.5
t-113.5 42.5q-69 0 -115.5 -37.5t-46.5 -110.5v-1251h-319v842h-170v237h170v185q0 100 40 174t109 116t152 62t180 20q69 0 131.5 -10t126 -37.5t109.5 -69t75 -110.5t29 -158q0 -78 -23 -143t-55 -106t-64.5 -73.5t-55.5 -61t-23 -52.5q0 -42 39.5 -67.5t114.5 -47.5
q18 -5 55 -15t59.5 -16t58.5 -18t58.5 -22.5t53.5 -27.5t50.5 -34.5t41 -43t33.5 -53.5t20 -64.5t8 -77.5q0 -107 -65.5 -188t-168 -120.5t-223.5 -39.5z" />
    <glyph glyph-name="agrave" unicode="&#xe0;" horiz-adv-x="1339" 
d="M729 1214h-201l-221 342h330zM1092 -20h-15q-101 0 -168 40t-88 121q-49 -72 -133 -116.5t-182 -44.5q-203 0 -313.5 100.5t-110.5 251.5q0 141 104.5 226t307.5 85q49 0 83 -1.5t68 -6.5t48 -8t57 -14t61 -15v68q0 95 -63 150.5t-156 55.5l-47 -4q-70 -12 -121 -55
q-25 -15 -49 -55l-199 157q67 96 181 147.5t251 51.5q101 0 193 -27t165.5 -78t117.5 -132.5t44 -182.5v-424q0 -77 62 -77q46 0 115 53v-170q-15 -26 -72 -62q-52 -31 -141 -34zM604 190q96 0 149.5 35t57.5 117v96q-100 29 -207 29q-99 0 -148.5 -37t-49.5 -98
q0 -65 51.5 -103.5t146.5 -38.5z" />
    <glyph glyph-name="aacute" unicode="&#xe1;" horiz-adv-x="1339" 
d="M748 1214h-201l92 342h330zM1092 -20h-15q-101 0 -168 40t-88 121q-49 -72 -133 -116.5t-182 -44.5q-203 0 -313.5 100.5t-110.5 251.5q0 141 104.5 226t307.5 85q49 0 83 -1.5t68 -6.5t48 -8t57 -14t61 -15v68q0 95 -63 150.5t-156 55.5l-47 -4q-70 -12 -121 -55
q-25 -15 -49 -55l-199 157q67 96 181 147.5t251 51.5q101 0 193 -27t165.5 -78t117.5 -132.5t44 -182.5v-424q0 -77 62 -77q46 0 115 53v-170q-15 -26 -72 -62q-52 -31 -141 -34zM604 190q96 0 149.5 35t57.5 117v96q-100 29 -207 29q-99 0 -148.5 -37t-49.5 -98
q0 -65 51.5 -103.5t146.5 -38.5z" />
    <glyph glyph-name="acircumflex" unicode="&#xe2;" horiz-adv-x="1339" 
d="M956 1214h-235l-86 134l-88 -134h-242l217 281h209zM1092 -20h-15q-101 0 -168 40t-88 121q-49 -72 -133 -116.5t-182 -44.5q-203 0 -313.5 100.5t-110.5 251.5q0 141 104.5 226t307.5 85q49 0 83 -1.5t68 -6.5t48 -8t57 -14t61 -15v68q0 95 -63 150.5t-156 55.5l-47 -4
q-70 -12 -121 -55q-25 -15 -49 -55l-199 157q67 96 181 147.5t251 51.5q101 0 193 -27t165.5 -78t117.5 -132.5t44 -182.5v-424q0 -77 62 -77q46 0 115 53v-170q-15 -26 -72 -62q-52 -31 -141 -34zM604 190q96 0 149.5 35t57.5 117v96q-100 29 -207 29q-99 0 -148.5 -37
t-49.5 -98q0 -65 51.5 -103.5t146.5 -38.5z" />
    <glyph glyph-name="atilde" unicode="&#xe3;" horiz-adv-x="1339" 
d="M793 1178q-83 0 -144 34l-106 62q-37 22 -68 22q-19 0 -31.5 -17.5t-25.5 -66.5h-178q0 119 77 203q74 74 179 74q32 0 66 -10.5t55 -22t55 -33t47 -28.5q36 -23 69 -23q22 0 35.5 16t26.5 64h174q0 -135 -69 -204.5t-162 -69.5zM1092 -20h-15q-101 0 -168 40t-88 121
q-49 -72 -133 -116.5t-182 -44.5q-203 0 -313.5 100.5t-110.5 251.5q0 141 104.5 226t307.5 85q49 0 83 -1.5t68 -6.5t48 -8t57 -14t61 -15v68q0 95 -63 150.5t-156 55.5l-47 -4q-70 -12 -121 -55q-25 -15 -49 -55l-199 157q67 96 181 147.5t251 51.5q101 0 193 -27
t165.5 -78t117.5 -132.5t44 -182.5v-424q0 -77 62 -77q46 0 115 53v-170q-15 -26 -72 -62q-52 -31 -141 -34zM604 190q96 0 149.5 35t57.5 117v96q-100 29 -207 29q-99 0 -148.5 -37t-49.5 -98q0 -65 51.5 -103.5t146.5 -38.5z" />
    <glyph glyph-name="adieresis" unicode="&#xe4;" horiz-adv-x="1339" 
d="M432 1268q-58 0 -97.5 39t-39.5 100q0 58 39.5 98.5t97.5 40.5q60 0 100.5 -41t40.5 -98q0 -60 -40.5 -99.5t-100.5 -39.5zM829 1268q-60 0 -98.5 38.5t-38.5 98.5q0 58 38.5 99.5t98.5 41.5t100 -40.5t40 -100.5t-40 -98.5t-100 -38.5zM1092 -20h-15q-101 0 -168 40
t-88 121q-49 -72 -133 -116.5t-182 -44.5q-203 0 -313.5 100.5t-110.5 251.5q0 141 104.5 226t307.5 85q49 0 83 -1.5t68 -6.5t48 -8t57 -14t61 -15v68q0 95 -63 150.5t-156 55.5l-47 -4q-70 -12 -121 -55q-25 -15 -49 -55l-199 157q67 96 181 147.5t251 51.5q101 0 193 -27
t165.5 -78t117.5 -132.5t44 -182.5v-424q0 -77 62 -77q46 0 115 53v-170q-15 -26 -72 -62q-52 -31 -141 -34zM604 190q96 0 149.5 35t57.5 117v96q-100 29 -207 29q-99 0 -148.5 -37t-49.5 -98q0 -65 51.5 -103.5t146.5 -38.5z" />
    <glyph glyph-name="aring" unicode="&#xe5;" horiz-adv-x="1339" 
d="M631 1171q-95 0 -152 59.5t-57 147.5q0 83 57.5 142t151.5 59q90 0 149.5 -60.5t59.5 -144.5q0 -85 -58 -144t-151 -59zM633 1303q29 0 50.5 21t21.5 52q0 29 -21.5 51.5t-50.5 22.5q-31 0 -51.5 -21.5t-20.5 -50.5q0 -31 17.5 -53t54.5 -22zM1092 -20h-15
q-101 0 -168 40t-88 121q-49 -72 -133 -116.5t-182 -44.5q-203 0 -313.5 100.5t-110.5 251.5q0 141 104.5 226t307.5 85q49 0 83 -1.5t68 -6.5t48 -8t57 -14t61 -15v68q0 95 -63 150.5t-156 55.5l-47 -4q-70 -12 -121 -55q-25 -15 -49 -55l-199 157q67 96 181 147.5
t251 51.5q101 0 193 -27t165.5 -78t117.5 -132.5t44 -182.5v-424q0 -77 62 -77q46 0 115 53v-170q-15 -26 -72 -62q-52 -31 -141 -34zM604 190q96 0 149.5 35t57.5 117v96q-100 29 -207 29q-99 0 -148.5 -37t-49.5 -98q0 -65 51.5 -103.5t146.5 -38.5z" />
    <glyph glyph-name="ae" unicode="&#xe6;" horiz-adv-x="1976" 
d="M506 -20q-115 0 -200 29.5t-132.5 80.5t-69.5 111.5t-22 130.5q0 141 104.5 226t307.5 85q49 0 83 -1.5t68 -6.5t48 -8t57 -14t61 -15v68q0 95 -63 150.5t-156 55.5l-47 -4q-70 -12 -121 -55q-25 -15 -49 -55l-199 157q129 190 436 197q113 0 218.5 -35t179.5 -106
q137 137 368 137q239 0 370.5 -139.5t131.5 -358.5v-47l-4 -49h-700q0 -71 20 -133t67.5 -105t114.5 -43q118 0 162 76l21 41h309q-13 -57 -38 -108t-66.5 -98.5t-95 -82t-128 -55t-160.5 -20.5q-293 0 -434 221q-63 -116 -179.5 -171.5t-262.5 -55.5zM1579 678
q-2 40 -13.5 76.5t-33.5 71t-62 55t-92 20.5q-59 0 -102.5 -36.5t-64 -83.5t-29.5 -103h397zM604 190q90 0 148.5 40.5t58.5 111.5v96q-100 29 -207 29q-99 0 -148.5 -37t-49.5 -98q0 -65 51.5 -103.5t146.5 -38.5z" />
    <glyph glyph-name="ccedilla" unicode="&#xe7;" horiz-adv-x="1146" 
d="M549 -424q-101 0 -170 14l24 129q18 -2 50 -2q14 -2 34 -2q144 0 144 62q0 27 -28 39.5t-114 15.5l46 168q-200 35 -320.5 188t-120.5 361q0 161 67 287.5t193 199t291 72.5q258 0 406 -188l-213 -175q-37 53 -78.5 78t-100.5 25q-119 0 -178 -86t-59 -213
q0 -80 24 -145.5t79.5 -109.5t133.5 -44q124 0 201 131l221 -168q-68 -94 -153.5 -149.5t-206.5 -69.5l-25 -78q85 -8 128.5 -50.5t43.5 -96.5q0 -53 -27.5 -92t-74.5 -60t-101 -31t-116 -10z" />
    <glyph glyph-name="egrave" unicode="&#xe8;" horiz-adv-x="1214" 
d="M715 1214h-201l-221 342h330zM618 -14q-128 0 -228.5 43.5t-163.5 120.5t-95.5 178t-32.5 219q0 119 30.5 219t92 177.5t162.5 121t233 43.5q157 0 271.5 -67t171.5 -178.5t57 -252.5q0 -42 -4 -96h-700q0 -70 18 -130.5t65.5 -105.5t118.5 -45q120 0 162 76l21 41h309
q-15 -68 -50 -129.5t-92 -115.5t-146.5 -86.5t-199.5 -32.5zM815 678q-2 40 -13.5 76.5t-33.5 71t-62 55t-92 20.5q-57 0 -101 -36t-66 -84.5t-27 -102.5h395z" />
    <glyph glyph-name="eacute" unicode="&#xe9;" horiz-adv-x="1214" 
d="M733 1214h-201l93 342h329zM618 -14q-128 0 -228.5 43.5t-163.5 120.5t-95.5 178t-32.5 219q0 119 30.5 219t92 177.5t162.5 121t233 43.5q157 0 271.5 -67t171.5 -178.5t57 -252.5q0 -42 -4 -96h-700q0 -70 18 -130.5t65.5 -105.5t118.5 -45q120 0 162 76l21 41h309
q-15 -68 -50 -129.5t-92 -115.5t-146.5 -86.5t-199.5 -32.5zM815 678q-2 40 -13.5 76.5t-33.5 71t-62 55t-92 20.5q-57 0 -101 -36t-66 -84.5t-27 -102.5h395z" />
    <glyph glyph-name="ecircumflex" unicode="&#xea;" horiz-adv-x="1214" 
d="M942 1214h-235l-86 134l-89 -134h-241l217 281h209zM618 -14q-128 0 -228.5 43.5t-163.5 120.5t-95.5 178t-32.5 219q0 119 30.5 219t92 177.5t162.5 121t233 43.5q157 0 271.5 -67t171.5 -178.5t57 -252.5q0 -42 -4 -96h-700q0 -70 18 -130.5t65.5 -105.5t118.5 -45
q120 0 162 76l21 41h309q-15 -68 -50 -129.5t-92 -115.5t-146.5 -86.5t-199.5 -32.5zM815 678q-2 40 -13.5 76.5t-33.5 71t-62 55t-92 20.5q-57 0 -101 -36t-66 -84.5t-27 -102.5h395z" />
    <glyph glyph-name="edieresis" unicode="&#xeb;" horiz-adv-x="1214" 
d="M418 1268q-58 0 -97.5 39t-39.5 100q0 58 39.5 98.5t97.5 40.5q60 0 100.5 -41t40.5 -98q0 -60 -40.5 -99.5t-100.5 -39.5zM815 1268q-60 0 -98.5 38.5t-38.5 98.5q0 58 38.5 99.5t98.5 41.5t99.5 -40.5t39.5 -100.5t-39.5 -98.5t-99.5 -38.5zM618 -14
q-128 0 -228.5 43.5t-163.5 120.5t-95.5 178t-32.5 219q0 119 30.5 219t92 177.5t162.5 121t233 43.5q157 0 271.5 -67t171.5 -178.5t57 -252.5q0 -42 -4 -96h-700q0 -70 18 -130.5t65.5 -105.5t118.5 -45q120 0 162 76l21 41h309q-15 -68 -50 -129.5t-92 -115.5
t-146.5 -86.5t-199.5 -32.5zM815 678q-2 40 -13.5 76.5t-33.5 71t-62 55t-92 20.5q-57 0 -101 -36t-66 -84.5t-27 -102.5h395z" />
    <glyph glyph-name="igrave" unicode="&#xec;" horiz-adv-x="628" 
d="M412 1214h-201l-221 342h329zM473 0h-317v1081h317v-1081z" />
    <glyph glyph-name="iacute" unicode="&#xed;" horiz-adv-x="628" 
d="M430 1214h-201l93 342h329zM473 0h-317v1081h317v-1081z" />
    <glyph glyph-name="icircumflex" unicode="&#xee;" horiz-adv-x="628" 
d="M639 1214h-236l-86 134l-88 -134h-241l217 281h209zM473 0h-317v1081h317v-1081z" />
    <glyph glyph-name="idieresis" unicode="&#xef;" horiz-adv-x="628" 
d="M115 1268q-58 0 -98 39t-40 100q0 57 40 98t98 41q59 0 100 -41t41 -98q0 -60 -40.5 -99.5t-100.5 -39.5zM512 1268q-60 0 -98.5 38.5t-38.5 98.5q0 58 38.5 99.5t98.5 41.5t99.5 -40.5t39.5 -100.5t-39.5 -98.5t-99.5 -38.5zM473 0h-317v1081h317v-1081z" />
    <glyph glyph-name="eth" unicode="&#xf0;" horiz-adv-x="1370" 
d="M664 -14q-166 0 -297.5 75t-202 202.5t-70.5 283.5q0 114 40.5 217.5t113.5 179.5q158 164 416 164q86 0 186 -27q-39 72 -78 127l-258 -59l-41 176l170 39q-94 101 -213 176h356q15 -12 29.5 -23t20.5 -16t11 -9t11 -10t10.5 -10t19 -18t27.5 -27l267 64l41 -178
l-174 -41q104 -146 161.5 -309t57.5 -322q0 -239 -127 -414q-72 -113 -194.5 -177t-282.5 -64zM664 248q112 0 180.5 86t68.5 213q0 128 -68 214.5t-181 86.5q-112 0 -181 -87t-69 -214t69 -213t181 -86z" />
    <glyph glyph-name="ntilde" unicode="&#xf1;" horiz-adv-x="1325" 
d="M834 1178q-83 0 -144 34l-106 62q-37 22 -68 22q-19 0 -31.5 -17.5t-25.5 -66.5h-178q0 119 77 203q74 74 179 74q32 0 66 -10.5t55 -22t55 -33t47 -28.5q36 -23 69 -23q22 0 35.5 16t26.5 64h174q0 -135 -69 -204.5t-162 -69.5zM1188 0h-320v588q0 67 -7.5 111.5t-27 80
t-57.5 52t-96 16.5q-105 0 -155 -64t-50 -176v-608h-319v1079h319v-164q120 193 318 193q95 0 164.5 -23.5t113.5 -65.5t70.5 -108.5t36.5 -143t10 -179.5v-588z" />
    <glyph glyph-name="ograve" unicode="&#xf2;" horiz-adv-x="1327" 
d="M762 1214h-201l-221 342h330zM664 -14q-169 0 -300 75.5t-200.5 202.5t-69.5 283q0 157 69 284t200 202t301 75q133 0 242 -45t180 -122.5t109 -178.5t38 -215q0 -156 -67 -282.5t-198 -202.5t-304 -76zM664 248q112 0 180.5 86t68.5 213q0 128 -68 214.5t-181 86.5
q-112 0 -181 -87t-69 -214t69 -213t181 -86z" />
    <glyph glyph-name="oacute" unicode="&#xf3;" horiz-adv-x="1327" 
d="M780 1214h-200l92 342h329zM664 -14q-169 0 -300 75.5t-200.5 202.5t-69.5 283q0 157 69 284t200 202t301 75q133 0 242 -45t180 -122.5t109 -178.5t38 -215q0 -156 -67 -282.5t-198 -202.5t-304 -76zM664 248q112 0 180.5 86t68.5 213q0 128 -68 214.5t-181 86.5
q-112 0 -181 -87t-69 -214t69 -213t181 -86z" />
    <glyph glyph-name="ocircumflex" unicode="&#xf4;" horiz-adv-x="1327" 
d="M989 1214h-235l-86 134l-88 -134h-242l217 281h209zM664 -14q-169 0 -300 75.5t-200.5 202.5t-69.5 283q0 157 69 284t200 202t301 75q133 0 242 -45t180 -122.5t109 -178.5t38 -215q0 -156 -67 -282.5t-198 -202.5t-304 -76zM664 248q112 0 180.5 86t68.5 213
q0 128 -68 214.5t-181 86.5q-112 0 -181 -87t-69 -214t69 -213t181 -86z" />
    <glyph glyph-name="otilde" unicode="&#xf5;" horiz-adv-x="1327" 
d="M825 1178q-82 0 -143 34l-107 62q-37 22 -67 22q-19 0 -31.5 -17.5t-25.5 -66.5h-179q0 118 78 203q74 74 178 74q32 0 66.5 -11t55 -22t55 -32.5t47.5 -28.5q36 -23 69 -23q22 0 35.5 16t26.5 64h174q0 -135 -69.5 -204.5t-162.5 -69.5zM664 -14q-169 0 -300 75.5
t-200.5 202.5t-69.5 283q0 157 69 284t200 202t301 75q133 0 242 -45t180 -122.5t109 -178.5t38 -215q0 -156 -67 -282.5t-198 -202.5t-304 -76zM664 248q112 0 180.5 86t68.5 213q0 128 -68 214.5t-181 86.5q-112 0 -181 -87t-69 -214t69 -213t181 -86z" />
    <glyph glyph-name="odieresis" unicode="&#xf6;" horiz-adv-x="1327" 
d="M465 1268q-58 0 -97.5 39t-39.5 100q0 58 39.5 98.5t97.5 40.5q59 0 100 -41t41 -98q0 -60 -40.5 -99.5t-100.5 -39.5zM862 1268q-60 0 -98.5 38.5t-38.5 98.5q0 58 38.5 99.5t98.5 41.5t99.5 -40.5t39.5 -100.5t-39.5 -98.5t-99.5 -38.5zM664 -14q-169 0 -300 75.5
t-200.5 202.5t-69.5 283q0 157 69 284t200 202t301 75q133 0 242 -45t180 -122.5t109 -178.5t38 -215q0 -156 -67 -282.5t-198 -202.5t-304 -76zM664 248q112 0 180.5 86t68.5 213q0 128 -68 214.5t-181 86.5q-112 0 -181 -87t-69 -214t69 -213t181 -86z" />
    <glyph glyph-name="divide" unicode="&#xf7;" horiz-adv-x="1296" 
d="M776 948h-260v234h260v-234zM1133 610h-969v224h969v-224zM776 264h-260v232h260v-232z" />
    <glyph glyph-name="oslash" unicode="&#xf8;" horiz-adv-x="1327" 
d="M524 -27h-286l65 127q-99 77 -154 192t-55 255q0 157 69 284t200 202t301 75q70 0 145 -16l8 16h285l-64 -125q96 -79 145.5 -191.5t49.5 -244.5q0 -156 -67 -282.5t-198 -202.5t-304 -76q-66 0 -127 12zM449 387l235 461q-71 0 -117.5 -19t-85.5 -69q-67 -88 -67 -213
q0 -85 35 -160zM664 248q112 0 180.5 86t68.5 213q0 83 -26 139z" />
    <glyph glyph-name="ugrave" unicode="&#xf9;" horiz-adv-x="1323" 
d="M750 1214h-201l-221 342h329zM532 -29q-95 0 -164.5 23.5t-113.5 65.5t-70.5 109t-36.5 143.5t-10 179.5v587h318v-587q0 -64 7 -107t26.5 -80.5t58 -55.5t98.5 -18q195 0 205 238v610h317v-1079h-317v174q-48 -89 -130 -146t-188 -57z" />
    <glyph glyph-name="uacute" unicode="&#xfa;" horiz-adv-x="1323" 
d="M768 1214h-201l92 342h330zM532 -29q-95 0 -164.5 23.5t-113.5 65.5t-70.5 109t-36.5 143.5t-10 179.5v587h318v-587q0 -64 7 -107t26.5 -80.5t58 -55.5t98.5 -18q195 0 205 238v610h317v-1079h-317v174q-48 -89 -130 -146t-188 -57z" />
    <glyph glyph-name="ucircumflex" unicode="&#xfb;" horiz-adv-x="1323" 
d="M977 1214h-236l-86 134l-88 -134h-241l217 281h209zM532 -29q-95 0 -164.5 23.5t-113.5 65.5t-70.5 109t-36.5 143.5t-10 179.5v587h318v-587q0 -64 7 -107t26.5 -80.5t58 -55.5t98.5 -18q195 0 205 238v610h317v-1079h-317v174q-48 -89 -130 -146t-188 -57z" />
    <glyph glyph-name="udieresis" unicode="&#xfc;" horiz-adv-x="1323" 
d="M453 1268q-58 0 -98 39t-40 100q0 57 40 98t98 41q59 0 100 -41t41 -98q0 -60 -40.5 -99.5t-100.5 -39.5zM850 1268q-60 0 -98.5 38.5t-38.5 98.5q0 58 38.5 99.5t98.5 41.5t99.5 -40.5t39.5 -100.5t-39.5 -98.5t-99.5 -38.5zM532 -29q-95 0 -164.5 23.5t-113.5 65.5
t-70.5 109t-36.5 143.5t-10 179.5v587h318v-587q0 -64 7 -107t26.5 -80.5t58 -55.5t98.5 -18q195 0 205 238v610h317v-1079h-317v174q-48 -89 -130 -146t-188 -57z" />
    <glyph glyph-name="yacute" unicode="&#xfd;" horiz-adv-x="1290" 
d="M762 1214h-201l92 342h330zM123 -469v272l65 -2q72 0 119.5 11t80.5 38t52.5 59.5t42.5 88.5q-215 555 -417 1081h346q49 -153 65.5 -204t35.5 -107t25.5 -75t37.5 -108.5t71 -205.5l230 700h348l-92 -254l-334 -882q-33 -88 -72.5 -154.5t-88.5 -111.5t-101 -74
t-120.5 -44.5t-136 -21.5t-157.5 -6z" />
    <glyph glyph-name="thorn" unicode="&#xfe;" horiz-adv-x="1347" 
d="M473 -371h-317v1821h317v-494q31 42 88 86q51 39 127 48q48 10 88 10q143 0 252 -72q221 -150 221 -481q0 -217 -105 -366.5t-282 -178.5q-39 -8 -86 -8q-46 0 -82 8q-135 17 -221 137v-510zM700 248q109 0 165.5 84t56.5 215q0 129 -55 215t-167 86q-102 0 -160.5 -75.5
t-66.5 -192.5v-52q5 -124 63 -202t164 -78z" />
    <glyph glyph-name="ydieresis" unicode="&#xff;" horiz-adv-x="1290" 
d="M446 1268q-58 0 -97.5 39t-39.5 100q0 58 39.5 98.5t97.5 40.5q60 0 101 -41t41 -98q0 -60 -41 -99.5t-101 -39.5zM844 1268q-60 0 -98.5 38.5t-38.5 98.5q0 58 38.5 99.5t98.5 41.5t99.5 -40.5t39.5 -100.5t-39.5 -98.5t-99.5 -38.5zM123 -469v272l65 -2q72 0 119.5 11
t80.5 38t52.5 59.5t42.5 88.5q-215 555 -417 1081h346q49 -153 65.5 -204t35.5 -107t25.5 -75t37.5 -108.5t71 -205.5l230 700h348l-92 -254l-334 -882q-33 -88 -72.5 -154.5t-88.5 -111.5t-101 -74t-120.5 -44.5t-136 -21.5t-157.5 -6z" />
    <glyph glyph-name="Amacron" unicode="&#x100;" horiz-adv-x="1622" 
d="M1149 1608h-709v188h709v-188zM1522 0h-365l-100 301h-500l-98 -301h-359l521 1450h378zM963 586l-158 471l-154 -471h312z" />
    <glyph glyph-name="amacron" unicode="&#x101;" horiz-adv-x="1339" 
d="M985 1237h-709v188h709v-188zM1092 -20h-15q-101 0 -168 40t-88 121q-49 -72 -133 -116.5t-182 -44.5q-203 0 -313.5 100.5t-110.5 251.5q0 141 104.5 226t307.5 85q49 0 83 -1.5t68 -6.5t48 -8t57 -14t61 -15v68q0 95 -63 150.5t-156 55.5l-47 -4q-70 -12 -121 -55
q-25 -15 -49 -55l-199 157q67 96 181 147.5t251 51.5q101 0 193 -27t165.5 -78t117.5 -132.5t44 -182.5v-424q0 -77 62 -77q46 0 115 53v-170q-15 -26 -72 -62q-52 -31 -141 -34zM604 190q96 0 149.5 35t57.5 117v96q-100 29 -207 29q-99 0 -148.5 -37t-49.5 -98
q0 -65 51.5 -103.5t146.5 -38.5z" />
    <glyph glyph-name="Abreve" unicode="&#x102;" horiz-adv-x="1622" 
d="M797 1595q-289 0 -338 279h203q24 -117 129 -117q62 0 94 30t43 87h205q-25 -142 -115 -210.5t-221 -68.5zM1522 0h-365l-100 301h-500l-98 -301h-359l521 1450h378zM963 586l-158 471l-154 -471h312z" />
    <glyph glyph-name="abreve" unicode="&#x103;" horiz-adv-x="1339" 
d="M633 1225q-289 0 -338 278h203q24 -117 129 -117q62 0 94 30t43 87h205q-25 -142 -115 -210t-221 -68zM1092 -20h-15q-101 0 -168 40t-88 121q-49 -72 -133 -116.5t-182 -44.5q-203 0 -313.5 100.5t-110.5 251.5q0 141 104.5 226t307.5 85q49 0 83 -1.5t68 -6.5t48 -8
t57 -14t61 -15v68q0 95 -63 150.5t-156 55.5l-47 -4q-70 -12 -121 -55q-25 -15 -49 -55l-199 157q67 96 181 147.5t251 51.5q101 0 193 -27t165.5 -78t117.5 -132.5t44 -182.5v-424q0 -77 62 -77q46 0 115 53v-170q-15 -26 -72 -62q-52 -31 -141 -34zM604 190q96 0 149.5 35
t57.5 117v96q-100 29 -207 29q-99 0 -148.5 -37t-49.5 -98q0 -65 51.5 -103.5t146.5 -38.5z" />
    <glyph glyph-name="Aogonek" unicode="&#x104;" horiz-adv-x="1622" 
d="M1411 -426q-82 0 -137 44.5t-55 135.5q0 62 36 127.5t101 118.5h-199l-100 301h-500l-98 -301h-359l521 1450h378l523 -1450h-25q-102 -70 -102 -164q0 -40 26 -62t60 -22q45 0 75 21v-168q-61 -26 -114 -29zM963 586l-158 471l-154 -471h312z" />
    <glyph glyph-name="aogonek" unicode="&#x105;" horiz-adv-x="1339" 
d="M1010 -426q-82 0 -137.5 44.5t-55.5 135.5q0 62 36 127.5t101 118.5q-106 40 -133 141q-49 -72 -133 -116.5t-182 -44.5q-203 0 -313.5 100.5t-110.5 251.5q0 141 104.5 226t307.5 85q49 0 83 -1.5t68 -6.5t48 -8t57 -14t61 -15v68q0 95 -63 150.5t-156 55.5l-47 -4
q-70 -12 -121 -55q-25 -15 -49 -55l-199 157q67 96 181 147.5t251 51.5q101 0 193 -27t165.5 -78t117.5 -132.5t44 -182.5v-424q0 -77 62 -77q46 0 115 53v-170q-15 -26 -72 -62q-59 -34 -166 -34q-74 -62 -74 -144q0 -40 26 -62t60 -22q46 0 76 21v-168q-61 -26 -115 -29z
M604 190q96 0 149.5 35t57.5 117v96q-100 29 -207 29q-99 0 -148.5 -37t-49.5 -98q0 -65 51.5 -103.5t146.5 -38.5z" />
    <glyph glyph-name="Cacute" unicode="&#x106;" horiz-adv-x="1492" 
d="M940 1585h-201l92 342h330zM836 -29q-217 0 -379.5 102t-245 271.5t-82.5 380.5q0 216 87 388t245.5 269t361.5 97q96 0 178 -19.5t146 -56.5t111.5 -77.5t93.5 -94.5l-230 -225q-62 87 -130.5 128.5t-155.5 41.5q-112 0 -195 -65t-122.5 -165.5t-39.5 -220.5
q0 -71 14.5 -137.5t44.5 -123.5t72 -99.5t100 -66.5t126 -24q51 0 101.5 16t109.5 64.5t100 126.5l246 -209q-97 -142 -238.5 -221.5t-318.5 -79.5z" />
    <glyph glyph-name="cacute" unicode="&#x107;" horiz-adv-x="1146" 
d="M762 1214h-201l92 342h330zM645 -10q-169 0 -296 77t-191 203t-64 279q0 110 36.5 210t104 178.5t174 124.5t236.5 46q259 0 406 -188l-213 -175q-37 54 -77.5 78.5t-101.5 24.5q-116 0 -176.5 -84t-60.5 -215q0 -133 61.5 -216t175.5 -83q124 0 201 131l221 -168
q-80 -109 -185.5 -166t-250.5 -57z" />
    <glyph glyph-name="Ccircumflex" unicode="&#x108;" horiz-adv-x="1492" 
d="M1149 1585h-236l-86 133l-88 -133h-241l217 281h209zM836 -29q-217 0 -379.5 102t-245 271.5t-82.5 380.5q0 216 87 388t245.5 269t361.5 97q96 0 178 -19.5t146 -56.5t111.5 -77.5t93.5 -94.5l-230 -225q-62 87 -130.5 128.5t-155.5 41.5q-112 0 -195 -65t-122.5 -165.5
t-39.5 -220.5q0 -71 14.5 -137.5t44.5 -123.5t72 -99.5t100 -66.5t126 -24q51 0 101.5 16t109.5 64.5t100 126.5l246 -209q-97 -142 -238.5 -221.5t-318.5 -79.5z" />
    <glyph glyph-name="ccircumflex" unicode="&#x109;" horiz-adv-x="1146" 
d="M971 1214h-236l-86 134l-88 -134h-242l218 281h208zM645 -10q-169 0 -296 77t-191 203t-64 279q0 110 36.5 210t104 178.5t174 124.5t236.5 46q259 0 406 -188l-213 -175q-37 54 -77.5 78.5t-101.5 24.5q-116 0 -176.5 -84t-60.5 -215q0 -133 61.5 -216t175.5 -83
q124 0 201 131l221 -168q-80 -109 -185.5 -166t-250.5 -57z" />
    <glyph glyph-name="Cdotaccent" unicode="&#x10a;" horiz-adv-x="1492" 
d="M823 1581q-68 0 -114.5 45.5t-46.5 114.5q0 70 46.5 118t114.5 48t116 -48t48 -118q0 -68 -48.5 -114t-115.5 -46zM836 -29q-217 0 -379.5 102t-245 271.5t-82.5 380.5q0 216 87 388t245.5 269t361.5 97q96 0 178 -19.5t146 -56.5t111.5 -77.5t93.5 -94.5l-230 -225
q-62 87 -130.5 128.5t-155.5 41.5q-112 0 -195 -65t-122.5 -165.5t-39.5 -220.5q0 -71 14.5 -137.5t44.5 -123.5t72 -99.5t100 -66.5t126 -24q51 0 101.5 16t109.5 64.5t100 126.5l246 -209q-97 -142 -238.5 -221.5t-318.5 -79.5z" />
    <glyph glyph-name="cdotaccent" unicode="&#x10b;" horiz-adv-x="1146" 
d="M645 1210q-68 0 -115 46t-47 114q0 70 47 118t115 48t116 -48t48 -118q0 -68 -48.5 -114t-115.5 -46zM645 -10q-169 0 -296 77t-191 203t-64 279q0 110 36.5 210t104 178.5t174 124.5t236.5 46q259 0 406 -188l-213 -175q-37 54 -77.5 78.5t-101.5 24.5
q-116 0 -176.5 -84t-60.5 -215q0 -133 61.5 -216t175.5 -83q124 0 201 131l221 -168q-80 -109 -185.5 -166t-250.5 -57z" />
    <glyph glyph-name="Ccaron" unicode="&#x10c;" horiz-adv-x="1492" 
d="M942 1585h-248l-233 299h260l104 -162l101 162h260q-47 -59 -244 -299zM836 -29q-217 0 -379.5 102t-245 271.5t-82.5 380.5q0 216 87 388t245.5 269t361.5 97q96 0 178 -19.5t146 -56.5t111.5 -77.5t93.5 -94.5l-230 -225q-62 87 -130.5 128.5t-155.5 41.5
q-112 0 -195 -65t-122.5 -165.5t-39.5 -220.5q0 -71 14.5 -137.5t44.5 -123.5t72 -99.5t100 -66.5t126 -24q51 0 101.5 16t109.5 64.5t100 126.5l246 -209q-97 -142 -238.5 -221.5t-318.5 -79.5z" />
    <glyph glyph-name="ccaron" unicode="&#x10d;" horiz-adv-x="1146" 
d="M764 1214h-248l-233 299h260l104 -161l101 161h260q-47 -59 -244 -299zM645 -10q-169 0 -296 77t-191 203t-64 279q0 110 36.5 210t104 178.5t174 124.5t236.5 46q259 0 406 -188l-213 -175q-37 54 -77.5 78.5t-101.5 24.5q-116 0 -176.5 -84t-60.5 -215
q0 -133 61.5 -216t175.5 -83q124 0 201 131l221 -168q-80 -109 -185.5 -166t-250.5 -57z" />
    <glyph glyph-name="Dcaron" unicode="&#x10e;" horiz-adv-x="1593" 
d="M913 1585h-247l-234 299h260l105 -162l100 162h260q-47 -59 -244 -299zM717 0h-522v1450h522q156 0 281 -36.5t211 -102t144 -158t84.5 -202t26.5 -236.5q0 -114 -23.5 -215.5t-79 -194.5t-139.5 -159.5t-213 -106t-292 -39.5zM748 301q90 0 163 35.5t118 95.5t69 133.5
t24 153.5q0 59 -13 116.5t-42.5 112t-72 96t-106.5 66.5t-140 25h-211v-834h211z" />
    <glyph glyph-name="dcaron" unicode="&#x10f;" horiz-adv-x="1705" 
d="M1405 922h-12v104q71 8 104 31q45 29 51 100q-64 6 -105.5 51.5t-41.5 108.5q0 70 46 118t116 48q69 0 116 -47t47 -119v-19q0 -92 -29 -166t-76.5 -118.5t-103 -68t-112.5 -23.5zM573 -14q-118 0 -210.5 45t-149 123t-85 178t-28.5 215q0 116 29 216t85.5 178
t148.5 122.5t210 44.5q231 0 336 -236v578h318v-1450h-318v219q-104 -233 -336 -233zM666 248q111 0 177 85.5t66 215.5q0 127 -64 212t-171 85q-110 0 -177 -84.5t-67 -210.5q0 -79 26 -147t81 -112t129 -44z" />
    <glyph glyph-name="Dcroat" unicode="&#x110;" horiz-adv-x="1593" 
d="M717 0h-522v625h-175v200h175v625h522q156 0 281 -36.5t211 -102t144 -158t84.5 -202t26.5 -236.5q0 -114 -23.5 -215.5t-79 -194.5t-139.5 -159.5t-213 -106t-292 -39.5zM748 301q90 0 163 35.5t118 95.5t69 133.5t24 153.5q0 59 -13 116.5t-42.5 112t-72 96
t-106.5 66.5t-140 25h-211v-310h172v-200h-172v-324h211z" />
    <glyph glyph-name="dcroat" unicode="&#x111;" horiz-adv-x="1382" 
d="M573 -14q-118 0 -210.5 45t-149 123t-85 178t-28.5 215q0 116 29 216t85.5 178t148.5 122.5t210 44.5q231 0 336 -236v252h-184v201h184v125h318v-125h186v-201h-186v-1124h-318v219q-104 -233 -336 -233zM666 248q111 0 177 85.5t66 215.5q0 127 -64 212t-171 85
q-110 0 -177 -84.5t-67 -210.5q0 -79 26 -147t81 -112t129 -44z" />
    <glyph glyph-name="Emacron" unicode="&#x112;" horiz-adv-x="1269" 
d="M989 1608h-708v188h708v-188zM1122 0h-927v1450h927v-295h-585v-252h503v-317h-503v-271h585v-315z" />
    <glyph glyph-name="emacron" unicode="&#x113;" horiz-adv-x="1214" 
d="M971 1237h-709v188h709v-188zM618 -14q-128 0 -228.5 43.5t-163.5 120.5t-95.5 178t-32.5 219q0 119 30.5 219t92 177.5t162.5 121t233 43.5q157 0 271.5 -67t171.5 -178.5t57 -252.5q0 -42 -4 -96h-700q0 -70 18 -130.5t65.5 -105.5t118.5 -45q120 0 162 76l21 41h309
q-15 -68 -50 -129.5t-92 -115.5t-146.5 -86.5t-199.5 -32.5zM815 678q-2 40 -13.5 76.5t-33.5 71t-62 55t-92 20.5q-57 0 -101 -36t-66 -84.5t-27 -102.5h395z" />
    <glyph glyph-name="Ebreve" unicode="&#x114;" horiz-adv-x="1269" 
d="M637 1595q-289 0 -338 279h203q24 -117 129 -117q62 0 94 30t43 87h205q-25 -142 -115 -210.5t-221 -68.5zM1122 0h-927v1450h927v-295h-585v-252h503v-317h-503v-271h585v-315z" />
    <glyph glyph-name="ebreve" unicode="&#x115;" horiz-adv-x="1214" 
d="M618 1225q-288 0 -337 278h202q24 -117 129 -117q115 0 138 117h204q-25 -142 -115 -210t-221 -68zM618 -14q-128 0 -228.5 43.5t-163.5 120.5t-95.5 178t-32.5 219q0 119 30.5 219t92 177.5t162.5 121t233 43.5q157 0 271.5 -67t171.5 -178.5t57 -252.5q0 -42 -4 -96
h-700q0 -70 18 -130.5t65.5 -105.5t118.5 -45q120 0 162 76l21 41h309q-15 -68 -50 -129.5t-92 -115.5t-146.5 -86.5t-199.5 -32.5zM815 678q-2 40 -13.5 76.5t-33.5 71t-62 55t-92 20.5q-57 0 -101 -36t-66 -84.5t-27 -102.5h395z" />
    <glyph glyph-name="Edotaccent" unicode="&#x116;" horiz-adv-x="1269" 
d="M635 1581q-68 0 -115 46t-47 114q0 70 47 118t115 48t116 -48t48 -118q0 -68 -48.5 -114t-115.5 -46zM1122 0h-927v1450h927v-295h-585v-252h503v-317h-503v-271h585v-315z" />
    <glyph glyph-name="edotaccent" unicode="&#x117;" horiz-adv-x="1214" 
d="M616 1210q-68 0 -114.5 45.5t-46.5 114.5q0 70 46.5 118t114.5 48t116 -48t48 -118q0 -68 -48.5 -114t-115.5 -46zM618 -14q-128 0 -228.5 43.5t-163.5 120.5t-95.5 178t-32.5 219q0 119 30.5 219t92 177.5t162.5 121t233 43.5q157 0 271.5 -67t171.5 -178.5t57 -252.5
q0 -42 -4 -96h-700q0 -70 18 -130.5t65.5 -105.5t118.5 -45q120 0 162 76l21 41h309q-15 -68 -50 -129.5t-92 -115.5t-146.5 -86.5t-199.5 -32.5zM815 678q-2 40 -13.5 76.5t-33.5 71t-62 55t-92 20.5q-57 0 -101 -36t-66 -84.5t-27 -102.5h395z" />
    <glyph glyph-name="Eogonek" unicode="&#x118;" horiz-adv-x="1269" 
d="M1040 -426q-82 0 -137 44.5t-55 135.5q0 62 36 127.5t101 118.5h-790v1450h927v-295h-585v-252h503v-317h-503v-271h585v-315h4q-102 -70 -102 -164q0 -40 26 -62t60 -22q46 0 76 21v-168q-61 -26 -115 -29z" />
    <glyph glyph-name="eogonek" unicode="&#x119;" horiz-adv-x="1214" 
d="M629 -426q-82 0 -137.5 44.5t-55.5 135.5q0 123 123 234q-113 9 -202 57t-145 124.5t-85 172.5t-29 205q0 120 30.5 220t92 177.5t162.5 120.5t233 43q122 0 219 -39.5t157.5 -108.5t92 -158t31.5 -192v-47l-4 -49h-700q0 -71 20 -133t67.5 -105t114.5 -43q118 0 162 76
l21 41h309q-17 -67 -48 -124.5t-79.5 -107t-119.5 -83t-159 -45.5q-41 -29 -64.5 -70t-23.5 -84q0 -40 26 -62t60 -22q46 0 76 21v-168q-61 -26 -115 -29zM815 678q-2 40 -13.5 76.5t-33.5 71t-62 55t-92 20.5q-57 0 -101 -36t-66 -84.5t-27 -102.5h395z" />
    <glyph glyph-name="Ecaron" unicode="&#x11a;" horiz-adv-x="1269" 
d="M754 1585h-248l-234 299h260l105 -162l100 162h260q-87 -109 -243 -299zM1122 0h-927v1450h927v-295h-585v-252h503v-317h-503v-271h585v-315z" />
    <glyph glyph-name="ecaron" unicode="&#x11b;" horiz-adv-x="1214" 
d="M735 1214h-248l-233 299h260l104 -161l101 161h260q-47 -59 -244 -299zM618 -14q-128 0 -228.5 43.5t-163.5 120.5t-95.5 178t-32.5 219q0 119 30.5 219t92 177.5t162.5 121t233 43.5q157 0 271.5 -67t171.5 -178.5t57 -252.5q0 -42 -4 -96h-700q0 -70 18 -130.5
t65.5 -105.5t118.5 -45q120 0 162 76l21 41h309q-15 -68 -50 -129.5t-92 -115.5t-146.5 -86.5t-199.5 -32.5zM815 678q-2 40 -13.5 76.5t-33.5 71t-62 55t-92 20.5q-57 0 -101 -36t-66 -84.5t-27 -102.5h395z" />
    <glyph glyph-name="Gcircumflex" unicode="&#x11c;" horiz-adv-x="1632" 
d="M1165 1585h-235l-86 133l-88 -133h-242l217 281h209zM840 -29q-200 0 -362.5 96t-256.5 269t-94 389q0 153 54 291t149 240t233 162.5t297 60.5q168 0 309 -63t242 -179l-205 -219q-45 69 -137 123q-109 51 -197 51q-78 0 -144 -27t-112 -72t-77.5 -105.5t-46.5 -127
t-15 -135.5q0 -209 97.5 -338t277.5 -129q59 0 112.5 18t99.5 54.5t76 100.5t36 147h-441v272h772q4 -39 4 -113q0 -126 -27 -240t-82.5 -210t-134 -166.5t-188 -110t-239.5 -39.5z" />
    <glyph glyph-name="gcircumflex" unicode="&#x11d;" horiz-adv-x="1384" 
d="M989 1214h-235l-86 134l-88 -134h-242l217 281h209zM612 -444q-95 3 -151 11.5t-123 33.5q-102 39 -152 94l95 229q51 -61 137 -99t174 -38q62 0 116.5 15.5t100.5 47.5t73 89.5t27 134.5v145q-48 -108 -133 -170.5t-203 -62.5q-117 0 -209 44.5t-149 122.5t-86 178
t-29 216q0 118 28.5 217.5t84.5 177.5t148.5 122t211.5 44q233 0 336 -236v207h320v-968q0 -301 -223 -447q-165 -108 -394 -108zM666 248q111 0 177 85.5t66 215.5q0 127 -64 212t-171 85q-110 0 -177 -84.5t-67 -210.5q0 -79 26 -147t81 -112t129 -44z" />
    <glyph glyph-name="Gbreve" unicode="&#x11e;" horiz-adv-x="1632" 
d="M842 1595q-289 0 -338 279h203q24 -117 129 -117q62 0 94 30t43 87h205q-25 -142 -115 -210.5t-221 -68.5zM840 -29q-200 0 -362.5 96t-256.5 269t-94 389q0 153 54 291t149 240t233 162.5t297 60.5q168 0 309 -63t242 -179l-205 -219q-45 69 -137 123q-109 51 -197 51
q-78 0 -144 -27t-112 -72t-77.5 -105.5t-46.5 -127t-15 -135.5q0 -209 97.5 -338t277.5 -129q59 0 112.5 18t99.5 54.5t76 100.5t36 147h-441v272h772q4 -39 4 -113q0 -126 -27 -240t-82.5 -210t-134 -166.5t-188 -110t-239.5 -39.5z" />
    <glyph glyph-name="gbreve" unicode="&#x11f;" horiz-adv-x="1384" 
d="M666 1225q-289 0 -338 278h202q24 -117 129 -117q115 0 138 117h204q-25 -142 -114.5 -210t-220.5 -68zM612 -444q-95 3 -151 11.5t-123 33.5q-102 39 -152 94l95 229q51 -61 137 -99t174 -38q62 0 116.5 15.5t100.5 47.5t73 89.5t27 134.5v145q-48 -108 -133 -170.5
t-203 -62.5q-117 0 -209 44.5t-149 122.5t-86 178t-29 216q0 118 28.5 217.5t84.5 177.5t148.5 122t211.5 44q233 0 336 -236v207h320v-968q0 -301 -223 -447q-165 -108 -394 -108zM666 248q111 0 177 85.5t66 215.5q0 127 -64 212t-171 85q-110 0 -177 -84.5t-67 -210.5
q0 -79 26 -147t81 -112t129 -44z" />
    <glyph glyph-name="Gdotaccent" unicode="&#x120;" horiz-adv-x="1632" 
d="M840 1581q-68 0 -115 46t-47 114q0 70 47 118t115 48t116 -48t48 -118q0 -68 -48.5 -114t-115.5 -46zM840 -29q-200 0 -362.5 96t-256.5 269t-94 389q0 153 54 291t149 240t233 162.5t297 60.5q168 0 309 -63t242 -179l-205 -219q-45 69 -137 123q-109 51 -197 51
q-78 0 -144 -27t-112 -72t-77.5 -105.5t-46.5 -127t-15 -135.5q0 -209 97.5 -338t277.5 -129q59 0 112.5 18t99.5 54.5t76 100.5t36 147h-441v272h772q4 -39 4 -113q0 -126 -27 -240t-82.5 -210t-134 -166.5t-188 -110t-239.5 -39.5z" />
    <glyph glyph-name="gdotaccent" unicode="&#x121;" horiz-adv-x="1384" 
d="M664 1210q-68 0 -115 46t-47 114q0 70 47 118t115 48t115.5 -48t47.5 -118q0 -68 -48 -114t-115 -46zM612 -444q-95 3 -151 11.5t-123 33.5q-102 39 -152 94l95 229q51 -61 137 -99t174 -38q62 0 116.5 15.5t100.5 47.5t73 89.5t27 134.5v145q-48 -108 -133 -170.5
t-203 -62.5q-117 0 -209 44.5t-149 122.5t-86 178t-29 216q0 118 28.5 217.5t84.5 177.5t148.5 122t211.5 44q233 0 336 -236v207h320v-968q0 -301 -223 -447q-165 -108 -394 -108zM666 248q111 0 177 85.5t66 215.5q0 127 -64 212t-171 85q-110 0 -177 -84.5t-67 -210.5
q0 -79 26 -147t81 -112t129 -44z" />
    <glyph glyph-name="Gcedilla" unicode="&#x122;" horiz-adv-x="1632" 
d="M840 -29q-200 0 -362.5 96t-256.5 269t-94 389q0 153 54 291t149 240t233 162.5t297 60.5q168 0 309 -63t242 -179l-205 -219q-45 69 -137 123q-109 51 -197 51q-78 0 -144 -27t-112 -72t-77.5 -105.5t-46.5 -127t-15 -135.5q0 -209 97.5 -338t277.5 -129q59 0 112.5 18
t99.5 54.5t76 100.5t36 147h-441v272h772q4 -39 4 -113q0 -126 -27 -240t-82.5 -210t-134 -166.5t-188 -110t-239.5 -39.5zM666 -635h-13v105q74 8 105 30q45 29 51 101q-64 6 -105.5 51t-41.5 108q0 70 45.5 118t115.5 48q69 0 116.5 -47t47.5 -119v-18q0 -74 -19.5 -137
t-51.5 -106.5t-73.5 -74t-86.5 -45t-90 -14.5z" />
    <glyph glyph-name="gcedilla" unicode="&#x123;" horiz-adv-x="1384" 
d="M705 1212q-66 0 -116 48t-50 118v19q0 172 95 274.5t224 102.5h14v-105q-64 -3 -107 -34.5t-46 -96.5q65 -6 105 -50t40 -110q0 -73 -47 -119.5t-112 -46.5zM612 -444q-95 3 -151 11.5t-123 33.5q-102 39 -152 94l95 229q51 -61 137 -99t174 -38q62 0 116.5 15.5
t100.5 47.5t73 89.5t27 134.5v145q-48 -108 -133 -170.5t-203 -62.5q-117 0 -209 44.5t-149 122.5t-86 178t-29 216q0 118 28.5 217.5t84.5 177.5t148.5 122t211.5 44q233 0 336 -236v207h320v-968q0 -301 -223 -447q-165 -108 -394 -108zM666 248q111 0 177 85.5t66 215.5
q0 127 -64 212t-171 85q-110 0 -177 -84.5t-67 -210.5q0 -79 26 -147t81 -112t129 -44z" />
    <glyph glyph-name="Hcircumflex" unicode="&#x124;" horiz-adv-x="1554" 
d="M1104 1585h-236l-86 133l-88 -133h-241l217 281h209zM1360 0h-342v586h-481v-586h-342v1450h342v-547h481v547h342v-1450z" />
    <glyph glyph-name="hcircumflex" unicode="&#x125;" horiz-adv-x="1320" 
d="M1174 1214h-236l-86 134l-88 -134h-242l217 281h209zM1186 0h-318v588q0 64 -7 107.5t-27 80t-58.5 54.5t-97.5 18q-104 0 -154.5 -64.5t-50.5 -175.5v-608h-317v1450h317v-535q60 93 133.5 143t173.5 50q96 0 166.5 -23.5t116.5 -66t73.5 -109t38.5 -143.5t11 -178v-588
z" />
    <glyph glyph-name="Hbar" unicode="&#x126;" horiz-adv-x="1554" 
d="M1360 0h-342v586h-481v-586h-342v975h-58v209h58v266h342v-266h481v266h342v-266h59v-209h-59v-975zM1018 903v72h-481v-72h481z" />
    <glyph glyph-name="hbar" unicode="&#x127;" horiz-adv-x="1320" 
d="M1186 0h-318v588q0 64 -7 107.5t-27 80t-58.5 54.5t-97.5 18q-104 0 -154.5 -64.5t-50.5 -175.5v-608h-317v1124h-144v201h144v125h317v-125h154v-201h-154v-209q60 93 133.5 143t173.5 50q96 0 166.5 -23.5t116.5 -66t73.5 -109t38.5 -143.5t11 -178v-588z" />
    <glyph glyph-name="Itilde" unicode="&#x128;" horiz-adv-x="731" 
d="M526 1548q-81 0 -143 35l-107 62q-37 22 -67 22q-19 0 -31.5 -17.5t-25.5 -66.5h-179q0 118 78 203q74 74 178 74q32 0 66 -11t55.5 -22.5t55.5 -33t47 -28.5q34 -22 69 -22q22 0 35.5 16t26.5 64h174q0 -135 -69.5 -205t-162.5 -70zM537 0h-342v1450h342v-1450z" />
    <glyph glyph-name="itilde" unicode="&#x129;" horiz-adv-x="628" 
d="M475 1178q-82 0 -143 34l-107 62q-37 22 -67 22q-19 0 -32 -18t-26 -66h-178q0 118 78 203q74 74 178 74q32 0 66 -10.5t55 -22t55 -33t47 -28.5q36 -23 70 -23q22 0 35 16t26 64h175q0 -135 -69.5 -204.5t-162.5 -69.5zM473 0h-317v1081h317v-1081z" />
    <glyph glyph-name="Imacron" unicode="&#x12a;" horiz-adv-x="731" 
d="M719 1608h-709v188h709v-188zM537 0h-342v1450h342v-1450z" />
    <glyph glyph-name="imacron" unicode="&#x12b;" horiz-adv-x="628" 
d="M668 1237h-709v188h709v-188zM473 0h-317v1081h317v-1081z" />
    <glyph glyph-name="Ibreve" unicode="&#x12c;" horiz-adv-x="731" 
d="M367 1595q-289 0 -338 279h202q24 -117 129 -117q115 0 138 117h204q-25 -142 -114.5 -210.5t-220.5 -68.5zM537 0h-342v1450h342v-1450z" />
    <glyph glyph-name="ibreve" unicode="&#x12d;" horiz-adv-x="628" 
d="M315 1225q-289 0 -338 278h203q24 -117 129 -117q62 0 94 30t43 87h205q-25 -142 -115 -210t-221 -68zM473 0h-317v1081h317v-1081z" />
    <glyph glyph-name="Iogonek" unicode="&#x12e;" horiz-adv-x="731" 
d="M455 -426q-82 0 -137.5 44.5t-55.5 135.5q0 62 36 127.5t101 118.5h-204v1450h342v-1450h4q-103 -70 -103 -164q0 -40 26 -62t60 -22q46 0 76 21v-168q-61 -26 -115 -29z" />
    <glyph glyph-name="iogonek" unicode="&#x12f;" horiz-adv-x="628" 
d="M313 1210q-68 0 -114.5 45.5t-46.5 114.5q0 70 46.5 118t114.5 48t116 -48t48 -118q0 -68 -48.5 -114t-115.5 -46zM391 -426q-82 0 -137 44.5t-55 135.5q0 62 36 127.5t101 118.5h-180v1081h317v-1081h4q-102 -70 -102 -164q0 -40 26 -62t60 -22q46 0 76 21v-168
q-61 -26 -115 -29z" />
    <glyph glyph-name="Idotaccent" unicode="&#x130;" horiz-adv-x="731" 
d="M365 1581q-68 0 -115 46t-47 114q0 70 47 118t115 48t115.5 -48t47.5 -118q0 -68 -48 -114t-115 -46zM537 0h-342v1450h342v-1450z" />
    <glyph glyph-name="idotless" unicode="&#x131;" horiz-adv-x="628" 
d="M473 0h-317v1081h317v-1081z" />
    <glyph glyph-name="Jcircumflex" unicode="&#x134;" horiz-adv-x="1312" 
d="M1292 1585h-235l-86 133l-88 -133h-242l217 281h209zM629 -31q-70 0 -140 17t-139.5 56.5t-122 97t-85.5 147.5t-33 200h354q0 -235 170 -235q64 0 101 32t49 80.5t12 122.5v963h342v-963q0 -109 -30 -198t-79 -147.5t-115.5 -98.5t-137.5 -57t-146 -17z" />
    <glyph glyph-name="jcircumflex" unicode="&#x135;" horiz-adv-x="628" 
d="M639 1214h-236l-86 134l-88 -134h-241l217 281h209zM-37 -453v285q193 0 193 156v1091h317v-1091q0 -216 -138 -328.5t-372 -112.5z" />
    <glyph glyph-name="Kcedilla" unicode="&#x136;" horiz-adv-x="1439" 
d="M1339 0h-389l-49 100l-237 469l-127 -178v-391h-342v1450h342v-535l362 535h397l-419 -586l399 -743zM569 -635h-12v105q74 8 105 30q45 29 51 101q-64 6 -106 51t-42 108q0 70 46 118t116 48q69 0 116.5 -47t47.5 -119v-18q0 -92 -29.5 -166.5t-77 -119t-103 -68
t-112.5 -23.5z" />
    <glyph glyph-name="kcedilla" unicode="&#x137;" horiz-adv-x="1337" 
d="M1276 0h-363q-71 120 -101 171.5t-42.5 73.5l-50 88t-90.5 159l-156 -164v-328h-317v1450h317v-737q36 40 77.5 86t54 59.5t29.5 33t30 34.5t29.5 33.5t52.5 61t75 87.5h389l-358 -381q92 -157 147 -253t70 -122t60 -102.5t147 -249.5zM559 -635h-12v105q73 8 104 30
q45 29 51 101q-64 6 -105.5 51t-41.5 108q0 70 46 118t116 48q69 0 116.5 -47t47.5 -119v-18q0 -92 -29.5 -166.5t-77 -119t-103 -68t-112.5 -23.5z" />
    <glyph glyph-name="kra" unicode="&#x138;" horiz-adv-x="1337" 
d="M1276 0h-363q-71 120 -101 171.5t-42.5 73.5l-50 88t-90.5 159l-156 -164v-328h-317v1450h317v-737q36 40 77.5 86t54 59.5t29.5 33t30 34.5t29.5 33.5t52.5 61t75 87.5h389l-358 -381q92 -157 147 -253t70 -122t60 -102.5t147 -249.5z" />
    <glyph glyph-name="Lacute" unicode="&#x139;" horiz-adv-x="1257" 
d="M473 1585h-201l93 342h329zM1143 0h-948v1450h342v-1135h606v-315z" />
    <glyph glyph-name="lacute" unicode="&#x13a;" horiz-adv-x="628" 
d="M430 1626h-201l93 342h329zM473 0h-317v1450l317 137v-1587z" />
    <glyph glyph-name="Lcedilla" unicode="&#x13b;" horiz-adv-x="1257" 
d="M1143 0h-948v1450h342v-1135h606v-315zM498 -635h-13v105q74 8 105 30q45 29 51 101q-64 6 -105.5 51t-41.5 108q0 70 45.5 118t115.5 48q69 0 116.5 -47t47.5 -119v-18q0 -74 -19.5 -137t-51.5 -106.5t-73.5 -74t-86.5 -45t-90 -14.5z" />
    <glyph glyph-name="lcedilla" unicode="&#x13c;" horiz-adv-x="628" 
d="M473 0h-317v1450l317 137v-1587zM158 -635h-13v105q74 8 105 30q45 29 51 101q-64 6 -105.5 51t-41.5 108q0 70 45.5 118t115.5 48q69 0 116.5 -47t47.5 -119v-18q0 -74 -19.5 -137t-51.5 -106.5t-73.5 -74t-86.5 -45t-90 -14.5z" />
    <glyph glyph-name="Lcaron" unicode="&#x13d;" horiz-adv-x="1257" 
d="M475 1585h-248l-233 299h260l104 -162l101 162h260q-47 -59 -244 -299zM1143 0h-948v1450h342v-1135h606v-315z" />
    <glyph glyph-name="lcaron" unicode="&#x13e;" horiz-adv-x="628" 
d="M432 1626h-248l-233 299h260l104 -162l101 162h260q-47 -59 -244 -299zM473 0h-317v1450l317 137v-1587z" />
    <glyph glyph-name="Lmiddledot" unicode="&#x13f;" horiz-adv-x="1257" 
d="M1143 0h-948v1450h342v-1135h606v-315zM836 592q-68 0 -115 46t-47 114q0 70 47 118t115 48t115.5 -48t47.5 -118q0 -68 -48 -114t-115 -46z" />
    <glyph glyph-name="lmiddledot" unicode="&#x140;" horiz-adv-x="1042" 
d="M475 0h-317v1450l317 137v-1587zM774 578q-68 0 -115 45.5t-47 113.5q0 70 47 118t115 48t116 -48t48 -118q0 -68 -48.5 -113.5t-115.5 -45.5z" />
    <glyph glyph-name="Lslash" unicode="&#x141;" horiz-adv-x="1257" 
d="M1143 0h-948v473l-156 -86l-10 299l166 92v672h342v-479l157 88l11 -301l-168 -94v-349h606v-315z" />
    <glyph glyph-name="lslash" unicode="&#x142;" horiz-adv-x="628" 
d="M473 0h-317v502l-168 -94l-11 299l179 100v643l317 137v-602l170 94l10 -301l-180 -100v-678z" />
    <glyph glyph-name="Nacute" unicode="&#x143;" horiz-adv-x="1609" 
d="M922 1585h-201l92 342h330zM1415 0h-375l-503 864v-864h-342v1450h376l502 -872v872h342v-1450z" />
    <glyph glyph-name="nacute" unicode="&#x144;" horiz-adv-x="1325" 
d="M788 1214h-200l92 342h330zM1188 0h-320v588q0 67 -7.5 111.5t-27 80t-57.5 52t-96 16.5q-105 0 -155 -64t-50 -176v-608h-319v1079h319v-164q120 193 318 193q95 0 164.5 -23.5t113.5 -65.5t70.5 -108.5t36.5 -143t10 -179.5v-588z" />
    <glyph glyph-name="Ncedilla" unicode="&#x145;" horiz-adv-x="1609" 
d="M1415 0h-375l-503 864v-864h-342v1450h376l502 -872v872h342v-1450zM649 -635h-12v105q73 8 104 30q46 30 52 101q-64 6 -106 51t-42 108q0 70 46 118t116 48q69 0 116.5 -47t47.5 -119v-18q0 -92 -29.5 -166.5t-77 -119t-103 -68t-112.5 -23.5z" />
    <glyph glyph-name="ncedilla" unicode="&#x146;" horiz-adv-x="1325" 
d="M1188 0h-320v588q0 67 -7.5 111.5t-27 80t-57.5 52t-96 16.5q-105 0 -155 -64t-50 -176v-608h-319v1079h319v-164q120 193 318 193q95 0 164.5 -23.5t113.5 -65.5t70.5 -108.5t36.5 -143t10 -179.5v-588zM516 -635h-12v105q73 8 104 30q45 29 51 101q-64 6 -105.5 51
t-41.5 108q0 70 46 118t116 48q69 0 116.5 -47t47.5 -119v-18q0 -92 -29.5 -166.5t-77 -119t-103 -68t-112.5 -23.5z" />
    <glyph glyph-name="Ncaron" unicode="&#x147;" horiz-adv-x="1609" 
d="M924 1585h-248l-234 299h260l105 -162l100 162h260q-87 -109 -243 -299zM1415 0h-375l-503 864v-864h-342v1450h376l502 -872v872h342v-1450z" />
    <glyph glyph-name="ncaron" unicode="&#x148;" horiz-adv-x="1325" 
d="M791 1214h-248l-234 299h260l105 -161l100 161h260q-87 -109 -243 -299zM1188 0h-320v588q0 67 -7.5 111.5t-27 80t-57.5 52t-96 16.5q-105 0 -155 -64t-50 -176v-608h-319v1079h319v-164q120 193 318 193q95 0 164.5 -23.5t113.5 -65.5t70.5 -108.5t36.5 -143t10 -179.5
v-588z" />
    <glyph glyph-name="Omacron" unicode="&#x14c;" horiz-adv-x="1679" 
d="M1194 1608h-709v188h709v-188zM840 -29q-154 0 -288.5 61.5t-227 165t-145 241t-52.5 286.5q0 205 92 377.5t256 274.5t365 102q153 0 286.5 -60t226 -161.5t146 -240t53.5 -292.5q0 -156 -54.5 -295.5t-148 -240t-226.5 -159.5t-283 -59zM840 276q88 0 162 38
t121.5 101.5t73.5 143.5t26 166q0 85 -26 165t-73 143.5t-121 102t-163 38.5q-114 0 -202.5 -64t-133.5 -165.5t-45 -219.5t45 -219.5t133.5 -165.5t202.5 -64z" />
    <glyph glyph-name="omacron" unicode="&#x14d;" horiz-adv-x="1327" 
d="M1018 1237h-709v188h709v-188zM664 -14q-169 0 -300 75.5t-200.5 202.5t-69.5 283q0 157 69 284t200 202t301 75q133 0 242 -45t180 -122.5t109 -178.5t38 -215q0 -156 -67 -282.5t-198 -202.5t-304 -76zM664 248q112 0 180.5 86t68.5 213q0 128 -68 214.5t-181 86.5
q-112 0 -181 -87t-69 -214t69 -213t181 -86z" />
    <glyph glyph-name="Obreve" unicode="&#x14e;" horiz-adv-x="1679" 
d="M842 1595q-289 0 -338 279h203q24 -117 129 -117q62 0 94 30t43 87h205q-25 -142 -115 -210.5t-221 -68.5zM840 -29q-154 0 -288.5 61.5t-227 165t-145 241t-52.5 286.5q0 205 92 377.5t256 274.5t365 102q153 0 286.5 -60t226 -161.5t146 -240t53.5 -292.5
q0 -156 -54.5 -295.5t-148 -240t-226.5 -159.5t-283 -59zM840 276q88 0 162 38t121.5 101.5t73.5 143.5t26 166q0 85 -26 165t-73 143.5t-121 102t-163 38.5q-114 0 -202.5 -64t-133.5 -165.5t-45 -219.5t45 -219.5t133.5 -165.5t202.5 -64z" />
    <glyph glyph-name="obreve" unicode="&#x14f;" horiz-adv-x="1327" 
d="M666 1225q-289 0 -338 278h202q24 -117 129 -117q115 0 138 117h204q-25 -142 -114.5 -210t-220.5 -68zM664 -14q-169 0 -300 75.5t-200.5 202.5t-69.5 283q0 157 69 284t200 202t301 75q133 0 242 -45t180 -122.5t109 -178.5t38 -215q0 -156 -67 -282.5t-198 -202.5
t-304 -76zM664 248q112 0 180.5 86t68.5 213q0 128 -68 214.5t-181 86.5q-112 0 -181 -87t-69 -214t69 -213t181 -86z" />
    <glyph glyph-name="Odoubleacute" unicode="&#x150;" horiz-adv-x="1679" 
d="M739 1585h-164l130 299h272zM1110 1585h-168l135 299h269zM840 -29q-154 0 -288.5 61.5t-227 165t-145 241t-52.5 286.5q0 205 92 377.5t256 274.5t365 102q153 0 286.5 -60t226 -161.5t146 -240t53.5 -292.5q0 -156 -54.5 -295.5t-148 -240t-226.5 -159.5t-283 -59z
M840 276q88 0 162 38t121.5 101.5t73.5 143.5t26 166q0 85 -26 165t-73 143.5t-121 102t-163 38.5q-114 0 -202.5 -64t-133.5 -165.5t-45 -219.5t45 -219.5t133.5 -165.5t202.5 -64z" />
    <glyph glyph-name="odoubleacute" unicode="&#x151;" horiz-adv-x="1327" 
d="M563 1214h-164l129 299h273zM934 1214h-168l135 299h268zM664 -14q-169 0 -300 75.5t-200.5 202.5t-69.5 283q0 157 69 284t200 202t301 75q133 0 242 -45t180 -122.5t109 -178.5t38 -215q0 -156 -67 -282.5t-198 -202.5t-304 -76zM664 248q112 0 180.5 86t68.5 213
q0 128 -68 214.5t-181 86.5q-112 0 -181 -87t-69 -214t69 -213t181 -86z" />
    <glyph glyph-name="OE" unicode="&#x152;" horiz-adv-x="2002" 
d="M1855 0h-1005q-143 0 -264 42t-204.5 113t-142 164.5t-85.5 196t-27 209.5t27 210t85 196.5t141.5 164t204.5 112.5t265 42h1005v-295h-585v-252h504v-317h-504v-271h585v-315zM928 301v834h-51q-99 0 -177.5 -35.5t-126 -95t-72 -130.5t-24.5 -147q0 -181 116 -303.5
t284 -122.5h51z" />
    <glyph glyph-name="oe" unicode="&#x153;" horiz-adv-x="2035" 
d="M1440 -14q-236 0 -377 147q-153 -147 -399 -147q-169 0 -300 75.5t-200.5 202.5t-69.5 283q0 157 69 284t200 202t301 75q239 0 397 -145q135 145 377 145q157 0 271.5 -67t171 -178.5t56.5 -252.5q0 -42 -4 -96h-700q0 -51 11 -98.5t34 -89.5t63.5 -67.5t94.5 -25.5
q119 0 161 76l21 41h309q-15 -68 -49.5 -129.5t-91.5 -115.5t-146.5 -86.5t-199.5 -32.5zM1636 678q-2 40 -13.5 76.5t-33.5 71t-61.5 55t-91.5 20.5q-57 0 -101.5 -36t-66.5 -84.5t-27 -102.5h395zM664 248q112 0 180.5 86t68.5 213q0 128 -68 214.5t-181 86.5
q-112 0 -181 -87t-69 -214t69 -213t181 -86z" />
    <glyph glyph-name="Racute" unicode="&#x154;" horiz-adv-x="1441" 
d="M848 1585h-201l92 342h330zM1329 0h-393l-283 516h-116v-516h-342v1450h596q127 0 224.5 -37t157 -104t89.5 -154t30 -192q0 -142 -76.5 -255.5t-232.5 -160.5zM752 811q47 0 82 15t53.5 38.5t27.5 48.5t9 50q0 82 -43 127t-129 45h-215v-324h215z" />
    <glyph glyph-name="racute" unicode="&#x155;" horiz-adv-x="978" 
d="M606 1214h-200l92 342h329zM475 0h-319v1079h319v-170q41 88 111 143.5t162 55.5q73 0 106 -33q36 -36 45 -65l-39 -275q-26 47 -65.5 72.5t-108.5 26.5q-98 0 -154.5 -70.5t-56.5 -155.5v-608z" />
    <glyph glyph-name="Rcedilla" unicode="&#x156;" horiz-adv-x="1441" 
d="M1329 0h-393l-283 516h-116v-516h-342v1450h596q127 0 224.5 -37t157 -104t89.5 -154t30 -192q0 -142 -76.5 -255.5t-232.5 -160.5zM752 811q47 0 82 15t53.5 38.5t27.5 48.5t9 50q0 82 -43 127t-129 45h-215v-324h215zM575 -635h-12v105q74 8 105 30q45 29 51 101
q-64 6 -106 51t-42 108q0 70 46 118t116 48q69 0 116.5 -47t47.5 -119v-18q0 -92 -29.5 -166.5t-77 -119t-103 -68t-112.5 -23.5z" />
    <glyph glyph-name="rcedilla" unicode="&#x157;" horiz-adv-x="978" 
d="M475 0h-319v1079h319v-170q41 88 111 143.5t162 55.5q73 0 106 -33q36 -36 45 -65l-39 -275q-26 47 -65.5 72.5t-108.5 26.5q-98 0 -154.5 -70.5t-56.5 -155.5v-608zM156 -635h-13v105q74 8 105 30q45 29 51 101q-64 6 -105.5 51t-41.5 108q0 70 45.5 118t115.5 48
q69 0 116.5 -47t47.5 -119v-18q0 -74 -19.5 -137t-51.5 -106.5t-73.5 -74t-86.5 -45t-90 -14.5z" />
    <glyph glyph-name="Rcaron" unicode="&#x158;" horiz-adv-x="1441" 
d="M850 1585h-248l-233 299h260l104 -162l101 162h260q-47 -59 -244 -299zM1329 0h-393l-283 516h-116v-516h-342v1450h596q127 0 224.5 -37t157 -104t89.5 -154t30 -192q0 -142 -76.5 -255.5t-232.5 -160.5zM752 811q47 0 82 15t53.5 38.5t27.5 48.5t9 50q0 82 -43 127
t-129 45h-215v-324h215z" />
    <glyph glyph-name="rcaron" unicode="&#x159;" horiz-adv-x="978" 
d="M608 1214h-248l-233 299h260l105 -161l100 161h260q-47 -59 -244 -299zM475 0h-319v1079h319v-170q41 88 111 143.5t162 55.5q73 0 106 -33q36 -36 45 -65l-39 -275q-26 47 -65.5 72.5t-108.5 26.5q-98 0 -154.5 -70.5t-56.5 -155.5v-608z" />
    <glyph glyph-name="Sacute" unicode="&#x15a;" horiz-adv-x="1302" 
d="M760 1585h-201l92 342h330zM637 -23q-210 0 -357 123t-153 320h322q0 -82 60 -131t136 -49q83 0 136 41.5t53 119.5t-54 115q-34 24 -86 47t-89.5 35.5t-119.5 38.5q-199 62 -286 201q-52 76 -52 206q0 106 42 191t112.5 137t157.5 79.5t182 27.5q136 0 247.5 -51.5
t179 -151.5t67.5 -229h-328q-3 72 -52 109.5t-116 37.5q-70 0 -117 -37t-47 -100q2 -41 15 -64t47 -43q57 -33 131 -53l168 -51q196 -62 292 -213q50 -86 50 -225q0 -132 -73 -231.5t-194.5 -149.5t-273.5 -50z" />
    <glyph glyph-name="sacute" unicode="&#x15b;" horiz-adv-x="1126" 
d="M674 1214h-201l92 342h330zM557 -20q-142 0 -254.5 48.5t-171.5 147.5q-41 65 -41 156h309q3 -65 47.5 -98.5t110.5 -36.5q68 0 117 32.5t49 89.5q0 48 -45 68q-34 16 -64 26t-48 15t-65.5 16t-80.5 19q-177 41 -260 158q-45 60 -45 165q0 103 65 179t163.5 111.5
t213.5 35.5q85 0 162 -19t141.5 -56t102.5 -100.5t38 -145.5h-303q-3 60 -41.5 84t-105.5 26q-55 0 -96 -28t-41 -76q0 -47 47 -68q55 -28 114 -41l150 -37q184 -42 266 -153q45 -62 45 -170q0 -103 -69.5 -184t-178 -122.5t-231.5 -41.5z" />
    <glyph glyph-name="Scircumflex" unicode="&#x15c;" horiz-adv-x="1302" 
d="M969 1585h-236l-86 133l-88 -133h-242l218 281h208zM637 -23q-210 0 -357 123t-153 320h322q0 -82 60 -131t136 -49q83 0 136 41.5t53 119.5t-54 115q-34 24 -86 47t-89.5 35.5t-119.5 38.5q-199 62 -286 201q-52 76 -52 206q0 106 42 191t112.5 137t157.5 79.5t182 27.5
q136 0 247.5 -51.5t179 -151.5t67.5 -229h-328q-3 72 -52 109.5t-116 37.5q-70 0 -117 -37t-47 -100q2 -41 15 -64t47 -43q57 -33 131 -53l168 -51q196 -62 292 -213q50 -86 50 -225q0 -132 -73 -231.5t-194.5 -149.5t-273.5 -50z" />
    <glyph glyph-name="scircumflex" unicode="&#x15d;" horiz-adv-x="1126" 
d="M883 1214h-236l-86 134l-88 -134h-242l218 281h208zM557 -20q-142 0 -254.5 48.5t-171.5 147.5q-41 65 -41 156h309q3 -65 47.5 -98.5t110.5 -36.5q68 0 117 32.5t49 89.5q0 48 -45 68q-34 16 -64 26t-48 15t-65.5 16t-80.5 19q-177 41 -260 158q-45 60 -45 165
q0 103 65 179t163.5 111.5t213.5 35.5q85 0 162 -19t141.5 -56t102.5 -100.5t38 -145.5h-303q-3 60 -41.5 84t-105.5 26q-55 0 -96 -28t-41 -76q0 -47 47 -68q55 -28 114 -41l150 -37q184 -42 266 -153q45 -62 45 -170q0 -103 -69.5 -184t-178 -122.5t-231.5 -41.5z" />
    <glyph glyph-name="Scedilla" unicode="&#x15e;" horiz-adv-x="1302" 
d="M555 -424q-101 0 -170 14l25 129q18 -2 49 -2q14 -2 35 -2q143 0 143 62q0 27 -28 39.5t-113 15.5l41 154q-178 33 -291 142t-119 292h322q0 -82 60 -131t136 -49q83 0 136 41.5t53 119.5t-54 115q-34 24 -86 47t-89.5 35.5t-119.5 38.5q-199 62 -286 201q-52 76 -52 206
q0 106 42 191t112.5 137t157.5 79.5t182 27.5q136 0 247.5 -51.5t179 -151.5t67.5 -229h-328q-3 72 -52 109.5t-116 37.5q-70 0 -117 -37t-47 -100q2 -41 15 -64t47 -43q57 -33 131 -53l168 -51q196 -62 292 -213q50 -86 50 -225q0 -132 -71 -230t-200 -151
q-87 -36 -184 -45l-21 -66q85 -8 128.5 -50.5t43.5 -96.5q0 -53 -27.5 -92t-74.5 -60t-101 -31t-116 -10z" />
    <glyph glyph-name="scedilla" unicode="&#x15f;" horiz-adv-x="1126" 
d="M461 -424q-101 0 -170 14l24 129q18 -2 50 -2q14 -2 34 -2q144 0 144 62q0 27 -28 39.5t-114 15.5l41 156q-56 10 -106 28t-95.5 47t-78.5 67t-52.5 90t-19.5 112h309q3 -65 47.5 -98.5t110.5 -36.5q68 0 117 32.5t49 89.5q0 48 -45 68q-34 16 -64 26t-48 15t-65.5 16
t-80.5 19q-177 41 -260 158q-45 60 -45 165q0 103 65 179t163.5 111.5t213.5 35.5q85 0 162 -19t141.5 -56t102.5 -100.5t38 -145.5h-303q-3 60 -41.5 84t-105.5 26q-55 0 -96 -28t-41 -76q0 -47 47 -68q55 -28 114 -41l150 -37q184 -42 266 -153q45 -62 45 -170
q0 -101 -59 -176.5t-148 -115t-200 -52.5l-21 -68q85 -8 128.5 -50.5t43.5 -96.5q0 -53 -27.5 -92t-74.5 -60t-101 -31t-116 -10z" />
    <glyph glyph-name="Scaron" unicode="&#x160;" horiz-adv-x="1302" 
d="M762 1585h-248l-233 299h260l104 -162l100 162h261q-47 -59 -244 -299zM637 -23q-210 0 -357 123t-153 320h322q0 -82 60 -131t136 -49q83 0 136 41.5t53 119.5t-54 115q-34 24 -86 47t-89.5 35.5t-119.5 38.5q-199 62 -286 201q-52 76 -52 206q0 106 42 191t112.5 137
t157.5 79.5t182 27.5q136 0 247.5 -51.5t179 -151.5t67.5 -229h-328q-3 72 -52 109.5t-116 37.5q-70 0 -117 -37t-47 -100q2 -41 15 -64t47 -43q57 -33 131 -53l168 -51q196 -62 292 -213q50 -86 50 -225q0 -132 -73 -231.5t-194.5 -149.5t-273.5 -50z" />
    <glyph glyph-name="scaron" unicode="&#x161;" horiz-adv-x="1126" 
d="M676 1214h-248l-233 299h260l104 -161l100 161h261q-47 -59 -244 -299zM557 -20q-142 0 -254.5 48.5t-171.5 147.5q-41 65 -41 156h309q3 -65 47.5 -98.5t110.5 -36.5q68 0 117 32.5t49 89.5q0 48 -45 68q-34 16 -64 26t-48 15t-65.5 16t-80.5 19q-177 41 -260 158
q-45 60 -45 165q0 103 65 179t163.5 111.5t213.5 35.5q85 0 162 -19t141.5 -56t102.5 -100.5t38 -145.5h-303q-3 60 -41.5 84t-105.5 26q-55 0 -96 -28t-41 -76q0 -47 47 -68q55 -28 114 -41l150 -37q184 -42 266 -153q45 -62 45 -170q0 -103 -69.5 -184t-178 -122.5
t-231.5 -41.5z" />
    <glyph glyph-name="Tcedilla" unicode="&#x162;" horiz-adv-x="1368" 
d="M676 -446q-101 0 -170 14l24 129q18 -2 50 -2q14 -2 34 -2q144 0 144 61q0 27 -28.5 40t-113.5 16l52 190h-154v1135h-399v315h1138v-315h-397v-1135l-33 -106q85 -8 128.5 -50.5t43.5 -97.5q0 -53 -27.5 -91.5t-74.5 -60t-101 -31t-116 -9.5z" />
    <glyph glyph-name="tcedilla" unicode="&#x163;" horiz-adv-x="962" 
d="M510 -424q-101 0 -170 14l25 129q18 -2 49 -2q14 -2 35 -2q143 0 143 62q0 27 -28 39.5t-113 15.5l47 178q-105 22 -163.5 97t-58.5 198v539h-198v235h198v371h318v-371h256v-235h-256v-467q0 -82 26.5 -108.5t86.5 -26.5q22 0 43.5 7.5t31.5 13t33 20.5l57 -201
q-74 -61 -188 -76l-27 -90q85 -8 128.5 -50.5t43.5 -96.5q0 -53 -27.5 -92t-74.5 -60t-101 -31t-116 -10z" />
    <glyph glyph-name="Tcaron" unicode="&#x164;" horiz-adv-x="1368" 
d="M803 1585h-248l-233 299h260l104 -162l100 162h261q-47 -59 -244 -299zM856 0h-342v1135h-399v315h1138v-315h-397v-1135z" />
    <glyph glyph-name="tcaron" unicode="&#x165;" horiz-adv-x="962" 
d="M797 1268h-13v104q72 8 105 31q45 29 51 100q-64 6 -105.5 51.5t-41.5 108.5q0 70 45.5 118t115.5 48q69 0 116.5 -47t47.5 -119v-18q0 -74 -19.5 -137t-51.5 -106.5t-73.5 -74t-86.5 -45t-90 -14.5zM606 0q-156 0 -243 73.5t-87 231.5v539h-198v235h198v371h318v-371
h256v-235h-256v-467q0 -82 26 -108.5t87 -26.5q60 0 108 41l57 -201q-95 -82 -266 -82z" />
    <glyph glyph-name="Tbar" unicode="&#x166;" horiz-adv-x="1368" 
d="M856 0h-342v625h-172v200h172v310h-399v315h1138v-315h-397v-310h174v-200h-174v-625z" />
    <glyph glyph-name="tbar" unicode="&#x167;" horiz-adv-x="962" 
d="M606 0q-156 0 -243 73.5t-87 231.5v217h-161v201h161v121h-198v235h198v371h318v-371h256v-235h-256v-121h209v-201h-209v-145q0 -82 26 -108.5t87 -26.5q60 0 108 41l57 -201q-95 -82 -266 -82z" />
    <glyph glyph-name="Utilde" unicode="&#x168;" horiz-adv-x="1509" 
d="M915 1548q-81 0 -143 35l-106 62q-37 22 -68 22q-19 0 -31.5 -17.5t-25.5 -66.5h-179q0 118 78 203q74 74 178 74q32 0 66 -11t55.5 -22.5t55.5 -33t47 -28.5q34 -22 69 -22q22 0 35.5 16t26.5 64h174q0 -135 -69.5 -205t-162.5 -70zM756 -29q-89 0 -172 19.5t-158.5 63
t-131.5 106t-89 155t-33 203.5v932h342v-848q0 -319 242 -319q241 0 241 319v848h340v-932q0 -164 -74.5 -289t-206.5 -191.5t-300 -66.5z" />
    <glyph glyph-name="utilde" unicode="&#x169;" horiz-adv-x="1323" 
d="M813 1178q-82 0 -143 34l-107 62q-37 22 -67 22q-19 0 -32 -18t-26 -66h-178q0 118 78 203q74 74 178 74q32 0 66 -10.5t55 -22t55 -33t47 -28.5q36 -23 70 -23q22 0 35 16t26 64h174q0 -135 -69 -204.5t-162 -69.5zM532 -29q-95 0 -164.5 23.5t-113.5 65.5t-70.5 109
t-36.5 143.5t-10 179.5v587h318v-587q0 -64 7 -107t26.5 -80.5t58 -55.5t98.5 -18q195 0 205 238v610h317v-1079h-317v174q-48 -89 -130 -146t-188 -57z" />
    <glyph glyph-name="Umacron" unicode="&#x16a;" horiz-adv-x="1509" 
d="M1108 1608h-709v188h709v-188zM756 -29q-89 0 -172 19.5t-158.5 63t-131.5 106t-89 155t-33 203.5v932h342v-848q0 -319 242 -319q241 0 241 319v848h340v-932q0 -164 -74.5 -289t-206.5 -191.5t-300 -66.5z" />
    <glyph glyph-name="umacron" unicode="&#x16b;" horiz-adv-x="1323" 
d="M1006 1237h-709v188h709v-188zM532 -29q-95 0 -164.5 23.5t-113.5 65.5t-70.5 109t-36.5 143.5t-10 179.5v587h318v-587q0 -64 7 -107t26.5 -80.5t58 -55.5t98.5 -18q195 0 205 238v610h317v-1079h-317v174q-48 -89 -130 -146t-188 -57z" />
    <glyph glyph-name="Ubreve" unicode="&#x16c;" horiz-adv-x="1509" 
d="M756 1595q-289 0 -338 279h203q24 -117 129 -117q62 0 94 30t43 87h205q-25 -142 -115 -210.5t-221 -68.5zM756 -29q-89 0 -172 19.5t-158.5 63t-131.5 106t-89 155t-33 203.5v932h342v-848q0 -319 242 -319q241 0 241 319v848h340v-932q0 -164 -74.5 -289t-206.5 -191.5
t-300 -66.5z" />
    <glyph glyph-name="ubreve" unicode="&#x16d;" horiz-adv-x="1323" 
d="M653 1225q-289 0 -338 278h203q24 -117 129 -117q62 0 94 30t43 87h205q-25 -142 -115 -210t-221 -68zM532 -29q-95 0 -164.5 23.5t-113.5 65.5t-70.5 109t-36.5 143.5t-10 179.5v587h318v-587q0 -64 7 -107t26.5 -80.5t58 -55.5t98.5 -18q195 0 205 238v610h317v-1079
h-317v174q-48 -89 -130 -146t-188 -57z" />
    <glyph glyph-name="Uring" unicode="&#x16e;" horiz-adv-x="1509" 
d="M754 1542q-95 0 -152 59.5t-57 147.5q0 83 57.5 142t151.5 59q90 0 149.5 -60.5t59.5 -144.5q0 -85 -58 -144t-151 -59zM756 1673q28 0 49.5 21.5t21.5 52.5q0 30 -21 52t-50 22q-31 0 -51.5 -21.5t-20.5 -50.5q0 -31 17.5 -53.5t54.5 -22.5zM756 -29q-89 0 -172 19.5
t-158.5 63t-131.5 106t-89 155t-33 203.5v932h342v-848q0 -319 242 -319q241 0 241 319v848h340v-932q0 -164 -74.5 -289t-206.5 -191.5t-300 -66.5z" />
    <glyph glyph-name="uring" unicode="&#x16f;" horiz-adv-x="1323" 
d="M651 1171q-95 0 -152 59.5t-57 147.5q0 83 57.5 142t151.5 59q90 0 149.5 -60.5t59.5 -144.5q0 -85 -58 -144t-151 -59zM653 1303q29 0 50.5 21t21.5 52q0 29 -21.5 51.5t-50.5 22.5q-31 0 -51 -21.5t-20 -50.5q0 -32 17 -53.5t54 -21.5zM532 -29q-95 0 -164.5 23.5
t-113.5 65.5t-70.5 109t-36.5 143.5t-10 179.5v587h318v-587q0 -64 7 -107t26.5 -80.5t58 -55.5t98.5 -18q195 0 205 238v610h317v-1079h-317v174q-48 -89 -130 -146t-188 -57z" />
    <glyph glyph-name="Udoubleacute" unicode="&#x170;" horiz-adv-x="1509" 
d="M653 1585h-164l129 299h273zM1024 1585h-168l135 299h269zM756 -29q-89 0 -172 19.5t-158.5 63t-131.5 106t-89 155t-33 203.5v932h342v-848q0 -319 242 -319q241 0 241 319v848h340v-932q0 -164 -74.5 -289t-206.5 -191.5t-300 -66.5z" />
    <glyph glyph-name="udoubleacute" unicode="&#x171;" horiz-adv-x="1323" 
d="M551 1214h-164l129 299h272zM922 1214h-168l135 299h268zM532 -29q-95 0 -164.5 23.5t-113.5 65.5t-70.5 109t-36.5 143.5t-10 179.5v587h318v-587q0 -64 7 -107t26.5 -80.5t58 -55.5t98.5 -18q195 0 205 238v610h317v-1079h-317v174q-48 -89 -130 -146t-188 -57z" />
    <glyph glyph-name="Uogonek" unicode="&#x172;" horiz-adv-x="1509" 
d="M774 -426q-82 0 -137 44.5t-55 135.5q0 56 28.5 115.5t77.5 103.5q-106 10 -198.5 49.5t-164 106t-112.5 167t-41 222.5v932h342v-848q0 -319 242 -319q51 0 90.5 13.5t75.5 46.5t55.5 98.5t19.5 160.5v848h340v-932q0 -228 -143 -377q-145 -148 -369 -166
q-67 -61 -67 -139q0 -40 26 -62t60 -22q46 0 76 21v-168q-61 -26 -115 -29z" />
    <glyph glyph-name="uogonek" unicode="&#x173;" horiz-adv-x="1323" 
d="M1085 -426q-82 0 -137 44.5t-55 135.5q0 62 36 127.5t101 118.5h-180v174q-48 -89 -132.5 -146t-185.5 -57q-96 0 -166 25t-114 68t-70 111t-35.5 143t-9.5 174v587h318v-587q0 -134 39.5 -197.5t150.5 -63.5q199 0 205 238v610h317v-1079h4q-102 -70 -102 -164
q0 -40 26 -62t60 -22q46 0 76 21v-168q-61 -26 -115 -29z" />
    <glyph glyph-name="Wcircumflex" unicode="&#x174;" horiz-adv-x="2156" 
d="M1403 1585h-236l-86 133l-88 -133h-241l217 281h209zM1612 0h-330l-205 784l-203 -784h-329l-443 1450h351l247 -870l205 870h346l201 -866l252 866h350z" />
    <glyph glyph-name="wcircumflex" unicode="&#x175;" horiz-adv-x="1910" 
d="M1280 1214h-236l-86 134l-88 -134h-241l217 281h209zM1485 0h-316l-213 670l-215 -670h-315l-358 1079h319l213 -717l217 717h277l219 -719l211 719h319z" />
    <glyph glyph-name="Ycircumflex" unicode="&#x176;" horiz-adv-x="1325" 
d="M987 1585h-235l-86 133l-88 -133h-242l217 281h209zM834 0h-342v659l-394 791h365l201 -473l198 473h365l-393 -791v-659z" />
    <glyph glyph-name="ycircumflex" unicode="&#x177;" horiz-adv-x="1290" 
d="M971 1214h-236l-86 134l-88 -134h-242l218 281h208zM123 -469v272l65 -2q72 0 119.5 11t80.5 38t52.5 59.5t42.5 88.5q-215 555 -417 1081h346q49 -153 65.5 -204t35.5 -107t25.5 -75t37.5 -108.5t71 -205.5l230 700h348l-92 -254l-334 -882q-33 -88 -72.5 -154.5
t-88.5 -111.5t-101 -74t-120.5 -44.5t-136 -21.5t-157.5 -6z" />
    <glyph glyph-name="Ydieresis" unicode="&#x178;" horiz-adv-x="1325" 
d="M463 1638q-58 0 -97.5 39.5t-39.5 100.5q0 58 39.5 98.5t97.5 40.5q59 0 100 -40.5t41 -98.5q0 -60 -40.5 -100t-100.5 -40zM860 1638q-60 0 -98.5 39t-38.5 99q0 58 38.5 99.5t98.5 41.5t99.5 -40.5t39.5 -100.5t-39.5 -99t-99.5 -39zM834 0h-342v659l-394 791h365
l201 -473l198 473h365l-393 -791v-659z" />
    <glyph glyph-name="Zacute" unicode="&#x179;" horiz-adv-x="1277" 
d="M754 1585h-201l92 342h330zM1141 0h-1006v164l549 971h-549v315h1006v-186l-539 -949h539v-315z" />
    <glyph glyph-name="zacute" unicode="&#x17a;" horiz-adv-x="1124" 
d="M698 1214h-200l92 342h330zM1016 0h-907v233l501 609h-501v237h907v-227l-490 -614h490v-238z" />
    <glyph glyph-name="Zdotaccent" unicode="&#x17b;" horiz-adv-x="1277" 
d="M637 1581q-68 0 -115 46t-47 114q0 70 47 118t115 48t116 -48t48 -118q0 -68 -48.5 -114t-115.5 -46zM1141 0h-1006v164l549 971h-549v315h1006v-186l-539 -949h539v-315z" />
    <glyph glyph-name="zdotaccent" unicode="&#x17c;" horiz-adv-x="1124" 
d="M582 1210q-68 0 -115 46t-47 114q0 70 47 118t115 48t115.5 -48t47.5 -118q0 -68 -48 -114t-115 -46zM1016 0h-907v233l501 609h-501v237h907v-227l-490 -614h490v-238z" />
    <glyph glyph-name="Zcaron" unicode="&#x17d;" horiz-adv-x="1277" 
d="M756 1585h-248l-234 299h261l104 -162l100 162h260q-87 -109 -243 -299zM1141 0h-1006v164l549 971h-549v315h1006v-186l-539 -949h539v-315z" />
    <glyph glyph-name="zcaron" unicode="&#x17e;" horiz-adv-x="1124" 
d="M700 1214h-247l-234 299h260l105 -161l100 161h260q-47 -59 -244 -299zM1016 0h-907v233l501 609h-501v237h907v-227l-490 -614h490v-238z" />
    <glyph glyph-name="fhook" unicode="&#x192;" horiz-adv-x="1513" 
d="M397 -530q-129 0 -243 81l63 209q34 -29 56.5 -38.5t58.5 -14.5q35 0 59.5 25t38.5 88l236 1022h-138l56 237h137l22 95q19 80 64.5 141t108.5 97.5t133 55.5t147 21q90 0 164 -19l-55 -237q-42 16 -101 16q-56 0 -94.5 -23.5t-50.5 -68.5l-21 -78h232l-56 -237h-229
l-219 -989q-41 -189 -141.5 -286t-227.5 -97z" />
    <glyph glyph-name="AEacute" unicode="&#x1fc;" horiz-adv-x="2029" 
d="M1208 1585h-200l92 342h330zM1882 0h-930v322h-327l-158 -322h-369l82 170l633 1280h1069v-295h-586v-252h504v-317h-504v-271h586v-315zM952 606v443l-211 -443h211z" />
    <glyph glyph-name="aeacute" unicode="&#x1fd;" horiz-adv-x="1976" 
d="M1124 1214h-200l92 342h330zM506 -20q-115 0 -200 29.5t-132.5 80.5t-69.5 111.5t-22 130.5q0 141 104.5 226t307.5 85q49 0 83 -1.5t68 -6.5t48 -8t57 -14t61 -15v68q0 95 -63 150.5t-156 55.5l-47 -4q-70 -12 -121 -55q-25 -15 -49 -55l-199 157q129 190 436 197
q113 0 218.5 -35t179.5 -106q137 137 368 137q239 0 370.5 -139.5t131.5 -358.5v-47l-4 -49h-700q0 -71 20 -133t67.5 -105t114.5 -43q118 0 162 76l21 41h309q-13 -57 -38 -108t-66.5 -98.5t-95 -82t-128 -55t-160.5 -20.5q-293 0 -434 221q-63 -116 -179.5 -171.5
t-262.5 -55.5zM1579 678q-2 40 -13.5 76.5t-33.5 71t-62 55t-92 20.5q-59 0 -102.5 -36.5t-64 -83.5t-29.5 -103h397zM604 190q90 0 148.5 40.5t58.5 111.5v96q-100 29 -207 29q-99 0 -148.5 -37t-49.5 -98q0 -65 51.5 -103.5t146.5 -38.5z" />
    <glyph glyph-name="Oslashacute" unicode="&#x1fe;" horiz-adv-x="1679" 
d="M956 1585h-200l92 342h330zM680 -33h-330l66 148q-134 103 -211.5 260.5t-77.5 349.5q0 205 92 377.5t256 274.5t365 102q90 0 170 -21l10 25h328l-70 -158q128 -103 201 -257t73 -343q0 -156 -54.5 -295.5t-148 -240t-226.5 -159.5t-283 -59q-65 0 -152 17zM553 424
l330 747l-21 3q-110 0 -178 -37q-106 -55 -165.5 -164.5t-59.5 -247.5q0 -178 94 -301zM840 276q88 0 162 38t121.5 101.5t73.5 143.5t26 166q0 161 -84 285l-322 -734h23z" />
    <glyph glyph-name="oslashacute" unicode="&#x1ff;" horiz-adv-x="1327" 
d="M780 1214h-200l92 342h329zM524 -27h-286l65 127q-99 77 -154 192t-55 255q0 157 69 284t200 202t301 75q70 0 145 -16l8 16h285l-64 -125q96 -79 145.5 -191.5t49.5 -244.5q0 -156 -67 -282.5t-198 -202.5t-304 -76q-66 0 -127 12zM449 387l235 461q-71 0 -117.5 -19
t-85.5 -69q-67 -88 -67 -213q0 -85 35 -160zM664 248q112 0 180.5 86t68.5 213q0 83 -26 139z" />
    <glyph glyph-name="Scommaaccent" unicode="&#x218;" horiz-adv-x="1302" 
d="M637 -23q-210 0 -357 123t-153 320h322q0 -82 60 -131t136 -49q83 0 136 41.5t53 119.5t-54 115q-34 24 -86 47t-89.5 35.5t-119.5 38.5q-199 62 -286 201q-52 76 -52 206q0 106 42 191t112.5 137t157.5 79.5t182 27.5q136 0 247.5 -51.5t179 -151.5t67.5 -229h-328
q-3 72 -52 109.5t-116 37.5q-70 0 -117 -37t-47 -100q2 -41 15 -64t47 -43q57 -33 131 -53l168 -51q196 -62 292 -213q50 -86 50 -225q0 -132 -73 -231.5t-194.5 -149.5t-273.5 -50zM496 -635h-13v105q74 8 105 30q45 29 51 101q-64 6 -105.5 51t-41.5 108q0 70 45.5 118
t115.5 48q69 0 116.5 -47t47.5 -119v-18q0 -74 -19.5 -137t-51.5 -106.5t-73.5 -74t-86.5 -45t-90 -14.5z" />
    <glyph glyph-name="scommaaccent" unicode="&#x219;" horiz-adv-x="1126" 
d="M557 -20q-142 0 -254.5 48.5t-171.5 147.5q-41 65 -41 156h309q3 -65 47.5 -98.5t110.5 -36.5q68 0 117 32.5t49 89.5q0 48 -45 68q-34 16 -64 26t-48 15t-65.5 16t-80.5 19q-177 41 -260 158q-45 60 -45 165q0 103 65 179t163.5 111.5t213.5 35.5q85 0 162 -19
t141.5 -56t102.5 -100.5t38 -145.5h-303q-3 60 -41.5 84t-105.5 26q-55 0 -96 -28t-41 -76q0 -47 47 -68q55 -28 114 -41l150 -37q184 -42 266 -153q45 -62 45 -170q0 -103 -69.5 -184t-178 -122.5t-231.5 -41.5zM401 -635h-12v105q74 8 105 30q45 29 51 101q-64 6 -106 51
t-42 108q0 70 46 118t116 48q69 0 116.5 -47t47.5 -119v-18q0 -92 -29.5 -166.5t-77 -119t-103 -68t-112.5 -23.5z" />
    <glyph glyph-name="Tcommaaccent" unicode="&#x21a;" horiz-adv-x="1368" 
d="M856 0h-342v1135h-399v315h1138v-315h-397v-1135zM528 -657h-12v104q72 8 105 31q45 29 51 100q-64 6 -106 51.5t-42 108.5q0 70 46 118t116 48q69 0 116.5 -47t47.5 -119v-19q0 -92 -29.5 -166t-77 -118.5t-103 -68t-112.5 -23.5z" />
    <glyph glyph-name="tcommaaccent" unicode="&#x21b;" horiz-adv-x="962" 
d="M606 0q-156 0 -243 73.5t-87 231.5v539h-198v235h198v371h318v-371h256v-235h-256v-467q0 -82 26 -108.5t87 -26.5q60 0 108 41l57 -201q-95 -82 -266 -82zM451 -635h-13v105q74 8 105 30q45 29 51 101q-64 6 -106 51t-42 108q0 70 46 118t116 48q69 0 116.5 -47
t47.5 -119v-18q0 -74 -19.5 -137t-51.5 -106.5t-73.5 -74t-86.5 -45t-90 -14.5z" />
    <glyph glyph-name="jdotless" unicode="&#x237;" horiz-adv-x="628" 
d="M-37 -453v285q193 0 193 156v1091h317v-1091q0 -216 -138 -328.5t-372 -112.5z" />
    <glyph glyph-name="circumflexmod" unicode="&#x2c6;" horiz-adv-x="811" 
d="M731 1255h-235l-86 134l-88 -134h-242l217 281h209z" />
    <glyph glyph-name="caronmod" unicode="&#x2c7;" horiz-adv-x="880" 
d="M559 1255h-248l-233 299h260l104 -161l101 161h260q-47 -59 -244 -299z" />
    <glyph glyph-name="brevemod" unicode="&#x2d8;" horiz-adv-x="872" 
d="M438 1266q-289 0 -338 278h203q24 -117 129 -117q62 0 94 30t43 87h205q-25 -142 -115 -210t-221 -68z" />
    <glyph glyph-name="dotaccentmod" unicode="&#x2d9;" horiz-adv-x="555" 
d="M276 1251q-68 0 -114.5 45.5t-46.5 114.5q0 70 46.5 118t114.5 48t116 -48t48 -118q0 -68 -48.5 -114t-115.5 -46z" />
    <glyph glyph-name="ringmod" unicode="&#x2da;" horiz-adv-x="636" 
d="M319 1212q-95 0 -151.5 59.5t-56.5 147.5q0 83 57.5 142t150.5 59q90 0 149.5 -60.5t59.5 -144.5q0 -85 -58 -144t-151 -59zM322 1343q28 0 49.5 21.5t21.5 52.5q0 30 -21 52t-50 22q-31 0 -51.5 -21.5t-20.5 -50.5q0 -31 17.5 -53.5t54.5 -22.5z" />
    <glyph glyph-name="ogonekmod" unicode="&#x2db;" horiz-adv-x="559" 
d="M303 -426q-82 0 -137 44.5t-55 135.5q0 62 36 127.5t101 118.5h141q-102 -70 -102 -164q0 -40 26 -62t60 -22q46 0 76 21v-168q-61 -26 -115 -29z" />
    <glyph glyph-name="tildemod" unicode="&#x2dc;" horiz-adv-x="1001" 
d="M662 1219q-83 0 -144 34l-106 62q-37 22 -68 22q-19 0 -31.5 -17.5t-25.5 -66.5h-178q0 119 77 203q74 74 179 74q32 0 66 -10.5t55 -22t55 -33t47 -28.5q36 -23 69 -23q22 0 35.5 16t26.5 64h174q0 -135 -69 -204.5t-162 -69.5z" />
    <glyph glyph-name="doubleacutemod" unicode="&#x2dd;" horiz-adv-x="942" 
d="M258 1255h-164l129 299h273zM629 1255h-168l135 299h268z" />
    <glyph glyph-name="gravecomb" unicode="&#x300;" 
d="M0 1255h-201l-221 342h330z" />
    <glyph glyph-name="acutecomb" unicode="&#x301;" 
d="M-221 1255h-201l92 342h330z" />
    <glyph glyph-name="circumflexcomb" unicode="&#x302;" 
d="M0 1255h-236l-86 134l-88 -134h-241l217 281h209z" />
    <glyph glyph-name="tildecomb" unicode="&#x303;" 
d="M-231 1219q-83 0 -144 34l-106 62q-37 22 -68 22q-19 0 -31.5 -17.5t-25.5 -66.5h-178q0 119 77 203q74 74 179 74q41 0 86 -18.5t77.5 -40t68 -40t58.5 -18.5t37 16.5t27 63.5h174q0 -135 -69 -204.5t-162 -69.5z" />
    <glyph glyph-name="macroncomb" unicode="&#x304;" 
d="M0 1278h-709v188h709v-188z" />
    <glyph glyph-name="brevecomb" unicode="&#x306;" 
d="M-336 1266q-289 0 -338 278h203q24 -117 129 -117q62 0 94 30t43 87h205q-25 -142 -115 -210t-221 -68z" />
    <glyph glyph-name="dotaccentcomb" unicode="&#x307;" 
d="M-164 1251q-68 0 -115 46t-47 114q0 70 47 118t115 48t116 -48t48 -118q0 -68 -48.5 -114t-115.5 -46z" />
    <glyph glyph-name="dieresiscomb" unicode="&#x308;" 
d="M-537 1309q-58 0 -97.5 39t-39.5 100q0 58 39.5 98.5t97.5 40.5q60 0 101 -41t41 -98q0 -60 -41 -99.5t-101 -39.5zM-139 1309q-60 0 -98.5 38.5t-38.5 98.5q0 58 38.5 99.5t98.5 41.5t99.5 -40.5t39.5 -100.5t-39.5 -98.5t-99.5 -38.5z" />
    <glyph glyph-name="ringcomb" unicode="&#x30a;" 
d="M-209 1212q-95 0 -152 59.5t-57 147.5q0 83 57.5 142t151.5 59q90 0 149.5 -60.5t59.5 -144.5q0 -85 -58 -144t-151 -59zM-207 1343q29 0 50.5 21.5t21.5 52.5q0 29 -21.5 51.5t-50.5 22.5q-31 0 -51.5 -21.5t-20.5 -50.5q0 -31 17.5 -53.5t54.5 -22.5z" />
    <glyph glyph-name="doubleacutecomb" unicode="&#x30b;" 
d="M-606 1255h-164l129 299h272zM-236 1255h-167l135 299h268z" />
    <glyph glyph-name="caroncomb" unicode="&#x30c;" 
d="M-244 1255h-248l-233 299h260l105 -161l100 161h260q-47 -59 -244 -299z" />
    <glyph glyph-name="turnedcommacomb" unicode="&#x312;" 
d="M-322 -236h-12v105q65 3 108 34.5t46 96.5q-62 6 -104 51.5t-42 108.5q0 69 46.5 117.5t113.5 48.5q69 0 117.5 -47.5t48.5 -118.5v-19q0 -94 -30.5 -169t-79 -118.5t-103 -66.5t-109.5 -23z" />
    <glyph glyph-name="commaaccentcomb" unicode="&#x326;" 
d="M-322 -635h-12v105q74 8 105 30q45 29 51 101q-64 6 -106 51t-42 108q0 70 46 118t116 48q69 0 116.5 -47t47.5 -119v-18q0 -94 -30.5 -169t-79 -118.5t-103 -66.5t-109.5 -23z" />
    <glyph glyph-name="cedillacomb" unicode="&#x327;" 
d="M-319 -424q-101 0 -170 14l24 129q18 -2 49 -2q14 -2 35 -2q143 0 143 62q0 27 -28 39.5t-113 15.5l51 191h189l-33 -107q85 -8 128.5 -50.5t43.5 -96.5q0 -53 -27.5 -92t-74.5 -60t-101 -31t-116 -10z" />
    <glyph glyph-name="ogonekcomb" unicode="&#x328;" 
d="M-483 -426q-82 0 -137.5 44.5t-55.5 135.5q0 62 36 127.5t101 118.5h142q-103 -70 -103 -164q0 -40 26 -62t60 -22q46 0 76 21v-168q-61 -26 -115 -29z" />
    <glyph glyph-name="strokeshortcomb" unicode="&#x335;" 
d="M0 459h-688v200h688v-200z" />
    <glyph glyph-name="strokelongcomb" unicode="&#x336;" 
d="M0 459h-1282v209h1282v-209z" />
    <glyph glyph-name="solidusshortcomb" unicode="&#x337;" 
d="M-666 395l-10 299l666 373l10 -301z" />
    <glyph glyph-name="soliduslongcomb" unicode="&#x338;" 
d="M-668 -25h-329l669 1516h328z" />
    <glyph glyph-name="Wgrave" unicode="&#x1e80;" horiz-adv-x="2156" 
d="M1176 1585h-201l-221 342h329zM1612 0h-330l-205 784l-203 -784h-329l-443 1450h351l247 -870l205 870h346l201 -866l252 866h350z" />
    <glyph glyph-name="wgrave" unicode="&#x1e81;" horiz-adv-x="1910" 
d="M1053 1214h-201l-221 342h330zM1485 0h-316l-213 670l-215 -670h-315l-358 1079h319l213 -717l217 717h277l219 -719l211 719h319z" />
    <glyph glyph-name="Wacute" unicode="&#x1e82;" horiz-adv-x="2156" 
d="M1194 1585h-201l92 342h330zM1612 0h-330l-205 784l-203 -784h-329l-443 1450h351l247 -870l205 870h346l201 -866l252 866h350z" />
    <glyph glyph-name="wacute" unicode="&#x1e83;" horiz-adv-x="1910" 
d="M1071 1214h-201l93 342h329zM1485 0h-316l-213 670l-215 -670h-315l-358 1079h319l213 -717l217 717h277l219 -719l211 719h319z" />
    <glyph glyph-name="Wdieresis" unicode="&#x1e84;" horiz-adv-x="2156" 
d="M879 1638q-58 0 -98 39.5t-40 100.5q0 57 40 98t98 41q59 0 100 -40.5t41 -98.5q0 -60 -40.5 -100t-100.5 -40zM1276 1638q-60 0 -98.5 39t-38.5 99q0 58 38.5 99.5t98.5 41.5t99.5 -40.5t39.5 -100.5t-39.5 -99t-99.5 -39zM1612 0h-330l-205 784l-203 -784h-329
l-443 1450h351l247 -870l205 870h346l201 -866l252 866h350z" />
    <glyph glyph-name="wdieresis" unicode="&#x1e85;" horiz-adv-x="1910" 
d="M756 1268q-58 0 -98 39t-40 100q0 57 40 98t98 41q60 0 100.5 -41t40.5 -98q0 -60 -40.5 -99.5t-100.5 -39.5zM1153 1268q-60 0 -98.5 38.5t-38.5 98.5q0 58 38.5 99.5t98.5 41.5t99.5 -40.5t39.5 -100.5t-39.5 -98.5t-99.5 -38.5zM1485 0h-316l-213 670l-215 -670h-315
l-358 1079h319l213 -717l217 717h277l219 -719l211 719h319z" />
    <glyph glyph-name="Ygrave" unicode="&#x1ef2;" horiz-adv-x="1325" 
d="M760 1585h-201l-221 342h330zM834 0h-342v659l-394 791h365l201 -473l198 473h365l-393 -791v-659z" />
    <glyph glyph-name="ygrave" unicode="&#x1ef3;" horiz-adv-x="1290" 
d="M743 1214h-200l-221 342h329zM123 -469v272l65 -2q72 0 119.5 11t80.5 38t52.5 59.5t42.5 88.5q-215 555 -417 1081h346q49 -153 65.5 -204t35.5 -107t25.5 -75t37.5 -108.5t71 -205.5l230 700h348l-92 -254l-334 -882q-33 -88 -72.5 -154.5t-88.5 -111.5t-101 -74
t-120.5 -44.5t-136 -21.5t-157.5 -6z" />
    <glyph glyph-name="endash" unicode="&#x2013;" horiz-adv-x="1376" 
d="M1225 459h-1073v200h1073v-200z" />
    <glyph glyph-name="emdash" unicode="&#x2014;" horiz-adv-x="2138" 
d="M1985 459h-1831v209h1831v-209z" />
    <glyph glyph-name="quoteleft" unicode="&#x2018;" horiz-adv-x="620" 
d="M303 883q-66 0 -115 49t-49 115v18q0 173 95 276t225 103h14v-107q-72 -9 -111 -36t-45 -95q62 -3 105 -48.5t43 -110.5q0 -67 -47.5 -115.5t-114.5 -48.5z" />
    <glyph glyph-name="quoteright" unicode="&#x2019;" horiz-adv-x="620" 
d="M160 954h-13v107q33 3 56 9.5t46.5 20t37 39t16.5 62.5q-62 3 -104.5 48.5t-42.5 111.5q0 68 46.5 116t114.5 48q69 0 116.5 -47.5t47.5 -116.5v-19q0 -93 -29.5 -168t-77 -119.5t-103 -68t-111.5 -23.5z" />
    <glyph glyph-name="quotesinglbase" unicode="&#x201a;" horiz-adv-x="620" 
d="M160 -236h-13v105q72 8 105 31q45 29 51 100q-64 6 -105.5 51.5t-41.5 108.5q0 70 45.5 118t115.5 48q69 0 116.5 -47t47.5 -119q0 -100 -29.5 -179t-77 -124.5t-102.5 -69t-112 -23.5z" />
    <glyph glyph-name="quotedblleft" unicode="&#x201c;" horiz-adv-x="1064" 
d="M305 883q-68 0 -117 48.5t-49 115.5v18q0 173 95 276t225 103h14v-107q-65 -3 -108 -34.5t-46 -96.5q59 -3 102.5 -48t43.5 -111q0 -70 -46.5 -117t-113.5 -47zM750 883q-68 0 -117 48.5t-49 115.5v18q0 174 94.5 276.5t224.5 102.5h15v-107q-65 -3 -108 -34.5t-46 -96.5
q59 -3 102 -48t43 -111q0 -70 -46 -117t-113 -47z" />
    <glyph glyph-name="quotedblright" unicode="&#x201d;" horiz-adv-x="1064" 
d="M160 911h-13v107q53 3 105 31q46 27 49 100q-61 3 -103 49t-42 111q0 66 45 115t114 49q70 0 118 -48t48 -116v-19q0 -91 -29 -165.5t-75.5 -120t-102.5 -69.5t-114 -24zM604 911h-12v107q52 3 104 31q46 27 49 100q-61 3 -103 49t-42 111q0 66 45.5 115t114.5 49
q70 0 118 -48t48 -116v-19q0 -91 -29 -165.5t-76 -120t-103 -69.5t-114 -24z" />
    <glyph glyph-name="quotedblbase" unicode="&#x201e;" horiz-adv-x="1073" 
d="M160 -236h-13v105q72 8 105 31q45 29 51 100q-64 6 -105.5 51.5t-41.5 108.5q0 70 45.5 118t115.5 48q69 0 116.5 -47t47.5 -119v-19q0 -91 -29 -165.5t-76.5 -119t-103 -68.5t-112.5 -24zM614 -236h-12v105q70 8 103 31q45 29 51 100q-64 6 -106 51.5t-42 108.5
q0 70 46 118t116 48q69 0 116.5 -47t47.5 -119v-19q0 -91 -29 -165t-76 -119t-102.5 -69t-112.5 -24z" />
    <glyph glyph-name="dagger" unicode="&#x2020;" horiz-adv-x="1271" 
d="M760 -346h-254v1175h-361v234h361v369h254v-369h366v-234h-366v-1175z" />
    <glyph glyph-name="daggerdbl" unicode="&#x2021;" horiz-adv-x="1316" 
d="M784 -346h-254v334h-364v233h364v651h-364v236h364v338h254v-338h367v-236h-367v-651h367v-233h-367v-334z" />
    <glyph glyph-name="bullet" unicode="&#x2022;" horiz-adv-x="952" 
d="M477 403q-130 0 -222.5 92.5t-92.5 223.5q0 130 92 220.5t223 90.5q130 0 222 -92t92 -219q0 -129 -93 -222.5t-221 -93.5z" />
    <glyph glyph-name="ellipsis" unicode="&#x2026;" horiz-adv-x="1759" 
d="M328 0q-64 0 -107 43t-43 107q0 66 42.5 109.5t107.5 43.5q66 0 109.5 -43.5t43.5 -109.5q0 -65 -43.5 -107.5t-109.5 -42.5zM879 0q-65 0 -108.5 43t-43.5 107q0 66 43 109.5t109 43.5q64 0 108.5 -43.5t44.5 -109.5q0 -64 -44.5 -107t-108.5 -43zM1427 0
q-64 0 -106.5 42.5t-42.5 107.5q0 66 42.5 109.5t106.5 43.5t109 -43.5t45 -109.5q0 -64 -45 -107t-109 -43z" />
    <glyph glyph-name="perthousand" unicode="&#x2030;" horiz-adv-x="2631" 
d="M483 717q-66 0 -124 24.5t-104 72t-72.5 125t-26.5 175.5q0 161 89 269t236 108q150 0 244 -103t94 -284q0 -177 -97 -282t-239 -105zM510 -53h-250l1102 1544h244zM487 885q64 0 96.5 53t32.5 172q0 209 -129 209q-27 0 -47 -8.5t-39.5 -31t-30 -69t-10.5 -114.5
q0 -211 127 -211zM1389 -53q-66 0 -124 24.5t-104 72t-73 125t-27 175.5q0 161 89 269t236 108q150 0 244 -103t94 -284q0 -177 -96.5 -282t-238.5 -105zM2142 -53q-66 0 -124 24.5t-104 72t-72.5 125t-26.5 175.5q0 161 89 269t236 108q150 0 244 -103t94 -284
q0 -177 -97 -282t-239 -105zM1393 117q64 0 96.5 51.5t32.5 171.5q0 209 -129 209q-27 0 -47 -8.5t-39.5 -31t-30 -69t-10.5 -114.5q0 -107 31 -158t96 -51zM2146 117q64 0 96.5 51.5t32.5 171.5q0 209 -129 209q-27 0 -47 -8.5t-39.5 -31t-30 -69t-10.5 -114.5
q0 -107 31 -158t96 -51z" />
    <glyph glyph-name="guilsinglleft" unicode="&#x2039;" horiz-adv-x="1003" 
d="M868 123l-766 518v168l766 512v-242l-557 -354l557 -358v-244z" />
    <glyph glyph-name="guilsinglright" unicode="&#x203a;" horiz-adv-x="1003" 
d="M135 123v244l557 358l-557 354v242l766 -512v-168z" />
    <glyph glyph-name="fraction" unicode="&#x2044;" horiz-adv-x="704" 
d="M250 -45h-219l426 1515h217z" />
    <glyph glyph-name="euro" unicode="&#x20ac;" horiz-adv-x="1525" 
d="M856 -29q-477 0 -547 547h-131v176h117q0 69 4 131h-121v176h141q43 228 175.5 353t361.5 125q175 0 295.5 -83t167.5 -214l-279 -101q-24 65 -71 95t-92 30q-88 0 -137.5 -59.5t-67.5 -145.5h334v-176h-353l-2 -49v-82h355v-176h-344q15 -121 63 -194q47 -80 149 -80
q150 0 189 186l305 -49q-43 -190 -173 -300t-339 -110z" />
    <glyph glyph-name="trademark" unicode="&#x2122;" horiz-adv-x="1607" 
d="M481 797h-143v522h-180v131h501v-131h-178v-522zM1374 797h-143v387l-152 -344h-28l-150 344v-387h-143v653h164l143 -336l143 336h166v-653z" />
    <glyph glyph-name="leftwardsarrow" unicode="&#x2190;" horiz-adv-x="1685" 
d="M977 -23l-954 662l-3 119l957 655v-340l-404 -207h1092v-342h-1083l395 -205v-342z" />
    <glyph glyph-name="upwardsarrow" unicode="&#x2191;" horiz-adv-x="1476" 
d="M909 0h-342v1092l-207 -404h-340l656 957l119 -3l661 -954h-342l-205 395v-1083z" />
    <glyph glyph-name="rightwardsarrow" unicode="&#x2192;" horiz-adv-x="1685" 
d="M709 -23v342l395 205h-1084v342h1092l-403 207v340l956 -655l-2 -119z" />
    <glyph glyph-name="downwardsarrow" unicode="&#x2193;" horiz-adv-x="1476" 
d="M676 -109l-656 957h340l207 -404v1092h342v-1083l205 395h342l-661 -954z" />
    <glyph glyph-name="leftrightarrow" unicode="&#x2194;" horiz-adv-x="1820" 
d="M1100 90v340l297 207h-973l297 -207v-340l-701 655v119l701 662v-342l-291 -205h961l-291 205v342l700 -662v-119z" />
    <glyph glyph-name="updownarrow" unicode="&#x2195;" horiz-adv-x="1476" 
d="M795 -160h-119l-656 701h340l207 -297v973l-207 -297h-340l656 700h119l661 -700h-342l-205 290v-960l205 291h342z" />
    <glyph glyph-name="northwestarrow" unicode="&#x2196;" horiz-adv-x="1361" 
d="M1100 43l-766 766l135 -424l-242 -242l-207 1143l82 84l1139 -211l-240 -241l-430 139l770 -772z" />
    <glyph glyph-name="northeastarrow" unicode="&#x2197;" horiz-adv-x="1361" 
d="M262 43l-242 242l771 772l-431 -139l-239 241l1139 211l81 -84l-206 -1143l-242 242l135 424z" />
    <glyph glyph-name="southeastarrow" unicode="&#x2198;" horiz-adv-x="1368" 
d="M1264 59l-1143 207l241 242l424 -135l-766 766l242 241l772 -770l-139 430l242 240l211 -1139z" />
    <glyph glyph-name="southwestarrow" unicode="&#x2199;" horiz-adv-x="1368" 
d="M104 59l-84 82l211 1139l242 -240l-139 -430l772 770l242 -241l-766 -766l424 135l241 -242z" />
    <glyph glyph-name="eight.osf" horiz-adv-x="1310" 
d="M655 -23q-78 0 -151 14.5t-143.5 48t-123 83.5t-84.5 126.5t-32 170.5q0 108 51 207t176 157q-87 45 -136.5 119.5t-49.5 175.5q0 84 32 153.5t83 114t117 75.5t131.5 44t129.5 13q65 0 131 -13t131.5 -43.5t116 -75t82 -114t31.5 -154.5q0 -203 -189 -295
q120 -58 176 -155t56 -209q0 -94 -32.5 -171t-85.5 -126.5t-123.5 -83t-144 -48t-149.5 -14.5zM655 891q185 0 185 162q0 71 -55.5 113t-129.5 42t-129 -42t-55 -113q0 -162 184 -162zM655 240q89 0 151 52.5t62 141.5q0 75 -54.5 137t-158.5 62q-100 0 -157.5 -60.5
t-57.5 -138.5q0 -89 64 -141.5t151 -52.5z" />
    <glyph glyph-name="f_i" horiz-adv-x="1417" 
d="M1278 0h-317v842h-394v-842h-319v842h-170v237h170v152q0 185 173.5 293.5t459.5 113.5q184 0 397 -59v-246q-242 64 -397 64q-163 0 -238.5 -60.5t-75.5 -154.5v-103h711v-1079z" />
    <glyph glyph-name="f_l" horiz-adv-x="1501" 
d="M1346 0h-318v1303q-20 26 -25 32t-25 23.5t-38 22.5t-51.5 10.5t-77.5 5.5q-110 0 -177 -53t-67 -152v-113h273v-237h-273v-842h-317v842h-172v237h172v105q0 114 45.5 202t127 142t187.5 81t232 27q230 0 504 -88v-1548z" />
    <glyph glyph-name="five.osf" horiz-adv-x="1280" 
d="M651 -385q-170 3 -295 71t-190 193q-43 82 -43 187h315q10 -92 67.5 -136.5t135.5 -46.5q74 0 132 57t67 160l2 41q0 64 -19 113t-50 76.5t-67 41t-75 13.5q-55 0 -105 -22.5t-77 -61.5l-304 -4l54 784h880v-256h-624l-17 -278q45 36 115 57t147 21q158 -3 269 -67.5
t172 -217.5q28 -82 28 -186q-3 -100 -13.5 -156.5t-41.5 -116.5q-64 -130 -191 -198t-272 -68z" />
    <glyph glyph-name="four.osf" horiz-adv-x="1443" 
d="M1114 -297h-319v297h-695v160l629 993h385v-897h225v-256h-225v-297zM795 256v502l-291 -502h291z" />
    <glyph glyph-name="i.loclTRK" horiz-adv-x="628" 
d="M313 1210q-68 0 -114.5 45.5t-46.5 114.5q0 70 46.5 118t114.5 48t116 -48t48 -118q0 -68 -48.5 -114t-115.5 -46zM473 0h-317v1081h317v-1081z" />
    <glyph glyph-name="nine.osf" horiz-adv-x="1282" 
d="M627 -377q-135 0 -241 48.5t-168 144t-62 225.5h311q6 -110 106 -141q41 -15 74 -15q83 0 132.5 72.5t49.5 196.5v108q-39 -52 -106 -78t-135 -26q-141 0 -253 64t-173 181q-27 52 -34 93t-11 120q0 78 19.5 152.5t60 140t98.5 115t140 78t179 28.5q112 0 201.5 -30.5
t149.5 -85t98 -119t59 -141.5q25 -109 25 -207q0 -291 -17 -428q-14 -91 -35.5 -162t-60 -136t-92.5 -107t-133.5 -66.5t-181.5 -24.5zM627 393q102 0 149 63.5t47 159.5q0 35 -6.5 68.5t-22 65t-38.5 55t-57.5 37.5t-77.5 14q-91 0 -144 -68.5t-53 -162.5q0 -96 53 -164
t150 -68z" />
    <glyph glyph-name="one.osf" horiz-adv-x="1067" 
d="M963 0h-832v264h256v529l-256 -144v289l297 164h279v-838h256v-264z" />
    <glyph glyph-name="seven.osf" horiz-adv-x="1163" 
d="M573 -369h-329l481 1182h-619v268h945v-268z" />
    <glyph glyph-name="six.osf" horiz-adv-x="1302" 
d="M672 -29q-118 0 -215.5 41.5t-161.5 112t-101.5 161t-43.5 191.5l-11 88q0 141 2 213q0 389 146 557q130 144 372 144q112 0 203.5 -36.5t148.5 -98t88 -139t31 -161.5h-311q-3 73 -46.5 111.5t-117.5 38.5q-105 0 -145 -76q-43 -76 -43 -198v-86q100 100 262 100
q207 0 324 -108.5t129 -295.5l2 -53q0 -99 -33 -188.5t-95 -161t-161.5 -114t-222.5 -42.5zM659 236q99 0 152 69t53 170q0 88 -54 155.5t-151 67.5q-100 0 -148 -64t-48 -159q0 -44 10 -84t31.5 -76t61 -57.5t93.5 -21.5z" />
    <glyph glyph-name="slashaccent" horiz-adv-x="550" 
d="M0 1217v188l551 223v-188z" />
    <glyph glyph-name="three.osf" horiz-adv-x="1269" 
d="M649 -354q-51 1 -75.5 2.5t-62.5 8t-77 19.5q-147 43 -239.5 152t-92.5 262v14h328q4 -68 40.5 -115t94.5 -61q35 -12 72 -12q123 10 168 115q10 23 10 63q0 78 -29 117q-41 54 -114 75t-178 21v228q53 0 100 7.5t94 25.5t75 54.5t28 88.5q0 81 -48 121t-120 40
q-71 0 -120 -40t-52 -119h-314q3 105 44 188.5t109.5 136t156 80t188.5 29.5q87 0 175 -26t151 -72q154 -113 159 -312q0 -116 -59 -193t-164 -110q85 -25 145 -84t86.5 -128.5t26.5 -145.5q-3 -72 -15 -116.5t-44 -96.5q-70 -105 -190 -161t-257 -56z" />
    <glyph glyph-name="two.osf" horiz-adv-x="1212" 
d="M1085 0h-966l2 127q0 48 8.5 91t21.5 76.5t36.5 65.5t44 54.5t54.5 46t57.5 37.5t62.5 32t61 27t62.5 24.5t56.5 22.5q80 30 121 62t41 82q0 63 -44.5 93.5t-111.5 30.5q-66 0 -113 -34t-47 -109h-299q0 88 27 160t72 119t105.5 79t125.5 46t135 14q91 0 174.5 -23.5
t152 -68.5t109.5 -119t41 -166q0 -52 -14 -97t-35 -78t-56 -63t-66 -49.5t-76.5 -39.5t-76.5 -31t-77 -26l-13.5 -4.5l-12 -4l-13.5 -4.5q-76 -25 -116 -51t-40 -64l486 18h120v-276z" />
    <glyph glyph-name="zero.osf" horiz-adv-x="1333" 
d="M668 -29q-111 0 -203.5 32.5t-156 88.5t-107.5 131.5t-64 159.5t-20 174q0 86 18.5 167t60.5 158t104 134.5t157 92t211 34.5q112 0 204.5 -33.5t155.5 -89.5t106.5 -132t63 -159t19.5 -172q0 -83 -17 -162t-58 -157t-102 -136.5t-157 -94.5t-215 -36zM668 244
q192 0 192 301q0 144 -44.5 221.5t-147.5 77.5q-105 0 -150 -77.5t-45 -221.5t45 -222.5t150 -78.5z" />
    </font>
</defs>
</svg>
