<?xml version="1.0" standalone="no"?>
<!DOCTYPE svg PUBLIC "-//W3C//DTD SVG 1.1//EN" "http://www.w3.org/Graphics/SVG/1.1/DTD/svg11.dtd" >
<svg xmlns="http://www.w3.org/2000/svg" xmlns:xlink="http://www.w3.org/1999/xlink" version="1.1">
<metadata>
Created by FontForge 20200314 at Wed Nov 18 18:39:57 2020
 By User Azfonts
Copyright 2014/19 AlfaType Fonts
</metadata>
<defs>
<font id="BiancoSans-Regular" horiz-adv-x="0" >
  <font-face 
    font-family="Bianco Sans"
    font-weight="400"
    font-stretch="normal"
    units-per-em="2048"
    panose-1="2 0 5 0 0 0 0 0 0 0"
    ascent="1638"
    descent="-410"
    x-height="1079"
    cap-height="1450"
    bbox="-1282 -588 2367 1968"
    underline-thickness="102"
    underline-position="-255"
    unicode-range="U+0020-FB02"
  />
<missing-glyph horiz-adv-x="485" 
 />
    <glyph glyph-name="fi" unicode="fi" horiz-adv-x="1171" 
d="M1042 0h-180v907h-411v-907h-181v907h-198v172h198v170q0 100 62.5 191t167.5 143q107 52 248 55q139 0 294 -82v-174q-144 82 -294 82q-136 0 -216.5 -68.5t-80.5 -166.5v-150h591v-1079z" />
    <glyph glyph-name="fl" unicode="fl" horiz-adv-x="1318" 
d="M1163 0h-180v1430q-112 36 -262 36q-69 0 -128.5 -24.5t-100.5 -80t-41 -132.5v-150h309v-172h-309v-907h-181v907h-198v172h198v170q0 174 138 279.5t364 105.5q103 -2 190 -19t201 -59v-1556z" />
    <glyph glyph-name="T_h" unicode="Th" horiz-adv-x="2232" 
d="M2097 0h-180v588q-1 51 -3.5 85t-9.5 74t-17.5 66t-29.5 52.5t-45.5 41t-64 24t-86.5 9.5q-267 0 -277 -324v-616h-180v1286h-520v-1286h-180v1286h-400v164h1280v-535q58 95 128 144t169 49q118 0 200 -35t129 -104.5t67 -161.5t20 -219v-588z" />
    <glyph glyph-name="f_t" unicode="ft" horiz-adv-x="1484" 
d="M1210 0q-151 0 -231 69.5t-80 235.5v602h-448v-907h-181v907h-198v172h198v187q0 90 34.5 162t92 116.5t129 68t150.5 23.5q60 0 117 -14t109 -44t91.5 -73t62.5 -105t23 -136v-185h289v-172h-289v-581q0 -74 15.5 -111.5t41 -48t74.5 -10.5q58 0 125 59l74 -104
q-38 -56 -93.5 -83.5t-105.5 -27.5zM899 1079v166q0 108 -66 166.5t-159 58.5q-96 0 -159.5 -58t-63.5 -167v-166h448z" />
    <glyph glyph-name="ff" unicode="ff" horiz-adv-x="1740" 
d="M1042 0h-180v907h-411v-907h-181v907h-198v172h198v166q0 104 69 171t185 97q71 19 140 19q160 0 272 -78q60 80 160 131t227 51q150 0 311 -80v-174q-140 82 -291 82q-133 0 -217 -64.5t-84 -170.5v-150h269v-172h-269v-907zM862 1079v127q0 79 -57.5 116.5t-147.5 37.5
q-91 0 -148.5 -38t-57.5 -116v-127h411z" />
    <glyph glyph-name="ffi" unicode="ffi" horiz-adv-x="1763" 
d="M1634 0h-180v907h-412v-907h-180v907h-411v-907h-181v907h-198v172h198v166q0 133 113 209t276 76q166 0 275 -76q60 80 160 131t227 51q154 0 313 -80v-174q-92 52 -155 67t-136 15q-76 0 -135.5 -21t-94.5 -55.5t-53 -75t-18 -83.5v-150h592v-1079zM862 1079v127
q0 69 -51 111.5t-154 42.5q-98 0 -152 -41t-54 -113v-127h411z" />
    <glyph glyph-name="ffl" unicode="ffl" horiz-adv-x="1910" 
d="M1755 0h-180v1430q-111 36 -240 36q-57 0 -107 -12.5t-93 -39.5t-68 -74.5t-25 -110.5v-150h269v-172h-269v-907h-180v907h-411v-907h-181v907h-198v172h198v166q0 89 56 155.5t141.5 98t185.5 31.5q159 0 283 -76q113 177 403 180q219 0 416 -78v-1556zM862 1079v127
q0 71 -53 112.5t-150 41.5q-104 0 -156 -41t-52 -113v-127h411z" />
    <glyph glyph-name="t_t" unicode="tt" horiz-adv-x="1523" 
d="M1249 0q-151 0 -231 69.5t-80 235.5v602h-487v-581q0 -74 15.5 -111.5t41 -48t74.5 -10.5q58 0 125 59l73 -104q-38 -56 -93 -83.5t-105 -27.5q-151 0 -231.5 69.5t-80.5 235.5v602h-198v172h198v371h181v-371h487v371h180v-371h289v-172h-289v-581q0 -74 15.5 -111.5
t41 -48t74.5 -10.5q58 0 125 59l74 -104q-38 -56 -93.5 -83.5t-105.5 -27.5z" />
    <glyph glyph-name=".notdef" horiz-adv-x="485" 
 />
    <glyph glyph-name=".null" 
 />
    <glyph glyph-name="nonmarkingreturn" horiz-adv-x="682" 
 />
    <glyph glyph-name="space" unicode=" " horiz-adv-x="512" 
 />
    <glyph glyph-name="exclam" unicode="!" horiz-adv-x="618" 
d="M379 369h-139l-41 1081h221zM307 0q-55 0 -93 38t-38 93q0 57 38 96t93 39t95 -38t40 -97q0 -56 -40 -93.5t-95 -37.5z" />
    <glyph glyph-name="quotedbl" unicode="&#x22;" horiz-adv-x="872" 
d="M334 913h-119l-41 310v227h201v-227zM657 913h-118l-41 310v227h200v-227z" />
    <glyph glyph-name="numbersign" unicode="#" horiz-adv-x="2117" 
d="M1171 -82h-155l145 451h-434l-145 -451h-156l145 451h-448l49 155h451l141 434h-453l51 156h451l129 395h156l-129 -395h434l129 395h156l-129 -395h436l-51 -156h-435l-141 -434h436l-49 -155h-438zM1212 524l142 434h-434l-142 -434h434z" />
    <glyph glyph-name="dollar" unicode="$" horiz-adv-x="1263" 
d="M795 -184h-119v172l-43 -2l-43 2v-172h-119v190q-137 35 -220 135.5t-83 249.5h180q0 -79 44.5 -138t108 -86.5t132.5 -27.5q51 0 99 15t89 44.5t65.5 79.5t24.5 113q0 100 -51 154q-84 84 -303 151q-210 64 -301 197q-53 77 -53 205q0 139 74 229.5t194 126.5v201h119
v-178q14 0 20 2h43l23 -4v180h119v-205q52 -18 96.5 -46.5t83 -70.5t60.5 -102t22 -131h-178q-3 58 -23 96q-32 59 -94 89t-135 30q-99 0 -172.5 -57.5t-73.5 -157.5q0 -46 14 -82.5t41 -63.5t57 -45.5t72 -36.5q30 -13 153 -54t189 -79q81 -51 133 -129q52 -79 52 -219
q0 -146 -84 -244.5t-213 -136.5v-194z" />
    <glyph glyph-name="percent" unicode="%" horiz-adv-x="1888" 
d="M465 717q-133 0 -221 100.5t-88 296.5q0 165 80.5 271t226.5 106q140 0 229.5 -99t89.5 -288q0 -184 -89.5 -285.5t-227.5 -101.5zM618 -53h-149q138 264 401.5 772t401.5 772h145zM469 840q76 0 117 63t41 207q0 132 -42.5 194t-115.5 62q-76 0 -116 -63.5t-40 -206.5
q0 -132 41.5 -194t114.5 -62zM1415 -53q-133 0 -221 100.5t-88 296.5q0 165 80.5 271t226.5 106q140 0 230 -99t90 -288q0 -184 -90 -285.5t-228 -101.5zM1419 70q76 0 117 63t41 207q0 132 -42.5 194t-115.5 62q-76 0 -115.5 -63.5t-39.5 -206.5q0 -256 155 -256z" />
    <glyph glyph-name="ampersand" unicode="&#x26;" horiz-adv-x="1515" 
d="M590 -33h-33q-172 0 -287.5 112.5t-115.5 280.5q3 149 75 244.5t258 204.5q-151 173 -151 319q1 63 17 116.5t52.5 103.5t107 79t169.5 29q156 0 240 -89.5t84 -227.5q0 -120 -64 -201t-199 -164l265 -323q71 121 109 254.5t38 246.5v19l141 -144q-26 -273 -180 -510
l43 -51q12 -17 41 -51l178 -215h-231l-109 131q-20 23 -34 43q-189 -195 -414 -207zM641 895q82 50 137 102q58 55 58 131q0 183 -164 183q-81 0 -123.5 -49t-42.5 -123q0 -63 30.5 -113t104.5 -131zM569 135q102 0 185 51q88 54 145 117q-254 319 -305 379
q-123 -70 -188 -143.5t-68 -173.5q0 -94 62.5 -162t156.5 -68h12z" />
    <glyph glyph-name="quotesingle" unicode="'" horiz-adv-x="548" 
d="M334 913h-119l-41 310v227h201v-227z" />
    <glyph glyph-name="parenleft" unicode="(" horiz-adv-x="712" 
d="M610 -184q-153 49 -265.5 186.5t-168 324t-55.5 398.5q0 150 29.5 292t87.5 267t154 218t218 132v-123q-108 -43 -184 -163t-111 -287q-34 -145 -34 -313q2 -199 34.5 -355.5t112.5 -286.5q71 -119 182 -167v-123z" />
    <glyph glyph-name="parenright" unicode=")" horiz-adv-x="712" 
d="M102 -184v123q80 33 144.5 112.5t104.5 186.5t61 230.5t22 254.5q0 177 -35 338q-84 361 -297 450v123q121 -40 216 -131.5t154 -215.5t89.5 -267t30.5 -295q0 -147 -29.5 -288t-87 -266.5t-154 -220t-219.5 -134.5z" />
    <glyph glyph-name="asterisk" unicode="*" horiz-adv-x="944" 
d="M606 866l-137 215l-131 -215l-117 86l166 189l-246 55q8 23 23.5 72t23.5 71l232 -98l-21 250h146l-25 -248l238 96l45 -143l-250 -55l172 -189q-19 -16 -59.5 -43t-59.5 -43z" />
    <glyph glyph-name="plus" unicode="+" horiz-adv-x="1273" 
d="M721 238h-170v401h-397v168h397v399h170v-399h399v-168h-399v-401z" />
    <glyph glyph-name="comma" unicode="," horiz-adv-x="630" 
d="M190 -217h-16v78q70 10 109 40.5t39 98.5q-54 0 -94 37.5t-40 93.5q0 57 38 96t93 39q57 0 96.5 -38t39.5 -97v-22q0 -83 -22.5 -147.5t-61 -102.5t-84.5 -57t-97 -19z" />
    <glyph glyph-name="hyphenminus" unicode="-" horiz-adv-x="1011" 
d="M860 459h-708v164h708v-164z" />
    <glyph glyph-name="period" unicode="." horiz-adv-x="626" 
d="M311 0q-55 0 -93 38t-38 93q0 57 38 96t93 39t95 -38t40 -97q0 -56 -40 -93.5t-95 -37.5z" />
    <glyph glyph-name="slash" unicode="/" horiz-adv-x="696" 
d="M209 -25h-146l426 1516h144z" />
    <glyph glyph-name="zero" unicode="0" horiz-adv-x="1241" 
d="M621 -29q-130 0 -226.5 58.5t-152.5 163.5t-82.5 237.5t-26.5 294.5q0 122 14 227.5t49.5 204.5t89.5 168.5t139.5 111.5t195.5 42q105 0 188 -39t138.5 -106.5t92 -164t52.5 -206t16 -238.5q0 -122 -14 -227.5t-49 -204.5t-89 -168.5t-139.5 -111.5t-195.5 -42zM621 135
q63 0 113 23.5t82.5 67t55.5 97t34.5 123.5t16.5 136t5 143t-4.5 141.5t-16 135t-33.5 124t-55 98t-83.5 68t-114.5 23.5q-54 0 -98.5 -18t-76 -48.5t-55.5 -76t-38.5 -95t-23.5 -111t-12.5 -118.5t-3.5 -123q0 -65 3 -121t11.5 -117.5t22.5 -111t38 -95.5t55.5 -77
t77 -49.5t100.5 -18.5z" />
    <glyph glyph-name="one" unicode="1" horiz-adv-x="909" 
d="M811 0h-692v164h256v1061l-256 -144v205l297 164h139v-1286h256v-164z" />
    <glyph glyph-name="two" unicode="2" horiz-adv-x="1073" 
d="M948 0h-827v164q0 90 34.5 174t90 150.5t123 129t134.5 120.5t122.5 114t90 120t34.5 128q0 102 -64.5 158.5t-153.5 56.5q-87 0 -153 -56.5t-66 -158.5h-178q0 92 34.5 166t92 119.5t127 69.5t143.5 24q58 0 115.5 -13.5t112 -44t96 -74t67 -108t25.5 -141.5
q0 -64 -22 -125.5t-59.5 -113.5t-86 -102.5t-102.5 -96.5t-107.5 -91t-102 -91t-86 -91.5t-59.5 -97.5t-22 -105h647v-184z" />
    <glyph glyph-name="three" unicode="3" horiz-adv-x="1153" 
d="M590 -23q-71 1 -138.5 16.5t-130 48.5t-109.5 80t-76.5 116.5t-31.5 152.5h181q8 -83 53.5 -142.5t106 -85.5t128.5 -26q105 0 183 71t78 193q0 72 -27.5 126t-69.5 84t-101.5 49t-111.5 24.5t-112 5.5v166q57 3 100.5 8.5t92 18t87.5 37t68 59.5q35 47 35 119
q0 104 -69.5 160.5t-168.5 56.5q-97 0 -168.5 -59t-71.5 -156h-178q12 174 131 276.5t293 102.5q169 0 297 -93q133 -113 133 -288q0 -241 -241 -322q280 -108 280 -381q0 -130 -63 -227t-162 -144t-217 -47z" />
    <glyph glyph-name="four" unicode="4" horiz-adv-x="1263" 
d="M940 0h-180v356h-664v86l611 1008h233v-930h225v-164h-225v-356zM760 520v717l-416 -717h416z" />
    <glyph glyph-name="five" unicode="5" horiz-adv-x="1157" 
d="M575 -16q-176 0 -308 117.5t-138 289.5h180q6 -114 85.5 -182t178.5 -68q106 0 186.5 76.5t98.5 224.5q4 50 4 70q0 86 -26 151.5t-69.5 102t-94.5 54.5t-107 18q-54 -3 -84.5 -9.5t-64.5 -25.5q-55 -28 -82 -72l-187 -10l54 729h745v-164h-577l-27 -397q35 44 105 70.5
t165 27.5q309 0 406 -278q22 -67 22 -177q0 -174 -57 -294q-63 -128 -171.5 -191t-236.5 -63z" />
    <glyph glyph-name="six" unicode="6" horiz-adv-x="1153" 
d="M608 -29q-99 0 -179 33.5t-131 88t-85.5 127.5t-48.5 147.5t-14 152.5v357q0 375 163 522q89 80 273 80q111 0 199.5 -42t143 -129.5t54.5 -207.5h-178q-3 105 -65.5 160t-155.5 55q-135 0 -198.5 -94t-63.5 -281v-127q103 131 307 131q100 0 179 -40.5t126.5 -108
t72.5 -150.5t25 -174q0 -99 -27.5 -188t-79 -159t-134 -111.5t-183.5 -41.5zM588 121q123 0 198.5 94t75.5 229q-3 227 -155 306q-51 26 -121 26q-60 0 -107 -19t-76 -50t-47.5 -73t-26 -84.5t-7.5 -88.5q0 -50 7.5 -95.5t27 -91t49 -79t76.5 -54t106 -20.5z" />
    <glyph glyph-name="seven" unicode="7" horiz-adv-x="1009" 
d="M428 0h-192l481 1266h-619v184h807v-184z" />
    <glyph glyph-name="eight" unicode="8" horiz-adv-x="1159" 
d="M580 -23q-64 0 -127 15.5t-123 50t-106 83.5t-73.5 121.5t-27.5 158.5q0 56 10.5 106.5t35.5 101.5t72.5 94t114.5 70q-96 48 -145 129.5t-49 182.5q0 95 36.5 171.5t97.5 122.5t133.5 70.5t150.5 24.5t150.5 -24.5t133 -70.5t97 -122.5t36.5 -171.5q0 -101 -49.5 -182.5
t-146.5 -129.5q65 -26 112.5 -68.5t73 -93.5t37.5 -103t12 -107q0 -103 -40 -187t-106 -135.5t-146 -79t-164 -27.5zM580 856q239 0 239 234q0 102 -72.5 163.5t-166.5 61.5q-97 0 -168.5 -62t-71.5 -163q0 -234 240 -234zM580 137q50 0 98 17.5t89 50t66 86.5t25 121
q0 49 -18 97.5t-51.5 89t-88 66t-120.5 25.5q-67 0 -122 -25.5t-88.5 -66.5t-51 -89t-17.5 -97q0 -126 84.5 -200.5t194.5 -74.5z" />
    <glyph glyph-name="nine" unicode="9" horiz-adv-x="1150" 
d="M565 -29q-107 0 -195.5 41.5t-145 129.5t-56.5 208h178q6 -135 111 -190q67 -31 118 -31q51 3 82.5 15t65.5 44q50 50 78 133.5t28 188.5v139q-39 -69 -114.5 -106t-151.5 -37q-166 0 -289 113.5t-149 269.5q-6 43 -6 88q0 73 15 143t49 135.5t82 115t120 79t158 29.5
q103 0 182.5 -29t131 -78.5t84.5 -120.5t46.5 -149t13.5 -170l3 -264q0 -230 -31 -361q-75 -336 -408 -336zM565 674q71 0 124 26t82.5 71.5t43.5 99.5t14 118q0 48 -8.5 94t-29 91t-51.5 79t-79 55t-108 21q-83 0 -144.5 -50t-89.5 -123t-28 -155q0 -62 16 -118.5t48 -104
t86.5 -76t123.5 -28.5z" />
    <glyph glyph-name="colon" unicode=":" horiz-adv-x="598" 
d="M297 791q-55 0 -93 37.5t-38 93.5q0 57 38 96t93 39t95 -38t40 -97q0 -56 -40 -93.5t-95 -37.5zM297 0q-55 0 -93 38t-38 93q0 57 38 96t93 39t95 -38t40 -97q0 -56 -40 -93.5t-95 -37.5z" />
    <glyph glyph-name="semicolon" unicode=";" horiz-adv-x="604" 
d="M303 791q-55 0 -93 37.5t-38 93.5q0 57 38 96t93 39t95 -38t40 -97q0 -56 -40 -93.5t-95 -37.5zM174 -217h-16v78q70 10 108.5 40.5t38.5 98.5q-54 0 -93.5 37.5t-39.5 93.5q0 57 38 96t93 39q57 0 96 -38t39 -97v-22q0 -83 -22.5 -147.5t-60.5 -102.5t-84 -57t-97 -19z
" />
    <glyph glyph-name="less" unicode="&#x3c;" horiz-adv-x="1302" 
d="M1124 225l-970 416v168q167 71 485 204.5t485 205.5v-179l-770 -315l770 -319v-181z" />
    <glyph glyph-name="equal" unicode="=" horiz-adv-x="1433" 
d="M1200 862h-967v168h967v-168zM1200 418h-967v168h967v-168z" />
    <glyph glyph-name="greater" unicode="&#x3e;" horiz-adv-x="1302" 
d="M178 225v181l770 319l-770 315v179q167 -71 485.5 -205t485.5 -205v-168z" />
    <glyph glyph-name="question" unicode="?" horiz-adv-x="1118" 
d="M627 410h-181q3 118 25.5 202t60 134t75.5 83.5t84 74.5t73 83q24 44 27 113q0 106 -71.5 160.5t-172.5 54.5q-72 0 -130.5 -31t-88.5 -88q-20 -38 -23 -96h-178q0 88 35 161t94 120t134 72.5t157 25.5q177 0 301 -93q133 -107 133 -272q-2 -155 -98 -258
q-37 -42 -86 -82q-39 -34 -64.5 -61.5t-52.5 -69t-40 -93.5t-13 -116v-24zM545 0q-55 0 -93 38t-38 93q0 57 38 96t93 39t95 -38t40 -97q0 -56 -40 -93.5t-95 -37.5z" />
    <glyph glyph-name="at" unicode="@" horiz-adv-x="1961" 
d="M981 -342q-108 0 -212.5 30.5t-194.5 85t-166.5 134t-130.5 174.5t-84.5 209t-30.5 235q0 178 61 338t168 276.5t260 184.5t328 68q237 0 425 -115.5t291 -313t103 -438.5q0 -76 -10 -155t-36 -165t-65 -152t-103.5 -109t-145.5 -43q-89 0 -149.5 70.5t-67.5 154.5
q-53 -63 -129 -95t-158 -32q-65 0 -127 20.5t-113.5 59.5t-82.5 102t-31 140q0 99 51 174t130 111t171 36q164 0 268 -104v129q0 120 -62.5 183.5t-156.5 63.5q-141 0 -231 -137l-123 90q66 94 161.5 146.5t200.5 52.5q78 0 147 -26.5t124 -77.5t87.5 -132.5t32.5 -183.5
v-393q0 -96 20 -147.5t52 -51.5q46 1 77.5 52.5t57.5 146.5q39 140 39 268q0 143 -45 272t-126.5 228.5t-205 158t-270.5 58.5q-142 0 -264 -59t-203.5 -157.5t-127.5 -227.5t-46 -269q0 -196 81.5 -361.5t229.5 -263.5t330 -98q145 0 248 43l57 -127q-160 -61 -303 -61z
M973 135q109 0 168 52t59 124q0 71 -58.5 124.5t-168.5 53.5q-114 0 -166 -55q-53 -53 -53 -115q2 -78 61 -131t158 -53z" />
    <glyph glyph-name="A" unicode="A" horiz-adv-x="1458" 
d="M1358 0h-199l-145 410h-568l-145 -410h-201l523 1450h213zM954 578l-225 632l-223 -632h448z" />
    <glyph glyph-name="B" unicode="B" horiz-adv-x="1191" 
d="M594 0h-399v1450h364q92 0 165.5 -21t121.5 -56.5t80 -85t45.5 -102.5t13.5 -112q-4 -217 -184 -307q274 -80 274 -373q0 -60 -16 -115t-52.5 -106.5t-91 -89t-137 -60t-184.5 -22.5zM549 829q67 0 118 22.5t78 56.5t39.5 67.5t12.5 62.5q0 110 -62 176t-186 66h-168
v-451h168zM618 170q132 0 199.5 73.5t67.5 172.5q0 43 -17 85.5t-50.5 79t-90.5 59t-129 22.5h-217v-492h237z" />
    <glyph glyph-name="C" unicode="C" horiz-adv-x="1460" 
d="M803 -29q-155 0 -284 61.5t-213.5 165.5t-130.5 240t-46 287q0 155 47 292.5t132.5 240t213 162t279.5 59.5q307 0 518 -248l-133 -131q-85 111 -175 160t-208 49q-94 0 -173.5 -32t-134.5 -87t-94 -129.5t-57 -159t-18 -176.5q0 -122 31.5 -227.5t90.5 -185
t150.5 -125.5t204.5 -46q54 0 107 12.5t109 40.5t108 81t92 126l141 -129q-209 -301 -557 -301z" />
    <glyph glyph-name="D" unicode="D" horiz-adv-x="1437" 
d="M639 0h-444v1450h444q203 0 356.5 -96t233.5 -262t80 -377q0 -164 -52 -299.5t-142.5 -226t-212.5 -140t-263 -49.5zM639 170q114 0 206 47.5t149 127t87.5 177t30.5 203.5q0 81 -17.5 159t-55 150t-92 126.5t-134 87t-174.5 32.5h-258v-1110h258z" />
    <glyph glyph-name="E" unicode="E" horiz-adv-x="1093" 
d="M967 0h-772v1450h772v-170h-586v-449h504v-172h-504v-489h586v-170z" />
    <glyph glyph-name="F" unicode="F" horiz-adv-x="1075" 
d="M381 0h-186v1450h772v-170h-586v-449h504v-172h-504v-659z" />
    <glyph glyph-name="G" unicode="G" horiz-adv-x="1617" 
d="M842 -29q-155 0 -286.5 52.5t-226 149t-147.5 238.5t-53 314q0 159 54 298t150 239.5t235.5 158.5t303.5 58q162 0 307 -70t234 -172l-123 -141q-87 110 -197.5 161.5t-220.5 51.5q-131 0 -237 -48.5t-172.5 -131t-101.5 -186t-35 -218.5q0 -277 139.5 -431.5
t376.5 -154.5q66 0 129 14.5t125 49t108 87t74.5 134.5t28.5 184h-621v170h809q4 -70 4 -102q0 -171 -48.5 -306t-136 -221.5t-207.5 -132t-265 -45.5z" />
    <glyph glyph-name="H" unicode="H" horiz-adv-x="1452" 
d="M1257 0h-186v659h-690v-659h-186v1450h186v-619h690v619h186v-1450z" />
    <glyph glyph-name="I" unicode="I" horiz-adv-x="575" 
d="M381 0h-186v1450h186v-1450z" />
    <glyph glyph-name="J" unicode="J" horiz-adv-x="1077" 
d="M512 -31q-123 0 -217 58t-141.5 151t-47.5 205h189q0 -110 56.5 -183t160.5 -73q100 0 149.5 69t49.5 187v1067h186v-1067q0 -103 -31.5 -184t-86 -130.5t-122.5 -74.5t-145 -25z" />
    <glyph glyph-name="K" unicode="K" horiz-adv-x="1282" 
d="M1184 0h-211q-115 200 -159.5 276.5t-96 163t-150.5 256.5l-186 -252v-444h-186v1450h186v-719l526 719h213l-434 -592z" />
    <glyph glyph-name="L" unicode="L" horiz-adv-x="1091" 
d="M987 0h-792v1450h186v-1280h606v-170z" />
    <glyph glyph-name="M" unicode="M" horiz-adv-x="1628" 
d="M1434 0h-187v1122l-399 -975h-66l-401 973v-1120h-186v1450h243l375 -920l375 920h246v-1450z" />
    <glyph glyph-name="N" unicode="N" horiz-adv-x="1454" 
d="M1260 0h-220l-659 1135v-1135h-186v1450h221l657 -1133v1133h187v-1450z" />
    <glyph glyph-name="O" unicode="O" horiz-adv-x="1679" 
d="M840 -29q-157 0 -292 61.5t-226.5 165t-143 240.5t-51.5 287q0 207 91 379.5t255 273.5t367 101q157 0 292 -61.5t226 -165t142.5 -240.5t51.5 -287q0 -155 -53.5 -294t-146.5 -240t-226.5 -160.5t-285.5 -59.5zM840 141q116 0 214 48t163.5 129t102 186.5t36.5 220.5
q0 158 -63 290.5t-182.5 213t-270.5 80.5q-116 0 -214 -48t-163.5 -129t-102 -186.5t-36.5 -220.5q0 -158 63 -290.5t182.5 -213t270.5 -80.5z" />
    <glyph glyph-name="P" unicode="P" horiz-adv-x="1157" 
d="M381 0h-186v1450h399q89 0 162.5 -24t125.5 -66t88 -99.5t53 -124t17 -139.5q0 -60 -16 -118.5t-51.5 -113t-86.5 -96t-126.5 -66.5t-165.5 -25h-213v-578zM592 748q61 0 109 19.5t75.5 48t46 64t25 64.5t6.5 53q0 128 -66.5 205.5t-195.5 77.5h-211v-532h211z" />
    <glyph glyph-name="Q" unicode="Q" horiz-adv-x="1734" 
d="M1640 -29h-237l-139 142q-185 -142 -424 -142q-157 0 -292 61.5t-226.5 165t-143 240.5t-51.5 287q0 207 91 379.5t255 273.5t367 101q157 0 292 -61.5t226 -165t142.5 -240.5t51.5 -287q0 -281 -168 -496zM840 141q168 0 297 99l-326 329h233l207 -207q105 156 105 363
q0 158 -63 290.5t-182.5 213t-270.5 80.5q-116 0 -214 -48t-163.5 -129t-102 -186.5t-36.5 -220.5q0 -158 63 -290.5t182.5 -213t270.5 -80.5z" />
    <glyph glyph-name="R" unicode="R" horiz-adv-x="1204" 
d="M1083 0h-215l-295 616h-192v-616h-186v1450h428q218 0 333 -121t115 -313q0 -140 -81 -244.5t-232 -140.5zM621 786q75 0 130 25.5t81.5 64t38.5 74t12 66.5q0 128 -66 196t-196 68h-240v-494h240z" />
    <glyph glyph-name="S" unicode="S" horiz-adv-x="1175" 
d="M580 -14q-95 0 -178 27t-146 77.5t-99 128.5t-36 174h186q0 -118 84 -184t197 -66q111 0 192.5 66t81.5 184q0 99 -51 150q-49 49 -123 84t-178 67q-213 69 -301 197q-53 77 -53 205q0 95 37.5 170.5t100 120.5t137.5 68.5t155 23.5q180 0 304 -106t124 -275h-185
q-4 101 -77 157t-170 56q-60 0 -113.5 -22t-91 -72t-37.5 -119q0 -92 53 -142q83 -78 303 -141q213 -66 303 -203q52 -82 52 -221q0 -97 -41 -176.5t-109 -128t-150.5 -74.5t-170.5 -26z" />
    <glyph glyph-name="T" unicode="T" horiz-adv-x="1191" 
d="M690 0h-186v1280h-400v170h983v-170h-397v-1280z" />
    <glyph glyph-name="U" unicode="U" horiz-adv-x="1363" 
d="M684 -29q-73 0 -144 17.5t-137.5 55.5t-116.5 92.5t-80 134.5t-30 175v1004h186v-1001q0 -81 30 -144.5t78 -100.5t103 -56t111 -19q41 0 81.5 8.5t84 31t76 57t54 92.5t21.5 131v1001h187v-1004q0 -203 -143.5 -339t-360.5 -136z" />
    <glyph glyph-name="V" unicode="V" horiz-adv-x="1331" 
d="M760 0h-189l-421 1294l-48 156h197l88 -295l279 -876l364 1171h199l-51 -162z" />
    <glyph glyph-name="W" unicode="W" horiz-adv-x="2000" 
d="M1456 0h-174l-283 1083l-280 -1083h-174l-443 1450h195l330 -1141l278 1141h191l278 -1135l330 1135h194z" />
    <glyph glyph-name="X" unicode="X" horiz-adv-x="1288" 
d="M1190 0h-209q-84 144 -120 205.5t-50.5 88.5t-58.5 106.5t-107 191.5q-229 -402 -340 -592h-207q114 205 439 780q-226 398 -379 670h213q99 -171 272 -481l272 481h218q-50 -88 -383 -672z" />
    <glyph glyph-name="Y" unicode="Y" horiz-adv-x="1169" 
d="M678 0h-186v682l-394 768h209l279 -578l276 578h209l-393 -768v-682z" />
    <glyph glyph-name="Z" unicode="Z" horiz-adv-x="1099" 
d="M975 0h-850v164l631 1116h-631v170h850v-164l-639 -1116h639v-170z" />
    <glyph glyph-name="bracketleft" unicode="[" horiz-adv-x="688" 
d="M584 -408h-398v1874h398v-149h-217v-1575h217v-150z" />
    <glyph glyph-name="backslash" unicode="\" horiz-adv-x="696" 
d="M633 -25h-144l-426 1516h146z" />
    <glyph glyph-name="bracketright" unicode="]" horiz-adv-x="688" 
d="M502 -408h-398v150h218v1575h-218v149h398v-1874z" />
    <glyph glyph-name="asciicircum" unicode="^" horiz-adv-x="1144" 
d="M999 690h-182l-246 596l-239 -596h-187l355 801h145z" />
    <glyph glyph-name="underscore" unicode="_" horiz-adv-x="1495" 
d="M1343 -408h-1191v132h1191v-132z" />
    <glyph glyph-name="grave" unicode="`" horiz-adv-x="518" 
d="M410 1255h-109l-221 342h237z" />
    <glyph glyph-name="a" unicode="a" horiz-adv-x="1179" 
d="M479 -29q-102 0 -181 31t-124 82.5t-67.5 112t-22.5 127.5q0 133 100.5 232t274.5 99q64 0 124 -9.5t96 -20t97 -31.5v100q0 118 -69.5 184t-171.5 66q-73 0 -142 -39t-108 -100l-144 110q68 96 169 147.5t216 51.5q82 0 157.5 -26t137 -76t98.5 -132t37 -186v-487
q0 -76 62 -76q56 3 131 53v-147q-19 -19 -68.5 -38t-124.5 -19q-64 0 -115.5 37.5t-62.5 103.5q-98 -150 -299 -150zM518 131q250 0 258 201v108q-115 54 -258 54q-122 0 -186 -52t-64 -127q0 -89 68.5 -136.5t181.5 -47.5z" />
    <glyph glyph-name="b" unicode="b" horiz-adv-x="1218" 
d="M672 -14q-136 0 -215 73q-81 75 -121 187v-246h-180v1450h180v-602q39 107 121 186q80 74 215 74q106 0 192 -45t140.5 -122.5t84 -178.5t29.5 -215q0 -157 -51 -283t-154 -202t-241 -76zM631 156q132 0 219 109t90 276q0 108 -36.5 198.5t-105.5 145.5t-157 55
q-131 -3 -216.5 -106t-88.5 -287q0 -136 56 -244.5t163 -136.5q34 -10 76 -10z" />
    <glyph glyph-name="c" unicode="c" horiz-adv-x="1056" 
d="M596 -10q-114 0 -209.5 44.5t-158.5 121t-97.5 178t-34.5 215.5q0 115 34.5 216.5t97.5 177.5t158.5 120.5t209.5 44.5q116 0 201 -45.5t164 -138.5l-130 -123q-53 74 -104.5 106.5t-132.5 32.5q-102 0 -174 -55t-104.5 -141.5t-32.5 -194.5q0 -109 32.5 -195.5
t104.5 -141t174 -54.5q86 0 147.5 44.5t112.5 129.5l137 -119q-78 -111 -171.5 -167t-223.5 -56z" />
    <glyph glyph-name="d" unicode="d" horiz-adv-x="1267" 
d="M575 -14q-113 0 -205 45t-150.5 122.5t-90 178.5t-31.5 215q0 158 56 284.5t165.5 201.5t255.5 75q142 0 228 -74q86 -77 129 -190v606h180v-1450h-180v248q-43 -113 -129 -187q-84 -75 -228 -75zM608 154q147 0 235.5 115t88.5 280q0 78 -20 147.5t-58 124t-99 86
t-137 31.5q-147 0 -237 -111t-90 -274q0 -106 35.5 -195.5t109 -146.5t172.5 -57z" />
    <glyph glyph-name="e" unicode="e" horiz-adv-x="1107" 
d="M557 -14q-146 0 -251 76t-155.5 201t-50.5 284q0 248 120 404.5t337 156.5q112 0 201 -40.5t144 -110t83.5 -158t28.5 -187.5q0 -28 -4 -82h-713q2 -83 18 -149.5t46.5 -117.5t80 -79t115.5 -28q59 0 101.5 11.5t69 35t40.5 44.5t29 54h209q-25 -69 -58.5 -122
t-85.5 -98.5t-129.5 -70t-175.5 -24.5zM827 670q-5 118 -75.5 203t-194.5 85q-100 0 -165.5 -77.5t-86.5 -210.5h522z" />
    <glyph glyph-name="f" unicode="f" horiz-adv-x="790" 
d="M451 0h-181v907h-198v172h198v248q0 99 49 171t125.5 105t169.5 33q52 0 105 -12v-174q-16 2 -43 10q-28 4 -53 4q-79 0 -125.5 -41.5t-46.5 -115.5v-228h268v-172h-268v-907z" />
    <glyph glyph-name="g" unicode="g" horiz-adv-x="1267" 
d="M573 -406h-16q-96 0 -188.5 29.5t-161.5 83.5l72 191q51 -64 135 -97.5t178 -33.5q62 0 121 17t109 50.5t80 90.5t30 130v191q-43 -113 -129 -187q-84 -75 -228 -75q-111 0 -202.5 45t-151 122t-91.5 178.5t-32 215.5q0 116 32.5 219t92.5 178q63 78 153.5 121t198.5 43
q142 0 228 -74q86 -77 129 -190v237h180v-1024q0 -217 -168 -344q-155 -117 -371 -117zM608 152q147 0 235.5 115t88.5 280q0 78 -20 147.5t-58 124t-99 86t-137 31.5q-147 0 -237 -111t-90 -274q0 -106 35.5 -195.5t109 -146.5t172.5 -57z" />
    <glyph glyph-name="h" unicode="h" horiz-adv-x="1183" 
d="M1049 0h-181v588q0 69 -4 115.5t-19 95t-42 77t-75 46.5t-116 18q-142 0 -209 -87t-67 -237v-616h-180v1450h180v-535q58 95 128 144t169 49q118 0 200 -35t129 -104.5t67 -161.5t20 -219v-588z" />
    <glyph glyph-name="i" unicode="i" horiz-adv-x="491" 
d="M244 1219q-50 0 -83.5 33.5t-33.5 82.5q0 50 33.5 84.5t83.5 34.5q49 0 83.5 -34.5t34.5 -84.5t-34 -83t-84 -33zM336 0h-180v1079h180v-1079z" />
    <glyph glyph-name="j" unicode="j" horiz-adv-x="491" 
d="M246 1219q-50 0 -83.5 33.5t-33.5 82.5q0 50 33.5 84.5t83.5 34.5t84.5 -35t34.5 -84q0 -50 -34.5 -83t-84.5 -33zM-37 -406v201q116 0 154.5 43t38.5 156v1085h180v-1153q0 -158 -102.5 -245t-270.5 -87z" />
    <glyph glyph-name="k" unicode="k" horiz-adv-x="1153" 
d="M1092 0h-205q-73 122 -100 168t-51.5 87.5t-34.5 60t-53.5 94.5t-104.5 182l-207 -221v-371h-180v1450h180v-864q86 96 171 191q78 88 231 264q11 14 18 21.5t18 21t21 24.5h231q-83 -89 -124 -132.5t-52 -56t-55.5 -60.5t-124.5 -134q251 -435 422 -725z" />
    <glyph glyph-name="l" unicode="l" horiz-adv-x="491" 
d="M336 0h-180v1450l180 184v-1634z" />
    <glyph glyph-name="m" unicode="m" horiz-adv-x="1824" 
d="M1688 0h-170v588q0 72 -4.5 120t-18.5 96t-40.5 75t-71.5 44t-109 17q-260 0 -260 -338v-602h-172v588q0 72 -4.5 120t-18.5 96t-40.5 75t-71.5 44t-109 17q-135 0 -198.5 -87t-63.5 -237v-616h-180v1079h180v-164q116 193 301 193q145 0 228 -59t118 -177
q33 53 58.5 86.5t66 72t92 58t113.5 19.5q90 0 156 -23.5t108 -65.5t67 -108.5t34.5 -143t9.5 -179.5v-588z" />
    <glyph glyph-name="n" unicode="n" horiz-adv-x="1185" 
d="M1049 0h-181v588q0 50 -2 87t-8.5 75.5t-18 65.5t-30.5 52t-46 40t-65 23.5t-86 8.5q-142 0 -209 -87t-67 -237v-616h-180v1079h180v-164q120 193 317 193q118 0 197 -34.5t122 -105.5t60 -161t17 -219v-588z" />
    <glyph glyph-name="o" unicode="o" horiz-adv-x="1224" 
d="M612 -14q-114 0 -212.5 45.5t-164.5 122t-103.5 179t-37.5 214.5q0 114 38 216.5t104.5 178.5t164.5 121t211 45q114 0 212.5 -45.5t164.5 -122t103.5 -179t37.5 -214.5q0 -152 -64.5 -280t-184 -204.5t-269.5 -76.5zM612 156q147 0 238.5 114t91.5 277q0 167 -93 280
t-237 113q-99 0 -175.5 -56t-115 -144.5t-38.5 -192.5q0 -164 90.5 -277.5t238.5 -113.5z" />
    <glyph glyph-name="p" unicode="p" horiz-adv-x="1214" 
d="M336 -371h-180v1450h180v-237q41 115 119 190q79 76 213 76q106 0 192 -45t140.5 -122.5t84 -178.5t29.5 -215q0 -157 -51 -283t-154 -202t-241 -76t-213 75q-77 71 -119 189v-621zM623 156q6 1 20 2t19 2t16.5 2.5t16.5 3t15 4t17 5.5t16.5 7.5t18.5 10.5
q171 104 174 348q0 130 -53 236.5t-150 144.5q-47 18 -94 18q-129 -3 -214.5 -105.5t-88.5 -287.5q0 -136 56.5 -244.5t160.5 -136.5q38 -10 70 -10z" />
    <glyph glyph-name="q" unicode="q" horiz-adv-x="1218" 
d="M1063 -373h-180v619q-40 -112 -121 -187q-79 -73 -213 -73q-142 0 -246 78.5t-153.5 203.5t-49.5 279q0 159 52.5 285t155.5 201t241 75q133 0 213 -74q82 -79 121 -186v229h180v-1450zM594 156q119 6 201 105.5t88 262.5v51q-4 78 -25 146t-71 127.5t-123 79.5
q-42 10 -74 10q-92 0 -170 -60t-111 -151q-28 -77 -28 -174q0 -125 53.5 -234t148.5 -147q39 -16 92 -16h19z" />
    <glyph glyph-name="r" unicode="r" horiz-adv-x="845" 
d="M336 0h-180v1079h180v-164q32 88 105.5 140.5t162.5 52.5q77 0 120.5 -36.5t51.5 -92.5l-71 -191q-15 34 -50 86q-30 41 -104 41q-62 0 -100.5 -24t-67.5 -70q-47 -77 -47 -207v-614z" />
    <glyph glyph-name="s" unicode="s" horiz-adv-x="960" 
d="M475 -16q-72 0 -139 19t-123.5 56t-90.5 99.5t-34 142.5h197q4 -82 61.5 -124t136.5 -42q82 0 144.5 43.5t62.5 122.5q0 51 -37.5 84.5t-109.5 63.5q-25 10 -69 25.5t-73.5 26t-70 28.5t-68 35t-57 43.5t-47.5 55.5t-29.5 69t-11.5 87q0 72 31.5 129.5t83.5 91t114.5 51
t130.5 17.5q67 0 130 -18t116.5 -52t86 -91t32.5 -128h-187q-1 70 -51 104.5t-121 34.5t-127.5 -36.5t-56.5 -102.5q0 -56 37.5 -90.5t109.5 -62.5q26 -10 68 -24.5t72.5 -24.5t70 -26.5t67.5 -33.5t57.5 -42.5t47.5 -55t29.5 -70t11.5 -88.5q0 -99 -58.5 -173t-146.5 -109
t-190 -35z" />
    <glyph glyph-name="t" unicode="t" horiz-adv-x="856" 
d="M582 0q-151 0 -231.5 69.5t-80.5 235.5v602h-198v172h198v371h181v-371h288v-172h-288v-581q0 -74 15.5 -111.5t41 -48t74.5 -10.5q58 0 125 59l73 -104q-38 -56 -93 -83.5t-105 -27.5z" />
    <glyph glyph-name="u" unicode="u" horiz-adv-x="1185" 
d="M532 -29q-95 0 -164.5 23.5t-113.5 65.5t-70.5 109t-36.5 143.5t-10 179.5v587h180v-587q0 -70 5 -119t20.5 -96.5t43 -75.5t74.5 -45t113 -17q264 0 277 322v618h180v-1079h-180v184q-38 -89 -127.5 -151t-190.5 -62z" />
    <glyph glyph-name="v" unicode="v" horiz-adv-x="1150" 
d="M680 0h-207l-407 1079h202q35 -103 307 -889l310 889h202l-94 -237z" />
    <glyph glyph-name="w" unicode="w" horiz-adv-x="1763" 
d="M1337 0h-196l-258 819l-260 -819h-197l-358 1079h200l256 -848l258 848h201l256 -852l256 852h201z" />
    <glyph glyph-name="x" unicode="x" horiz-adv-x="1062" 
d="M999 0h-206q-79 121 -263 408q-186 -295 -260 -408h-207l365 569l-326 510h209q42 -66 219 -346l222 346h209l-326 -510q200 -315 364 -569z" />
    <glyph glyph-name="y" unicode="y" horiz-adv-x="1153" 
d="M127 -446v192q27 -4 76 -4q32 0 60.5 5.5t49.5 12t41 22t33 26t27.5 34t22 35.5t18.5 40.5t15 40t15 42.5l-329 840l-90 239h208l78 -221l228 -598l297 819h210l-88 -243l-321 -850q-53 -136 -88 -203q-67 -122 -168.5 -175.5t-294.5 -53.5z" />
    <glyph glyph-name="z" unicode="z" horiz-adv-x="1040" 
d="M946 0h-852v152l598 763h-598v164h852v-143l-604 -772h604v-164z" />
    <glyph glyph-name="braceleft" unicode="{" horiz-adv-x="778" 
d="M674 -430h-58q-80 0 -137.5 19t-91 49.5t-53.5 80t-26 98t-7 115.5q-5 273 -12 325q-11 87 -51 132q-51 57 -144 60v163q52 0 87 14t57.5 39.5t34.5 76.5t17 108t7 151q5 128 8 185q0 75 16.5 130.5t44 88.5t69 53t84 26.5t97.5 6.5h58v-158q-48 0 -74 -1.5t-53 -8.5
t-39 -19t-22.5 -36t-13.5 -57t-3 -83q0 -251 -10 -329q-20 -108 -63.5 -166t-135.5 -103q117 -48 163 -143.5t46 -306.5v-215q0 -47 9 -74.5t35.5 -42t61 -18.5t99.5 -4v-156z" />
    <glyph glyph-name="bar" unicode="|" horiz-adv-x="622" 
d="M389 -430h-156v1921h156v-1921z" />
    <glyph glyph-name="braceright" unicode="}" horiz-adv-x="778" 
d="M162 -430h-58v156q54 0 83.5 2.5t57 11t39 27.5t18.5 49t7 78v186q0 145 22.5 234.5t66 137t120.5 78.5q-95 43 -138.5 101.5t-60.5 167.5q-10 59 -10 329q0 90 -15.5 133t-49.5 57.5t-107 14.5h-33v158h58q53 0 94 -6t84 -25t70.5 -51.5t45 -89t17.5 -133.5
q3 -60 8 -165q2 -71 4 -103t6 -83t9.5 -73t16 -54t24.5 -44.5t34 -27.5t47 -19.5t62 -4.5v-163q-126 -6 -172 -103q-8 -16 -13.5 -33.5t-9 -44.5t-5.5 -48.5t-3 -66t-1.5 -74.5t-1 -97t-1.5 -113q-7 -184 -127 -258q-65 -41 -188 -41z" />
    <glyph glyph-name="asciitilde" unicode="~" horiz-adv-x="1435" 
d="M205 557v205q109 121 278 121q60 0 129.5 -21t121.5 -46.5t117.5 -46.5t119.5 -21q66 0 135 38.5t123 98.5v-211q-66 -61 -129.5 -88t-147.5 -27q-59 0 -126.5 21t-119 45.5t-117 45.5t-122.5 21q-66 0 -123 -29.5t-139 -105.5z" />
    <glyph glyph-name="exclamdown" unicode="&#xa1;" horiz-adv-x="618" 
d="M311 813q-55 0 -95 38t-40 97q0 56 40 93.5t95 37.5t93 -37.5t38 -93.5q0 -57 -38 -96t-93 -39zM420 -371h-221l41 1082h139z" />
    <glyph glyph-name="cent" unicode="&#xa2;" horiz-adv-x="1218" 
d="M735 -389h-155v387q-128 19 -223 101t-141 198.5t-46 251.5q0 211 111.5 366.5t298.5 184.5v350h155v-346q91 -11 161.5 -55.5t137.5 -124.5l-129 -123q-41 57 -80 88.5t-90 42.5v-768q62 14 107.5 55.5t85.5 112.5l137 -119q-136 -195 -330 -219v-383zM580 168v760
q-110 -31 -167 -134.5t-57 -244.5q0 -140 56 -244.5t168 -136.5z" />
    <glyph glyph-name="sterling" unicode="&#xa3;" horiz-adv-x="1316" 
d="M831 0h-469q-8 157 -12.5 230.5t-6.5 100.5t-8.5 114.5t-15.5 224.5h-159v143h149l-16 264v29q0 145 82.5 224.5t212.5 92.5l41 2q120 0 219 -52t137 -146l-137 -70q-30 46 -85.5 74.5t-111.5 28.5q-50 -3 -78.5 -14.5t-60.5 -43.5q-39 -42 -39 -123v-22l16 -244h297
v-143h-286l35 -506h329q121 0 121 184v29l172 -96q0 -191 -117 -248q-48 -26 -104 -29q-78 -4 -105 -4z" />
    <glyph glyph-name="currency" unicode="&#xa4;" horiz-adv-x="1335" 
d="M1042 236l-137 139q-109 -74 -237 -74q-132 0 -238 74l-139 -139l-115 118l139 135q-71 109 -71 236t71 236l-139 137l115 119l139 -140q110 72 238 72q127 0 237 -72l137 140l117 -119l-139 -137q72 -116 72 -236t-72 -236l139 -135zM666 467q109 0 184.5 77t75.5 181
q0 111 -78 185.5t-182 74.5q-108 0 -183 -76.5t-75 -183.5t76 -182.5t182 -75.5z" />
    <glyph glyph-name="yen" unicode="&#xa5;" horiz-adv-x="1345" 
d="M762 0h-180v418h-394v168h394v96l-52 98h-342v168h256l-256 502h203l281 -582q56 117 92.5 194.5t48 101.5t41.5 85.5t98 200.5h203q-126 -256 -254 -502h254v-168h-342l-51 -98v-96h393v-168h-393v-418z" />
    <glyph glyph-name="brokenbar" unicode="&#xa6;" horiz-adv-x="622" 
d="M389 700h-156v791h156v-791zM389 -430h-156v790h156v-790z" />
    <glyph glyph-name="section" unicode="&#xa7;" horiz-adv-x="1261" 
d="M629 -199h-19q-150 0 -269 74.5t-159 204.5l-18 127h180q0 -79 44.5 -138t108 -86.5t132.5 -27.5q51 0 99 15t89 44.5t65.5 79.5t24.5 113q0 92 -51 143t-133.5 85t-181.5 65.5t-158 64.5q-184 99 -184 307q0 114 71 191q-71 87 -71 219q0 92 36 166t97 120t136.5 70.5
t158.5 24.5q128 0 243.5 -64t157.5 -180l25 -135h-179q-3 60 -22 96q-32 59 -94 89t-135 30q-99 0 -172.5 -57.5t-73.5 -157.5q0 -88 53 -135q50 -46 124 -76.5t179 -58.5q106 -33 180 -76.5t123 -114.5q51 -74 51 -207q0 -102 -65 -186q65 -83 65 -223q0 -97 -38.5 -175
t-103.5 -126.5t-145.5 -75t-170.5 -29.5zM895 537q12 38 12 79q0 58 -24.5 103t-62.5 72t-93.5 51.5t-107.5 40t-115.5 38.5t-106.5 46q-20 -39 -20 -93q0 -90 51 -135q81 -73 297 -133q99 -30 170 -69z" />
    <glyph glyph-name="dieresis" unicode="&#xa8;" horiz-adv-x="845" 
d="M236 1319q-47 0 -80 33t-33 80q0 46 33 80t80 34t80.5 -33.5t33.5 -80.5t-34 -80t-80 -33zM608 1319q-47 0 -79.5 33t-32.5 80q0 46 32.5 80t79.5 34t81 -33.5t34 -80.5t-34.5 -80t-80.5 -33z" />
    <glyph glyph-name="copyright" unicode="&#xa9;" horiz-adv-x="1208" 
d="M604 557q-184 0 -308 130.5t-124 316.5t124 316t308 130t308 -130t124 -316t-124 -316.5t-308 -130.5zM604 639q149 0 249.5 106.5t100.5 258.5q0 155 -101.5 259.5t-248.5 104.5q-149 0 -249.5 -106t-100.5 -258q0 -155 101.5 -260t248.5 -105zM614 735
q-104 0 -168.5 74t-64.5 188q0 111 62.5 187t170.5 76q55 0 95 -21t77 -65l-61 -60q-25 35 -49 50.5t-62 15.5q-73 0 -110 -52.5t-37 -130.5q0 -80 36.5 -132t110.5 -52q40 0 67.5 20.5t53.5 61.5l66 -55q-78 -105 -187 -105z" />
    <glyph glyph-name="ordfeminine" unicode="&#xaa;" horiz-adv-x="790" 
d="M330 784q-114 0 -176 61t-62 150q0 80 61.5 139.5t163.5 59.5q12 0 24 -0.5t21 -1t20.5 -2.5t18.5 -3t19 -4t17 -4t17.5 -5t17 -5.5t18.5 -6t18 -5.5v60q0 70 -43 110.5t-105 40.5q-42 -5 -63.5 -12.5t-48.5 -32.5q-23 -23 -35 -39l-86 66q40 59 101.5 89.5t129.5 30.5
q64 0 121 -25.5t97 -85t40 -142.5v-291q0 -21 9 -32t20 -11q8 0 19 7t14 15l45 -41q-34 -76 -107 -76q-36 0 -67.5 22.5t-40.5 61.5q-29 -41 -76 -64.5t-102 -23.5zM352 879q148 0 156 120v66q-64 33 -156 33q-72 0 -110.5 -31.5t-38.5 -77.5q0 -54 41 -82t108 -28z" />
    <glyph glyph-name="guillemotleft" unicode="&#xab;" horiz-adv-x="1331" 
d="M668 -4l-564 471v154l564 466v-182l-435 -360l435 -365v-184zM1202 -4l-657 549l657 542v-182l-436 -360l436 -365v-184z" />
    <glyph glyph-name="logicalnot" unicode="&#xac;" horiz-adv-x="1306" 
d="M1075 233h-129v226h-764v143h893v-369z" />
    <glyph glyph-name="softhyphen" unicode="&#xad;" horiz-adv-x="1196" 
d="M1044 459h-892v164h892v-164z" />
    <glyph glyph-name="registered" unicode="&#xae;" horiz-adv-x="1208" 
d="M604 557q-184 0 -308 130.5t-124 316.5t124 316t308 130t308 -130t124 -316t-124 -316.5t-308 -130.5zM604 639q149 0 249.5 106.5t100.5 258.5q0 155 -101.5 259.5t-248.5 104.5q-149 0 -249.5 -106t-100.5 -258q0 -155 101.5 -260t248.5 -105zM774 743h-72l-110 220
h-66v-220h-63v512h155q70 0 109 -40.5t41 -100.5q0 -54 -27.5 -93.5t-83.5 -53.5zM618 1022q41 0 62.5 26t21.5 62t-21.5 62t-62.5 26h-92v-176h92z" />
    <glyph glyph-name="macron" unicode="&#xaf;" horiz-adv-x="1011" 
d="M860 1278h-708v143h708v-143z" />
    <glyph glyph-name="degree" unicode="&#xb0;" horiz-adv-x="915" 
d="M459 936q-117 0 -198 81t-81 197q0 109 80.5 193t198.5 84q110 0 193 -80.5t83 -196.5q0 -111 -80 -194.5t-196 -83.5zM459 1044q68 0 118 50t50 120t-48.5 119t-119.5 49q-72 0 -120 -49t-48 -119q0 -66 48 -118t120 -52z" />
    <glyph glyph-name="plusminus" unicode="&#xb1;" horiz-adv-x="1308" 
d="M739 260h-170v404h-399v165h399v400h170v-400h400v-165h-400v-404zM1139 0h-969v168h969v-168z" />
    <glyph glyph-name="twosuperior" unicode="&#xb2;" horiz-adv-x="524" 
d="M446 797h-372v73q0 77 45 131q35 45 107.5 112t86.5 81q43 46 43 98q0 46 -28.5 71.5t-67.5 25.5t-69 -25.5t-31 -71.5h-80q9 84 58.5 127t121.5 43q74 0 130 -45t56 -127q0 -68 -45 -119q-35 -41 -107 -104t-93 -84q-45 -45 -45 -102h290v-84z" />
    <glyph glyph-name="threesuperior" unicode="&#xb3;" horiz-adv-x="559" 
d="M270 786q-51 0 -98 20t-80 64t-33 103h82q4 -55 42 -85t87 -30q47 0 83 31.5t36 87.5q0 51 -32.5 82t-71.5 40t-86 9v74q45 0 80.5 8t63.5 33.5t28 66.5q0 48 -31.5 73.5t-75.5 25.5t-76 -25.5t-32 -71.5h-80q4 80 60 125t130 45q81 0 138 -44.5t57 -127.5
q0 -108 -109 -143q127 -45 127 -172q0 -62 -32 -106.5t-78 -63.5t-99 -19z" />
    <glyph glyph-name="acute" unicode="&#xb4;" horiz-adv-x="518" 
d="M217 1255h-108l92 342h237z" />
    <glyph glyph-name="paragraph" unicode="&#xb6;" horiz-adv-x="1398" 
d="M1112 -408h-170v1700h-223v-1700h-164v1047q-191 6 -298 115.5t-107 289.5q0 192 119 307t354 115h634v-174h-145v-1700z" />
    <glyph glyph-name="periodcentered" unicode="&#xb7;" horiz-adv-x="626" 
d="M311 627q-55 0 -93 37.5t-38 93.5q0 57 38 96t93 39t95 -38t40 -97q0 -56 -40 -93.5t-95 -37.5z" />
    <glyph glyph-name="cedilla" unicode="&#xb8;" horiz-adv-x="618" 
d="M219 -420q-69 0 -131 10l12 117l95 -4q159 0 159 76q0 32 -32.5 46.5t-124.5 20.5l53 177h133l-33 -107q85 -11 128.5 -52t43.5 -95q0 -53 -26.5 -91.5t-72 -58.5t-96 -29.5t-108.5 -9.5z" />
    <glyph glyph-name="onesuperior" unicode="&#xb9;" horiz-adv-x="421" 
d="M381 797h-311v73h114v478l-114 -64v92l133 74h63v-580h115v-73z" />
    <glyph glyph-name="ordmasculine" unicode="&#xba;" horiz-adv-x="905" 
d="M453 793q-134 0 -223 97t-89 238q0 142 87.5 240t224.5 98q138 0 224.5 -98t86.5 -240t-89 -238.5t-222 -96.5zM453 895q87 0 141.5 68t54.5 165q0 100 -54.5 169t-141.5 69t-143 -70t-56 -168q0 -95 54.5 -164t144.5 -69z" />
    <glyph glyph-name="guillemotright" unicode="&#xbb;" horiz-adv-x="1331" 
d="M129 -4v184l436 365l-436 360v182l657 -542zM664 -4v184l434 365l-434 360v182l563 -466v-154z" />
    <glyph glyph-name="questiondown" unicode="&#xbf;" horiz-adv-x="1118" 
d="M573 811q-55 0 -95 38t-40 97q0 56 40 93.5t95 37.5q56 0 94 -38t38 -93q0 -57 -38 -96t-94 -39zM571 -401q-120 0 -218 43t-157 127.5t-59 195.5q1 71 20 127.5t48 92t67 73t73.5 67.5t70 77t55.5 102q21 56 21 139v25h180q-5 -219 -90 -342q-24 -34 -51 -61t-63 -56.5
t-48 -40.5q-87 -74 -92 -191q0 -96 72.5 -155.5t170.5 -59.5q100 0 166 54q70 58 76 161h178q0 -73 -23.5 -135t-63.5 -106t-94 -75.5t-114.5 -46.5t-124.5 -15z" />
    <glyph glyph-name="Agrave" unicode="&#xc0;" horiz-adv-x="1458" 
d="M768 1585h-109l-221 342h238zM1358 0h-199l-145 410h-568l-145 -410h-201l523 1450h213zM954 578l-225 632l-223 -632h448z" />
    <glyph glyph-name="Aacute" unicode="&#xc1;" horiz-adv-x="1458" 
d="M782 1585h-108l92 342h238zM1358 0h-199l-145 410h-568l-145 -410h-201l523 1450h213zM954 578l-225 632l-223 -632h448z" />
    <glyph glyph-name="Acircumflex" unicode="&#xc2;" horiz-adv-x="1458" 
d="M1036 1585h-202l-111 170l-113 -170h-207l218 281h190zM1358 0h-199l-145 410h-568l-145 -410h-201l523 1450h213zM954 578l-225 632l-223 -632h448z" />
    <glyph glyph-name="Atilde" unicode="&#xc3;" horiz-adv-x="1458" 
d="M872 1548q-28 0 -55 5.5t-44.5 11t-42 19.5t-33 20t-32.5 23.5t-26 19.5q-37 24 -61 24q-18 0 -32.5 -18t-31.5 -64h-137q0 94 59 161t154 67q27 0 55.5 -10t45.5 -19.5t50 -30.5q16 -10 37 -25t31.5 -22t24.5 -13t26 -7q22 0 39 19t31 71h131q0 -111 -55 -171.5
t-134 -60.5zM1358 0h-199l-145 410h-568l-145 -410h-201l523 1450h213zM954 578l-225 632l-223 -632h448z" />
    <glyph glyph-name="Adieresis" unicode="&#xc4;" horiz-adv-x="1458" 
d="M532 1649q-47 0 -79.5 32.5t-32.5 79.5q0 46 32.5 80.5t79.5 34.5t81 -34t34 -81t-34.5 -79.5t-80.5 -32.5zM905 1649q-47 0 -79.5 32.5t-32.5 79.5q0 46 32.5 80.5t79.5 34.5t81 -34t34 -81t-34.5 -79.5t-80.5 -32.5zM1358 0h-199l-145 410h-568l-145 -410h-201
l523 1450h213zM954 578l-225 632l-223 -632h448z" />
    <glyph glyph-name="Aring" unicode="&#xc5;" horiz-adv-x="1458" 
d="M719 1542q-73 0 -126.5 53t-53.5 134q0 74 52.5 127t127.5 53t127.5 -56.5t52.5 -128.5q0 -76 -53 -129t-127 -53zM721 1647q29 0 53.5 23t24.5 56q0 31 -23.5 55.5t-54.5 24.5q-34 0 -56 -23t-22 -54q0 -35 21.5 -58.5t56.5 -23.5zM1358 0h-199l-145 410h-568l-145 -410
h-201l523 1450h213zM954 578l-225 632l-223 -632h448z" />
    <glyph glyph-name="AE" unicode="&#xc6;" horiz-adv-x="1851" 
d="M1724 0h-772v410h-395q-141 -244 -240 -410h-221l105 168l749 1282h774v-170h-585v-449h503v-172h-503v-489h585v-170zM952 580v520l-299 -520h299z" />
    <glyph glyph-name="Ccedilla" unicode="&#xc7;" horiz-adv-x="1460" 
d="M668 -420q-69 0 -131 10l12 117l94 -4q160 0 160 76q0 32 -32.5 46.5t-125.5 20.5l41 136q-171 30 -298.5 135.5t-193 262.5t-65.5 345q0 155 47 292.5t132.5 240t213 162t279.5 59.5q307 0 518 -248l-133 -131q-85 111 -175 160t-208 49q-94 0 -173.5 -32t-134.5 -87
t-94 -129.5t-57 -159t-18 -176.5q0 -122 31.5 -227.5t90.5 -185t150.5 -125.5t204.5 -46q54 0 107 12.5t109 40.5t108 81t92 126l141 -129q-95 -137 -232.5 -217t-312.5 -84l-16 -55q85 -11 128.5 -52t43.5 -95q0 -53 -26.5 -91.5t-72 -58.5t-96 -29.5t-108.5 -9.5z" />
    <glyph glyph-name="Egrave" unicode="&#xc8;" horiz-adv-x="1093" 
d="M600 1585h-108l-222 342h238zM967 0h-772v1450h772v-170h-586v-449h504v-172h-504v-489h586v-170z" />
    <glyph glyph-name="Eacute" unicode="&#xc9;" horiz-adv-x="1093" 
d="M614 1585h-108l92 342h238zM967 0h-772v1450h772v-170h-586v-449h504v-172h-504v-489h586v-170z" />
    <glyph glyph-name="Ecircumflex" unicode="&#xca;" horiz-adv-x="1093" 
d="M868 1585h-202l-111 170l-113 -170h-206l217 281h190zM967 0h-772v1450h772v-170h-586v-449h504v-172h-504v-489h586v-170z" />
    <glyph glyph-name="Edieresis" unicode="&#xcb;" horiz-adv-x="1093" 
d="M365 1649q-47 0 -80 32.5t-33 79.5q0 46 33 80.5t80 34.5t80.5 -34t33.5 -81t-34 -79.5t-80 -32.5zM737 1649q-47 0 -79.5 32.5t-32.5 79.5q0 46 32.5 80.5t79.5 34.5t81 -34t34 -81t-34.5 -79.5t-80.5 -32.5zM967 0h-772v1450h772v-170h-586v-449h504v-172h-504v-489
h586v-170z" />
    <glyph glyph-name="Igrave" unicode="&#xcc;" horiz-adv-x="575" 
d="M338 1585h-109l-221 342h238zM381 0h-186v1450h186v-1450z" />
    <glyph glyph-name="Iacute" unicode="&#xcd;" horiz-adv-x="575" 
d="M352 1585h-108l92 342h237zM381 0h-186v1450h186v-1450z" />
    <glyph glyph-name="Icircumflex" unicode="&#xce;" horiz-adv-x="575" 
d="M606 1585h-203l-110 170l-113 -170h-207l217 281h191zM381 0h-186v1450h186v-1450z" />
    <glyph glyph-name="Idieresis" unicode="&#xcf;" horiz-adv-x="575" 
d="M102 1649q-47 0 -79.5 32.5t-32.5 79.5q0 46 32.5 80.5t79.5 34.5t81 -34t34 -81t-34.5 -79.5t-80.5 -32.5zM475 1649q-47 0 -80 32.5t-33 79.5q0 46 33 80.5t80 34.5t81 -34t34 -81t-34.5 -79.5t-80.5 -32.5zM381 0h-186v1450h186v-1450z" />
    <glyph glyph-name="Eth" unicode="&#xd0;" horiz-adv-x="1437" 
d="M639 0h-444v643h-207v164h207v643h444q203 0 356.5 -96t233.5 -262t80 -377q0 -164 -52 -299.5t-142.5 -226t-212.5 -140t-263 -49.5zM639 170q114 0 206 47.5t149 127t87.5 177t30.5 203.5q0 81 -17.5 159t-55 150t-92 126.5t-134 87t-174.5 32.5h-258v-473h229v-164
h-229v-473h258z" />
    <glyph glyph-name="Ntilde" unicode="&#xd1;" horiz-adv-x="1454" 
d="M881 1548q-28 0 -55 5.5t-44.5 11t-43 20t-33 19.5t-32.5 24t-26 19q-38 24 -61 24q-18 0 -32.5 -18t-31.5 -64h-137q0 94 59 161t154 67q27 0 55.5 -10t46.5 -20t50 -30q16 -10 37 -25t31 -22t24 -13t26 -7q22 0 39 19t31 71h131q0 -111 -54.5 -171.5t-133.5 -60.5z
M1260 0h-220l-659 1135v-1135h-186v1450h221l657 -1133v1133h187v-1450z" />
    <glyph glyph-name="Ograve" unicode="&#xd2;" horiz-adv-x="1679" 
d="M889 1585h-109l-221 342h238zM840 -29q-157 0 -292 61.5t-226.5 165t-143 240.5t-51.5 287q0 207 91 379.5t255 273.5t367 101q157 0 292 -61.5t226 -165t142.5 -240.5t51.5 -287q0 -155 -53.5 -294t-146.5 -240t-226.5 -160.5t-285.5 -59.5zM840 141q116 0 214 48
t163.5 129t102 186.5t36.5 220.5q0 158 -63 290.5t-182.5 213t-270.5 80.5q-116 0 -214 -48t-163.5 -129t-102 -186.5t-36.5 -220.5q0 -158 63 -290.5t182.5 -213t270.5 -80.5z" />
    <glyph glyph-name="Oacute" unicode="&#xd3;" horiz-adv-x="1679" 
d="M903 1585h-108l92 342h237zM840 -29q-157 0 -292 61.5t-226.5 165t-143 240.5t-51.5 287q0 207 91 379.5t255 273.5t367 101q157 0 292 -61.5t226 -165t142.5 -240.5t51.5 -287q0 -155 -53.5 -294t-146.5 -240t-226.5 -160.5t-285.5 -59.5zM840 141q116 0 214 48
t163.5 129t102 186.5t36.5 220.5q0 158 -63 290.5t-182.5 213t-270.5 80.5q-116 0 -214 -48t-163.5 -129t-102 -186.5t-36.5 -220.5q0 -158 63 -290.5t182.5 -213t270.5 -80.5z" />
    <glyph glyph-name="Ocircumflex" unicode="&#xd4;" horiz-adv-x="1679" 
d="M1157 1585h-203l-110 170l-113 -170h-207l217 281h191zM840 -29q-157 0 -292 61.5t-226.5 165t-143 240.5t-51.5 287q0 207 91 379.5t255 273.5t367 101q157 0 292 -61.5t226 -165t142.5 -240.5t51.5 -287q0 -155 -53.5 -294t-146.5 -240t-226.5 -160.5t-285.5 -59.5z
M840 141q116 0 214 48t163.5 129t102 186.5t36.5 220.5q0 158 -63 290.5t-182.5 213t-270.5 80.5q-116 0 -214 -48t-163.5 -129t-102 -186.5t-36.5 -220.5q0 -158 63 -290.5t182.5 -213t270.5 -80.5z" />
    <glyph glyph-name="Otilde" unicode="&#xd5;" horiz-adv-x="1679" 
d="M993 1548q-28 0 -55 5.5t-44.5 11t-42 19.5t-33 20t-32.5 23.5t-26 19.5q-37 24 -62 24q-18 0 -32 -18t-31 -64h-137q0 94 59 161t154 67q27 0 55.5 -10t45.5 -19.5t50 -30.5q16 -10 37 -25t31.5 -22t24.5 -13t26 -7q22 0 39 19t31 71h131q0 -111 -55 -171.5t-134 -60.5z
M840 -29q-157 0 -292 61.5t-226.5 165t-143 240.5t-51.5 287q0 207 91 379.5t255 273.5t367 101q157 0 292 -61.5t226 -165t142.5 -240.5t51.5 -287q0 -155 -53.5 -294t-146.5 -240t-226.5 -160.5t-285.5 -59.5zM840 141q116 0 214 48t163.5 129t102 186.5t36.5 220.5
q0 158 -63 290.5t-182.5 213t-270.5 80.5q-116 0 -214 -48t-163.5 -129t-102 -186.5t-36.5 -220.5q0 -158 63 -290.5t182.5 -213t270.5 -80.5z" />
    <glyph glyph-name="Odieresis" unicode="&#xd6;" horiz-adv-x="1679" 
d="M653 1649q-47 0 -79.5 32.5t-32.5 79.5q0 46 32.5 80.5t79.5 34.5t81 -34t34 -81t-34.5 -79.5t-80.5 -32.5zM1026 1649q-47 0 -80 32.5t-33 79.5q0 46 33 80.5t80 34.5t81 -34t34 -81t-34.5 -79.5t-80.5 -32.5zM840 -29q-157 0 -292 61.5t-226.5 165t-143 240.5
t-51.5 287q0 207 91 379.5t255 273.5t367 101q157 0 292 -61.5t226 -165t142.5 -240.5t51.5 -287q0 -155 -53.5 -294t-146.5 -240t-226.5 -160.5t-285.5 -59.5zM840 141q116 0 214 48t163.5 129t102 186.5t36.5 220.5q0 158 -63 290.5t-182.5 213t-270.5 80.5
q-116 0 -214 -48t-163.5 -129t-102 -186.5t-36.5 -220.5q0 -158 63 -290.5t182.5 -213t270.5 -80.5z" />
    <glyph glyph-name="multiply" unicode="&#xd7;" horiz-adv-x="1173" 
d="M901 289l-313 313l-316 -313l-120 121l313 315l-313 313l122 121l314 -313l313 313l119 -121l-311 -313l313 -313z" />
    <glyph glyph-name="Oslash" unicode="&#xd8;" horiz-adv-x="1679" 
d="M545 -33h-207l78 146q-135 105 -212 262t-77 350q0 207 91 379.5t255 273.5t367 101q145 0 270 -52l29 56h204l-77 -148q133 -100 209.5 -258t76.5 -352q0 -155 -53.5 -294t-146.5 -240t-226.5 -160.5t-285.5 -59.5q-138 0 -267 52zM502 276l526 996q-84 37 -188 37
q-116 0 -214 -48t-163.5 -129t-102 -186.5t-36.5 -220.5q0 -133 45.5 -249t132.5 -200zM840 141q116 0 214 48t163.5 129t102 186.5t36.5 220.5q0 131 -44.5 248t-131.5 198l-525 -995q87 -35 185 -35z" />
    <glyph glyph-name="Ugrave" unicode="&#xd9;" horiz-adv-x="1363" 
d="M731 1585h-108l-222 342h238zM684 -29q-73 0 -144 17.5t-137.5 55.5t-116.5 92.5t-80 134.5t-30 175v1004h186v-1001q0 -81 30 -144.5t78 -100.5t103 -56t111 -19q41 0 81.5 8.5t84 31t76 57t54 92.5t21.5 131v1001h187v-1004q0 -203 -143.5 -339t-360.5 -136z" />
    <glyph glyph-name="Uacute" unicode="&#xda;" horiz-adv-x="1363" 
d="M745 1585h-108l92 342h238zM684 -29q-73 0 -144 17.5t-137.5 55.5t-116.5 92.5t-80 134.5t-30 175v1004h186v-1001q0 -81 30 -144.5t78 -100.5t103 -56t111 -19q41 0 81.5 8.5t84 31t76 57t54 92.5t21.5 131v1001h187v-1004q0 -203 -143.5 -339t-360.5 -136z" />
    <glyph glyph-name="Ucircumflex" unicode="&#xdb;" horiz-adv-x="1363" 
d="M999 1585h-202l-111 170l-113 -170h-206l217 281h190zM684 -29q-73 0 -144 17.5t-137.5 55.5t-116.5 92.5t-80 134.5t-30 175v1004h186v-1001q0 -81 30 -144.5t78 -100.5t103 -56t111 -19q41 0 81.5 8.5t84 31t76 57t54 92.5t21.5 131v1001h187v-1004q0 -203 -143.5 -339
t-360.5 -136z" />
    <glyph glyph-name="Udieresis" unicode="&#xdc;" horiz-adv-x="1363" 
d="M496 1649q-47 0 -80 32.5t-33 79.5q0 46 33 80.5t80 34.5t80.5 -34t33.5 -81t-34 -79.5t-80 -32.5zM868 1649q-47 0 -79.5 32.5t-32.5 79.5q0 46 32.5 80.5t79.5 34.5t81 -34t34 -81t-34.5 -79.5t-80.5 -32.5zM684 -29q-73 0 -144 17.5t-137.5 55.5t-116.5 92.5
t-80 134.5t-30 175v1004h186v-1001q0 -81 30 -144.5t78 -100.5t103 -56t111 -19q41 0 81.5 8.5t84 31t76 57t54 92.5t21.5 131v1001h187v-1004q0 -203 -143.5 -339t-360.5 -136z" />
    <glyph glyph-name="Yacute" unicode="&#xdd;" horiz-adv-x="1169" 
d="M649 1585h-108l92 342h237zM678 0h-186v682l-394 768h209l279 -578l276 578h209l-393 -768v-682z" />
    <glyph glyph-name="Thorn" unicode="&#xde;" horiz-adv-x="1353" 
d="M375 0h-180v1450h180v-299h418q108 0 194 -35.5t140 -97.5t82 -143t28 -175q0 -77 -27.5 -149.5t-80 -133t-140 -97.5t-196.5 -37h-418v-283zM793 446q61 0 109.5 20t76.5 48.5t46.5 65t25 66t6.5 54.5q0 129 -67 208t-197 79h-418v-541h418z" />
    <glyph glyph-name="germandbls" unicode="&#xdf;" horiz-adv-x="1374" 
d="M930 -16q-55 0 -108 11.5t-102 36.5t-86 61t-59 89.5t-22 118.5h197q4 -86 53.5 -126t126.5 -40q80 0 132 42t52 124q0 51 -42 89t-96.5 58.5t-131.5 52t-123 62.5q-139 92 -139 256q0 77 32 123q8 12 61.5 85.5t78.5 121.5q30 59 30 158q0 74 -47 115.5t-114 41.5
q-77 0 -124.5 -41t-47.5 -116v-1307h-181v907h-198v172h198v248q0 79 30.5 140t81.5 97t112 54t127 18q49 0 96.5 -10.5t94 -35t81.5 -61t56.5 -94t21.5 -128.5t-21.5 -139.5t-51.5 -118t-60.5 -92.5t-52 -78.5t-21.5 -59.5q0 -47 29 -81.5t76 -56t103.5 -41t113 -45.5
t103.5 -60.5t76 -94t29 -139.5q0 -102 -52 -175.5t-133 -107.5t-179 -34z" />
    <glyph glyph-name="agrave" unicode="&#xe0;" horiz-adv-x="1179" 
d="M584 1214h-109l-221 342h238zM479 -29q-102 0 -181 31t-124 82.5t-67.5 112t-22.5 127.5q0 133 100.5 232t274.5 99q64 0 124 -9.5t96 -20t97 -31.5v100q0 118 -69.5 184t-171.5 66q-73 0 -142 -39t-108 -100l-144 110q68 96 169 147.5t216 51.5q82 0 157.5 -26t137 -76
t98.5 -132t37 -186v-487q0 -76 62 -76q56 3 131 53v-147q-19 -19 -68.5 -38t-124.5 -19q-64 0 -115.5 37.5t-62.5 103.5q-98 -150 -299 -150zM518 131q250 0 258 201v108q-115 54 -258 54q-122 0 -186 -52t-64 -127q0 -89 68.5 -136.5t181.5 -47.5z" />
    <glyph glyph-name="aacute" unicode="&#xe1;" horiz-adv-x="1179" 
d="M598 1214h-109l93 342h237zM479 -29q-102 0 -181 31t-124 82.5t-67.5 112t-22.5 127.5q0 133 100.5 232t274.5 99q64 0 124 -9.5t96 -20t97 -31.5v100q0 118 -69.5 184t-171.5 66q-73 0 -142 -39t-108 -100l-144 110q68 96 169 147.5t216 51.5q82 0 157.5 -26t137 -76
t98.5 -132t37 -186v-487q0 -76 62 -76q56 3 131 53v-147q-19 -19 -68.5 -38t-124.5 -19q-64 0 -115.5 37.5t-62.5 103.5q-98 -150 -299 -150zM518 131q250 0 258 201v108q-115 54 -258 54q-122 0 -186 -52t-64 -127q0 -89 68.5 -136.5t181.5 -47.5z" />
    <glyph glyph-name="acircumflex" unicode="&#xe2;" horiz-adv-x="1179" 
d="M852 1214h-203l-110 170l-113 -170h-207l217 281h191zM479 -29q-102 0 -181 31t-124 82.5t-67.5 112t-22.5 127.5q0 133 100.5 232t274.5 99q64 0 124 -9.5t96 -20t97 -31.5v100q0 118 -69.5 184t-171.5 66q-73 0 -142 -39t-108 -100l-144 110q68 96 169 147.5t216 51.5
q82 0 157.5 -26t137 -76t98.5 -132t37 -186v-487q0 -76 62 -76q56 3 131 53v-147q-19 -19 -68.5 -38t-124.5 -19q-64 0 -115.5 37.5t-62.5 103.5q-98 -150 -299 -150zM518 131q250 0 258 201v108q-115 54 -258 54q-122 0 -186 -52t-64 -127q0 -89 68.5 -136.5t181.5 -47.5z
" />
    <glyph glyph-name="atilde" unicode="&#xe3;" horiz-adv-x="1179" 
d="M688 1178q-24 0 -46 3t-42.5 10.5t-35 13t-33 17.5t-27.5 18t-27 19.5l-22 16.5q-37 24 -62 24q-18 0 -32 -17.5t-31 -63.5h-137q0 94 59 160.5t154 66.5q27 0 55.5 -10t45.5 -19.5t50 -30.5q16 -10 37 -25t31.5 -22t24.5 -13t26 -7q22 0 38.5 19t30.5 71h132
q0 -111 -55 -171t-134 -60zM479 -29q-102 0 -181 31t-124 82.5t-67.5 112t-22.5 127.5q0 133 100.5 232t274.5 99q64 0 124 -9.5t96 -20t97 -31.5v100q0 118 -69.5 184t-171.5 66q-73 0 -142 -39t-108 -100l-144 110q68 96 169 147.5t216 51.5q82 0 157.5 -26t137 -76
t98.5 -132t37 -186v-487q0 -76 62 -76q56 3 131 53v-147q-19 -19 -68.5 -38t-124.5 -19q-64 0 -115.5 37.5t-62.5 103.5q-98 -150 -299 -150zM518 131q250 0 258 201v108q-115 54 -258 54q-122 0 -186 -52t-64 -127q0 -89 68.5 -136.5t181.5 -47.5z" />
    <glyph glyph-name="adieresis" unicode="&#xe4;" horiz-adv-x="1179" 
d="M348 1278q-47 0 -79.5 33t-32.5 80q0 46 32.5 80t79.5 34t81 -33.5t34 -80.5t-34.5 -80t-80.5 -33zM721 1278q-47 0 -80 33t-33 80q0 46 33 80t80 34t81 -33.5t34 -80.5t-34.5 -80t-80.5 -33zM479 -29q-102 0 -181 31t-124 82.5t-67.5 112t-22.5 127.5q0 133 100.5 232
t274.5 99q64 0 124 -9.5t96 -20t97 -31.5v100q0 118 -69.5 184t-171.5 66q-73 0 -142 -39t-108 -100l-144 110q68 96 169 147.5t216 51.5q82 0 157.5 -26t137 -76t98.5 -132t37 -186v-487q0 -76 62 -76q56 3 131 53v-147q-19 -19 -68.5 -38t-124.5 -19q-64 0 -115.5 37.5
t-62.5 103.5q-98 -150 -299 -150zM518 131q250 0 258 201v108q-115 54 -258 54q-122 0 -186 -52t-64 -127q0 -89 68.5 -136.5t181.5 -47.5z" />
    <glyph glyph-name="aring" unicode="&#xe5;" horiz-adv-x="1179" 
d="M535 1171q-73 0 -127 53t-54 134q0 75 53.5 127.5t127.5 52.5q75 0 127.5 -56t52.5 -128q0 -76 -53 -129.5t-127 -53.5zM537 1276q29 0 53 23.5t24 56.5q0 31 -23.5 55.5t-53.5 24.5q-34 0 -56 -23.5t-22 -54.5q0 -35 21.5 -58.5t56.5 -23.5zM479 -29q-102 0 -181 31
t-124 82.5t-67.5 112t-22.5 127.5q0 133 100.5 232t274.5 99q64 0 124 -9.5t96 -20t97 -31.5v100q0 118 -69.5 184t-171.5 66q-73 0 -142 -39t-108 -100l-144 110q68 96 169 147.5t216 51.5q82 0 157.5 -26t137 -76t98.5 -132t37 -186v-487q0 -76 62 -76q56 3 131 53v-147
q-19 -19 -68.5 -38t-124.5 -19q-64 0 -115.5 37.5t-62.5 103.5q-98 -150 -299 -150zM518 131q250 0 258 201v108q-115 54 -258 54q-122 0 -186 -52t-64 -127q0 -89 68.5 -136.5t181.5 -47.5z" />
    <glyph glyph-name="ae" unicode="&#xe6;" horiz-adv-x="1853" 
d="M479 -29q-102 0 -181 31t-124 82.5t-67.5 112t-22.5 127.5q0 133 100.5 232t274.5 99q64 0 124 -9.5t96 -20t97 -31.5v100q0 122 -73 185t-175 63q-72 0 -138 -38t-105 -99l-144 110q69 99 171.5 148t215.5 49q136 -3 238.5 -61t153.5 -172q58 110 155.5 169.5
t227.5 59.5q90 0 165 -25.5t128.5 -70.5t90.5 -105.5t54.5 -130.5t17.5 -147v-41l-4 -41h-719v-19q0 -68 16.5 -132.5t47.5 -119t84 -87.5t119 -33q57 0 98.5 11.5t68.5 34t42.5 45t29.5 54.5h209q-56 -151 -163 -233t-285 -82q-139 0 -235 62.5t-150 172.5
q-28 -74 -98 -132t-159.5 -88t-181.5 -30zM1573 686q-5 112 -75.5 192t-194.5 80q-103 0 -169.5 -76.5t-84.5 -195.5h524zM518 131q107 0 182.5 56t75.5 145v108q-115 54 -258 54q-122 0 -186 -52t-64 -127q0 -89 68.5 -136.5t181.5 -47.5z" />
    <glyph glyph-name="ccedilla" unicode="&#xe7;" horiz-adv-x="1056" 
d="M461 -420q-69 0 -131 10l12 117l94 -4q160 0 160 76q0 32 -32.5 46.5t-125.5 20.5l47 156q-180 36 -284.5 190.5t-104.5 356.5q0 115 34.5 216.5t97.5 177.5t158.5 120.5t209.5 44.5q116 0 201 -45.5t164 -138.5l-130 -123q-53 74 -104.5 106.5t-132.5 32.5
q-102 0 -174 -55t-104.5 -141.5t-32.5 -194.5q0 -109 32.5 -195.5t104.5 -141t174 -54.5q86 0 147.5 44.5t112.5 129.5l137 -119q-73 -106 -163.5 -162.5t-213.5 -60.5l-22 -74q85 -11 128.5 -52t43.5 -95q0 -53 -26.5 -91.5t-72 -58.5t-96 -29.5t-108.5 -9.5z" />
    <glyph glyph-name="egrave" unicode="&#xe8;" horiz-adv-x="1107" 
d="M606 1214h-108l-222 342h238zM557 -14q-146 0 -251 76t-155.5 201t-50.5 284q0 248 120 404.5t337 156.5q112 0 201 -40.5t144 -110t83.5 -158t28.5 -187.5q0 -28 -4 -82h-713q2 -83 18 -149.5t46.5 -117.5t80 -79t115.5 -28q59 0 101.5 11.5t69 35t40.5 44.5t29 54h209
q-25 -69 -58.5 -122t-85.5 -98.5t-129.5 -70t-175.5 -24.5zM827 670q-5 118 -75.5 203t-194.5 85q-100 0 -165.5 -77.5t-86.5 -210.5h522z" />
    <glyph glyph-name="eacute" unicode="&#xe9;" horiz-adv-x="1107" 
d="M621 1214h-109l92 342h238zM557 -14q-146 0 -251 76t-155.5 201t-50.5 284q0 248 120 404.5t337 156.5q112 0 201 -40.5t144 -110t83.5 -158t28.5 -187.5q0 -28 -4 -82h-713q2 -83 18 -149.5t46.5 -117.5t80 -79t115.5 -28q59 0 101.5 11.5t69 35t40.5 44.5t29 54h209
q-25 -69 -58.5 -122t-85.5 -98.5t-129.5 -70t-175.5 -24.5zM827 670q-5 118 -75.5 203t-194.5 85q-100 0 -165.5 -77.5t-86.5 -210.5h522z" />
    <glyph glyph-name="ecircumflex" unicode="&#xea;" horiz-adv-x="1107" 
d="M874 1214h-202l-111 170l-112 -170h-207l217 281h190zM557 -14q-146 0 -251 76t-155.5 201t-50.5 284q0 248 120 404.5t337 156.5q112 0 201 -40.5t144 -110t83.5 -158t28.5 -187.5q0 -28 -4 -82h-713q2 -83 18 -149.5t46.5 -117.5t80 -79t115.5 -28q59 0 101.5 11.5
t69 35t40.5 44.5t29 54h209q-25 -69 -58.5 -122t-85.5 -98.5t-129.5 -70t-175.5 -24.5zM827 670q-5 118 -75.5 203t-194.5 85q-100 0 -165.5 -77.5t-86.5 -210.5h522z" />
    <glyph glyph-name="edieresis" unicode="&#xeb;" horiz-adv-x="1107" 
d="M371 1278q-47 0 -80 33t-33 80q0 46 33 80t80 34t80.5 -33.5t33.5 -80.5t-34 -80t-80 -33zM743 1278q-47 0 -79.5 33t-32.5 80q0 46 32.5 80t79.5 34t81 -33.5t34 -80.5t-34.5 -80t-80.5 -33zM557 -14q-146 0 -251 76t-155.5 201t-50.5 284q0 248 120 404.5t337 156.5
q112 0 201 -40.5t144 -110t83.5 -158t28.5 -187.5q0 -28 -4 -82h-713q2 -83 18 -149.5t46.5 -117.5t80 -79t115.5 -28q59 0 101.5 11.5t69 35t40.5 44.5t29 54h209q-25 -69 -58.5 -122t-85.5 -98.5t-129.5 -70t-175.5 -24.5zM827 670q-5 118 -75.5 203t-194.5 85
q-100 0 -165.5 -77.5t-86.5 -210.5h522z" />
    <glyph glyph-name="igrave" unicode="&#xec;" horiz-adv-x="491" 
d="M295 1214h-109l-221 342h238zM336 0h-180v1081h180v-1081z" />
    <glyph glyph-name="iacute" unicode="&#xed;" horiz-adv-x="491" 
d="M309 1214h-108l92 342h237zM336 0h-180v1081h180v-1081z" />
    <glyph glyph-name="icircumflex" unicode="&#xee;" horiz-adv-x="491" 
d="M563 1214h-203l-110 170l-113 -170h-207l217 281h191zM336 0h-180v1081h180v-1081z" />
    <glyph glyph-name="idieresis" unicode="&#xef;" horiz-adv-x="491" 
d="M59 1278q-47 0 -79.5 33t-32.5 80q0 46 32.5 80t79.5 34t81 -33.5t34 -80.5t-34.5 -80t-80.5 -33zM432 1278q-47 0 -80 33t-33 80q0 46 33 80t80 34t81 -33.5t34 -80.5t-34.5 -80t-80.5 -33zM336 0h-180v1081h180v-1081z" />
    <glyph glyph-name="eth" unicode="&#xf0;" horiz-adv-x="1255" 
d="M612 -14q-146 0 -265.5 75.5t-186 204t-66.5 281.5q0 89 23.5 173t68.5 154t107 122.5t144.5 82t174.5 29.5q134 0 267 -76q-50 105 -121 201l-289 -66l-29 125l228 51q-109 115 -234 197h238q86 -63 172 -158l291 66l26 -125l-229 -51q219 -307 219 -654
q0 -170 -64 -301q-58 -148 -181.5 -239.5t-293.5 -91.5zM612 156q147 0 238.5 114t91.5 277q0 167 -93 280t-237 113q-99 0 -175.5 -56t-115 -144.5t-38.5 -192.5q0 -164 90.5 -277.5t238.5 -113.5z" />
    <glyph glyph-name="ntilde" unicode="&#xf1;" horiz-adv-x="1185" 
d="M756 1178q-24 0 -46 3t-42.5 10.5t-35 13t-34 18t-27.5 17.5t-27 19.5t-22 16.5q-38 24 -61 24q-18 0 -32.5 -17.5t-31.5 -63.5h-137q0 94 59 160.5t154 66.5q27 0 55.5 -10t46.5 -20t50 -30q16 -10 37 -25t31 -22t24 -13t26 -7q22 0 39 19t31 71h131q0 -111 -54.5 -171
t-133.5 -60zM1049 0h-181v588q0 50 -2 87t-8.5 75.5t-18 65.5t-30.5 52t-46 40t-65 23.5t-86 8.5q-142 0 -209 -87t-67 -237v-616h-180v1079h180v-164q120 193 317 193q118 0 197 -34.5t122 -105.5t60 -161t17 -219v-588z" />
    <glyph glyph-name="ograve" unicode="&#xf2;" horiz-adv-x="1224" 
d="M662 1214h-109l-221 342h237zM612 -14q-114 0 -212.5 45.5t-164.5 122t-103.5 179t-37.5 214.5q0 114 38 216.5t104.5 178.5t164.5 121t211 45q114 0 212.5 -45.5t164.5 -122t103.5 -179t37.5 -214.5q0 -152 -64.5 -280t-184 -204.5t-269.5 -76.5zM612 156
q147 0 238.5 114t91.5 277q0 167 -93 280t-237 113q-99 0 -175.5 -56t-115 -144.5t-38.5 -192.5q0 -164 90.5 -277.5t238.5 -113.5z" />
    <glyph glyph-name="oacute" unicode="&#xf3;" horiz-adv-x="1224" 
d="M676 1214h-109l92 342h238zM612 -14q-114 0 -212.5 45.5t-164.5 122t-103.5 179t-37.5 214.5q0 114 38 216.5t104.5 178.5t164.5 121t211 45q114 0 212.5 -45.5t164.5 -122t103.5 -179t37.5 -214.5q0 -152 -64.5 -280t-184 -204.5t-269.5 -76.5zM612 156q147 0 238.5 114
t91.5 277q0 167 -93 280t-237 113q-99 0 -175.5 -56t-115 -144.5t-38.5 -192.5q0 -164 90.5 -277.5t238.5 -113.5z" />
    <glyph glyph-name="ocircumflex" unicode="&#xf4;" horiz-adv-x="1224" 
d="M930 1214h-203l-111 170l-112 -170h-207l217 281h191zM612 -14q-114 0 -212.5 45.5t-164.5 122t-103.5 179t-37.5 214.5q0 114 38 216.5t104.5 178.5t164.5 121t211 45q114 0 212.5 -45.5t164.5 -122t103.5 -179t37.5 -214.5q0 -152 -64.5 -280t-184 -204.5t-269.5 -76.5
zM612 156q147 0 238.5 114t91.5 277q0 167 -93 280t-237 113q-99 0 -175.5 -56t-115 -144.5t-38.5 -192.5q0 -164 90.5 -277.5t238.5 -113.5z" />
    <glyph glyph-name="otilde" unicode="&#xf5;" horiz-adv-x="1224" 
d="M766 1178q-24 0 -46 3t-42.5 10.5t-35 13t-34 18t-27.5 17.5t-27 19.5t-22 16.5q-38 24 -61 24q-18 0 -32 -17.5t-31 -63.5h-138q0 94 59 160.5t154 66.5q27 0 55.5 -10t46.5 -20t50 -30q16 -10 37 -25t31.5 -22t24.5 -13t26 -7q22 0 38.5 19t30.5 71h131
q0 -111 -54.5 -171t-133.5 -60zM612 -14q-114 0 -212.5 45.5t-164.5 122t-103.5 179t-37.5 214.5q0 114 38 216.5t104.5 178.5t164.5 121t211 45q114 0 212.5 -45.5t164.5 -122t103.5 -179t37.5 -214.5q0 -152 -64.5 -280t-184 -204.5t-269.5 -76.5zM612 156
q147 0 238.5 114t91.5 277q0 167 -93 280t-237 113q-99 0 -175.5 -56t-115 -144.5t-38.5 -192.5q0 -164 90.5 -277.5t238.5 -113.5z" />
    <glyph glyph-name="odieresis" unicode="&#xf6;" horiz-adv-x="1224" 
d="M426 1278q-47 0 -80 33t-33 80q0 46 33 80t80 34t81 -33.5t34 -80.5t-34.5 -80t-80.5 -33zM799 1278q-47 0 -80 33t-33 80q0 46 33 80t80 34t80.5 -33.5t33.5 -80.5t-34 -80t-80 -33zM612 -14q-114 0 -212.5 45.5t-164.5 122t-103.5 179t-37.5 214.5q0 114 38 216.5
t104.5 178.5t164.5 121t211 45q114 0 212.5 -45.5t164.5 -122t103.5 -179t37.5 -214.5q0 -152 -64.5 -280t-184 -204.5t-269.5 -76.5zM612 156q147 0 238.5 114t91.5 277q0 167 -93 280t-237 113q-99 0 -175.5 -56t-115 -144.5t-38.5 -192.5q0 -164 90.5 -277.5
t238.5 -113.5z" />
    <glyph glyph-name="divide" unicode="&#xf7;" horiz-adv-x="1290" 
d="M745 922h-204v204h204v-204zM1128 639h-968v168h968v-168zM745 319h-204v205h204v-205z" />
    <glyph glyph-name="oslash" unicode="&#xf8;" horiz-adv-x="1224" 
d="M375 -27h-166l76 133q-89 77 -140 191t-51 250q0 114 38 216.5t104.5 178.5t164.5 121t211 45q114 0 213 -45l27 45h166l-72 -125q86 -77 135 -189.5t49 -246.5q0 -152 -64.5 -280t-184 -204.5t-269.5 -76.5q-113 0 -206 43zM377 268l364 643q-66 29 -129 29
q-99 0 -175.5 -56t-115 -144.5t-38.5 -192.5q0 -165 94 -279zM612 156q147 0 238.5 114t91.5 277q0 162 -88 272l-362 -639q56 -24 120 -24z" />
    <glyph glyph-name="ugrave" unicode="&#xf9;" horiz-adv-x="1185" 
d="M633 1214h-109l-221 342h238zM532 -29q-95 0 -164.5 23.5t-113.5 65.5t-70.5 109t-36.5 143.5t-10 179.5v587h180v-587q0 -70 5 -119t20.5 -96.5t43 -75.5t74.5 -45t113 -17q264 0 277 322v618h180v-1079h-180v184q-38 -89 -127.5 -151t-190.5 -62z" />
    <glyph glyph-name="uacute" unicode="&#xfa;" horiz-adv-x="1185" 
d="M647 1214h-108l92 342h237zM532 -29q-95 0 -164.5 23.5t-113.5 65.5t-70.5 109t-36.5 143.5t-10 179.5v587h180v-587q0 -70 5 -119t20.5 -96.5t43 -75.5t74.5 -45t113 -17q264 0 277 322v618h180v-1079h-180v184q-38 -89 -127.5 -151t-190.5 -62z" />
    <glyph glyph-name="ucircumflex" unicode="&#xfb;" horiz-adv-x="1185" 
d="M901 1214h-203l-110 170l-113 -170h-207l217 281h191zM532 -29q-95 0 -164.5 23.5t-113.5 65.5t-70.5 109t-36.5 143.5t-10 179.5v587h180v-587q0 -70 5 -119t20.5 -96.5t43 -75.5t74.5 -45t113 -17q264 0 277 322v618h180v-1079h-180v184q-38 -89 -127.5 -151
t-190.5 -62z" />
    <glyph glyph-name="udieresis" unicode="&#xfc;" horiz-adv-x="1185" 
d="M397 1278q-47 0 -79.5 33t-32.5 80q0 46 32.5 80t79.5 34t81 -33.5t34 -80.5t-34.5 -80t-80.5 -33zM770 1278q-47 0 -80 33t-33 80q0 46 33 80t80 34t81 -33.5t34 -80.5t-34.5 -80t-80.5 -33zM532 -29q-95 0 -164.5 23.5t-113.5 65.5t-70.5 109t-36.5 143.5t-10 179.5
v587h180v-587q0 -70 5 -119t20.5 -96.5t43 -75.5t74.5 -45t113 -17q264 0 277 322v618h180v-1079h-180v184q-38 -89 -127.5 -151t-190.5 -62z" />
    <glyph glyph-name="yacute" unicode="&#xfd;" horiz-adv-x="1153" 
d="M639 1214h-109l93 342h237zM127 -446v192q27 -4 76 -4q32 0 60.5 5.5t49.5 12t41 22t33 26t27.5 34t22 35.5t18.5 40.5t15 40t15 42.5l-329 840l-90 239h208l78 -221l228 -598l297 819h210l-88 -243l-321 -850q-53 -136 -88 -203q-67 -122 -168.5 -175.5t-294.5 -53.5z
" />
    <glyph glyph-name="thorn" unicode="&#xfe;" horiz-adv-x="1210" 
d="M336 -371h-180v1821h180v-506q48 67 117 115q70 49 180 49q146 0 256 -74.5t166.5 -201t56.5 -285.5q0 -192 -82.5 -334t-230.5 -199q-65 -28 -166 -28q-173 0 -297 166v-523zM633 156q98 0 164.5 54.5t95.5 140t29 196.5q0 81 -16.5 150t-50.5 124.5t-91 87t-131 31.5
q-96 0 -164.5 -53t-100.5 -140t-32 -200q0 -174 77.5 -282.5t219.5 -108.5z" />
    <glyph glyph-name="ydieresis" unicode="&#xff;" horiz-adv-x="1153" 
d="M389 1278q-47 0 -80 33t-33 80q0 46 33 80t80 34t81 -33.5t34 -80.5t-34.5 -80t-80.5 -33zM762 1278q-47 0 -80 33t-33 80q0 46 33 80t80 34t81 -33.5t34 -80.5t-34.5 -80t-80.5 -33zM127 -446v192q27 -4 76 -4q32 0 60.5 5.5t49.5 12t41 22t33 26t27.5 34t22 35.5
t18.5 40.5t15 40t15 42.5l-329 840l-90 239h208l78 -221l228 -598l297 819h210l-88 -243l-321 -850q-53 -136 -88 -203q-67 -122 -168.5 -175.5t-294.5 -53.5z" />
    <glyph glyph-name="Amacron" unicode="&#x100;" horiz-adv-x="1458" 
d="M1073 1608h-708v143h708v-143zM1358 0h-199l-145 410h-568l-145 -410h-201l523 1450h213zM954 578l-225 632l-223 -632h448z" />
    <glyph glyph-name="amacron" unicode="&#x101;" horiz-adv-x="1179" 
d="M889 1237h-709v143h709v-143zM479 -29q-102 0 -181 31t-124 82.5t-67.5 112t-22.5 127.5q0 133 100.5 232t274.5 99q64 0 124 -9.5t96 -20t97 -31.5v100q0 118 -69.5 184t-171.5 66q-73 0 -142 -39t-108 -100l-144 110q68 96 169 147.5t216 51.5q82 0 157.5 -26t137 -76
t98.5 -132t37 -186v-487q0 -76 62 -76q56 3 131 53v-147q-19 -19 -68.5 -38t-124.5 -19q-64 0 -115.5 37.5t-62.5 103.5q-98 -150 -299 -150zM518 131q250 0 258 201v108q-115 54 -258 54q-122 0 -186 -52t-64 -127q0 -89 68.5 -136.5t181.5 -47.5z" />
    <glyph glyph-name="Abreve" unicode="&#x102;" horiz-adv-x="1458" 
d="M721 1595q-267 0 -297 260h125q24 -135 166 -135q79 0 121 31.5t57 103.5h123q-14 -122 -88.5 -191t-206.5 -69zM1358 0h-199l-145 410h-568l-145 -410h-201l523 1450h213zM954 578l-225 632l-223 -632h448z" />
    <glyph glyph-name="abreve" unicode="&#x103;" horiz-adv-x="1179" 
d="M537 1225q-267 0 -297 260h125q24 -135 165 -135q79 0 121.5 32t57.5 103h122q-14 -122 -88 -191t-206 -69zM479 -29q-102 0 -181 31t-124 82.5t-67.5 112t-22.5 127.5q0 133 100.5 232t274.5 99q64 0 124 -9.5t96 -20t97 -31.5v100q0 118 -69.5 184t-171.5 66
q-73 0 -142 -39t-108 -100l-144 110q68 96 169 147.5t216 51.5q82 0 157.5 -26t137 -76t98.5 -132t37 -186v-487q0 -76 62 -76q56 3 131 53v-147q-19 -19 -68.5 -38t-124.5 -19q-64 0 -115.5 37.5t-62.5 103.5q-98 -150 -299 -150zM518 131q250 0 258 201v108
q-115 54 -258 54q-122 0 -186 -52t-64 -127q0 -89 68.5 -136.5t181.5 -47.5z" />
    <glyph glyph-name="Aogonek" unicode="&#x104;" horiz-adv-x="1458" 
d="M1268 -426q-84 0 -139.5 44t-55.5 136q0 62 36 127.5t101 118.5h-51l-145 410h-568l-145 -410h-201l523 1450h213l522 -1450h-17q-118 -80 -118 -190q0 -46 28.5 -72.5t71.5 -26.5q44 0 88 23v-129q-57 -26 -113 -29zM954 578l-225 632l-223 -632h448z" />
    <glyph glyph-name="aogonek" unicode="&#x105;" horiz-adv-x="1179" 
d="M887 -426q-84 0 -139.5 44t-55.5 136q0 62 36 127.5t101 118.5h41q-74 31 -92 121q-98 -150 -299 -150q-102 0 -181 31t-124 82.5t-67.5 112t-22.5 127.5q0 133 100.5 232t274.5 99q64 0 124 -9.5t96 -20t97 -31.5v100q0 118 -69.5 184t-171.5 66q-73 0 -142 -39
t-108 -100l-144 110q68 96 169 147.5t216 51.5q82 0 157.5 -26t137 -76t98.5 -132t37 -186v-487q0 -76 62 -76q56 3 131 53v-147q-19 -19 -68.5 -38t-124.5 -19q-16 0 -22 2q-92 -77 -92 -172q0 -46 28.5 -72.5t71.5 -26.5q44 0 88 23v-129q-57 -26 -112 -29zM518 131
q250 0 258 201v108q-115 54 -258 54q-122 0 -186 -52t-64 -127q0 -89 68.5 -136.5t181.5 -47.5z" />
    <glyph glyph-name="Cacute" unicode="&#x106;" horiz-adv-x="1460" 
d="M864 1585h-108l92 342h237zM803 -29q-155 0 -284 61.5t-213.5 165.5t-130.5 240t-46 287q0 155 47 292.5t132.5 240t213 162t279.5 59.5q307 0 518 -248l-133 -131q-85 111 -175 160t-208 49q-94 0 -173.5 -32t-134.5 -87t-94 -129.5t-57 -159t-18 -176.5
q0 -122 31.5 -227.5t90.5 -185t150.5 -125.5t204.5 -46q54 0 107 12.5t109 40.5t108 81t92 126l141 -129q-209 -301 -557 -301z" />
    <glyph glyph-name="cacute" unicode="&#x107;" horiz-adv-x="1056" 
d="M659 1214h-108l92 342h238zM596 -10q-114 0 -209.5 44.5t-158.5 121t-97.5 178t-34.5 215.5q0 115 34.5 216.5t97.5 177.5t158.5 120.5t209.5 44.5q116 0 201 -45.5t164 -138.5l-130 -123q-53 74 -104.5 106.5t-132.5 32.5q-102 0 -174 -55t-104.5 -141.5t-32.5 -194.5
q0 -109 32.5 -195.5t104.5 -141t174 -54.5q86 0 147.5 44.5t112.5 129.5l137 -119q-78 -111 -171.5 -167t-223.5 -56z" />
    <glyph glyph-name="Ccircumflex" unicode="&#x108;" horiz-adv-x="1460" 
d="M1118 1585h-203l-110 170l-113 -170h-207l217 281h191zM803 -29q-155 0 -284 61.5t-213.5 165.5t-130.5 240t-46 287q0 155 47 292.5t132.5 240t213 162t279.5 59.5q307 0 518 -248l-133 -131q-85 111 -175 160t-208 49q-94 0 -173.5 -32t-134.5 -87t-94 -129.5t-57 -159
t-18 -176.5q0 -122 31.5 -227.5t90.5 -185t150.5 -125.5t204.5 -46q54 0 107 12.5t109 40.5t108 81t92 126l141 -129q-209 -301 -557 -301z" />
    <glyph glyph-name="ccircumflex" unicode="&#x109;" horiz-adv-x="1056" 
d="M913 1214h-202l-111 170l-113 -170h-206l217 281h190zM596 -10q-114 0 -209.5 44.5t-158.5 121t-97.5 178t-34.5 215.5q0 115 34.5 216.5t97.5 177.5t158.5 120.5t209.5 44.5q116 0 201 -45.5t164 -138.5l-130 -123q-53 74 -104.5 106.5t-132.5 32.5q-102 0 -174 -55
t-104.5 -141.5t-32.5 -194.5q0 -109 32.5 -195.5t104.5 -141t174 -54.5q86 0 147.5 44.5t112.5 129.5l137 -119q-78 -111 -171.5 -167t-223.5 -56z" />
    <glyph glyph-name="Cdotaccent" unicode="&#x10a;" horiz-adv-x="1460" 
d="M799 1581q-55 0 -93 37.5t-38 93.5q0 57 38 96t93 39t95 -38t40 -97q0 -56 -40 -93.5t-95 -37.5zM803 -29q-155 0 -284 61.5t-213.5 165.5t-130.5 240t-46 287q0 155 47 292.5t132.5 240t213 162t279.5 59.5q307 0 518 -248l-133 -131q-85 111 -175 160t-208 49
q-94 0 -173.5 -32t-134.5 -87t-94 -129.5t-57 -159t-18 -176.5q0 -122 31.5 -227.5t90.5 -185t150.5 -125.5t204.5 -46q54 0 107 12.5t109 40.5t108 81t92 126l141 -129q-209 -301 -557 -301z" />
    <glyph glyph-name="cdotaccent" unicode="&#x10b;" horiz-adv-x="1056" 
d="M594 1210q-56 0 -93.5 38t-37.5 93q0 57 38 96.5t93 39.5t95 -38.5t40 -97.5q0 -56 -40 -93.5t-95 -37.5zM596 -10q-114 0 -209.5 44.5t-158.5 121t-97.5 178t-34.5 215.5q0 115 34.5 216.5t97.5 177.5t158.5 120.5t209.5 44.5q116 0 201 -45.5t164 -138.5l-130 -123
q-53 74 -104.5 106.5t-132.5 32.5q-102 0 -174 -55t-104.5 -141.5t-32.5 -194.5q0 -109 32.5 -195.5t104.5 -141t174 -54.5q86 0 147.5 44.5t112.5 129.5l137 -119q-78 -111 -171.5 -167t-223.5 -56z" />
    <glyph glyph-name="Ccaron" unicode="&#x10c;" horiz-adv-x="1460" 
d="M893 1585h-193l-215 281h205l113 -170l110 170h205zM803 -29q-155 0 -284 61.5t-213.5 165.5t-130.5 240t-46 287q0 155 47 292.5t132.5 240t213 162t279.5 59.5q307 0 518 -248l-133 -131q-85 111 -175 160t-208 49q-94 0 -173.5 -32t-134.5 -87t-94 -129.5t-57 -159
t-18 -176.5q0 -122 31.5 -227.5t90.5 -185t150.5 -125.5t204.5 -46q54 0 107 12.5t109 40.5t108 81t92 126l141 -129q-209 -301 -557 -301z" />
    <glyph glyph-name="ccaron" unicode="&#x10d;" horiz-adv-x="1056" 
d="M688 1214h-192l-215 281h204l113 -170l111 170h204zM596 -10q-114 0 -209.5 44.5t-158.5 121t-97.5 178t-34.5 215.5q0 115 34.5 216.5t97.5 177.5t158.5 120.5t209.5 44.5q116 0 201 -45.5t164 -138.5l-130 -123q-53 74 -104.5 106.5t-132.5 32.5q-102 0 -174 -55
t-104.5 -141.5t-32.5 -194.5q0 -109 32.5 -195.5t104.5 -141t174 -54.5q86 0 147.5 44.5t112.5 129.5l137 -119q-78 -111 -171.5 -167t-223.5 -56z" />
    <glyph glyph-name="Dcaron" unicode="&#x10e;" horiz-adv-x="1437" 
d="M809 1585h-193l-215 281h205l113 -170l110 170h205zM639 0h-444v1450h444q203 0 356.5 -96t233.5 -262t80 -377q0 -164 -52 -299.5t-142.5 -226t-212.5 -140t-263 -49.5zM639 170q114 0 206 47.5t149 127t87.5 177t30.5 203.5q0 81 -17.5 159t-55 150t-92 126.5t-134 87
t-174.5 32.5h-258v-1110h258z" />
    <glyph glyph-name="dcaron" unicode="&#x10f;" horiz-adv-x="1560" 
d="M1311 991h-17v78q70 10 109 40.5t39 98.5q-54 0 -93.5 37.5t-39.5 93.5q0 57 38 96.5t93 39.5q56 0 95.5 -38.5t39.5 -97.5v-22q0 -83 -22.5 -147.5t-60.5 -102.5t-84 -57t-97 -19zM575 -14q-113 0 -205 45t-150.5 122.5t-90 178.5t-31.5 215q0 158 56 284.5t165.5 201.5
t255.5 75q142 0 228 -74q86 -77 129 -190v606h180v-1450h-180v248q-43 -113 -129 -187q-84 -75 -228 -75zM608 154q147 0 235.5 115t88.5 280q0 78 -20 147.5t-58 124t-99 86t-137 31.5q-147 0 -237 -111t-90 -274q0 -106 35.5 -195.5t109 -146.5t172.5 -57z" />
    <glyph glyph-name="Dcroat" unicode="&#x110;" horiz-adv-x="1437" 
d="M639 0h-444v643h-207v164h207v643h444q203 0 356.5 -96t233.5 -262t80 -377q0 -164 -52 -299.5t-142.5 -226t-212.5 -140t-263 -49.5zM639 170q114 0 206 47.5t149 127t87.5 177t30.5 203.5q0 81 -17.5 159t-55 150t-92 126.5t-134 87t-174.5 32.5h-258v-473h229v-164
h-229v-473h258z" />
    <glyph glyph-name="dcroat" unicode="&#x111;" horiz-adv-x="1267" 
d="M575 -14q-113 0 -205 45t-150.5 122.5t-90 178.5t-31.5 215q0 158 56 284.5t165.5 201.5t255.5 75q142 0 228 -74q86 -77 129 -190v340h-180v164h180v102h180v-102h184v-164h-184v-1184h-180v248q-43 -113 -129 -187q-84 -75 -228 -75zM608 154q147 0 235.5 115t88.5 280
q0 78 -20 147.5t-58 124t-99 86t-137 31.5q-147 0 -237 -111t-90 -274q0 -106 35.5 -195.5t109 -146.5t172.5 -57z" />
    <glyph glyph-name="Emacron" unicode="&#x112;" horiz-adv-x="1093" 
d="M905 1608h-708v143h708v-143zM967 0h-772v1450h772v-170h-586v-449h504v-172h-504v-489h586v-170z" />
    <glyph glyph-name="emacron" unicode="&#x113;" horiz-adv-x="1107" 
d="M911 1237h-708v143h708v-143zM557 -14q-146 0 -251 76t-155.5 201t-50.5 284q0 248 120 404.5t337 156.5q112 0 201 -40.5t144 -110t83.5 -158t28.5 -187.5q0 -28 -4 -82h-713q2 -83 18 -149.5t46.5 -117.5t80 -79t115.5 -28q59 0 101.5 11.5t69 35t40.5 44.5t29 54h209
q-25 -69 -58.5 -122t-85.5 -98.5t-129.5 -70t-175.5 -24.5zM827 670q-5 118 -75.5 203t-194.5 85q-100 0 -165.5 -77.5t-86.5 -210.5h522z" />
    <glyph glyph-name="Ebreve" unicode="&#x114;" horiz-adv-x="1093" 
d="M553 1595q-267 0 -297 260h125q24 -135 166 -135q79 0 121 31.5t57 103.5h123q-14 -122 -88.5 -191t-206.5 -69zM967 0h-772v1450h772v-170h-586v-449h504v-172h-504v-489h586v-170z" />
    <glyph glyph-name="ebreve" unicode="&#x115;" horiz-adv-x="1107" 
d="M559 1225q-267 0 -297 260h125q24 -135 166 -135q79 0 121 31.5t57 103.5h123q-14 -122 -88.5 -191t-206.5 -69zM557 -14q-146 0 -251 76t-155.5 201t-50.5 284q0 248 120 404.5t337 156.5q112 0 201 -40.5t144 -110t83.5 -158t28.5 -187.5q0 -28 -4 -82h-713
q2 -83 18 -149.5t46.5 -117.5t80 -79t115.5 -28q59 0 101.5 11.5t69 35t40.5 44.5t29 54h209q-25 -69 -58.5 -122t-85.5 -98.5t-129.5 -70t-175.5 -24.5zM827 670q-5 118 -75.5 203t-194.5 85q-100 0 -165.5 -77.5t-86.5 -210.5h522z" />
    <glyph glyph-name="Edotaccent" unicode="&#x116;" horiz-adv-x="1093" 
d="M549 1581q-55 0 -93 37.5t-38 93.5q0 57 38 96t93 39t95 -38t40 -97q0 -56 -40 -93.5t-95 -37.5zM967 0h-772v1450h772v-170h-586v-449h504v-172h-504v-489h586v-170z" />
    <glyph glyph-name="edotaccent" unicode="&#x117;" horiz-adv-x="1107" 
d="M555 1210q-55 0 -93 38t-38 93q0 57 38 96.5t93 39.5t95 -38.5t40 -97.5q0 -56 -40 -93.5t-95 -37.5zM557 -14q-146 0 -251 76t-155.5 201t-50.5 284q0 248 120 404.5t337 156.5q112 0 201 -40.5t144 -110t83.5 -158t28.5 -187.5q0 -28 -4 -82h-713q2 -83 18 -149.5
t46.5 -117.5t80 -79t115.5 -28q59 0 101.5 11.5t69 35t40.5 44.5t29 54h209q-25 -69 -58.5 -122t-85.5 -98.5t-129.5 -70t-175.5 -24.5zM827 670q-5 118 -75.5 203t-194.5 85q-100 0 -165.5 -77.5t-86.5 -210.5h522z" />
    <glyph glyph-name="Eogonek" unicode="&#x118;" horiz-adv-x="1093" 
d="M897 -426q-84 0 -139.5 44t-55.5 136q0 62 36.5 127t101.5 119h-645v1450h772v-170h-586v-449h504v-172h-504v-489h586v-170h4q-119 -81 -119 -190q0 -46 28.5 -72.5t71.5 -26.5q44 0 88 23v-129q-57 -26 -112 -29z" />
    <glyph glyph-name="eogonek" unicode="&#x119;" horiz-adv-x="1107" 
d="M590 -426q-84 0 -139.5 44t-55.5 136q0 57 31.5 118.5t91.5 115.5q-103 9 -183.5 56.5t-131 123.5t-77 172t-26.5 207q0 89 16.5 170t52 153t88 124.5t129.5 83t171 30.5q110 0 198 -39.5t144 -107.5t85.5 -157.5t29.5 -191.5v-41l-4 -41h-713q3 -82 18.5 -148
t45.5 -117.5t80 -80t116 -28.5q57 0 99 11.5t68.5 34t42.5 45t30 54.5h209q-50 -133 -134.5 -211.5t-218.5 -97.5q-108 -76 -108 -182q0 -46 28.5 -72.5t71.5 -26.5q44 0 88 23v-129q-57 -26 -112 -29zM827 670q-5 118 -75.5 203t-194.5 85q-100 0 -165.5 -77.5
t-86.5 -210.5h522z" />
    <glyph glyph-name="Ecaron" unicode="&#x11a;" horiz-adv-x="1093" 
d="M643 1585h-192l-215 281h204l113 -170l111 170h204zM967 0h-772v1450h772v-170h-586v-449h504v-172h-504v-489h586v-170z" />
    <glyph glyph-name="ecaron" unicode="&#x11b;" horiz-adv-x="1107" 
d="M649 1214h-192l-215 281h204l113 -170l111 170h204zM557 -14q-146 0 -251 76t-155.5 201t-50.5 284q0 248 120 404.5t337 156.5q112 0 201 -40.5t144 -110t83.5 -158t28.5 -187.5q0 -28 -4 -82h-713q2 -83 18 -149.5t46.5 -117.5t80 -79t115.5 -28q59 0 101.5 11.5t69 35
t40.5 44.5t29 54h209q-25 -69 -58.5 -122t-85.5 -98.5t-129.5 -70t-175.5 -24.5zM827 670q-5 118 -75.5 203t-194.5 85q-100 0 -165.5 -77.5t-86.5 -210.5h522z" />
    <glyph glyph-name="Gcircumflex" unicode="&#x11c;" horiz-adv-x="1617" 
d="M1159 1585h-203l-110 170l-113 -170h-207l217 281h191zM842 -29q-155 0 -286.5 52.5t-226 149t-147.5 238.5t-53 314q0 159 54 298t150 239.5t235.5 158.5t303.5 58q162 0 307 -70t234 -172l-123 -141q-87 110 -197.5 161.5t-220.5 51.5q-131 0 -237 -48.5t-172.5 -131
t-101.5 -186t-35 -218.5q0 -277 139.5 -431.5t376.5 -154.5q66 0 129 14.5t125 49t108 87t74.5 134.5t28.5 184h-621v170h809q4 -70 4 -102q0 -171 -48.5 -306t-136 -221.5t-207.5 -132t-265 -45.5z" />
    <glyph glyph-name="gcircumflex" unicode="&#x11d;" horiz-adv-x="1267" 
d="M922 1214h-203l-111 170l-112 -170h-207l217 281h190zM573 -406h-16q-96 0 -188.5 29.5t-161.5 83.5l72 191q51 -64 135 -97.5t178 -33.5q62 0 121 17t109 50.5t80 90.5t30 130v191q-43 -113 -129 -187q-84 -75 -228 -75q-111 0 -202.5 45t-151 122t-91.5 178.5
t-32 215.5q0 116 32.5 219t92.5 178q63 78 153.5 121t198.5 43q142 0 228 -74q86 -77 129 -190v237h180v-1024q0 -217 -168 -344q-155 -117 -371 -117zM608 152q147 0 235.5 115t88.5 280q0 78 -20 147.5t-58 124t-99 86t-137 31.5q-147 0 -237 -111t-90 -274
q0 -106 35.5 -195.5t109 -146.5t172.5 -57z" />
    <glyph glyph-name="Gbreve" unicode="&#x11e;" horiz-adv-x="1617" 
d="M844 1595q-267 0 -297 260h125q24 -135 166 -135q78 0 120.5 31.5t57.5 103.5h123q-14 -122 -88.5 -191t-206.5 -69zM842 -29q-155 0 -286.5 52.5t-226 149t-147.5 238.5t-53 314q0 159 54 298t150 239.5t235.5 158.5t303.5 58q162 0 307 -70t234 -172l-123 -141
q-87 110 -197.5 161.5t-220.5 51.5q-131 0 -237 -48.5t-172.5 -131t-101.5 -186t-35 -218.5q0 -277 139.5 -431.5t376.5 -154.5q66 0 129 14.5t125 49t108 87t74.5 134.5t28.5 184h-621v170h809q4 -70 4 -102q0 -171 -48.5 -306t-136 -221.5t-207.5 -132t-265 -45.5z" />
    <glyph glyph-name="gbreve" unicode="&#x11f;" horiz-adv-x="1267" 
d="M606 1225q-267 0 -297 260h125q24 -135 166 -135q78 0 120.5 31.5t57.5 103.5h123q-14 -122 -88.5 -191t-206.5 -69zM573 -406h-16q-96 0 -188.5 29.5t-161.5 83.5l72 191q51 -64 135 -97.5t178 -33.5q62 0 121 17t109 50.5t80 90.5t30 130v191q-43 -113 -129 -187
q-84 -75 -228 -75q-111 0 -202.5 45t-151 122t-91.5 178.5t-32 215.5q0 116 32.5 219t92.5 178q63 78 153.5 121t198.5 43q142 0 228 -74q86 -77 129 -190v237h180v-1024q0 -217 -168 -344q-155 -117 -371 -117zM608 152q147 0 235.5 115t88.5 280q0 78 -20 147.5t-58 124
t-99 86t-137 31.5q-147 0 -237 -111t-90 -274q0 -106 35.5 -195.5t109 -146.5t172.5 -57z" />
    <glyph glyph-name="Gdotaccent" unicode="&#x120;" horiz-adv-x="1617" 
d="M840 1581q-56 0 -93.5 37.5t-37.5 93.5q0 57 38 96t93 39t95 -38t40 -97q0 -56 -40 -93.5t-95 -37.5zM842 -29q-155 0 -286.5 52.5t-226 149t-147.5 238.5t-53 314q0 159 54 298t150 239.5t235.5 158.5t303.5 58q162 0 307 -70t234 -172l-123 -141q-87 110 -197.5 161.5
t-220.5 51.5q-131 0 -237 -48.5t-172.5 -131t-101.5 -186t-35 -218.5q0 -277 139.5 -431.5t376.5 -154.5q66 0 129 14.5t125 49t108 87t74.5 134.5t28.5 184h-621v170h809q4 -70 4 -102q0 -171 -48.5 -306t-136 -221.5t-207.5 -132t-265 -45.5z" />
    <glyph glyph-name="gdotaccent" unicode="&#x121;" horiz-adv-x="1267" 
d="M602 1210q-56 0 -93.5 38t-37.5 93q0 57 38 96.5t93 39.5t95 -38.5t40 -97.5q0 -56 -40 -93.5t-95 -37.5zM573 -406h-16q-96 0 -188.5 29.5t-161.5 83.5l72 191q51 -64 135 -97.5t178 -33.5q62 0 121 17t109 50.5t80 90.5t30 130v191q-43 -113 -129 -187
q-84 -75 -228 -75q-111 0 -202.5 45t-151 122t-91.5 178.5t-32 215.5q0 116 32.5 219t92.5 178q63 78 153.5 121t198.5 43q142 0 228 -74q86 -77 129 -190v237h180v-1024q0 -217 -168 -344q-155 -117 -371 -117zM608 152q147 0 235.5 115t88.5 280q0 78 -20 147.5t-58 124
t-99 86t-137 31.5q-147 0 -237 -111t-90 -274q0 -106 35.5 -195.5t109 -146.5t172.5 -57z" />
    <glyph glyph-name="Gcedilla" unicode="&#x122;" horiz-adv-x="1617" 
d="M842 -29q-155 0 -286.5 52.5t-226 149t-147.5 238.5t-53 314q0 159 54 298t150 239.5t235.5 158.5t303.5 58q162 0 307 -70t234 -172l-123 -141q-87 110 -197.5 161.5t-220.5 51.5q-131 0 -237 -48.5t-172.5 -131t-101.5 -186t-35 -218.5q0 -277 139.5 -431.5
t376.5 -154.5q66 0 129 14.5t125 49t108 87t74.5 134.5t28.5 184h-621v170h809q4 -70 4 -102q0 -171 -48.5 -306t-136 -221.5t-207.5 -132t-265 -45.5zM670 -565h-17v78q70 10 109 40.5t39 98.5q-54 0 -93.5 37.5t-39.5 93.5q0 57 38 96t93 39q57 0 96 -38t39 -97v-23
q0 -83 -22.5 -147.5t-60.5 -102t-84 -56.5t-97 -19z" />
    <glyph glyph-name="gcedilla" unicode="&#x123;" horiz-adv-x="1267" 
d="M629 1214q-56 0 -95.5 39.5t-39.5 96.5v22q0 84 23 148.5t61.5 102t84 56.5t95.5 19h16v-78q-73 -10 -110 -40.5t-37 -98.5q57 0 95 -36t38 -95t-37.5 -97.5t-93.5 -38.5zM573 -406h-16q-96 0 -188.5 29.5t-161.5 83.5l72 191q51 -64 135 -97.5t178 -33.5q62 0 121 17
t109 50.5t80 90.5t30 130v191q-43 -113 -129 -187q-84 -75 -228 -75q-111 0 -202.5 45t-151 122t-91.5 178.5t-32 215.5q0 116 32.5 219t92.5 178q63 78 153.5 121t198.5 43q142 0 228 -74q86 -77 129 -190v237h180v-1024q0 -217 -168 -344q-155 -117 -371 -117zM608 152
q147 0 235.5 115t88.5 280q0 78 -20 147.5t-58 124t-99 86t-137 31.5q-147 0 -237 -111t-90 -274q0 -106 35.5 -195.5t109 -146.5t172.5 -57z" />
    <glyph glyph-name="Hcircumflex" unicode="&#x124;" horiz-adv-x="1452" 
d="M1042 1585h-202l-111 170l-113 -170h-206l217 281h190zM1257 0h-186v659h-690v-659h-186v1450h186v-619h690v619h186v-1450z" />
    <glyph glyph-name="hcircumflex" unicode="&#x125;" horiz-adv-x="1183" 
d="M1020 1214h-203l-110 170l-113 -170h-207l217 281h191zM1049 0h-181v588q0 69 -4 115.5t-19 95t-42 77t-75 46.5t-116 18q-142 0 -209 -87t-67 -237v-616h-180v1450h180v-535q58 95 128 144t169 49q118 0 200 -35t129 -104.5t67 -161.5t20 -219v-588z" />
    <glyph glyph-name="Hbar" unicode="&#x126;" horiz-adv-x="1452" 
d="M1257 0h-186v659h-690v-659h-186v997h-111v164h111v289h186v-289h690v289h186v-289h109v-164h-109v-997zM1071 831v166h-690v-166h690z" />
    <glyph glyph-name="hbar" unicode="&#x127;" horiz-adv-x="1183" 
d="M1049 0h-181v588q0 69 -4 115.5t-19 95t-42 77t-75 46.5t-116 18q-142 0 -209 -87t-67 -237v-616h-180v1184h-156v164h156v102h180v-102h164v-164h-164v-269q58 95 128 144t169 49q118 0 200 -35t129 -104.5t67 -161.5t20 -219v-588z" />
    <glyph glyph-name="Itilde" unicode="&#x128;" horiz-adv-x="575" 
d="M442 1548q-28 0 -55 5.5t-44.5 11t-42 19.5t-33 20t-32.5 23.5t-26 19.5q-38 24 -62 24q-18 0 -32 -18t-31 -64h-137q0 94 59 161t154 67q27 0 55.5 -10t45.5 -19.5t50 -30.5q16 -10 37 -25t31.5 -22t24.5 -13t26 -7q22 0 39 19t31 71h131q0 -111 -55 -171.5t-134 -60.5z
M381 0h-186v1450h186v-1450z" />
    <glyph glyph-name="itilde" unicode="&#x129;" horiz-adv-x="491" 
d="M399 1178q-24 0 -46 3t-42.5 10.5t-35 13t-33 17.5t-27.5 18t-27 19.5l-22 16.5q-38 24 -62 24q-18 0 -32 -17.5t-31 -63.5h-137q0 94 59 160.5t154 66.5q27 0 55.5 -10t45.5 -19.5t50 -30.5q16 -10 37 -25t31.5 -22t24.5 -13t26 -7q22 0 39 19t31 71h131
q0 -111 -55 -171t-134 -60zM336 0h-180v1081h180v-1081z" />
    <glyph glyph-name="Imacron" unicode="&#x12a;" horiz-adv-x="575" 
d="M643 1608h-709v143h709v-143zM381 0h-186v1450h186v-1450z" />
    <glyph glyph-name="imacron" unicode="&#x12b;" horiz-adv-x="491" 
d="M600 1237h-709v143h709v-143zM336 0h-180v1081h180v-1081z" />
    <glyph glyph-name="Ibreve" unicode="&#x12c;" horiz-adv-x="575" 
d="M291 1595q-267 0 -297 260h125q24 -135 166 -135q79 0 121 31.5t57 103.5h123q-14 -122 -88.5 -191t-206.5 -69zM381 0h-186v1450h186v-1450z" />
    <glyph glyph-name="ibreve" unicode="&#x12d;" horiz-adv-x="491" 
d="M248 1225q-267 0 -297 260h125q24 -135 166 -135q78 0 120.5 31.5t57.5 103.5h123q-14 -122 -88.5 -191t-206.5 -69zM336 0h-180v1081h180v-1081z" />
    <glyph glyph-name="Iogonek" unicode="&#x12e;" horiz-adv-x="575" 
d="M311 -426q-84 0 -139 44t-55 136q0 62 36 127.5t101 118.5h-59v1450h186v-1450h4q-119 -81 -119 -190q0 -46 29 -72.5t72 -26.5q44 0 88 23v-129q-57 -26 -113 -29z" />
    <glyph glyph-name="iogonek" unicode="&#x12f;" horiz-adv-x="491" 
d="M244 1210q-56 0 -93.5 38t-37.5 93q0 57 38 96.5t93 39.5t95 -38.5t40 -97.5q0 -56 -40 -93.5t-95 -37.5zM266 -426q-84 0 -139 44t-55 136q0 62 36 127.5t101 118.5h-53v1081h180v-1081h4q-119 -81 -119 -190q0 -46 29 -72.5t72 -26.5q44 0 88 23v-129q-57 -26 -113 -29
z" />
    <glyph glyph-name="Idotaccent" unicode="&#x130;" horiz-adv-x="575" 
d="M287 1581q-55 0 -93 37.5t-38 93.5q0 57 38 96t93 39t95 -38t40 -97q0 -56 -40 -93.5t-95 -37.5zM381 0h-186v1450h186v-1450z" />
    <glyph glyph-name="idotless" unicode="&#x131;" horiz-adv-x="491" 
d="M336 0h-180v1081h180v-1081z" />
    <glyph glyph-name="Jcircumflex" unicode="&#x134;" horiz-adv-x="1077" 
d="M1118 1585h-203l-110 170l-113 -170h-207l217 281h191zM512 -31q-123 0 -217 58t-141.5 151t-47.5 205h189q0 -110 56.5 -183t160.5 -73q100 0 149.5 69t49.5 187v1067h186v-1067q0 -103 -31.5 -184t-86 -130.5t-122.5 -74.5t-145 -25z" />
    <glyph glyph-name="jcircumflex" unicode="&#x135;" horiz-adv-x="491" 
d="M563 1214h-203l-110 170l-113 -170h-207l217 281h191zM-37 -406v201q89 0 141 52t52 141v1091h180v-1091q0 -167 -106 -280.5t-267 -113.5z" />
    <glyph glyph-name="Kcedilla" unicode="&#x136;" horiz-adv-x="1282" 
d="M1184 0h-211q-115 200 -159.5 276.5t-96 163t-150.5 256.5l-186 -252v-444h-186v1450h186v-719l526 719h213l-434 -592zM524 -565h-16v78q70 10 108.5 40.5t38.5 98.5q-54 0 -93.5 37.5t-39.5 93.5q0 57 38 96t93 39q57 0 96 -38t39 -97v-23q0 -83 -22.5 -147.5
t-60.5 -102t-84 -56.5t-97 -19z" />
    <glyph glyph-name="kcedilla" unicode="&#x137;" horiz-adv-x="1153" 
d="M1092 0h-205q-73 122 -100 168t-51.5 87.5t-34.5 60t-53.5 94.5t-104.5 182l-207 -221v-371h-180v1450h180v-864q86 96 171 191q78 88 231 264q11 14 18 21.5t18 21t21 24.5h231q-83 -89 -124 -132.5t-52 -56t-55.5 -60.5t-124.5 -134q251 -435 422 -725zM498 -565h-17
v78q70 10 109 40.5t39 98.5q-54 0 -93.5 37.5t-39.5 93.5q0 57 38 96t93 39q57 0 96 -38t39 -97v-23q0 -83 -22.5 -147.5t-60.5 -102t-84 -56.5t-97 -19z" />
    <glyph glyph-name="kra" unicode="&#x138;" horiz-adv-x="1153" 
d="M1092 0h-205q-73 122 -100 168t-51.5 87.5t-34.5 60t-53.5 94.5t-104.5 182l-207 -221v-371h-180v1450h180v-864q86 96 171 191q78 88 231 264q11 14 18 21.5t18 21t21 24.5h231q-83 -89 -124 -132.5t-52 -56t-55.5 -60.5t-124.5 -134q251 -435 422 -725z" />
    <glyph glyph-name="Lacute" unicode="&#x139;" horiz-adv-x="1091" 
d="M350 1585h-108l92 342h237zM987 0h-792v1450h186v-1280h606v-170z" />
    <glyph glyph-name="lacute" unicode="&#x13a;" horiz-adv-x="491" 
d="M309 1626h-108l92 342h237zM336 0h-180v1450l180 184v-1634z" />
    <glyph glyph-name="Lcedilla" unicode="&#x13b;" horiz-adv-x="1091" 
d="M987 0h-792v1450h186v-1280h606v-170zM451 -565h-17v78q70 10 109 40.5t39 98.5q-54 0 -93.5 37.5t-39.5 93.5q0 57 38 96t93 39q57 0 96 -38t39 -97v-23q0 -83 -22.5 -147.5t-60.5 -102t-84 -56.5t-97 -19z" />
    <glyph glyph-name="lcedilla" unicode="&#x13c;" horiz-adv-x="491" 
d="M336 0h-180v1450l180 184v-1634zM121 -565h-17v78q70 10 109 40.5t39 98.5q-54 0 -93.5 37.5t-39.5 93.5q0 57 38 96t93 39q57 0 96 -38t39 -97v-23q0 -83 -22.5 -147.5t-60.5 -102t-84 -56.5t-97 -19z" />
    <glyph glyph-name="Lcaron" unicode="&#x13d;" horiz-adv-x="1091" 
d="M379 1585h-193l-215 281h205l113 -170l110 170h205zM987 0h-792v1450h186v-1280h606v-170z" />
    <glyph glyph-name="lcaron" unicode="&#x13e;" horiz-adv-x="491" 
d="M336 0h-180v1450l172 176h-183l-215 281h205l113 -170l110 170h205l-225 -281h-2v-1626z" />
    <glyph glyph-name="Lmiddledot" unicode="&#x13f;" horiz-adv-x="1091" 
d="M987 0h-792v1450h186v-1280h606v-170zM702 618q-55 0 -93 38t-38 94q0 57 38 96t93 39q56 0 96 -38t40 -97q0 -56 -40.5 -94t-95.5 -38z" />
    <glyph glyph-name="lmiddledot" unicode="&#x140;" horiz-adv-x="851" 
d="M336 0h-180v1450l180 184v-1634zM647 608q-55 0 -93 38t-38 93q0 57 38 96t93 39t95 -38t40 -97q0 -56 -40 -93.5t-95 -37.5z" />
    <glyph glyph-name="Lslash" unicode="&#x141;" horiz-adv-x="1091" 
d="M987 0h-792v567l-195 -121l-6 209l201 125v670h186v-555l205 127l4 -211l-209 -129v-512h606v-170z" />
    <glyph glyph-name="lslash" unicode="&#x142;" horiz-adv-x="491" 
d="M336 0h-180v592l-201 -125l-6 209l207 129v645l180 184v-719l205 127l4 -211l-209 -129v-702z" />
    <glyph glyph-name="Nacute" unicode="&#x143;" horiz-adv-x="1454" 
d="M791 1585h-109l92 342h238zM1260 0h-220l-659 1135v-1135h-186v1450h221l657 -1133v1133h187v-1450z" />
    <glyph glyph-name="nacute" unicode="&#x144;" horiz-adv-x="1185" 
d="M666 1214h-109l92 342h238zM1049 0h-181v588q0 50 -2 87t-8.5 75.5t-18 65.5t-30.5 52t-46 40t-65 23.5t-86 8.5q-142 0 -209 -87t-67 -237v-616h-180v1079h180v-164q120 193 317 193q118 0 197 -34.5t122 -105.5t60 -161t17 -219v-588z" />
    <glyph glyph-name="Ncedilla" unicode="&#x145;" horiz-adv-x="1454" 
d="M1260 0h-220l-659 1135v-1135h-186v1450h221l657 -1133v1133h187v-1450zM602 -565h-16v78q70 10 108.5 40.5t38.5 98.5q-54 0 -93.5 37.5t-39.5 93.5q0 57 38 96t93 39q57 0 96 -38t39 -97v-23q0 -83 -22.5 -147.5t-60.5 -102t-84 -56.5t-97 -19z" />
    <glyph glyph-name="ncedilla" unicode="&#x146;" horiz-adv-x="1185" 
d="M1049 0h-181v588q0 50 -2 87t-8.5 75.5t-18 65.5t-30.5 52t-46 40t-65 23.5t-86 8.5q-142 0 -209 -87t-67 -237v-616h-180v1079h180v-164q120 193 317 193q118 0 197 -34.5t122 -105.5t60 -161t17 -219v-588zM477 -565h-16v78q70 10 108.5 40.5t38.5 98.5
q-54 0 -93.5 37.5t-39.5 93.5q0 57 38 96t93 39q57 0 96 -38t39 -97v-23q0 -83 -22.5 -147.5t-60.5 -102t-84 -56.5t-97 -19z" />
    <glyph glyph-name="Ncaron" unicode="&#x147;" horiz-adv-x="1454" 
d="M819 1585h-192l-215 281h204l113 -170l111 170h204zM1260 0h-220l-659 1135v-1135h-186v1450h221l657 -1133v1133h187v-1450z" />
    <glyph glyph-name="ncaron" unicode="&#x148;" horiz-adv-x="1185" 
d="M694 1214h-192l-215 281h205l112 -170l111 170h205zM1049 0h-181v588q0 50 -2 87t-8.5 75.5t-18 65.5t-30.5 52t-46 40t-65 23.5t-86 8.5q-142 0 -209 -87t-67 -237v-616h-180v1079h180v-164q120 193 317 193q118 0 197 -34.5t122 -105.5t60 -161t17 -219v-588z" />
    <glyph glyph-name="Omacron" unicode="&#x14c;" horiz-adv-x="1679" 
d="M1194 1608h-709v143h709v-143zM840 -29q-157 0 -292 61.5t-226.5 165t-143 240.5t-51.5 287q0 207 91 379.5t255 273.5t367 101q157 0 292 -61.5t226 -165t142.5 -240.5t51.5 -287q0 -155 -53.5 -294t-146.5 -240t-226.5 -160.5t-285.5 -59.5zM840 141q116 0 214 48
t163.5 129t102 186.5t36.5 220.5q0 158 -63 290.5t-182.5 213t-270.5 80.5q-116 0 -214 -48t-163.5 -129t-102 -186.5t-36.5 -220.5q0 -158 63 -290.5t182.5 -213t270.5 -80.5z" />
    <glyph glyph-name="omacron" unicode="&#x14d;" horiz-adv-x="1224" 
d="M967 1237h-709v143h709v-143zM612 -14q-114 0 -212.5 45.5t-164.5 122t-103.5 179t-37.5 214.5q0 114 38 216.5t104.5 178.5t164.5 121t211 45q114 0 212.5 -45.5t164.5 -122t103.5 -179t37.5 -214.5q0 -152 -64.5 -280t-184 -204.5t-269.5 -76.5zM612 156
q147 0 238.5 114t91.5 277q0 167 -93 280t-237 113q-99 0 -175.5 -56t-115 -144.5t-38.5 -192.5q0 -164 90.5 -277.5t238.5 -113.5z" />
    <glyph glyph-name="Obreve" unicode="&#x14e;" horiz-adv-x="1679" 
d="M842 1595q-267 0 -297 260h125q24 -135 166 -135q78 0 120.5 31.5t57.5 103.5h123q-14 -122 -88.5 -191t-206.5 -69zM840 -29q-157 0 -292 61.5t-226.5 165t-143 240.5t-51.5 287q0 207 91 379.5t255 273.5t367 101q157 0 292 -61.5t226 -165t142.5 -240.5t51.5 -287
q0 -155 -53.5 -294t-146.5 -240t-226.5 -160.5t-285.5 -59.5zM840 141q116 0 214 48t163.5 129t102 186.5t36.5 220.5q0 158 -63 290.5t-182.5 213t-270.5 80.5q-116 0 -214 -48t-163.5 -129t-102 -186.5t-36.5 -220.5q0 -158 63 -290.5t182.5 -213t270.5 -80.5z" />
    <glyph glyph-name="obreve" unicode="&#x14f;" horiz-adv-x="1224" 
d="M614 1225q-267 0 -297 260h125q24 -135 166 -135q78 0 120.5 31.5t57.5 103.5h123q-14 -122 -88.5 -191t-206.5 -69zM612 -14q-114 0 -212.5 45.5t-164.5 122t-103.5 179t-37.5 214.5q0 114 38 216.5t104.5 178.5t164.5 121t211 45q114 0 212.5 -45.5t164.5 -122
t103.5 -179t37.5 -214.5q0 -152 -64.5 -280t-184 -204.5t-269.5 -76.5zM612 156q147 0 238.5 114t91.5 277q0 167 -93 280t-237 113q-99 0 -175.5 -56t-115 -144.5t-38.5 -192.5q0 -164 90.5 -277.5t238.5 -113.5z" />
    <glyph glyph-name="Odoubleacute" unicode="&#x150;" horiz-adv-x="1679" 
d="M750 1585h-146l121 281h236zM1102 1585h-150l127 281h232zM840 -29q-157 0 -292 61.5t-226.5 165t-143 240.5t-51.5 287q0 207 91 379.5t255 273.5t367 101q157 0 292 -61.5t226 -165t142.5 -240.5t51.5 -287q0 -155 -53.5 -294t-146.5 -240t-226.5 -160.5t-285.5 -59.5z
M840 141q116 0 214 48t163.5 129t102 186.5t36.5 220.5q0 158 -63 290.5t-182.5 213t-270.5 80.5q-116 0 -214 -48t-163.5 -129t-102 -186.5t-36.5 -220.5q0 -158 63 -290.5t182.5 -213t270.5 -80.5z" />
    <glyph glyph-name="odoubleacute" unicode="&#x151;" horiz-adv-x="1224" 
d="M522 1214h-145l121 281h235zM874 1214h-149l127 281h231zM612 -14q-114 0 -212.5 45.5t-164.5 122t-103.5 179t-37.5 214.5q0 114 38 216.5t104.5 178.5t164.5 121t211 45q114 0 212.5 -45.5t164.5 -122t103.5 -179t37.5 -214.5q0 -152 -64.5 -280t-184 -204.5
t-269.5 -76.5zM612 156q147 0 238.5 114t91.5 277q0 167 -93 280t-237 113q-99 0 -175.5 -56t-115 -144.5t-38.5 -192.5q0 -164 90.5 -277.5t238.5 -113.5z" />
    <glyph glyph-name="OE" unicode="&#x152;" horiz-adv-x="1753" 
d="M1626 0h-827q-133 0 -245 42t-189.5 112.5t-132 164t-80 196.5t-25.5 210q0 139 39 263t126 231t214 170q125 61 293 61h827v-170h-586v-449h504v-172h-504v-489h586v-170zM854 170v1110q-99 0 -153 -8t-113 -39q-138 -70 -207.5 -206t-69.5 -296q0 -150 59.5 -277.5
t172.5 -205.5t256 -78h55z" />
    <glyph glyph-name="oe" unicode="&#x153;" horiz-adv-x="1949" 
d="M1399 -14q-250 0 -375 213q-69 -98 -174.5 -155.5t-237.5 -57.5q-114 0 -212.5 45.5t-164.5 122t-103.5 179t-37.5 214.5q0 114 38 216.5t104.5 178.5t164.5 121t211 45q132 0 237.5 -57.5t174.5 -155.5q125 213 375 213q112 0 201 -40.5t143.5 -110t83 -157.5t28.5 -188
q0 -28 -4 -82h-712q2 -83 18 -149.5t46.5 -117.5t80 -79t115.5 -28q59 0 101 11.5t68.5 35t40.5 44.5t29 54h209q-25 -69 -58.5 -122t-85.5 -98.5t-129 -70t-175 -24.5zM1669 670q-5 118 -75.5 203t-194.5 85q-100 0 -165.5 -77.5t-86.5 -210.5h522zM612 156
q147 0 238.5 114t91.5 277q0 167 -93 280t-237 113q-99 0 -175.5 -56t-115 -144.5t-38.5 -192.5q0 -164 90.5 -277.5t238.5 -113.5z" />
    <glyph glyph-name="Racute" unicode="&#x154;" horiz-adv-x="1204" 
d="M672 1585h-109l92 342h238zM1083 0h-215l-295 616h-192v-616h-186v1450h428q218 0 333 -121t115 -313q0 -140 -81 -244.5t-232 -140.5zM621 786q75 0 130 25.5t81.5 64t38.5 74t12 66.5q0 128 -66 196t-196 68h-240v-494h240z" />
    <glyph glyph-name="racute" unicode="&#x155;" horiz-adv-x="845" 
d="M473 1214h-108l92 342h237zM336 0h-180v1079h180v-164q32 88 105.5 140.5t162.5 52.5q77 0 120.5 -36.5t51.5 -92.5l-71 -191q-15 34 -50 86q-30 41 -104 41q-62 0 -100.5 -24t-67.5 -70q-47 -77 -47 -207v-614z" />
    <glyph glyph-name="Rcedilla" unicode="&#x156;" horiz-adv-x="1204" 
d="M1083 0h-215l-295 616h-192v-616h-186v1450h428q218 0 333 -121t115 -313q0 -140 -81 -244.5t-232 -140.5zM621 786q75 0 130 25.5t81.5 64t38.5 74t12 66.5q0 128 -66 196t-196 68h-240v-494h240zM483 -565h-16v78q70 10 108.5 40.5t38.5 98.5q-54 0 -93.5 37.5
t-39.5 93.5q0 57 38 96t93 39q57 0 96.5 -38t39.5 -97v-23q0 -83 -22.5 -147.5t-61 -102t-84.5 -56.5t-97 -19z" />
    <glyph glyph-name="rcedilla" unicode="&#x157;" horiz-adv-x="845" 
d="M336 0h-180v1079h180v-164q32 88 105.5 140.5t162.5 52.5q77 0 120.5 -36.5t51.5 -92.5l-71 -191q-15 34 -50 86q-30 41 -104 41q-62 0 -100.5 -24t-67.5 -70q-47 -77 -47 -207v-614zM115 -565h-17v78q70 10 109 40.5t39 98.5q-54 0 -93.5 37.5t-39.5 93.5q0 57 38 96
t93 39q57 0 96 -38t39 -97v-23q0 -83 -22.5 -147.5t-60.5 -102t-84 -56.5t-97 -19z" />
    <glyph glyph-name="Rcaron" unicode="&#x158;" horiz-adv-x="1204" 
d="M700 1585h-192l-215 281h205l112 -170l111 170h205zM1083 0h-215l-295 616h-192v-616h-186v1450h428q218 0 333 -121t115 -313q0 -140 -81 -244.5t-232 -140.5zM621 786q75 0 130 25.5t81.5 64t38.5 74t12 66.5q0 128 -66 196t-196 68h-240v-494h240z" />
    <glyph glyph-name="rcaron" unicode="&#x159;" horiz-adv-x="845" 
d="M502 1214h-193l-215 281h205l113 -170l110 170h205zM336 0h-180v1079h180v-164q32 88 105.5 140.5t162.5 52.5q77 0 120.5 -36.5t51.5 -92.5l-71 -191q-15 34 -50 86q-30 41 -104 41q-62 0 -100.5 -24t-67.5 -70q-47 -77 -47 -207v-614z" />
    <glyph glyph-name="Sacute" unicode="&#x15a;" horiz-adv-x="1175" 
d="M649 1585h-108l92 342h237zM580 -14q-95 0 -178 27t-146 77.5t-99 128.5t-36 174h186q0 -118 84 -184t197 -66q111 0 192.5 66t81.5 184q0 99 -51 150q-49 49 -123 84t-178 67q-213 69 -301 197q-53 77 -53 205q0 95 37.5 170.5t100 120.5t137.5 68.5t155 23.5
q180 0 304 -106t124 -275h-185q-4 101 -77 157t-170 56q-60 0 -113.5 -22t-91 -72t-37.5 -119q0 -92 53 -142q83 -78 303 -141q213 -66 303 -203q52 -82 52 -221q0 -97 -41 -176.5t-109 -128t-150.5 -74.5t-170.5 -26z" />
    <glyph glyph-name="sacute" unicode="&#x15b;" horiz-adv-x="960" 
d="M541 1214h-109l92 342h238zM475 -16q-72 0 -139 19t-123.5 56t-90.5 99.5t-34 142.5h197q4 -82 61.5 -124t136.5 -42q82 0 144.5 43.5t62.5 122.5q0 51 -37.5 84.5t-109.5 63.5q-25 10 -69 25.5t-73.5 26t-70 28.5t-68 35t-57 43.5t-47.5 55.5t-29.5 69t-11.5 87
q0 72 31.5 129.5t83.5 91t114.5 51t130.5 17.5q67 0 130 -18t116.5 -52t86 -91t32.5 -128h-187q-1 70 -51 104.5t-121 34.5t-127.5 -36.5t-56.5 -102.5q0 -56 37.5 -90.5t109.5 -62.5q26 -10 68 -24.5t72.5 -24.5t70 -26.5t67.5 -33.5t57.5 -42.5t47.5 -55t29.5 -70
t11.5 -88.5q0 -99 -58.5 -173t-146.5 -109t-190 -35z" />
    <glyph glyph-name="Scircumflex" unicode="&#x15c;" horiz-adv-x="1175" 
d="M903 1585h-203l-110 170l-113 -170h-207l217 281h191zM580 -14q-95 0 -178 27t-146 77.5t-99 128.5t-36 174h186q0 -118 84 -184t197 -66q111 0 192.5 66t81.5 184q0 99 -51 150q-49 49 -123 84t-178 67q-213 69 -301 197q-53 77 -53 205q0 95 37.5 170.5t100 120.5
t137.5 68.5t155 23.5q180 0 304 -106t124 -275h-185q-4 101 -77 157t-170 56q-60 0 -113.5 -22t-91 -72t-37.5 -119q0 -92 53 -142q83 -78 303 -141q213 -66 303 -203q52 -82 52 -221q0 -97 -41 -176.5t-109 -128t-150.5 -74.5t-170.5 -26z" />
    <glyph glyph-name="scircumflex" unicode="&#x15d;" horiz-adv-x="960" 
d="M795 1214h-203l-111 170l-112 -170h-207l217 281h190zM475 -16q-72 0 -139 19t-123.5 56t-90.5 99.5t-34 142.5h197q4 -82 61.5 -124t136.5 -42q82 0 144.5 43.5t62.5 122.5q0 51 -37.5 84.5t-109.5 63.5q-25 10 -69 25.5t-73.5 26t-70 28.5t-68 35t-57 43.5t-47.5 55.5
t-29.5 69t-11.5 87q0 72 31.5 129.5t83.5 91t114.5 51t130.5 17.5q67 0 130 -18t116.5 -52t86 -91t32.5 -128h-187q-1 70 -51 104.5t-121 34.5t-127.5 -36.5t-56.5 -102.5q0 -56 37.5 -90.5t109.5 -62.5q26 -10 68 -24.5t72.5 -24.5t70 -26.5t67.5 -33.5t57.5 -42.5
t47.5 -55t29.5 -70t11.5 -88.5q0 -99 -58.5 -173t-146.5 -109t-190 -35z" />
    <glyph glyph-name="Scedilla" unicode="&#x15e;" horiz-adv-x="1175" 
d="M449 -420q-70 0 -132 10l13 117l94 -4q160 0 160 76q0 32 -32.5 46.5t-125.5 20.5l45 150q-159 30 -254.5 134t-95.5 263h186q0 -118 84 -184t197 -66q111 0 192.5 66t81.5 184q0 99 -51 150q-49 49 -123 84t-178 67q-213 69 -301 197q-53 77 -53 205q0 95 37.5 170.5
t100 120.5t137.5 68.5t155 23.5q180 0 304 -106t124 -275h-185q-4 101 -77 157t-170 56q-60 0 -113.5 -22t-91 -72t-37.5 -119q0 -92 53 -142q83 -78 303 -141q213 -66 303 -203q52 -82 52 -221q0 -94 -38.5 -171.5t-102.5 -127t-143.5 -77t-164.5 -29.5l-22 -70
q85 -11 128.5 -52t43.5 -95q0 -53 -26.5 -91.5t-72 -58.5t-96 -29.5t-108.5 -9.5z" />
    <glyph glyph-name="scedilla" unicode="&#x15f;" horiz-adv-x="960" 
d="M340 -420q-69 0 -131 10l12 117l94 -4q160 0 160 76q0 32 -32.5 46.5t-125.5 20.5l45 150q-121 27 -197.5 104t-76.5 201h197q4 -82 61.5 -124t136.5 -42q82 0 144.5 43.5t62.5 122.5q0 51 -37.5 84.5t-109.5 63.5q-25 10 -69 25.5t-73.5 26t-70 28.5t-68 35t-57 43.5
t-47.5 55.5t-29.5 69t-11.5 87q0 72 31.5 129.5t83.5 91t114.5 51t130.5 17.5q67 0 130 -18t116.5 -52t86 -91t32.5 -128h-187q-1 70 -51 104.5t-121 34.5t-127.5 -36.5t-56.5 -102.5q0 -56 37.5 -90.5t109.5 -62.5q26 -10 68 -24.5t72.5 -24.5t70 -26.5t67.5 -33.5
t57.5 -42.5t47.5 -55t29.5 -70t11.5 -88.5q0 -74 -32.5 -134.5t-87 -99t-121 -60t-137.5 -23.5l-21 -68q85 -11 128.5 -52t43.5 -95q0 -53 -26.5 -91.5t-72 -58.5t-96 -29.5t-108.5 -9.5z" />
    <glyph glyph-name="Scaron" unicode="&#x160;" horiz-adv-x="1175" 
d="M678 1585h-193l-215 281h205l113 -170l110 170h205zM580 -14q-95 0 -178 27t-146 77.5t-99 128.5t-36 174h186q0 -118 84 -184t197 -66q111 0 192.5 66t81.5 184q0 99 -51 150q-49 49 -123 84t-178 67q-213 69 -301 197q-53 77 -53 205q0 95 37.5 170.5t100 120.5
t137.5 68.5t155 23.5q180 0 304 -106t124 -275h-185q-4 101 -77 157t-170 56q-60 0 -113.5 -22t-91 -72t-37.5 -119q0 -92 53 -142q83 -78 303 -141q213 -66 303 -203q52 -82 52 -221q0 -97 -41 -176.5t-109 -128t-150.5 -74.5t-170.5 -26z" />
    <glyph glyph-name="scaron" unicode="&#x161;" horiz-adv-x="960" 
d="M569 1214h-192l-215 281h205l112 -170l111 170h205zM475 -16q-72 0 -139 19t-123.5 56t-90.5 99.5t-34 142.5h197q4 -82 61.5 -124t136.5 -42q82 0 144.5 43.5t62.5 122.5q0 51 -37.5 84.5t-109.5 63.5q-25 10 -69 25.5t-73.5 26t-70 28.5t-68 35t-57 43.5t-47.5 55.5
t-29.5 69t-11.5 87q0 72 31.5 129.5t83.5 91t114.5 51t130.5 17.5q67 0 130 -18t116.5 -52t86 -91t32.5 -128h-187q-1 70 -51 104.5t-121 34.5t-127.5 -36.5t-56.5 -102.5q0 -56 37.5 -90.5t109.5 -62.5q26 -10 68 -24.5t72.5 -24.5t70 -26.5t67.5 -33.5t57.5 -42.5
t47.5 -55t29.5 -70t11.5 -88.5q0 -99 -58.5 -173t-146.5 -109t-190 -35z" />
    <glyph glyph-name="Tcedilla" unicode="&#x162;" horiz-adv-x="1191" 
d="M526 -442q-69 0 -131 10l13 117l94 -4q160 0 160 75q0 32 -33 47t-125 21l53 176h-53v1280h-400v170h983v-170h-397v-1280l-33 -106q85 -11 128.5 -52t43.5 -96q0 -53 -26.5 -91t-72 -58.5t-96 -29.5t-108.5 -9z" />
    <glyph glyph-name="tcedilla" unicode="&#x163;" horiz-adv-x="856" 
d="M446 -420q-69 0 -131 10l13 117l94 -4q160 0 160 76q0 32 -32.5 46.5t-125.5 20.5l49 164q-101 22 -152 92.5t-51 202.5v602h-198v172h198v371h181v-371h288v-172h-288v-581q0 -74 15.5 -111.5t41 -48t74.5 -10.5q58 0 125 59l73 -104q-66 -97 -176 -109l-26 -86
q85 -11 128.5 -52t43.5 -95q0 -53 -26.5 -91.5t-72.5 -58.5t-96.5 -29.5t-108.5 -9.5z" />
    <glyph glyph-name="Tcaron" unicode="&#x164;" horiz-adv-x="1191" 
d="M688 1585h-192l-215 281h204l113 -170l111 170h204zM690 0h-186v1280h-400v170h983v-170h-397v-1280z" />
    <glyph glyph-name="tcaron" unicode="&#x165;" horiz-adv-x="856" 
d="M641 1217h-16v77q70 10 108.5 41t38.5 99q-54 0 -93.5 37.5t-39.5 93.5q0 57 38 96t93 39q57 0 96 -38t39 -97v-23q0 -83 -22.5 -147.5t-60.5 -102t-84 -56.5t-97 -19zM582 0q-151 0 -231.5 69.5t-80.5 235.5v602h-198v172h198v371h181v-371h288v-172h-288v-581
q0 -74 15.5 -111.5t41 -48t74.5 -10.5q58 0 125 59l73 -104q-38 -56 -93 -83.5t-105 -27.5z" />
    <glyph glyph-name="Tbar" unicode="&#x166;" horiz-adv-x="1191" 
d="M690 0h-186v643h-215v164h215v473h-400v170h983v-170h-397v-473h221v-164h-221v-643z" />
    <glyph glyph-name="tbar" unicode="&#x167;" horiz-adv-x="856" 
d="M582 0q-151 0 -231.5 69.5t-80.5 235.5v236h-184v164h184v202h-198v172h198v371h181v-371h288v-172h-288v-202h258v-164h-258v-215q0 -74 15.5 -111.5t41 -48t74.5 -10.5q58 0 125 59l73 -104q-38 -56 -93 -83.5t-105 -27.5z" />
    <glyph glyph-name="Utilde" unicode="&#x168;" horiz-adv-x="1363" 
d="M836 1548q-28 0 -55 5.5t-44.5 11t-43 20t-33 19.5t-32.5 24t-26 19q-38 24 -61 24q-18 0 -32.5 -18t-31.5 -64h-137q0 94 59 161t154 67q27 0 55.5 -10t46.5 -20t50 -30q16 -10 37 -25t31 -22t24 -13t26 -7q22 0 39 19t31 71h131q0 -111 -54.5 -171.5t-133.5 -60.5z
M684 -29q-73 0 -144 17.5t-137.5 55.5t-116.5 92.5t-80 134.5t-30 175v1004h186v-1001q0 -81 30 -144.5t78 -100.5t103 -56t111 -19q41 0 81.5 8.5t84 31t76 57t54 92.5t21.5 131v1001h187v-1004q0 -203 -143.5 -339t-360.5 -136z" />
    <glyph glyph-name="utilde" unicode="&#x169;" horiz-adv-x="1185" 
d="M737 1178q-24 0 -46 3t-42.5 10.5t-35 13t-33 17.5t-27.5 18t-27 19.5l-22 16.5q-38 24 -62 24q-18 0 -32 -17.5t-31 -63.5h-137q0 94 59 160.5t154 66.5q27 0 55.5 -10t45.5 -19.5t50 -30.5q16 -10 37 -25t31.5 -22t24.5 -13t26 -7q22 0 39 19t31 71h131
q0 -111 -55 -171t-134 -60zM532 -29q-95 0 -164.5 23.5t-113.5 65.5t-70.5 109t-36.5 143.5t-10 179.5v587h180v-587q0 -70 5 -119t20.5 -96.5t43 -75.5t74.5 -45t113 -17q264 0 277 322v618h180v-1079h-180v184q-38 -89 -127.5 -151t-190.5 -62z" />
    <glyph glyph-name="Umacron" unicode="&#x16a;" horiz-adv-x="1363" 
d="M1036 1608h-708v143h708v-143zM684 -29q-73 0 -144 17.5t-137.5 55.5t-116.5 92.5t-80 134.5t-30 175v1004h186v-1001q0 -81 30 -144.5t78 -100.5t103 -56t111 -19q41 0 81.5 8.5t84 31t76 57t54 92.5t21.5 131v1001h187v-1004q0 -203 -143.5 -339t-360.5 -136z" />
    <glyph glyph-name="umacron" unicode="&#x16b;" horiz-adv-x="1185" 
d="M938 1237h-709v143h709v-143zM532 -29q-95 0 -164.5 23.5t-113.5 65.5t-70.5 109t-36.5 143.5t-10 179.5v587h180v-587q0 -70 5 -119t20.5 -96.5t43 -75.5t74.5 -45t113 -17q264 0 277 322v618h180v-1079h-180v184q-38 -89 -127.5 -151t-190.5 -62z" />
    <glyph glyph-name="Ubreve" unicode="&#x16c;" horiz-adv-x="1363" 
d="M684 1595q-267 0 -297 260h125q24 -135 166 -135q78 0 120.5 31.5t57.5 103.5h123q-14 -122 -88.5 -191t-206.5 -69zM684 -29q-73 0 -144 17.5t-137.5 55.5t-116.5 92.5t-80 134.5t-30 175v1004h186v-1001q0 -81 30 -144.5t78 -100.5t103 -56t111 -19q41 0 81.5 8.5
t84 31t76 57t54 92.5t21.5 131v1001h187v-1004q0 -203 -143.5 -339t-360.5 -136z" />
    <glyph glyph-name="ubreve" unicode="&#x16d;" horiz-adv-x="1185" 
d="M586 1225q-267 0 -297 260h125q24 -135 166 -135q78 0 120.5 31.5t57.5 103.5h123q-14 -122 -88.5 -191t-206.5 -69zM532 -29q-95 0 -164.5 23.5t-113.5 65.5t-70.5 109t-36.5 143.5t-10 179.5v587h180v-587q0 -70 5 -119t20.5 -96.5t43 -75.5t74.5 -45t113 -17
q264 0 277 322v618h180v-1079h-180v184q-38 -89 -127.5 -151t-190.5 -62z" />
    <glyph glyph-name="Uring" unicode="&#x16e;" horiz-adv-x="1363" 
d="M682 1542q-73 0 -126.5 53t-53.5 134q0 74 52.5 127t127.5 53t127.5 -56.5t52.5 -128.5q0 -76 -53 -129t-127 -53zM684 1647q29 0 53.5 23t24.5 56q0 31 -23.5 55.5t-54.5 24.5q-34 0 -56 -23t-22 -54q0 -35 21.5 -58.5t56.5 -23.5zM684 -29q-73 0 -144 17.5t-137.5 55.5
t-116.5 92.5t-80 134.5t-30 175v1004h186v-1001q0 -81 30 -144.5t78 -100.5t103 -56t111 -19q41 0 81.5 8.5t84 31t76 57t54 92.5t21.5 131v1001h187v-1004q0 -203 -143.5 -339t-360.5 -136z" />
    <glyph glyph-name="uring" unicode="&#x16f;" horiz-adv-x="1185" 
d="M584 1171q-73 0 -127 53t-54 134q0 75 53.5 127.5t127.5 52.5q75 0 127.5 -56t52.5 -128q0 -76 -53 -129.5t-127 -53.5zM586 1276q29 0 53.5 23.5t24.5 56.5q0 31 -23.5 55.5t-54.5 24.5q-34 0 -56 -23.5t-22 -54.5q0 -35 21.5 -58.5t56.5 -23.5zM532 -29
q-95 0 -164.5 23.5t-113.5 65.5t-70.5 109t-36.5 143.5t-10 179.5v587h180v-587q0 -70 5 -119t20.5 -96.5t43 -75.5t74.5 -45t113 -17q264 0 277 322v618h180v-1079h-180v184q-38 -89 -127.5 -151t-190.5 -62z" />
    <glyph glyph-name="Udoubleacute" unicode="&#x170;" horiz-adv-x="1363" 
d="M592 1585h-146l121 281h236zM944 1585h-149l127 281h231zM684 -29q-73 0 -144 17.5t-137.5 55.5t-116.5 92.5t-80 134.5t-30 175v1004h186v-1001q0 -81 30 -144.5t78 -100.5t103 -56t111 -19q41 0 81.5 8.5t84 31t76 57t54 92.5t21.5 131v1001h187v-1004
q0 -203 -143.5 -339t-360.5 -136z" />
    <glyph glyph-name="udoubleacute" unicode="&#x171;" horiz-adv-x="1185" 
d="M494 1214h-146l121 281h236zM846 1214h-150l127 281h232zM532 -29q-95 0 -164.5 23.5t-113.5 65.5t-70.5 109t-36.5 143.5t-10 179.5v587h180v-587q0 -70 5 -119t20.5 -96.5t43 -75.5t74.5 -45t113 -17q264 0 277 322v618h180v-1079h-180v184q-38 -89 -127.5 -151
t-190.5 -62z" />
    <glyph glyph-name="Uogonek" unicode="&#x172;" horiz-adv-x="1363" 
d="M715 -426q-84 0 -139.5 44t-55.5 136q0 116 109 219q-139 14 -247 83.5t-167 197.5q-39 79 -39 192v1004h186v-1001q0 -79 29.5 -142.5t77.5 -101t103 -57t112 -19.5q55 0 106.5 15t101 49t79.5 100t30 156v1001h187v-1004q0 -183 -118.5 -314.5t-313.5 -156.5
q-86 -74 -86 -165q0 -46 28.5 -72.5t71.5 -26.5q44 0 88 23v-129q-57 -26 -113 -29z" />
    <glyph glyph-name="uogonek" unicode="&#x173;" horiz-adv-x="1185" 
d="M961 -426q-84 0 -139.5 44t-55.5 136q0 62 36 127.5t101 118.5h-53v184q-38 -90 -130.5 -151.5t-187.5 -61.5q-96 0 -166 25t-114 68t-70 111t-35.5 143t-9.5 174v587h180v-587q0 -87 9 -145t35 -108.5t78.5 -75t133.5 -24.5q264 0 277 322v618h180v-1079h4
q-119 -81 -119 -190q0 -46 29 -72.5t72 -26.5q44 0 88 23v-129q-57 -26 -113 -29z" />
    <glyph glyph-name="Wcircumflex" unicode="&#x174;" horiz-adv-x="2000" 
d="M1317 1585h-203l-110 170l-113 -170h-207l217 281h191zM1456 0h-174l-283 1083l-280 -1083h-174l-443 1450h195l330 -1141l278 1141h191l278 -1135l330 1135h194z" />
    <glyph glyph-name="wcircumflex" unicode="&#x175;" horiz-adv-x="1763" 
d="M1198 1214h-203l-110 170l-113 -170h-207l217 281h191zM1337 0h-196l-258 819l-260 -819h-197l-358 1079h200l256 -848l258 848h201l256 -852l256 852h201z" />
    <glyph glyph-name="Ycircumflex" unicode="&#x176;" horiz-adv-x="1169" 
d="M903 1585h-203l-110 170l-113 -170h-207l217 281h191zM678 0h-186v682l-394 768h209l279 -578l276 578h209l-393 -768v-682z" />
    <glyph glyph-name="ycircumflex" unicode="&#x177;" horiz-adv-x="1153" 
d="M893 1214h-203l-110 170l-113 -170h-207l217 281h191zM127 -446v192q27 -4 76 -4q32 0 60.5 5.5t49.5 12t41 22t33 26t27.5 34t22 35.5t18.5 40.5t15 40t15 42.5l-329 840l-90 239h208l78 -221l228 -598l297 819h210l-88 -243l-321 -850q-53 -136 -88 -203
q-67 -122 -168.5 -175.5t-294.5 -53.5z" />
    <glyph glyph-name="Ydieresis" unicode="&#x178;" horiz-adv-x="1169" 
d="M399 1649q-47 0 -79.5 32.5t-32.5 79.5q0 46 32.5 80.5t79.5 34.5t81 -34t34 -81t-34.5 -79.5t-80.5 -32.5zM772 1649q-47 0 -80 32.5t-33 79.5q0 46 33 80.5t80 34.5t81 -34t34 -81t-34.5 -79.5t-80.5 -32.5zM678 0h-186v682l-394 768h209l279 -578l276 578h209
l-393 -768v-682z" />
    <glyph glyph-name="Zacute" unicode="&#x179;" horiz-adv-x="1099" 
d="M614 1585h-108l92 342h238zM975 0h-850v164l631 1116h-631v170h850v-164l-639 -1116h639v-170z" />
    <glyph glyph-name="zacute" unicode="&#x17a;" horiz-adv-x="1040" 
d="M604 1214h-108l92 342h237zM946 0h-852v152l598 763h-598v164h852v-143l-604 -772h604v-164z" />
    <glyph glyph-name="Zdotaccent" unicode="&#x17b;" horiz-adv-x="1099" 
d="M549 1581q-55 0 -93 37.5t-38 93.5q0 57 38 96t93 39t95 -38t40 -97q0 -56 -40 -93.5t-95 -37.5zM975 0h-850v164l631 1116h-631v170h850v-164l-639 -1116h639v-170z" />
    <glyph glyph-name="zdotaccent" unicode="&#x17c;" horiz-adv-x="1040" 
d="M539 1210q-55 0 -93 38t-38 93q0 57 38 96.5t93 39.5t95 -38.5t40 -97.5q0 -56 -40 -93.5t-95 -37.5zM946 0h-852v152l598 763h-598v164h852v-143l-604 -772h604v-164z" />
    <glyph glyph-name="Zcaron" unicode="&#x17d;" horiz-adv-x="1099" 
d="M643 1585h-192l-215 281h204l113 -170l111 170h204zM975 0h-850v164l631 1116h-631v170h850v-164l-639 -1116h639v-170z" />
    <glyph glyph-name="zcaron" unicode="&#x17e;" horiz-adv-x="1040" 
d="M633 1214h-193l-215 281h205l113 -170l110 170h205zM946 0h-852v152l598 763h-598v164h852v-143l-604 -772h604v-164z" />
    <glyph glyph-name="fhook" unicode="&#x192;" horiz-adv-x="1409" 
d="M340 -518q-60 6 -96.5 19t-91.5 50l53 175q58 -52 112 -52q37 0 63.5 27.5t45.5 103.5l254 1102h-137l39 172h137l22 95q21 89 79 157.5t134 106.5q95 45 203 45q46 0 100 -13l-38 -174q-53 17 -95 17q-76 -5 -128.5 -41t-71.5 -98l-25 -95h268l-39 -172h-268l-244 -1104
q-37 -159 -110 -240t-166 -81z" />
    <glyph glyph-name="AEacute" unicode="&#x1fc;" horiz-adv-x="1851" 
d="M1077 1585h-108l92 342h237zM1724 0h-772v410h-395q-141 -244 -240 -410h-221l105 168l749 1282h774v-170h-585v-449h503v-172h-503v-489h585v-170zM952 580v520l-299 -520h299z" />
    <glyph glyph-name="aeacute" unicode="&#x1fd;" horiz-adv-x="1853" 
d="M989 1214h-108l92 342h237zM479 -29q-102 0 -181 31t-124 82.5t-67.5 112t-22.5 127.5q0 133 100.5 232t274.5 99q64 0 124 -9.5t96 -20t97 -31.5v100q0 122 -73 185t-175 63q-72 0 -138 -38t-105 -99l-144 110q69 99 171.5 148t215.5 49q136 -3 238.5 -61t153.5 -172
q58 110 155.5 169.5t227.5 59.5q90 0 165 -25.5t128.5 -70.5t90.5 -105.5t54.5 -130.5t17.5 -147v-41l-4 -41h-719v-19q0 -68 16.5 -132.5t47.5 -119t84 -87.5t119 -33q57 0 98.5 11.5t68.5 34t42.5 45t29.5 54.5h209q-56 -151 -163 -233t-285 -82q-139 0 -235 62.5
t-150 172.5q-28 -74 -98 -132t-159.5 -88t-181.5 -30zM1573 686q-5 112 -75.5 192t-194.5 80q-103 0 -169.5 -76.5t-84.5 -195.5h524zM518 131q107 0 182.5 56t75.5 145v108q-115 54 -258 54q-122 0 -186 -52t-64 -127q0 -89 68.5 -136.5t181.5 -47.5z" />
    <glyph glyph-name="Oslashacute" unicode="&#x1fe;" horiz-adv-x="1679" 
d="M903 1585h-108l92 342h237zM545 -33h-207l78 146q-135 105 -212 262t-77 350q0 207 91 379.5t255 273.5t367 101q145 0 270 -52l29 56h204l-77 -148q133 -100 209.5 -258t76.5 -352q0 -155 -53.5 -294t-146.5 -240t-226.5 -160.5t-285.5 -59.5q-138 0 -267 52zM502 276
l526 996q-84 37 -188 37q-116 0 -214 -48t-163.5 -129t-102 -186.5t-36.5 -220.5q0 -133 45.5 -249t132.5 -200zM840 141q116 0 214 48t163.5 129t102 186.5t36.5 220.5q0 131 -44.5 248t-131.5 198l-525 -995q87 -35 185 -35z" />
    <glyph glyph-name="oslashacute" unicode="&#x1ff;" horiz-adv-x="1224" 
d="M676 1214h-109l92 342h238zM375 -27h-166l76 133q-89 77 -140 191t-51 250q0 114 38 216.5t104.5 178.5t164.5 121t211 45q114 0 213 -45l27 45h166l-72 -125q86 -77 135 -189.5t49 -246.5q0 -152 -64.5 -280t-184 -204.5t-269.5 -76.5q-113 0 -206 43zM377 268l364 643
q-66 29 -129 29q-99 0 -175.5 -56t-115 -144.5t-38.5 -192.5q0 -165 94 -279zM612 156q147 0 238.5 114t91.5 277q0 162 -88 272l-362 -639q56 -24 120 -24z" />
    <glyph glyph-name="Scommaaccent" unicode="&#x218;" horiz-adv-x="1175" 
d="M580 -14q-95 0 -178 27t-146 77.5t-99 128.5t-36 174h186q0 -118 84 -184t197 -66q111 0 192.5 66t81.5 184q0 99 -51 150q-49 49 -123 84t-178 67q-213 69 -301 197q-53 77 -53 205q0 95 37.5 170.5t100 120.5t137.5 68.5t155 23.5q180 0 304 -106t124 -275h-185
q-4 101 -77 157t-170 56q-60 0 -113.5 -22t-91 -72t-37.5 -119q0 -92 53 -142q83 -78 303 -141q213 -66 303 -203q52 -82 52 -221q0 -97 -41 -176.5t-109 -128t-150.5 -74.5t-170.5 -26zM459 -565h-17v78q70 10 109 40.5t39 98.5q-54 0 -93.5 37.5t-39.5 93.5q0 57 38 96
t93 39q57 0 96 -38t39 -97v-23q0 -83 -22.5 -147.5t-60.5 -102t-84 -56.5t-97 -19z" />
    <glyph glyph-name="scommaaccent" unicode="&#x219;" horiz-adv-x="960" 
d="M475 -16q-72 0 -139 19t-123.5 56t-90.5 99.5t-34 142.5h197q4 -82 61.5 -124t136.5 -42q82 0 144.5 43.5t62.5 122.5q0 51 -37.5 84.5t-109.5 63.5q-25 10 -69 25.5t-73.5 26t-70 28.5t-68 35t-57 43.5t-47.5 55.5t-29.5 69t-11.5 87q0 72 31.5 129.5t83.5 91t114.5 51
t130.5 17.5q67 0 130 -18t116.5 -52t86 -91t32.5 -128h-187q-1 70 -51 104.5t-121 34.5t-127.5 -36.5t-56.5 -102.5q0 -56 37.5 -90.5t109.5 -62.5q26 -10 68 -24.5t72.5 -24.5t70 -26.5t67.5 -33.5t57.5 -42.5t47.5 -55t29.5 -70t11.5 -88.5q0 -99 -58.5 -173t-146.5 -109
t-190 -35zM350 -565h-16v78q70 10 108.5 40.5t38.5 98.5q-54 0 -93.5 37.5t-39.5 93.5q0 57 38 96t93 39q57 0 96 -38t39 -97v-23q0 -83 -22.5 -147.5t-60.5 -102t-84 -56.5t-97 -19z" />
    <glyph glyph-name="Tcommaaccent" unicode="&#x21a;" horiz-adv-x="1191" 
d="M690 0h-186v1280h-400v170h983v-170h-397v-1280zM471 -588h-16v78q70 10 108.5 40.5t38.5 98.5q-54 0 -93.5 37.5t-39.5 93.5q0 57 38 96.5t93 39.5q56 0 95.5 -38.5t39.5 -97.5v-22q0 -83 -22.5 -147.5t-60.5 -102.5t-84 -57t-97 -19z" />
    <glyph glyph-name="tcommaaccent" unicode="&#x21b;" horiz-adv-x="856" 
d="M582 0q-151 0 -231.5 69.5t-80.5 235.5v602h-198v172h198v371h181v-371h288v-172h-288v-581q0 -74 15.5 -111.5t41 -48t74.5 -10.5q58 0 125 59l73 -104q-38 -56 -93 -83.5t-105 -27.5zM457 -565h-17v78q70 10 109 40.5t39 98.5q-54 0 -93.5 37.5t-39.5 93.5q0 57 38 96
t93 39q57 0 96 -38t39 -97v-23q0 -83 -22.5 -147.5t-60.5 -102t-84 -56.5t-97 -19z" />
    <glyph glyph-name="jdotless" unicode="&#x237;" horiz-adv-x="491" 
d="M-37 -406v201q89 0 141 52t52 141v1091h180v-1091q0 -167 -106 -280.5t-267 -113.5z" />
    <glyph glyph-name="circumflexmod" unicode="&#x2c6;" horiz-adv-x="792" 
d="M713 1255h-203l-111 170l-112 -170h-207l217 281h190z" />
    <glyph glyph-name="caronmod" unicode="&#x2c7;" horiz-adv-x="792" 
d="M487 1255h-192l-215 281h205l112 -170l111 170h205z" />
    <glyph glyph-name="brevemod" unicode="&#x2d8;" horiz-adv-x="800" 
d="M401 1266q-267 0 -297 260h125q24 -135 166 -135q79 0 121 31.5t57 103.5h123q-14 -122 -88.5 -191t-206.5 -69z" />
    <glyph glyph-name="dotaccentmod" unicode="&#x2d9;" horiz-adv-x="501" 
d="M250 1251q-56 0 -93.5 37.5t-37.5 93.5q0 57 38 96.5t93 39.5t95 -38.5t40 -97.5q0 -56 -40 -93.5t-95 -37.5z" />
    <glyph glyph-name="ringmod" unicode="&#x2da;" horiz-adv-x="583" 
d="M293 1212q-73 0 -126.5 53t-53.5 134q0 75 53 127.5t127 52.5q75 0 127.5 -56t52.5 -128q0 -76 -53 -129.5t-127 -53.5zM295 1317q29 0 53.5 23.5t24.5 56.5q0 31 -23.5 55.5t-54.5 24.5q-34 0 -56 -23.5t-22 -54.5q0 -35 21.5 -58.5t56.5 -23.5z" />
    <glyph glyph-name="ogonekmod" unicode="&#x2db;" horiz-adv-x="548" 
d="M305 -426q-84 0 -139 44t-55 136q0 62 36 127.5t101 118.5h131q-119 -81 -119 -190q0 -46 28.5 -72.5t71.5 -26.5q45 0 89 23v-129q-57 -26 -113 -29z" />
    <glyph glyph-name="tildemod" unicode="&#x2dc;" horiz-adv-x="905" 
d="M604 1219q-24 0 -46 3t-42.5 10.5t-35 13t-33 17.5t-27.5 18t-27 19.5l-22 16.5q-37 24 -62 24q-18 0 -32 -17.5t-31 -63.5h-137q0 94 59 160.5t154 66.5q27 0 55.5 -10t45.5 -19.5t50 -30.5q16 -10 37 -25t31.5 -22t24.5 -13t26 -7q22 0 39 19t31 71h131
q0 -111 -55 -171t-134 -60z" />
    <glyph glyph-name="doubleacutemod" unicode="&#x2dd;" horiz-adv-x="888" 
d="M246 1255h-146l121 281h236zM598 1255h-149l126 281h232z" />
    <glyph glyph-name="gravecomb" unicode="&#x300;" 
d="M0 1255h-109l-221 342h238z" />
    <glyph glyph-name="acutecomb" unicode="&#x301;" 
d="M-221 1255h-109l92 342h238z" />
    <glyph glyph-name="circumflexcomb" unicode="&#x302;" 
d="M0 1255h-203l-110 170l-113 -170h-207l217 281h191z" />
    <glyph glyph-name="tildecomb" unicode="&#x303;" 
d="M-188 1219q-28 0 -54.5 5.5t-44 11t-41.5 19t-33.5 19.5t-33 23t-27.5 20q-37 24 -63 24q-18 0 -31.5 -17.5t-30.5 -63.5h-137q0 94 59 160.5t154 66.5q27 0 55.5 -10t46.5 -20t50 -30q16 -10 37 -25t31 -22t24 -13t26 -7q22 0 39 19t31 71h131q0 -111 -54.5 -171
t-133.5 -60z" />
    <glyph glyph-name="macroncomb" unicode="&#x304;" 
d="M0 1278h-709v143h709v-143z" />
    <glyph glyph-name="brevecomb" unicode="&#x306;" 
d="M-295 1266q-267 0 -297 260h125q24 -135 166 -135q79 0 121 31.5t57 103.5h123q-14 -122 -88.5 -191t-206.5 -69z" />
    <glyph glyph-name="dotaccentcomb" unicode="&#x307;" 
d="M-135 1251q-55 0 -93 37.5t-38 93.5q0 57 38 96.5t93 39.5t95 -38.5t40 -97.5q0 -56 -40 -93.5t-95 -37.5z" />
    <glyph glyph-name="dieresiscomb" unicode="&#x308;" 
d="M-487 1319q-47 0 -80 33t-33 80q0 46 33 80t80 34t80.5 -33.5t33.5 -80.5t-34 -80t-80 -33zM-115 1319q-47 0 -79.5 33t-32.5 80q0 46 32.5 80t79.5 34t81 -33.5t34 -80.5t-34.5 -80t-80.5 -33z" />
    <glyph glyph-name="ringcomb" unicode="&#x30a;" 
d="M-180 1212q-73 0 -126.5 53t-53.5 134q0 75 53 127.5t127 52.5q75 0 127.5 -56t52.5 -128q0 -76 -53 -129.5t-127 -53.5zM-178 1317q29 0 53.5 23.5t24.5 56.5q0 31 -23.5 55.5t-54.5 24.5q-34 0 -56 -23.5t-22 -54.5q0 -35 21.5 -58.5t56.5 -23.5z" />
    <glyph glyph-name="doubleacutecomb" unicode="&#x30b;" 
d="M-561 1255h-146l121 281h236zM-209 1255h-149l127 281h231z" />
    <glyph glyph-name="caroncomb" unicode="&#x30c;" 
d="M-225 1255h-193l-215 281h205l113 -170l110 170h205z" />
    <glyph glyph-name="turnedcommacomb" unicode="&#x312;" 
d="M-264 -217h-17v78q70 10 109 40.5t39 98.5q-54 0 -93.5 37.5t-39.5 93.5q0 57 38 96t93 39q57 0 96 -38t39 -97v-22q0 -83 -22.5 -147.5t-60.5 -102.5t-84 -57t-97 -19z" />
    <glyph glyph-name="commaaccentcomb" unicode="&#x326;" 
d="M-264 -565h-17v78q70 10 109 40.5t39 98.5q-54 0 -93.5 37.5t-39.5 93.5q0 57 38 96t93 39q57 0 96 -38t39 -97v-23q0 -83 -22.5 -147.5t-60.5 -102t-84 -56.5t-97 -19z" />
    <glyph glyph-name="cedillacomb" unicode="&#x327;" 
d="M-303 -420q-69 0 -131 10l12 117l94 -4q160 0 160 76q0 32 -32.5 46.5t-125.5 20.5l54 177h133l-33 -107q85 -11 128.5 -52t43.5 -95q0 -53 -26.5 -91.5t-72 -58.5t-96 -29.5t-108.5 -9.5z" />
    <glyph glyph-name="ogonekcomb" unicode="&#x328;" 
d="M-481 -426q-84 0 -139.5 44t-55.5 136q0 62 36 127.5t101 118.5h131q-118 -80 -118 -190q0 -46 28.5 -72.5t71.5 -26.5q44 0 88 23v-129q-57 -26 -113 -29z" />
    <glyph glyph-name="strokeshortcomb" unicode="&#x335;" 
d="M0 459h-623v164h623v-164z" />
    <glyph glyph-name="strokelongcomb" unicode="&#x336;" 
d="M0 459h-1282v164h1282v-164z" />
    <glyph glyph-name="solidusshortcomb" unicode="&#x337;" 
d="M-590 455l-6 209l592 366l4 -211z" />
    <glyph glyph-name="soliduslongcomb" unicode="&#x338;" 
d="M-799 -25h-207l801 1516h205z" />
    <glyph glyph-name="Wgrave" unicode="&#x1e80;" horiz-adv-x="2000" 
d="M1049 1585h-109l-221 342h237zM1456 0h-174l-283 1083l-280 -1083h-174l-443 1450h195l330 -1141l278 1141h191l278 -1135l330 1135h194z" />
    <glyph glyph-name="wgrave" unicode="&#x1e81;" horiz-adv-x="1763" 
d="M930 1214h-109l-221 342h238zM1337 0h-196l-258 819l-260 -819h-197l-358 1079h200l256 -848l258 848h201l256 -852l256 852h201z" />
    <glyph glyph-name="Wacute" unicode="&#x1e82;" horiz-adv-x="2000" 
d="M1063 1585h-109l93 342h237zM1456 0h-174l-283 1083l-280 -1083h-174l-443 1450h195l330 -1141l278 1141h191l278 -1135l330 1135h194z" />
    <glyph glyph-name="wacute" unicode="&#x1e83;" horiz-adv-x="1763" 
d="M944 1214h-108l92 342h237zM1337 0h-196l-258 819l-260 -819h-197l-358 1079h200l256 -848l258 848h201l256 -852l256 852h201z" />
    <glyph glyph-name="Wdieresis" unicode="&#x1e84;" horiz-adv-x="2000" 
d="M813 1649q-47 0 -80 32.5t-33 79.5q0 46 33 80.5t80 34.5t81 -34t34 -81t-34.5 -79.5t-80.5 -32.5zM1186 1649q-47 0 -80 32.5t-33 79.5q0 46 33 80.5t80 34.5t80.5 -34t33.5 -81t-34 -79.5t-80 -32.5zM1456 0h-174l-283 1083l-280 -1083h-174l-443 1450h195l330 -1141
l278 1141h191l278 -1135l330 1135h194z" />
    <glyph glyph-name="wdieresis" unicode="&#x1e85;" horiz-adv-x="1763" 
d="M694 1278q-47 0 -79.5 33t-32.5 80q0 46 32.5 80t79.5 34t81 -33.5t34 -80.5t-34.5 -80t-80.5 -33zM1067 1278q-47 0 -80 33t-33 80q0 46 33 80t80 34t81 -33.5t34 -80.5t-34.5 -80t-80.5 -33zM1337 0h-196l-258 819l-260 -819h-197l-358 1079h200l256 -848l258 848h201
l256 -852l256 852h201z" />
    <glyph glyph-name="Ygrave" unicode="&#x1ef2;" horiz-adv-x="1169" 
d="M635 1585h-109l-221 342h238zM678 0h-186v682l-394 768h209l279 -578l276 578h209l-393 -768v-682z" />
    <glyph glyph-name="ygrave" unicode="&#x1ef3;" horiz-adv-x="1153" 
d="M625 1214h-109l-221 342h237zM127 -446v192q27 -4 76 -4q32 0 60.5 5.5t49.5 12t41 22t33 26t27.5 34t22 35.5t18.5 40.5t15 40t15 42.5l-329 840l-90 239h208l78 -221l228 -598l297 819h210l-88 -243l-321 -850q-53 -136 -88 -203q-67 -122 -168.5 -175.5t-294.5 -53.5z
" />
    <glyph glyph-name="endash" unicode="&#x2013;" horiz-adv-x="1376" 
d="M1225 459h-1073v164h1073v-164z" />
    <glyph glyph-name="emdash" unicode="&#x2014;" horiz-adv-x="2134" 
d="M1982 459h-1830v164h1830v-164z" />
    <glyph glyph-name="quoteleft" unicode="&#x2018;" horiz-adv-x="567" 
d="M279 954q-56 0 -96 39.5t-40 96.5v22q0 84 23 148.5t62 102t84.5 56.5t95.5 19h16v-78q-74 -10 -111 -40.5t-37 -98.5q56 0 95 -37.5t39 -93.5q0 -59 -37.5 -97.5t-93.5 -38.5z" />
    <glyph glyph-name="quoteright" unicode="&#x2019;" horiz-adv-x="567" 
d="M160 1004h-17v77q70 10 109 41t39 99q-54 0 -93.5 37.5t-39.5 93.5q0 57 38 96t93 39q57 0 96 -38t39 -97v-23q0 -83 -22.5 -147.5t-60.5 -102t-84 -56.5t-97 -19z" />
    <glyph glyph-name="quotesinglbase" unicode="&#x201a;" horiz-adv-x="567" 
d="M160 -217h-17v78q70 10 109 40.5t39 98.5q-54 0 -93.5 37.5t-39.5 93.5q0 57 38 96t93 39q57 0 96 -38t39 -97q0 -132 -50 -219t-126 -115q-41 -14 -88 -14z" />
    <glyph glyph-name="quotedblleft" unicode="&#x201c;" horiz-adv-x="956" 
d="M279 954q-56 0 -96 39.5t-40 96.5v22q0 84 23 148.5t62 102t84.5 56.5t95.5 19h16v-78q-74 -10 -111 -40.5t-37 -98.5q56 0 95 -37.5t39 -93.5q0 -59 -37.5 -97.5t-93.5 -38.5zM668 954q-56 0 -96 39.5t-40 96.5v22q0 84 23 148.5t62 102t84.5 56.5t95.5 19h16v-78
q-73 -10 -110 -40.5t-37 -98.5q56 0 94.5 -37.5t38.5 -93.5q0 -59 -37.5 -97.5t-93.5 -38.5z" />
    <glyph glyph-name="quotedblright" unicode="&#x201d;" horiz-adv-x="956" 
d="M160 1004h-17v77q70 10 109 41t39 99q-54 0 -93.5 37.5t-39.5 93.5q0 57 38 96t93 39q57 0 96 -38t39 -97v-23q0 -83 -22.5 -147.5t-60.5 -102t-84 -56.5t-97 -19zM549 1004h-17v77q70 10 109 41t39 99q-54 0 -93.5 37.5t-39.5 93.5q0 57 38 96t93 39q57 0 96 -38t39 -97
v-23q0 -83 -22.5 -147.5t-60.5 -102t-84 -56.5t-97 -19z" />
    <glyph glyph-name="quotedblbase" unicode="&#x201e;" horiz-adv-x="956" 
d="M160 -217h-17v78q70 10 109 40.5t39 98.5q-54 0 -93.5 37.5t-39.5 93.5q0 57 38 96t93 39q57 0 96 -38t39 -97v-22q0 -83 -22.5 -147.5t-60.5 -102.5t-84 -57t-97 -19zM549 -217h-17v78q70 10 109 40.5t39 98.5q-54 0 -93.5 37.5t-39.5 93.5q0 57 38 96t93 39
q57 0 96 -38t39 -97v-22q0 -83 -22.5 -147.5t-60.5 -102.5t-84 -57t-97 -19z" />
    <glyph glyph-name="dagger" unicode="&#x2020;" horiz-adv-x="1263" 
d="M719 -346h-180v1212h-398v160h398v406h180v-406h403v-160h-403v-1212z" />
    <glyph glyph-name="daggerdbl" unicode="&#x2021;" horiz-adv-x="1296" 
d="M737 -346h-180v371h-401v159h401v725h-401v162h401v375h180v-375h404v-162h-404v-725h404v-159h-404v-371z" />
    <glyph glyph-name="bullet" unicode="&#x2022;" horiz-adv-x="851" 
d="M426 459q-107 0 -183.5 74t-76.5 186q0 104 73.5 180t186.5 76q109 0 184.5 -76.5t75.5 -179.5q0 -107 -78 -183.5t-182 -76.5z" />
    <glyph glyph-name="ellipsis" unicode="&#x2026;" horiz-adv-x="1542" 
d="M297 0q-47 0 -80 33t-33 80q0 46 33 80t80 34t81 -33.5t34 -80.5t-34.5 -80t-80.5 -33zM770 0q-47 0 -80 33t-33 80q0 46 33 80t80 34t81 -33.5t34 -80.5t-34.5 -80t-80.5 -33zM1243 0q-47 0 -80 33t-33 80q0 46 33 80t80 34t81 -33.5t34 -80.5t-34.5 -80t-80.5 -33z" />
    <glyph glyph-name="perthousand" unicode="&#x2030;" horiz-adv-x="2523" 
d="M465 717q-133 0 -221 100.5t-88 296.5q0 165 80.5 271t226.5 106q140 0 229.5 -99t89.5 -288q0 -184 -89.5 -285.5t-227.5 -101.5zM420 -53h-162l1110 1544h158zM469 840q76 0 117 63t41 207q0 132 -42.5 194t-115.5 62q-76 0 -116 -63.5t-40 -206.5q0 -132 41.5 -194
t114.5 -62zM1333 -53q-133 0 -221 100.5t-88 296.5q0 165 80.5 271t226.5 106q140 0 230 -99t90 -288q0 -184 -90 -285.5t-228 -101.5zM2050 -53q-133 0 -221 100.5t-88 296.5q0 165 80.5 271t226.5 106q140 0 229.5 -99t89.5 -288q0 -184 -89.5 -285.5t-227.5 -101.5z
M1337 70q76 0 117 63t41 207q0 132 -42.5 194t-115.5 62q-76 0 -115.5 -63.5t-39.5 -206.5q0 -256 155 -256zM2054 70q76 0 117 63t41 207q0 132 -42.5 194t-115.5 62q-76 0 -116 -63.5t-40 -206.5q0 -132 41.5 -194t114.5 -62z" />
    <glyph glyph-name="guilsinglleft" unicode="&#x2039;" horiz-adv-x="991" 
d="M868 123l-766 518v168l766 512v-178l-626 -418l626 -422v-180z" />
    <glyph glyph-name="guilsinglright" unicode="&#x203a;" horiz-adv-x="991" 
d="M123 123v180l627 422l-627 418v178l766 -512v-168z" />
    <glyph glyph-name="fraction" unicode="&#x2044;" horiz-adv-x="630" 
d="M176 -45h-145l426 1515h143z" />
    <glyph glyph-name="euro" unicode="&#x20ac;" horiz-adv-x="1374" 
d="M766 -29q-398 0 -473 529h-113v168h99q0 100 4 194h-103v168h125q94 449 461 449q272 0 395 -252l-170 -86q-21 62 -64.5 103.5t-84 56t-76.5 14.5q-78 0 -139 -42.5t-94.5 -104.5t-47.5 -138h375v-168h-397q-4 -46 -4 -76v-118h401v-168h-389q9 -62 22 -112.5t36.5 -99
t55 -81t78 -52.5t103.5 -20q206 0 270 246h181q-98 -410 -451 -410z" />
    <glyph glyph-name="trademark" unicode="&#x2122;" horiz-adv-x="1474" 
d="M412 797h-82v579h-180v74h440v-74h-178v-579zM1241 797h-82v506l-180 -439h-31l-180 441v-508h-82v653h107l170 -418l170 418h108v-653z" />
    <glyph glyph-name="leftwardsarrow" unicode="&#x2190;" horiz-adv-x="1597" 
d="M733 121l-713 551v102l713 545v-234l-424 -272h1268v-186h-1262l418 -271v-235z" />
    <glyph glyph-name="upwardsarrow" unicode="&#x2191;" horiz-adv-x="1239" 
d="M713 0h-187v1268l-272 -424h-234l545 712h103l551 -712h-236l-270 418v-1262z" />
    <glyph glyph-name="rightwardsarrow" unicode="&#x2192;" horiz-adv-x="1597" 
d="M864 121v235l418 271h-1262v186h1268l-424 272v234l713 -545v-102z" />
    <glyph glyph-name="downwardsarrow" unicode="&#x2193;" horiz-adv-x="1239" 
d="M668 -106h-103l-545 712h234l272 -424v1268h187v-1262l270 418h236z" />
    <glyph glyph-name="leftrightarrow" unicode="&#x2194;" horiz-adv-x="1693" 
d="M1149 172v234l313 272h-1231l314 -272v-234l-525 545v102l525 551v-235l-307 -271h1218l-307 271v235l524 -551v-102z" />
    <glyph glyph-name="updownarrow" unicode="&#x2195;" horiz-adv-x="1239" 
d="M668 -96h-103l-545 524h234l272 -313v1231l-272 -314h-234l545 524h103l551 -524h-236l-270 307v-1218l270 307h236z" />
    <glyph glyph-name="northwestarrow" unicode="&#x2196;" horiz-adv-x="1241" 
d="M1090 145l-891 891l102 -485l-166 -166l-115 893l72 72l891 -119l-166 -164l-493 109l897 -900z" />
    <glyph glyph-name="northeastarrow" unicode="&#x2197;" horiz-adv-x="1241" 
d="M152 145l-132 131l898 900l-494 -109l-166 164l891 119l72 -72l-115 -893l-166 166l102 485z" />
    <glyph glyph-name="southeastarrow" unicode="&#x2198;" horiz-adv-x="1245" 
d="M1153 92l-893 115l166 166l485 -103l-891 891l132 131l899 -897l-109 494l164 166l119 -891z" />
    <glyph glyph-name="southwestarrow" unicode="&#x2199;" horiz-adv-x="1245" 
d="M92 92l-72 72l119 891l164 -166l-108 -494l899 897l131 -131l-891 -891l485 103l166 -166z" />
    <glyph glyph-name="eight.osf" horiz-adv-x="1159" 
d="M580 -23q-64 0 -127 15.5t-123 50t-106 83.5t-73.5 121.5t-27.5 158.5q0 56 10.5 106.5t35.5 101.5t72.5 94t114.5 70q-96 48 -145 129.5t-49 182.5q0 95 36.5 171.5t97.5 122.5t133.5 70.5t150.5 24.5t150.5 -24.5t133 -70.5t97 -122.5t36.5 -171.5q0 -101 -49.5 -182.5
t-146.5 -129.5q65 -26 112.5 -68.5t73 -93.5t37.5 -103t12 -107q0 -103 -40 -187t-106 -135.5t-146 -79t-164 -27.5zM580 856q239 0 239 234q0 102 -72.5 163.5t-166.5 61.5q-97 0 -168.5 -62t-71.5 -163q0 -234 240 -234zM580 137q50 0 98 17.5t89 50t66 86.5t25 121
q0 49 -18 97.5t-51.5 89t-88 66t-120.5 25.5q-67 0 -122 -25.5t-88.5 -66.5t-51 -89t-17.5 -97q0 -126 84.5 -200.5t194.5 -74.5z" />
    <glyph glyph-name="f_i" horiz-adv-x="1171" 
d="M1042 0h-180v907h-411v-907h-181v907h-198v172h198v170q0 100 62.5 191t167.5 143q107 52 248 55q139 0 294 -82v-174q-144 82 -294 82q-136 0 -216.5 -68.5t-80.5 -166.5v-150h591v-1079z" />
    <glyph glyph-name="f_l" horiz-adv-x="1318" 
d="M1163 0h-180v1430q-112 36 -262 36q-69 0 -128.5 -24.5t-100.5 -80t-41 -132.5v-150h309v-172h-309v-907h-181v907h-198v172h198v170q0 174 138 279.5t364 105.5q103 -2 190 -19t201 -59v-1556z" />
    <glyph glyph-name="five.osf" horiz-adv-x="1142" 
d="M567 -385q-176 0 -308 118t-138 290h180q6 -114 85.5 -182t178.5 -68q106 0 186.5 76.5t98.5 224.5q4 50 4 69q0 86 -26 151.5t-69.5 102t-94.5 54.5t-107 18q-54 -3 -84.5 -9.5t-64.5 -25.5q-55 -28 -82 -72l-187 -10l54 729h745v-163h-578l-26 -398q35 44 105 70.5
t165 27.5q309 0 406 -278q22 -67 22 -176q0 -175 -57 -295q-63 -128 -171.5 -191t-236.5 -63z" />
    <glyph glyph-name="four.osf" horiz-adv-x="1259" 
d="M938 -356h-180v356h-664v86l611 1008h233v-930h225v-164h-225v-356zM758 164v717l-416 -717h416z" />
    <glyph glyph-name="i.loclTRK" horiz-adv-x="491" 
d="M244 1210q-56 0 -93.5 38t-37.5 93q0 57 38 96.5t93 39.5t95 -38.5t40 -97.5q0 -56 -40 -93.5t-95 -37.5zM336 0h-180v1081h180v-1081z" />
    <glyph glyph-name="nine.osf" horiz-adv-x="1140" 
d="M561 -377q-77 0 -147 23.5t-126.5 68.5t-90 119.5t-33.5 167.5h178q6 -135 111 -190q67 -31 118 -31q51 3 82.5 15t65.5 44q50 50 78 133.5t28 188.5v139q-39 -69 -114.5 -106t-151.5 -37q-166 0 -289 113.5t-149 269.5q-6 43 -6 88q0 73 15 143t49 135.5t82 114.5
t120 78.5t158 29.5q103 0 182.5 -29t131 -78.5t84.5 -120.5t46.5 -148.5t13.5 -169.5l2 -265q0 -233 -30 -360q-73 -336 -408 -336zM561 326q71 0 124 26t82.5 71.5t43.5 99.5t14 118q0 48 -8.5 94t-29 91t-51.5 79t-79 55t-108 21q-83 0 -144.5 -50t-89.5 -123t-28 -155
q0 -62 16 -118.5t48 -104t86.5 -76t123.5 -28.5z" />
    <glyph glyph-name="one.osf" horiz-adv-x="909" 
d="M811 0h-692v164h256v713l-256 -144v205l297 164h139v-938h256v-164z" />
    <glyph glyph-name="seven.osf" horiz-adv-x="1013" 
d="M430 -369h-192l481 1266h-619v184h807v-184z" />
    <glyph glyph-name="six.osf" horiz-adv-x="1153" 
d="M608 -29q-100 0 -180 33t-131 87t-85 126.5t-48 147t-14 153.5v359q0 375 163 522q89 80 273 80q111 0 199.5 -42t143 -129.5t54.5 -207.5h-178q-3 105 -65.5 160t-155.5 55q-135 0 -198.5 -94t-63.5 -281v-127q103 131 307 131q100 0 179 -40.5t126.5 -108t72.5 -150.5
t25 -174q0 -99 -27.5 -188t-79 -159t-134 -111.5t-183.5 -41.5zM588 121q123 0 198.5 94t75.5 229q-3 227 -155 306q-51 26 -121 26q-60 0 -107 -19t-76 -50t-47.5 -73t-26 -84.5t-7.5 -88.5q0 -50 7.5 -95.5t27 -91t49 -79t76.5 -54t106 -20.5z" />
    <glyph glyph-name="slashaccent" horiz-adv-x="503" 
d="M0 1217v143l504 205v-144z" />
    <glyph glyph-name="three.osf" horiz-adv-x="1134" 
d="M582 -391q-71 1 -138.5 16.5t-130 48.5t-109.5 80t-76.5 116.5t-31.5 152.5h180q6 -63 33.5 -113t69 -80t89 -45.5t97.5 -15.5q105 0 182.5 71t77.5 193q0 72 -27.5 126t-69.5 84t-101.5 49t-111.5 24.5t-112 5.5v165q78 4 134 12.5t116.5 36.5t98.5 74q34 46 34 119
q0 104 -69 160.5t-168 56.5q-97 0 -168.5 -59t-71.5 -156h-178q12 174 131 276.5t293 102.5q170 0 297 -92q133 -113 133 -289q0 -240 -242 -321q281 -109 281 -381q0 -130 -63 -227t-162 -144t-217 -47z" />
    <glyph glyph-name="two.osf" horiz-adv-x="1069" 
d="M946 0h-827v164q0 189 164 293q46 29 116 56t126.5 47t109.5 45.5t83 65t30 93.5q0 87 -63 133.5t-155 46.5q-87 0 -153 -45.5t-66 -134.5h-178q0 92 36 161t95.5 107.5t126.5 57t139 18.5q54 0 108.5 -10.5t111 -36t99.5 -64t70 -99.5t27 -136q0 -72 -28 -130t-73.5 -95
t-103.5 -68.5t-118.5 -52t-118.5 -45t-103.5 -47.5t-73.5 -59t-28 -81h647v-184z" />
    <glyph glyph-name="zero.osf" horiz-adv-x="1171" 
d="M586 -29q-104 0 -187 35.5t-134.5 91.5t-85 132t-47 151.5t-13.5 155.5t13 155t46.5 151.5t84.5 132.5t134 91t189 35q104 0 187 -35t134.5 -91.5t85 -132t47 -151t13.5 -155.5t-13 -155t-46.5 -151.5t-84.5 -132.5t-134 -91.5t-189 -35.5zM586 135q150 0 218 102.5
t68 299.5q0 196 -68 298.5t-218 102.5t-218.5 -102.5t-68.5 -298.5t68.5 -299t218.5 -103z" />
    </font>
</defs>
</svg>
